*
G04 Mass Parameters ***
*
G04 Image ***
*
%IND:\UTENTI\00.LAVORI IN CORSO\METALTRONICA\22-313-0\22-313-0.AST*%
%ICAS*%
%MOIN*%
%IPPOS*%
%ASAXBY*%
G74*%FSLAN2X34Y34*%
*
G04 Aperture Definitions ***
*
%ADD10C,0.0394*%
%ADD11R,0.0380X0.0320*%
%ADD12R,0.0886X0.0905*%
%ADD13R,0.1024X0.0510*%
%ADD14R,0.0197X0.0315*%
%ADD15R,0.0501X0.0404*%
%ADD16R,0.0527X0.0630*%
%ADD17R,0.1913X0.1496*%
%ADD18C,0.2756*%
%ADD19C,0.0787*%
%ADD20C,0.0512*%
%ADD21R,0.0787X0.0787*%
%ADD22O,0.0787X0.1181*%
%ADD23C,0.0669*%
%ADD24R,0.0669X0.0669*%
%ADD25C,0.0590*%
%ADD26R,0.0590X0.0590*%
%ADD27C,0.1200*%
%ADD28R,0.1200X0.1200*%
%ADD29C,0.0866*%
%ADD30C,0.1000*%
%ADD31R,0.1000X0.1000*%
%ADD32C,0.0610*%
%ADD33R,0.0610X0.0610*%
%ADD34C,0.1181*%
%ADD35C,0.0984*%
%ADD36R,0.0984X0.0984*%
%ADD37R,0.0630X0.0630*%
%ADD38C,0.0630*%
%ADD39C,0.1299*%
%ADD40C,0.0187*%
%ADD41R,0.0500X0.0400*%
%ADD42R,0.0354X0.0315*%
%ADD43R,0.0710X0.0400*%
%ADD44R,0.1080X0.0850*%
%ADD45R,0.0177X0.0394*%
%ADD46C,0.0800*%
%ADD47R,0.0236X0.0512*%
%ADD48C,0.0276*%
%ADD49C,0.0050*%
%ADD50C,0.0100*%
%ADD51C,0.0080*%
%ADD52C,0.0276*%
%ADD53C,0.0300*%
%ADD54C,0.0120*%
%ADD55C,0.0200*%
%ADD56C,0.0500*%
%ADD57C,0.0250*%
%ADD58C,0.1000*%
%ADD59C,0.0150*%
%ADD60C,0.0276*%
%ADD61C,0.0276*%
%ADD62R,0.0354X0.0354*%
%ADD63C,0.0060*%
%ADD64C,0.0059*%
%ADD65C,0.0079*%
%ADD66C,0.0078*%
*
G04 Plot Data ***
*
G54D50*
G01X0033642Y0006958D02*
X0033475D01*
X0033558D02*
Y0007458D01*
X0033475Y0007375D01*
X0032792Y0004908D02*
X0032625D01*
X0032708D02*
Y0005408D01*
X0032625Y0005325D01*
X0030292Y0004908D02*
X0030125D01*
X0030208D02*
Y0005408D01*
X0030125Y0005325D01*
X0006892Y0002058D02*
X0006725D01*
X0006808D02*
Y0002558D01*
X0006725Y0002475D01*
X0012642Y0000558D02*
X0012475D01*
X0012558D02*
Y0001058D01*
X0012475Y0000975D01*
X0019592Y0000708D02*
X0019425D01*
X0019508D02*
Y0001208D01*
X0019425Y0001125D01*
X0014042Y0011908D02*
X0013875D01*
X0013958D02*
Y0012408D01*
X0013875Y0012325D01*
X0013042Y0011158D02*
X0012875D01*
X0012958D02*
Y0011658D01*
X0012875Y0011575D01*
X0002342Y0011208D02*
X0002175D01*
X0002258D02*
Y0011708D01*
X0002175Y0011625D01*
X0013142Y0006958D02*
X0012975D01*
X0013058D02*
Y0007458D01*
X0012975Y0007375D01*
X0019742Y0006858D02*
X0019575D01*
X0019658D02*
Y0007358D01*
X0019575Y0007275D01*
X0025042Y0000558D02*
X0024875D01*
X0024958D02*
Y0001058D01*
X0024875Y0000975D01*
X0031772Y0012320D02*
Y0015172D01*
X0035214D01*
Y0012319D01*
X0031811Y0012320D01*
X0031772D01*
G54D56*
G01X0000000Y0015748D02*
Y0000000D01*
X0039350D01*
Y0015748D01*
X0000000D01*
G54D63*
G01X0025883Y0004473D02*
Y0004380D01*
Y0004427D02*
X0025483D01*
X0025550Y0004380D01*
Y0004190D02*
X0025483Y0004167D01*
Y0004027D01*
X0025550Y0004003D01*
X0025617D01*
X0025683Y0004027D01*
Y0004167D01*
X0025750Y0004190D01*
X0025817D01*
X0025883Y0004167D01*
Y0004027D01*
X0025817Y0004003D01*
X0025883Y0003697D02*
X0025483D01*
X0025883Y0003673D02*
Y0003813D01*
X0025750Y0003860D01*
X0025617D01*
X0025483Y0003813D01*
Y0003673D01*
X0004611Y0002567D02*
X0004678Y0002614D01*
Y0002707D01*
X0004611Y0002754D01*
X0004544D01*
X0004411Y0002660D01*
X0004278Y0002754D01*
Y0002567D01*
X0004544Y0002260D02*
X0004611D01*
X0004678Y0002284D01*
Y0002377D01*
X0004611Y0002400D01*
X0004278D01*
Y0002424D02*
Y0002330D01*
X0028685Y0008331D02*
X0028285Y0008471D01*
Y0008284D01*
X0028685Y0008141D02*
Y0008048D01*
Y0008094D02*
X0028285D01*
X0028352Y0008048D01*
X0028485Y0007788D02*
X0028685Y0007858D01*
X0028485Y0007671D02*
Y0007811D01*
X0028419Y0007858D01*
X0028352D01*
X0028285Y0007811D01*
Y0007671D01*
X0028685D01*
X0031481Y0010652D02*
X0031414Y0010675D01*
X0031348D01*
X0031281Y0010652D01*
Y0010512D01*
X0031348Y0010489D01*
X0031414D01*
X0031481Y0010512D01*
Y0010652D01*
X0031548Y0010675D01*
X0031614D01*
X0031681Y0010652D01*
Y0010512D01*
X0031614Y0010489D01*
X0031548D01*
X0031481Y0010512D01*
X0031681Y0010345D02*
Y0010252D01*
Y0010299D02*
X0031281D01*
X0031348Y0010252D01*
X0031481Y0009992D02*
X0031681Y0010062D01*
X0031481Y0009875D02*
Y0010015D01*
X0031414Y0010062D01*
X0031348D01*
X0031281Y0010015D01*
Y0009875D01*
X0031681D01*
X0029235Y0008098D02*
Y0007958D01*
X0029169Y0007934D01*
X0029102D01*
X0029035Y0007958D01*
Y0008098D01*
X0029102Y0008121D01*
X0029169D01*
X0029435Y0008028D01*
Y0007791D02*
Y0007698D01*
Y0007744D02*
X0029035D01*
X0029102Y0007698D01*
X0029235Y0007438D02*
X0029435Y0007508D01*
X0029235Y0007321D02*
Y0007461D01*
X0029169Y0007508D01*
X0029102D01*
X0029035Y0007461D01*
Y0007321D01*
X0029435D01*
X0030181Y0010555D02*
X0030114Y0010509D01*
X0030048Y0010485D01*
X0029914D01*
X0029848Y0010509D01*
X0029781Y0010555D01*
Y0010602D01*
X0029848Y0010649D01*
X0029914Y0010672D01*
X0030048D01*
X0030114Y0010649D01*
X0030181Y0010602D01*
Y0010555D01*
Y0010342D02*
Y0010155D01*
X0029914Y0010342D01*
X0029848D01*
X0029781Y0010319D01*
Y0010179D01*
X0029848Y0010155D01*
X0029981Y0009942D02*
X0030181Y0010012D01*
X0029981Y0009825D02*
Y0009965D01*
X0029914Y0010012D01*
X0029848D01*
X0029781Y0009965D01*
Y0009825D01*
X0030181D01*
X0028681Y0007175D02*
Y0007082D01*
Y0007129D02*
X0028281D01*
X0028348Y0007082D01*
X0028681Y0006892D02*
Y0006705D01*
X0028414Y0006892D01*
X0028348D01*
X0028281Y0006869D01*
Y0006729D01*
X0028348Y0006705D01*
X0028481Y0006492D02*
X0028681Y0006562D01*
X0028481Y0006375D02*
Y0006515D01*
X0028414Y0006562D01*
X0028348D01*
X0028281Y0006515D01*
Y0006375D01*
X0028681D01*
X0030864Y0007435D02*
X0030931Y0007482D01*
Y0007575D01*
X0030864Y0007622D01*
X0030798D01*
X0030664Y0007529D01*
X0030531Y0007622D01*
Y0007435D01*
X0030931Y0007292D02*
Y0007105D01*
X0030664Y0007292D01*
X0030598D01*
X0030531Y0007269D01*
Y0007129D01*
X0030598Y0007105D01*
X0030731Y0006892D02*
X0030931Y0006962D01*
X0030731Y0006775D02*
Y0006915D01*
X0030664Y0006962D01*
X0030598D01*
X0030531Y0006915D01*
Y0006775D01*
X0030931D01*
X0031498Y0008122D02*
Y0007935D01*
X0031231Y0008029D01*
Y0008075D01*
X0031631D01*
Y0007792D02*
Y0007605D01*
X0031364Y0007792D01*
X0031298D01*
X0031231Y0007769D01*
Y0007629D01*
X0031298Y0007605D01*
X0031431Y0007392D02*
X0031631Y0007462D01*
X0031431Y0007275D02*
Y0007415D01*
X0031364Y0007462D01*
X0031298D01*
X0031231Y0007415D01*
Y0007275D01*
X0031631D01*
X0030869Y0010481D02*
X0030935Y0010504D01*
Y0010644D01*
X0030869Y0010668D01*
X0030735D01*
X0030669Y0010621D01*
Y0010481D01*
X0030535D01*
Y0010668D01*
X0030935Y0010338D02*
Y0010151D01*
X0030669Y0010338D01*
X0030602D01*
X0030535Y0010314D01*
Y0010174D01*
X0030602Y0010151D01*
X0030735Y0009938D02*
X0030935Y0010008D01*
X0030735Y0009821D02*
Y0009961D01*
X0030669Y0010008D01*
X0030602D01*
X0030535Y0009961D01*
Y0009821D01*
X0030935D01*
X0030181Y0014709D02*
Y0014849D01*
X0030248Y0014872D01*
X0030314D01*
X0030381Y0014849D01*
Y0014709D01*
X0030314Y0014685D01*
X0030248D01*
X0029981Y0014779D01*
X0030381Y0014542D02*
Y0014355D01*
X0030114Y0014542D01*
X0030048D01*
X0029981Y0014519D01*
Y0014379D01*
X0030048Y0014355D01*
X0030181Y0014142D02*
X0030381Y0014212D01*
X0030181Y0014025D02*
Y0014165D01*
X0030114Y0014212D01*
X0030048D01*
X0029981Y0014165D01*
Y0014025D01*
X0030381D01*
X0025985Y0011778D02*
X0025585Y0011918D01*
Y0011731D01*
X0025985Y0011588D02*
Y0011401D01*
X0025719Y0011588D01*
X0025652D01*
X0025585Y0011564D01*
Y0011424D01*
X0025652Y0011401D01*
X0025785Y0011188D02*
X0025985Y0011258D01*
X0025785Y0011071D02*
Y0011211D01*
X0025719Y0011258D01*
X0025652D01*
X0025585Y0011211D01*
Y0011071D01*
X0025985D01*
X0034735Y0011044D02*
X0034669Y0011068D01*
X0034602D01*
X0034535Y0011044D01*
Y0010904D01*
X0034602Y0010881D01*
X0034669D01*
X0034735Y0010904D01*
Y0011044D01*
X0034802Y0011068D01*
X0034869D01*
X0034935Y0011044D01*
Y0010904D01*
X0034869Y0010881D01*
X0034802D01*
X0034735Y0010904D01*
X0034935Y0010738D02*
Y0010551D01*
X0034669Y0010738D01*
X0034602D01*
X0034535Y0010714D01*
Y0010574D01*
X0034602Y0010551D01*
X0034735Y0010338D02*
X0034935Y0010408D01*
X0034735Y0010221D02*
Y0010361D01*
X0034669Y0010408D01*
X0034602D01*
X0034535Y0010361D01*
Y0010221D01*
X0034935D01*
X0009985Y0007394D02*
Y0007254D01*
X0009919Y0007231D01*
X0009852D01*
X0009785Y0007254D01*
Y0007394D01*
X0009852Y0007418D01*
X0009919D01*
X0010185Y0007324D01*
Y0007088D02*
Y0006901D01*
X0009919Y0007088D01*
X0009852D01*
X0009785Y0007064D01*
Y0006924D01*
X0009852Y0006901D01*
X0009985Y0006688D02*
X0010185Y0006758D01*
X0009985Y0006571D02*
Y0006711D01*
X0009919Y0006758D01*
X0009852D01*
X0009785Y0006711D01*
Y0006571D01*
X0010185D01*
X0013435Y0006551D02*
X0013369Y0006504D01*
X0013302Y0006481D01*
X0013169D01*
X0013102Y0006504D01*
X0013035Y0006551D01*
Y0006598D01*
X0013102Y0006644D01*
X0013169Y0006668D01*
X0013302D01*
X0013369Y0006644D01*
X0013435Y0006598D01*
Y0006551D01*
X0013369Y0006151D02*
X0013435Y0006198D01*
Y0006291D01*
X0013369Y0006338D01*
X0013302D01*
X0013169Y0006244D01*
X0013035Y0006338D01*
Y0006151D01*
X0013235Y0005938D02*
X0013435Y0006008D01*
X0013235Y0005821D02*
Y0005961D01*
X0013169Y0006008D01*
X0013102D01*
X0013035Y0005961D01*
Y0005821D01*
X0013435D01*
X0017881Y0007075D02*
Y0006982D01*
Y0007029D02*
X0017481D01*
X0017548Y0006982D01*
X0017814Y0006605D02*
X0017881Y0006652D01*
Y0006745D01*
X0017814Y0006792D01*
X0017748D01*
X0017614Y0006699D01*
X0017481Y0006792D01*
Y0006605D01*
X0017681Y0006392D02*
X0017881Y0006462D01*
X0017681Y0006275D02*
Y0006415D01*
X0017614Y0006462D01*
X0017548D01*
X0017481Y0006415D01*
Y0006275D01*
X0017881D01*
X0010131Y0003372D02*
Y0003185D01*
X0009864Y0003372D01*
X0009798D01*
X0009731Y0003349D01*
Y0003209D01*
X0009798Y0003185D01*
X0010064Y0002855D02*
X0010131Y0002902D01*
Y0002995D01*
X0010064Y0003042D01*
X0009998D01*
X0009864Y0002949D01*
X0009731Y0003042D01*
Y0002855D01*
X0009931Y0002642D02*
X0010131Y0002712D01*
X0009931Y0002525D02*
Y0002665D01*
X0009864Y0002712D01*
X0009798D01*
X0009731Y0002665D01*
Y0002525D01*
X0010131D01*
X0010348Y0005422D02*
Y0005235D01*
X0010081Y0005329D01*
Y0005375D01*
X0010481D01*
X0010414Y0004905D02*
X0010481Y0004952D01*
Y0005045D01*
X0010414Y0005092D01*
X0010348D01*
X0010214Y0004999D01*
X0010081Y0005092D01*
Y0004905D01*
X0010281Y0004692D02*
X0010481Y0004762D01*
X0010281Y0004575D02*
Y0004715D01*
X0010214Y0004762D01*
X0010148D01*
X0010081Y0004715D01*
Y0004575D01*
X0010481D01*
X0015064Y0004935D02*
X0015131Y0004959D01*
Y0005099D01*
X0015064Y0005122D01*
X0014931D01*
X0014864Y0005075D01*
Y0004935D01*
X0014731D01*
Y0005122D01*
X0015064Y0004605D02*
X0015131Y0004652D01*
Y0004745D01*
X0015064Y0004792D01*
X0014998D01*
X0014864Y0004699D01*
X0014731Y0004792D01*
Y0004605D01*
X0014931Y0004392D02*
X0015131Y0004462D01*
X0014931Y0004275D02*
Y0004415D01*
X0014864Y0004462D01*
X0014798D01*
X0014731Y0004415D01*
Y0004275D01*
X0015131D01*
X0010481Y0010032D02*
X0010081Y0010172D01*
Y0009985D01*
X0010414Y0009655D02*
X0010481Y0009702D01*
Y0009795D01*
X0010414Y0009842D01*
X0010348D01*
X0010214Y0009749D01*
X0010081Y0009842D01*
Y0009655D01*
X0010281Y0009442D02*
X0010481Y0009512D01*
X0010281Y0009325D02*
Y0009465D01*
X0010214Y0009512D01*
X0010148D01*
X0010081Y0009465D01*
Y0009325D01*
X0010481D01*
X0011031Y0010149D02*
X0010964Y0010172D01*
X0010898D01*
X0010831Y0010149D01*
Y0010009D01*
X0010898Y0009985D01*
X0010964D01*
X0011031Y0010009D01*
Y0010149D01*
X0011098Y0010172D01*
X0011164D01*
X0011231Y0010149D01*
Y0010009D01*
X0011164Y0009985D01*
X0011098D01*
X0011031Y0010009D01*
X0011164Y0009655D02*
X0011231Y0009702D01*
Y0009795D01*
X0011164Y0009842D01*
X0011098D01*
X0010964Y0009749D01*
X0010831Y0009842D01*
Y0009655D01*
X0011031Y0009442D02*
X0011231Y0009512D01*
X0011031Y0009325D02*
Y0009465D01*
X0010964Y0009512D01*
X0010898D01*
X0010831Y0009465D01*
Y0009325D01*
X0011231D01*
X0017131Y0007005D02*
X0017064Y0006959D01*
X0016998Y0006935D01*
X0016864D01*
X0016798Y0006959D01*
X0016731Y0007005D01*
Y0007052D01*
X0016798Y0007099D01*
X0016864Y0007122D01*
X0016998D01*
X0017064Y0007099D01*
X0017131Y0007052D01*
Y0007005D01*
X0016998Y0006792D02*
Y0006605D01*
X0016731Y0006699D01*
Y0006745D01*
X0017131D01*
X0016931Y0006392D02*
X0017131Y0006462D01*
X0016931Y0006275D02*
Y0006415D01*
X0016864Y0006462D01*
X0016798D01*
X0016731Y0006415D01*
Y0006275D01*
X0017131D01*
X0011931Y0010175D02*
Y0010082D01*
Y0010129D02*
X0011531D01*
X0011598Y0010082D01*
X0011798Y0009892D02*
Y0009705D01*
X0011531Y0009799D01*
Y0009845D01*
X0011931D01*
X0011731Y0009492D02*
X0011931Y0009562D01*
X0011731Y0009375D02*
Y0009515D01*
X0011664Y0009562D01*
X0011598D01*
X0011531Y0009515D01*
Y0009375D01*
X0011931D01*
X0012681Y0006622D02*
Y0006435D01*
X0012414Y0006622D01*
X0012348D01*
X0012281Y0006599D01*
Y0006459D01*
X0012348Y0006435D01*
X0012548Y0006292D02*
Y0006105D01*
X0012281Y0006199D01*
Y0006245D01*
X0012681D01*
X0012481Y0005892D02*
X0012681Y0005962D01*
X0012481Y0005775D02*
Y0005915D01*
X0012414Y0005962D01*
X0012348D01*
X0012281Y0005915D01*
Y0005775D01*
X0012681D01*
X0011869Y0007281D02*
X0011935Y0007328D01*
Y0007421D01*
X0011869Y0007468D01*
X0011802D01*
X0011669Y0007374D01*
X0011535Y0007468D01*
Y0007281D01*
X0011802Y0007138D02*
Y0006951D01*
X0011535Y0007044D01*
Y0007091D01*
X0011935D01*
X0011735Y0006738D02*
X0011935Y0006808D01*
X0011735Y0006621D02*
Y0006761D01*
X0011669Y0006808D01*
X0011602D01*
X0011535Y0006761D01*
Y0006621D01*
X0011935D01*
X0008941Y0003363D02*
Y0003270D01*
Y0003317D02*
X0008541D01*
X0008607Y0003270D01*
X0008941Y0003080D02*
Y0002987D01*
Y0003033D02*
X0008541D01*
X0008607Y0002987D01*
X0008807Y0002703D02*
X0008941Y0002797D01*
X0008874Y0002610D02*
X0008941Y0002633D01*
Y0002727D01*
X0008874Y0002750D01*
X0008807Y0002797D01*
X0008607D01*
X0008541Y0002773D01*
Y0002633D01*
X0008607Y0002610D01*
X0008874D01*
X0022783Y0001120D02*
Y0001027D01*
Y0001073D02*
X0022383D01*
X0022450Y0001027D01*
X0022650Y0000673D02*
X0022717D01*
X0022783Y0000697D01*
Y0000790D01*
X0022717Y0000813D01*
X0022383D01*
Y0000837D02*
Y0000743D01*
X0004300Y0003800D02*
X0004113D01*
X0004207Y0004067D01*
X0004253D01*
Y0003667D01*
X0003970D02*
X0003877D01*
X0003923D02*
Y0004067D01*
X0003877Y0004000D01*
X0003523Y0003800D02*
Y0003733D01*
X0003547Y0003667D01*
X0003640D01*
X0003663Y0003733D01*
Y0004067D01*
X0003687D02*
X0003593D01*
X0030593Y0008560D02*
X0030500D01*
X0030547D02*
Y0008960D01*
X0030500Y0008893D01*
X0030310Y0008960D02*
Y0008626D01*
X0030287Y0008560D01*
X0030147D01*
X0030123Y0008626D01*
Y0008960D01*
X0008836Y0009083D02*
X0008903Y0009129D01*
Y0009223D01*
X0008836Y0009269D01*
X0008769D01*
X0008636Y0009176D01*
X0008503Y0009269D01*
Y0009083D01*
Y0008939D02*
X0008836D01*
X0008903Y0008916D01*
Y0008776D01*
X0008836Y0008753D01*
X0008503D01*
X0028057Y0013473D02*
Y0013287D01*
X0027791Y0013380D01*
Y0013427D01*
X0028191D01*
Y0013143D02*
Y0012980D01*
X0027791D01*
X0028191Y0012673D02*
X0027791D01*
X0028191Y0012650D02*
Y0012790D01*
X0028057Y0012837D01*
X0027924D01*
X0027791Y0012790D01*
Y0012650D01*
X0011926Y0009056D02*
Y0008963D01*
Y0009010D02*
X0011526D01*
X0011592Y0008963D01*
X0011926Y0008773D02*
Y0008680D01*
Y0008726D02*
X0011526D01*
X0011592Y0008680D01*
X0011926Y0008490D02*
Y0008326D01*
X0011526D01*
X0011926Y0008020D02*
X0011526D01*
X0011926Y0007996D02*
Y0008136D01*
X0011792Y0008183D01*
X0011659D01*
X0011526Y0008136D01*
Y0007996D01*
X0028396Y0010117D02*
Y0009930D01*
X0028129Y0010117D01*
X0028062D01*
X0027996Y0010094D01*
Y0009954D01*
X0028062Y0009930D01*
X0028396Y0009787D02*
Y0009600D01*
X0028129Y0009787D01*
X0028062D01*
X0027996Y0009764D01*
Y0009624D01*
X0028062Y0009600D01*
X0028196Y0009387D02*
X0028396Y0009457D01*
X0028196Y0009270D02*
Y0009410D01*
X0028129Y0009457D01*
X0028062D01*
X0027996Y0009410D01*
Y0009270D01*
X0028396D01*
X0004701Y0013857D02*
Y0013670D01*
X0004434Y0013857D01*
X0004367D01*
X0004301Y0013833D01*
Y0013693D01*
X0004367Y0013670D01*
Y0013527D02*
X0004301Y0013503D01*
Y0013363D01*
X0004367Y0013340D01*
X0004434D01*
X0004501Y0013363D01*
Y0013503D01*
X0004567Y0013527D01*
X0004634D01*
X0004701Y0013503D01*
Y0013363D01*
X0004634Y0013340D01*
X0004301Y0013197D02*
X0004434D01*
X0004701Y0013103D01*
X0004434Y0013010D01*
X0004301D01*
X0004701Y0012773D02*
X0004301D01*
Y0012867D02*
Y0012680D01*
X0011176Y0008986D02*
X0011109Y0008940D01*
X0011042Y0008916D01*
X0010909D01*
X0010842Y0008940D01*
X0010776Y0008986D01*
Y0009033D01*
X0010842Y0009080D01*
X0010909Y0009103D01*
X0011042D01*
X0011109Y0009080D01*
X0011176Y0009033D01*
Y0008986D01*
Y0008773D02*
Y0008680D01*
Y0008726D02*
X0010776D01*
X0010842Y0008680D01*
X0011176Y0008490D02*
Y0008326D01*
X0010776D01*
X0011176Y0008020D02*
X0010776D01*
X0011176Y0007996D02*
Y0008136D01*
X0011042Y0008183D01*
X0010909D01*
X0010776Y0008136D01*
Y0007996D01*
X0027867Y0000880D02*
X0027933Y0000903D01*
Y0001043D01*
X0027867Y0001067D01*
X0027733D01*
X0027667Y0001020D01*
Y0000880D01*
X0027533D01*
Y0001067D01*
X0027800Y0000573D02*
X0027867D01*
X0027933Y0000597D01*
Y0000690D01*
X0027867Y0000713D01*
X0027533D01*
Y0000737D02*
Y0000643D01*
X0017169Y0011374D02*
Y0011514D01*
X0017236Y0011538D01*
X0017303D01*
X0017369Y0011514D01*
Y0011374D01*
X0017303Y0011351D01*
X0017236D01*
X0016969Y0011444D01*
X0017303Y0011208D02*
X0017369Y0011184D01*
Y0011044D01*
X0017303Y0011021D01*
X0017036D01*
X0016969Y0011044D01*
Y0011184D01*
X0017036Y0011208D01*
X0035649Y0012873D02*
Y0013013D01*
X0035716Y0013037D01*
X0035783D01*
X0035849Y0013013D01*
Y0012873D01*
X0035783Y0012850D01*
X0035716D01*
X0035449Y0012943D01*
X0035716Y0012543D02*
X0035783D01*
X0035849Y0012567D01*
Y0012660D01*
X0035783Y0012683D01*
X0035449D01*
Y0012707D02*
Y0012613D01*
X0013891Y0005210D02*
Y0005023D01*
X0013624Y0005210D01*
X0013557D01*
X0013491Y0005187D01*
Y0005047D01*
X0013557Y0005023D01*
X0013891Y0004880D02*
Y0004787D01*
Y0004833D02*
X0013491D01*
X0013557Y0004787D01*
X0013757Y0004503D02*
X0013891Y0004597D01*
X0013824Y0004410D02*
X0013891Y0004433D01*
Y0004527D01*
X0013824Y0004550D01*
X0013757Y0004597D01*
X0013557D01*
X0013491Y0004573D01*
Y0004433D01*
X0013557Y0004410D01*
X0013824D01*
X0011824Y0004973D02*
X0011891Y0005020D01*
Y0005113D01*
X0011824Y0005160D01*
X0011757D01*
X0011624Y0005067D01*
X0011491Y0005160D01*
Y0004973D01*
X0011891Y0004830D02*
Y0004737D01*
Y0004783D02*
X0011491D01*
X0011557Y0004737D01*
X0011757Y0004453D02*
X0011891Y0004547D01*
X0011824Y0004360D02*
X0011891Y0004383D01*
Y0004477D01*
X0011824Y0004500D01*
X0011757Y0004547D01*
X0011557D01*
X0011491Y0004523D01*
Y0004383D01*
X0011557Y0004360D01*
X0011824D01*
X0017246Y0005494D02*
Y0005354D01*
X0017179Y0005330D01*
X0017112D01*
X0017046Y0005354D01*
Y0005494D01*
X0017112Y0005517D01*
X0017179D01*
X0017446Y0005424D01*
X0017379Y0005000D02*
X0017446Y0005047D01*
Y0005140D01*
X0017379Y0005187D01*
X0017312D01*
X0017179Y0005094D01*
X0017046Y0005187D01*
Y0005000D01*
X0017246Y0004787D02*
X0017446Y0004857D01*
X0017246Y0004670D02*
Y0004810D01*
X0017179Y0004857D01*
X0017112D01*
X0017046Y0004810D01*
Y0004670D01*
X0017446D01*
X0006401Y0013810D02*
Y0013717D01*
Y0013763D02*
X0006001D01*
X0006067Y0013717D01*
Y0013527D02*
X0006001Y0013503D01*
Y0013363D01*
X0006067Y0013340D01*
X0006134D01*
X0006201Y0013363D01*
Y0013503D01*
X0006267Y0013527D01*
X0006334D01*
X0006401Y0013503D01*
Y0013363D01*
X0006334Y0013340D01*
X0006001Y0013197D02*
X0006134D01*
X0006401Y0013103D01*
X0006134Y0013010D01*
X0006001D01*
X0006401Y0012773D02*
X0006001D01*
Y0012867D02*
Y0012680D01*
X0017683Y0001033D02*
X0017617Y0000987D01*
X0017550Y0000963D01*
X0017417D01*
X0017350Y0000987D01*
X0017283Y0001033D01*
Y0001080D01*
X0017350Y0001127D01*
X0017417Y0001150D01*
X0017550D01*
X0017617Y0001127D01*
X0017683Y0001080D01*
Y0001033D01*
Y0000820D02*
Y0000727D01*
Y0000773D02*
X0017283D01*
X0017350Y0000727D01*
X0017550Y0000373D02*
X0017617D01*
X0017683Y0000397D01*
Y0000490D01*
X0017617Y0000513D01*
X0017283D01*
Y0000537D02*
Y0000443D01*
X0030181Y0007492D02*
Y0007305D01*
X0029914Y0007492D01*
X0029848D01*
X0029781Y0007469D01*
Y0007329D01*
X0029848Y0007305D01*
X0030114Y0007162D02*
X0030181Y0007139D01*
Y0006999D01*
X0030114Y0006975D01*
X0029848D01*
X0029781Y0006999D01*
Y0007139D01*
X0029848Y0007162D01*
X0018629Y0005150D02*
X0018696Y0005197D01*
Y0005290D01*
X0018629Y0005337D01*
X0018562D01*
X0018429Y0005244D01*
X0018296Y0005337D01*
Y0005150D01*
X0018496Y0004937D02*
X0018696Y0005007D01*
X0018496Y0004820D02*
Y0004960D01*
X0018429Y0005007D01*
X0018362D01*
X0018296Y0004960D01*
Y0004820D01*
X0018696D01*
X0024864Y0013005D02*
X0024931Y0013052D01*
Y0013145D01*
X0024864Y0013192D01*
X0024798D01*
X0024664Y0013099D01*
X0024531Y0013192D01*
Y0013005D01*
X0024864Y0012862D02*
X0024931Y0012839D01*
Y0012699D01*
X0024864Y0012675D01*
X0024598D01*
X0024531Y0012699D01*
Y0012839D01*
X0024598Y0012862D01*
X0025235Y0011598D02*
X0024835Y0011738D01*
Y0011551D01*
X0025169Y0011408D02*
X0025235Y0011384D01*
Y0011244D01*
X0025169Y0011221D01*
X0024902D01*
X0024835Y0011244D01*
Y0011384D01*
X0024902Y0011408D01*
X0029691Y0013473D02*
Y0013287D01*
X0029424Y0013473D01*
X0029357D01*
X0029291Y0013450D01*
Y0013310D01*
X0029357Y0013287D01*
X0029691Y0013143D02*
Y0012980D01*
X0029291D01*
X0029691Y0012673D02*
X0029291D01*
X0029691Y0012650D02*
Y0012790D01*
X0029557Y0012837D01*
X0029424D01*
X0029291Y0012790D01*
Y0012650D01*
X0018235Y0009064D02*
X0018169Y0009088D01*
X0018102D01*
X0018035Y0009064D01*
Y0008924D01*
X0018102Y0008901D01*
X0018169D01*
X0018235Y0008924D01*
Y0009064D01*
X0018302Y0009088D01*
X0018369D01*
X0018435Y0009064D01*
Y0008924D01*
X0018369Y0008901D01*
X0018302D01*
X0018235Y0008924D01*
X0018369Y0008758D02*
X0018435Y0008734D01*
Y0008594D01*
X0018369Y0008571D01*
X0018102D01*
X0018035Y0008594D01*
Y0008734D01*
X0018102Y0008758D01*
X0030491Y0013310D02*
Y0013450D01*
X0030557Y0013473D01*
X0030624D01*
X0030691Y0013450D01*
Y0013310D01*
X0030624Y0013287D01*
X0030557D01*
X0030291Y0013380D01*
X0030691Y0013143D02*
Y0012980D01*
X0030291D01*
X0030691Y0012673D02*
X0030291D01*
X0030691Y0012650D02*
Y0012790D01*
X0030557Y0012837D01*
X0030424D01*
X0030291Y0012790D01*
Y0012650D01*
X0015731Y0010969D02*
Y0010829D01*
X0015664Y0010805D01*
X0015598D01*
X0015531Y0010829D01*
Y0010969D01*
X0015598Y0010992D01*
X0015664D01*
X0015931Y0010899D01*
X0015864Y0010662D02*
X0015931Y0010639D01*
Y0010499D01*
X0015864Y0010475D01*
X0015598D01*
X0015531Y0010499D01*
Y0010639D01*
X0015598Y0010662D01*
X0027374Y0013287D02*
X0027441Y0013310D01*
Y0013450D01*
X0027374Y0013473D01*
X0027241D01*
X0027174Y0013427D01*
Y0013287D01*
X0027041D01*
Y0013473D01*
X0027441Y0013143D02*
Y0012980D01*
X0027041D01*
X0027441Y0012673D02*
X0027041D01*
X0027441Y0012650D02*
Y0012790D01*
X0027307Y0012837D01*
X0027174D01*
X0027041Y0012790D01*
Y0012650D01*
X0022681Y0004695D02*
Y0004602D01*
Y0004649D02*
X0022281D01*
X0022348Y0004602D01*
X0022481Y0004342D02*
X0022681Y0004412D01*
X0022481Y0004225D02*
Y0004365D01*
X0022414Y0004412D01*
X0022348D01*
X0022281Y0004365D01*
Y0004225D01*
X0022681D01*
X0021441Y0005580D02*
Y0005487D01*
Y0005533D02*
X0021041D01*
X0021107Y0005487D01*
X0021307Y0005203D02*
X0021441Y0005297D01*
X0021374Y0005110D02*
X0021441Y0005133D01*
Y0005227D01*
X0021374Y0005250D01*
X0021307Y0005297D01*
X0021107D01*
X0021041Y0005273D01*
Y0005133D01*
X0021107Y0005110D01*
X0021374D01*
X0011029Y0002730D02*
X0011096Y0002777D01*
Y0002870D01*
X0011029Y0002917D01*
X0010962D01*
X0010829Y0002824D01*
X0010696Y0002917D01*
Y0002730D01*
X0011029Y0002400D02*
X0011096Y0002447D01*
Y0002540D01*
X0011029Y0002587D01*
X0010962D01*
X0010829Y0002494D01*
X0010696Y0002587D01*
Y0002400D01*
X0010896Y0002187D02*
X0011096Y0002257D01*
X0010896Y0002070D02*
Y0002210D01*
X0010829Y0002257D01*
X0010762D01*
X0010696Y0002210D01*
Y0002070D01*
X0011096D01*
X0023431Y0004742D02*
Y0004555D01*
X0023164Y0004742D01*
X0023098D01*
X0023031Y0004719D01*
Y0004579D01*
X0023098Y0004555D01*
X0023231Y0004342D02*
X0023431Y0004412D01*
X0023231Y0004225D02*
Y0004365D01*
X0023164Y0004412D01*
X0023098D01*
X0023031Y0004365D01*
Y0004225D01*
X0023431D01*
X0028914Y0014555D02*
X0028981Y0014579D01*
Y0014719D01*
X0028914Y0014742D01*
X0028781D01*
X0028714Y0014695D01*
Y0014555D01*
X0028581D01*
Y0014742D01*
X0028781Y0014342D02*
X0028981Y0014412D01*
X0028781Y0014225D02*
Y0014365D01*
X0028714Y0014412D01*
X0028648D01*
X0028581Y0014365D01*
Y0014225D01*
X0028981D01*
X0026941Y0010037D02*
X0026541Y0010177D01*
Y0009990D01*
X0026807Y0009753D02*
X0026941Y0009847D01*
X0026874Y0009660D02*
X0026941Y0009683D01*
Y0009777D01*
X0026874Y0009800D01*
X0026807Y0009847D01*
X0026607D01*
X0026541Y0009823D01*
Y0009683D01*
X0026607Y0009660D01*
X0026874D01*
X0027981Y0014629D02*
Y0014769D01*
X0028048Y0014792D01*
X0028114D01*
X0028181Y0014769D01*
Y0014629D01*
X0028114Y0014605D01*
X0028048D01*
X0027781Y0014699D01*
X0027981Y0014392D02*
X0028181Y0014462D01*
X0027981Y0014275D02*
Y0014415D01*
X0027914Y0014462D01*
X0027848D01*
X0027781Y0014415D01*
Y0014275D01*
X0028181D01*
X0028830Y0002806D02*
Y0002619D01*
X0028564Y0002712D01*
Y0002759D01*
X0028964D01*
X0028830Y0002312D02*
X0028897D01*
X0028964Y0002336D01*
Y0002429D01*
X0028897Y0002452D01*
X0028564D01*
Y0002476D02*
Y0002382D01*
X0010226Y0008896D02*
Y0008756D01*
X0010159Y0008733D01*
X0010092D01*
X0010026Y0008756D01*
Y0008896D01*
X0010092Y0008920D01*
X0010159D01*
X0010426Y0008826D01*
Y0008590D02*
Y0008426D01*
X0010026D01*
X0010426Y0008120D02*
X0010026D01*
X0010426Y0008096D02*
Y0008236D01*
X0010292Y0008283D01*
X0010159D01*
X0010026Y0008236D01*
Y0008096D01*
X0022152Y0011480D02*
X0022218Y0011503D01*
Y0011643D01*
X0022152Y0011667D01*
X0022018D01*
X0021952Y0011620D01*
Y0011480D01*
X0021818D01*
Y0011667D01*
X0022152Y0011337D02*
X0022218Y0011313D01*
Y0011173D01*
X0022152Y0011150D01*
X0021885D01*
X0021818Y0011173D01*
Y0011313D01*
X0021885Y0011337D01*
X0027481Y0014652D02*
X0027081Y0014792D01*
Y0014605D01*
X0027281Y0014392D02*
X0027481Y0014462D01*
X0027281Y0014275D02*
Y0014415D01*
X0027214Y0014462D01*
X0027148D01*
X0027081Y0014415D01*
Y0014275D01*
X0027481D01*
X0026624Y0013287D02*
X0026691Y0013333D01*
Y0013427D01*
X0026624Y0013473D01*
X0026557D01*
X0026424Y0013380D01*
X0026291Y0013473D01*
Y0013287D01*
X0026691Y0013143D02*
Y0012980D01*
X0026291D01*
X0026691Y0012673D02*
X0026291D01*
X0026691Y0012650D02*
Y0012790D01*
X0026557Y0012837D01*
X0026424D01*
X0026291Y0012790D01*
Y0012650D01*
X0018817Y0014687D02*
Y0014780D01*
Y0014733D02*
X0019217D01*
X0019150Y0014780D01*
X0029531Y0014769D02*
X0029464Y0014792D01*
X0029398D01*
X0029331Y0014769D01*
Y0014629D01*
X0029398Y0014605D01*
X0029464D01*
X0029531Y0014629D01*
Y0014769D01*
X0029598Y0014792D01*
X0029664D01*
X0029731Y0014769D01*
Y0014629D01*
X0029664Y0014605D01*
X0029598D01*
X0029531Y0014629D01*
Y0014392D02*
X0029731Y0014462D01*
X0029531Y0014275D02*
Y0014415D01*
X0029464Y0014462D01*
X0029398D01*
X0029331Y0014415D01*
Y0014275D01*
X0029731D01*
X0026481Y0014719D02*
Y0014579D01*
X0026414Y0014555D01*
X0026348D01*
X0026281Y0014579D01*
Y0014719D01*
X0026348Y0014742D01*
X0026414D01*
X0026681Y0014649D01*
X0026481Y0014342D02*
X0026681Y0014412D01*
X0026481Y0014225D02*
Y0014365D01*
X0026414Y0014412D01*
X0026348D01*
X0026281Y0014365D01*
Y0014225D01*
X0026681D01*
X0023441Y0006777D02*
Y0006590D01*
X0023174Y0006777D01*
X0023107D01*
X0023041Y0006753D01*
Y0006613D01*
X0023107Y0006590D01*
X0023307Y0006353D02*
X0023441Y0006447D01*
X0023374Y0006260D02*
X0023441Y0006283D01*
Y0006377D01*
X0023374Y0006400D01*
X0023307Y0006447D01*
X0023107D01*
X0023041Y0006423D01*
Y0006283D01*
X0023107Y0006260D01*
X0023374D01*
X0025374Y0007040D02*
X0025441Y0007087D01*
Y0007180D01*
X0025374Y0007227D01*
X0025307D01*
X0025174Y0007133D01*
X0025041Y0007227D01*
Y0007040D01*
X0025307Y0006803D02*
X0025441Y0006897D01*
X0025374Y0006710D02*
X0025441Y0006733D01*
Y0006827D01*
X0025374Y0006850D01*
X0025307Y0006897D01*
X0025107D01*
X0025041Y0006873D01*
Y0006733D01*
X0025107Y0006710D01*
X0025374D01*
X0031241Y0013450D02*
X0031174Y0013473D01*
X0031107D01*
X0031041Y0013450D01*
Y0013310D01*
X0031107Y0013287D01*
X0031174D01*
X0031241Y0013310D01*
Y0013450D01*
X0031307Y0013473D01*
X0031374D01*
X0031441Y0013450D01*
Y0013310D01*
X0031374Y0013287D01*
X0031307D01*
X0031241Y0013310D01*
X0031441Y0013143D02*
Y0012980D01*
X0031041D01*
X0031441Y0012673D02*
X0031041D01*
X0031441Y0012650D02*
Y0012790D01*
X0031307Y0012837D01*
X0031174D01*
X0031041Y0012790D01*
Y0012650D01*
X0035563Y0013367D02*
X0035470D01*
X0035517D02*
Y0013767D01*
X0035470Y0013700D01*
X0034464Y0002939D02*
Y0002752D01*
X0034197Y0002939D01*
X0034130D01*
X0034064Y0002916D01*
Y0002776D01*
X0034130Y0002752D01*
X0034464Y0002609D02*
Y0002516D01*
Y0002562D02*
X0034064D01*
X0034130Y0002516D01*
X0034330Y0002162D02*
X0034397D01*
X0034464Y0002186D01*
Y0002279D01*
X0034397Y0002302D01*
X0034064D01*
Y0002326D02*
Y0002232D01*
X0019737Y0005393D02*
Y0005206D01*
X0019471Y0005300D01*
Y0005346D01*
X0019871D01*
X0019671Y0004993D02*
X0019871Y0005063D01*
X0019671Y0004876D02*
Y0005016D01*
X0019604Y0005063D01*
X0019537D01*
X0019471Y0005016D01*
Y0004876D01*
X0019871D01*
X0028185Y0011804D02*
X0028119Y0011758D01*
X0028052Y0011734D01*
X0027919D01*
X0027852Y0011758D01*
X0027785Y0011804D01*
Y0011851D01*
X0027852Y0011898D01*
X0027919Y0011921D01*
X0028052D01*
X0028119Y0011898D01*
X0028185Y0011851D01*
Y0011804D01*
Y0011591D02*
Y0011498D01*
Y0011544D02*
X0027785D01*
X0027852Y0011498D01*
X0027985Y0011238D02*
X0028185Y0011308D01*
X0027985Y0011121D02*
Y0011261D01*
X0027919Y0011308D01*
X0027852D01*
X0027785Y0011261D01*
Y0011121D01*
X0028185D01*
X0017517Y0013563D02*
X0017583Y0013610D01*
Y0013703D01*
X0017517Y0013750D01*
X0017450D01*
X0017317Y0013657D01*
X0017183Y0013750D01*
Y0013563D01*
X0017583Y0013420D02*
Y0013327D01*
Y0013373D02*
X0017183D01*
X0017250Y0013327D01*
X0017450Y0012973D02*
X0017517D01*
X0017583Y0012997D01*
Y0013090D01*
X0017517Y0013113D01*
X0017183D01*
Y0013137D02*
Y0013043D01*
X0019904Y0013263D02*
Y0013076D01*
X0019637Y0013263D01*
X0019570D01*
X0019504Y0013240D01*
Y0013100D01*
X0019570Y0013076D01*
X0019504Y0012933D02*
X0019837D01*
X0019904Y0012910D01*
Y0012770D01*
X0019837Y0012746D01*
X0019504D01*
X0023783Y0008767D02*
Y0008580D01*
X0023517Y0008767D01*
X0023450D01*
X0023383Y0008743D01*
Y0008603D01*
X0023450Y0008580D01*
X0023650Y0008273D02*
X0023717D01*
X0023783Y0008297D01*
Y0008390D01*
X0023717Y0008413D01*
X0023383D01*
Y0008437D02*
Y0008343D01*
X0027435Y0011874D02*
Y0011781D01*
Y0011828D02*
X0027035D01*
X0027102Y0011781D01*
X0027435Y0011591D02*
Y0011498D01*
Y0011544D02*
X0027035D01*
X0027102Y0011498D01*
X0027235Y0011238D02*
X0027435Y0011308D01*
X0027235Y0011121D02*
Y0011261D01*
X0027169Y0011308D01*
X0027102D01*
X0027035Y0011261D01*
Y0011121D01*
X0027435D01*
X0023585Y0011617D02*
Y0011430D01*
X0023318Y0011523D01*
Y0011570D01*
X0023718D01*
X0023652Y0011287D02*
X0023718Y0011263D01*
Y0011123D01*
X0023652Y0011100D01*
X0023385D01*
X0023318Y0011123D01*
Y0011263D01*
X0023385Y0011287D01*
X0028931Y0011875D02*
Y0011689D01*
X0028664Y0011875D01*
X0028598D01*
X0028531Y0011852D01*
Y0011712D01*
X0028598Y0011689D01*
X0028931Y0011545D02*
Y0011452D01*
Y0011499D02*
X0028531D01*
X0028598Y0011452D01*
X0028731Y0011192D02*
X0028931Y0011262D01*
X0028731Y0011075D02*
Y0011215D01*
X0028664Y0011262D01*
X0028598D01*
X0028531Y0011215D01*
Y0011075D01*
X0028931D01*
X0029614Y0011689D02*
X0029681Y0011735D01*
Y0011829D01*
X0029614Y0011875D01*
X0029548D01*
X0029414Y0011782D01*
X0029281Y0011875D01*
Y0011689D01*
X0029681Y0011545D02*
Y0011452D01*
Y0011499D02*
X0029281D01*
X0029348Y0011452D01*
X0029481Y0011192D02*
X0029681Y0011262D01*
X0029481Y0011075D02*
Y0011215D01*
X0029414Y0011262D01*
X0029348D01*
X0029281Y0011215D01*
Y0011075D01*
X0029681D01*
X0026874Y0008640D02*
X0026941Y0008663D01*
Y0008803D01*
X0026874Y0008827D01*
X0026741D01*
X0026674Y0008780D01*
Y0008640D01*
X0026541D01*
Y0008827D01*
X0026807Y0008403D02*
X0026941Y0008497D01*
X0026874Y0008310D02*
X0026941Y0008333D01*
Y0008427D01*
X0026874Y0008450D01*
X0026807Y0008497D01*
X0026607D01*
X0026541Y0008473D01*
Y0008333D01*
X0026607Y0008310D01*
X0026874D01*
X0028092Y0007237D02*
Y0007144D01*
Y0007190D02*
X0027692D01*
X0027758Y0007144D01*
X0028092Y0006790D02*
X0027692D01*
X0028092Y0006767D02*
Y0006907D01*
X0027958Y0006954D01*
X0027825D01*
X0027692Y0006907D01*
Y0006767D01*
X0016021Y0005310D02*
Y0005450D01*
X0016087Y0005473D01*
X0016154D01*
X0016221Y0005450D01*
Y0005310D01*
X0016154Y0005286D01*
X0016087D01*
X0015821Y0005380D01*
X0016154Y0004956D02*
X0016221Y0005003D01*
Y0005096D01*
X0016154Y0005143D01*
X0016087D01*
X0015954Y0005050D01*
X0015821Y0005143D01*
Y0004956D01*
X0016021Y0004743D02*
X0016221Y0004813D01*
X0016021Y0004626D02*
Y0004766D01*
X0015954Y0004813D01*
X0015887D01*
X0015821Y0004766D01*
Y0004626D01*
X0016221D01*
X0028991Y0013427D02*
Y0013333D01*
Y0013380D02*
X0028591D01*
X0028657Y0013333D01*
X0028991Y0013143D02*
Y0012980D01*
X0028591D01*
X0028991Y0012673D02*
X0028591D01*
X0028991Y0012650D02*
Y0012790D01*
X0028857Y0012837D01*
X0028724D01*
X0028591Y0012790D01*
Y0012650D01*
X0025741Y0013383D02*
X0025341Y0013523D01*
Y0013337D01*
X0025741Y0013193D02*
Y0013030D01*
X0025341D01*
X0025741Y0012723D02*
X0025341D01*
X0025741Y0012700D02*
Y0012840D01*
X0025607Y0012887D01*
X0025474D01*
X0025341Y0012840D01*
Y0012700D01*
X0029481Y0009195D02*
Y0009102D01*
Y0009149D02*
X0029081D01*
X0029148Y0009102D01*
X0029414Y0008912D02*
X0029481Y0008889D01*
Y0008749D01*
X0029414Y0008725D01*
X0029148D01*
X0029081Y0008749D01*
Y0008889D01*
X0029148Y0008912D01*
X0022906Y0014530D02*
Y0014437D01*
Y0014483D02*
X0022506D01*
X0022573Y0014437D01*
X0022906Y0014247D02*
Y0014083D01*
X0022506D01*
X0026548Y0011875D02*
Y0011689D01*
X0026281Y0011782D01*
Y0011829D01*
X0026681D01*
Y0011545D02*
Y0011452D01*
Y0011499D02*
X0026281D01*
X0026348Y0011452D01*
X0026481Y0011192D02*
X0026681Y0011262D01*
X0026481Y0011075D02*
Y0011215D01*
X0026414Y0011262D01*
X0026348D01*
X0026281Y0011215D01*
Y0011075D01*
X0026681D01*
X0025057Y0008827D02*
Y0008640D01*
X0024791Y0008733D01*
Y0008780D01*
X0025191D01*
X0025057Y0008403D02*
X0025191Y0008497D01*
X0025124Y0008310D02*
X0025191Y0008333D01*
Y0008427D01*
X0025124Y0008450D01*
X0025057Y0008497D01*
X0024857D01*
X0024791Y0008473D01*
Y0008333D01*
X0024857Y0008310D01*
X0025124D01*
X0013633Y0010853D02*
Y0010760D01*
Y0010807D02*
X0013233D01*
X0013300Y0010760D01*
X0013633Y0010570D02*
Y0010477D01*
Y0010523D02*
X0013233D01*
X0013300Y0010477D01*
X0013500Y0010123D02*
X0013567D01*
X0013633Y0010147D01*
Y0010240D01*
X0013567Y0010263D01*
X0013233D01*
Y0010287D02*
Y0010193D01*
X0014931Y0011009D02*
X0014864Y0010962D01*
X0014798Y0010939D01*
X0014664D01*
X0014598Y0010962D01*
X0014531Y0011009D01*
Y0011055D01*
X0014598Y0011102D01*
X0014664Y0011125D01*
X0014798D01*
X0014864Y0011102D01*
X0014931Y0011055D01*
Y0011009D01*
Y0010795D02*
Y0010702D01*
Y0010749D02*
X0014531D01*
X0014598Y0010702D01*
X0014864Y0010512D02*
X0014931Y0010489D01*
Y0010349D01*
X0014864Y0010325D01*
X0014598D01*
X0014531Y0010349D01*
Y0010489D01*
X0014598Y0010512D01*
X0026614Y0007239D02*
X0026681Y0007262D01*
Y0007402D01*
X0026614Y0007425D01*
X0026481D01*
X0026414Y0007379D01*
Y0007239D01*
X0026281D01*
Y0007425D01*
X0026681Y0007095D02*
Y0007002D01*
Y0007049D02*
X0026281D01*
X0026348Y0007002D01*
X0026481Y0006742D02*
X0026681Y0006812D01*
X0026481Y0006625D02*
Y0006765D01*
X0026414Y0006812D01*
X0026348D01*
X0026281Y0006765D01*
Y0006625D01*
X0026681D01*
X0027235Y0007258D02*
Y0007398D01*
X0027302Y0007421D01*
X0027369D01*
X0027435Y0007398D01*
Y0007258D01*
X0027369Y0007234D01*
X0027302D01*
X0027035Y0007328D01*
X0027435Y0007091D02*
Y0006998D01*
Y0007044D02*
X0027035D01*
X0027102Y0006998D01*
X0027235Y0006738D02*
X0027435Y0006808D01*
X0027235Y0006621D02*
Y0006761D01*
X0027169Y0006808D01*
X0027102D01*
X0027035Y0006761D01*
Y0006621D01*
X0027435D01*
X0024941Y0010113D02*
Y0010253D01*
X0025007Y0010277D01*
X0025074D01*
X0025141Y0010253D01*
Y0010113D01*
X0025074Y0010090D01*
X0025007D01*
X0024741Y0010183D01*
X0025007Y0009853D02*
X0025141Y0009947D01*
X0025074Y0009760D02*
X0025141Y0009783D01*
Y0009877D01*
X0025074Y0009900D01*
X0025007Y0009947D01*
X0024807D01*
X0024741Y0009923D01*
Y0009783D01*
X0024807Y0009760D01*
X0025074D01*
X0008691Y0006653D02*
X0008624Y0006677D01*
X0008557D01*
X0008491Y0006653D01*
Y0006513D01*
X0008557Y0006490D01*
X0008624D01*
X0008691Y0006513D01*
Y0006653D01*
X0008757Y0006677D01*
X0008824D01*
X0008891Y0006653D01*
Y0006513D01*
X0008824Y0006490D01*
X0008757D01*
X0008691Y0006513D01*
X0008757Y0006253D02*
X0008891Y0006347D01*
X0008824Y0006160D02*
X0008891Y0006183D01*
Y0006277D01*
X0008824Y0006300D01*
X0008757Y0006347D01*
X0008557D01*
X0008491Y0006323D01*
Y0006183D01*
X0008557Y0006160D01*
X0008824D01*
X0008741Y0005003D02*
Y0004863D01*
X0008674Y0004840D01*
X0008607D01*
X0008541Y0004863D01*
Y0005003D01*
X0008607Y0005027D01*
X0008674D01*
X0008941Y0004933D01*
X0008807Y0004603D02*
X0008941Y0004697D01*
X0008874Y0004510D02*
X0008941Y0004533D01*
Y0004627D01*
X0008874Y0004650D01*
X0008807Y0004697D01*
X0008607D01*
X0008541Y0004673D01*
Y0004533D01*
X0008607Y0004510D01*
X0008874D01*
X0008783Y0010543D02*
Y0010403D01*
X0008717Y0010380D01*
X0008650D01*
X0008583Y0010403D01*
Y0010543D01*
X0008650Y0010567D01*
X0008717D01*
X0008983Y0010473D01*
X0008850Y0010073D02*
X0008917D01*
X0008983Y0010097D01*
Y0010190D01*
X0008917Y0010213D01*
X0008583D01*
Y0010237D02*
Y0010143D01*
X0008941Y0001543D02*
X0008874Y0001497D01*
X0008807Y0001473D01*
X0008674D01*
X0008607Y0001497D01*
X0008541Y0001543D01*
Y0001590D01*
X0008607Y0001637D01*
X0008674Y0001660D01*
X0008807D01*
X0008874Y0001637D01*
X0008941Y0001590D01*
Y0001543D01*
Y0001330D02*
Y0001237D01*
Y0001283D02*
X0008541D01*
X0008607Y0001237D01*
X0008807Y0000953D02*
X0008941Y0001047D01*
X0008874Y0000860D02*
X0008941Y0000883D01*
Y0000977D01*
X0008874Y0001000D01*
X0008807Y0001047D01*
X0008607D01*
X0008541Y0001023D01*
Y0000883D01*
X0008607Y0000860D01*
X0008874D01*
X0033367Y0008606D02*
X0033433Y0008583D01*
X0033500D01*
X0033567Y0008606D01*
Y0008746D01*
X0033500Y0008770D01*
X0033433D01*
X0033367Y0008746D01*
Y0008606D01*
X0033300Y0008583D01*
X0033233D01*
X0033167Y0008606D01*
Y0008746D01*
X0033233Y0008770D01*
X0033300D01*
X0033367Y0008746D01*
X0033300Y0009076D02*
X0033233D01*
X0033167Y0009053D01*
Y0008960D01*
X0033233Y0008936D01*
X0033567D01*
Y0008913D02*
Y0009006D01*
X0013354Y0014975D02*
X0012954Y0015115D01*
Y0014929D01*
X0013220Y0014622D02*
X0013287D01*
X0013354Y0014645D01*
Y0014739D01*
X0013287Y0014762D01*
X0012954D01*
Y0014785D02*
Y0014692D01*
X0035113Y0015152D02*
Y0014896D01*
X0035059Y0015152D02*
Y0014950D01*
X0035005Y0015152D02*
Y0015004D01*
X0034951Y0015152D02*
Y0015058D01*
X0034897Y0015152D02*
Y0015112D01*
X0035211Y0015108D02*
X0034901D01*
X0035211Y0015054D02*
X0034955D01*
X0035211Y0015000D02*
X0035009D01*
X0035211Y0014946D02*
X0035063D01*
X0035211Y0014892D02*
X0035117D01*
X0035211Y0014838D02*
X0035171D01*
X0034857Y0015152D02*
X0035211Y0014798D01*
Y0015152D02*
X0034857D01*
X0035211D02*
Y0014798D01*
X0035167Y0015152D02*
Y0014842D01*
X0010575Y0004425D02*
Y0005575D01*
X0009930D01*
Y0004425D01*
X0010575D01*
X0015325Y0004175D02*
Y0005325D01*
X0014680D01*
Y0004175D01*
X0015325D01*
X0010575Y0009175D02*
Y0010325D01*
X0009930D01*
Y0009175D01*
X0010575D01*
X0011325D02*
Y0010325D01*
X0010680D01*
Y0009175D01*
X0011325D01*
X0017325Y0006175D02*
Y0007325D01*
X0016680D01*
Y0006175D01*
X0017325D01*
X0012075Y0009175D02*
Y0010325D01*
X0011430D01*
Y0009175D01*
X0012075D01*
X0012825Y0005675D02*
Y0006825D01*
X0012180D01*
Y0005675D01*
X0012825D01*
X0011425Y0007575D02*
Y0006425D01*
X0012070D01*
Y0007575D01*
X0011425D01*
X0017850Y0012250D02*
Y0010250D01*
X0016650D01*
Y0012250D01*
X0017850D01*
X0016601Y0003107D02*
Y0002857D01*
X0005286Y0012386D02*
X0005290Y0011930D01*
X0005150Y0011760D01*
X0003890D01*
X0003710Y0011940D01*
X0003713Y0014745D01*
X0005287D01*
Y0014100D01*
X0005286Y0012386D01*
X0029000Y0012300D02*
X0028500D01*
X0028400Y0012400D01*
Y0013700D01*
X0029100D01*
Y0012400D01*
X0029000Y0012300D01*
X0029100Y0012900D02*
X0028400D01*
X0007036Y0012386D02*
X0007040Y0011930D01*
X0006900Y0011760D01*
X0005640D01*
X0005460Y0011940D01*
X0005463Y0014745D01*
X0007037D01*
Y0014100D01*
X0007036Y0012386D01*
X0029575Y0008425D02*
Y0009575D01*
X0028930D01*
Y0008425D01*
X0029575D01*
X0030325Y0006675D02*
Y0007825D01*
X0029680D01*
Y0006675D01*
X0030325D01*
X0031500Y0012300D02*
X0031000D01*
X0030900Y0012400D01*
Y0013700D01*
X0031600D01*
Y0012400D01*
X0031500Y0012300D01*
X0031600Y0012900D02*
X0030900D01*
X0016550Y0003950D02*
Y0006050D01*
X0015450D01*
Y0003950D01*
X0016550D01*
X0025750Y0012300D02*
X0025250D01*
X0025150Y0012400D01*
Y0013700D01*
X0025850D01*
Y0012400D01*
X0025750Y0012300D01*
X0025850Y0012900D02*
X0025150D01*
X0022150Y0004450D02*
X0020350D01*
Y0005150D01*
X0020450Y0005250D01*
X0020350Y0005350D01*
Y0006050D01*
X0022150D01*
Y0004450D01*
X0008254Y0010850D02*
X0008002D01*
Y0011401D01*
X0009069Y0014650D02*
X0008254D01*
X0008706Y0012199D02*
Y0012120D01*
X0008002Y0014098D02*
X0008254D01*
Y0014650D01*
X0008002D01*
Y0014098D01*
Y0011401D01*
X0008254D01*
X0009069D01*
X0009522D01*
Y0011218D01*
X0009722D01*
Y0010850D01*
X0009321D01*
X0009522Y0011218D01*
Y0014281D02*
X0009321Y0014650D01*
X0009722D01*
Y0014281D01*
X0009522D01*
Y0014098D01*
Y0011401D01*
X0008793Y0013297D02*
Y0013384D01*
X0008706D01*
Y0013297D01*
X0008793D01*
X0008876Y0013214D01*
X0008624D01*
X0008706Y0013297D01*
X0008624Y0013214D02*
Y0013466D01*
X0008876D01*
X0008793Y0013384D01*
X0008876Y0013214D02*
Y0013466D01*
X0008706Y0013384D02*
X0008624Y0013466D01*
X0008793Y0012120D02*
Y0012199D01*
X0008706D01*
X0008624Y0012285D01*
X0008876D01*
Y0012033D01*
X0008624D01*
X0008706Y0012120D01*
X0008793D01*
X0008876Y0012033D01*
Y0012285D02*
X0008793Y0012199D01*
X0008624Y0012285D02*
Y0012033D01*
X0009522Y0012937D02*
X0009722D01*
Y0013331D01*
X0009522D01*
Y0012169D02*
X0009722D01*
Y0012563D01*
X0009522D01*
X0008262Y0012840D02*
X0009006D01*
X0009262Y0013096D01*
Y0013840D01*
X0008262D01*
Y0012840D01*
X0009321Y0014650D02*
X0009069D01*
Y0014098D01*
X0008254D01*
Y0011401D02*
Y0010850D01*
X0009069D01*
Y0011401D01*
X0008002Y0012238D02*
X0007529D01*
Y0013262D01*
X0008002D01*
X0009069Y0010850D02*
X0009321D01*
X0009069Y0014098D02*
X0009522D01*
X0008262Y0011659D02*
X0009262D01*
Y0012659D01*
X0008262D01*
Y0011659D01*
X0024150Y0005700D02*
X0022350D01*
Y0006400D01*
X0022450Y0006500D01*
X0022350Y0006600D01*
Y0007300D01*
X0024150D01*
Y0005700D01*
X0026150Y0006200D02*
X0024350D01*
Y0006900D01*
X0024450Y0007000D01*
X0024350Y0007100D01*
Y0007800D01*
X0026150D01*
Y0006200D01*
X0009650Y0005700D02*
X0007850D01*
Y0006400D01*
X0007950Y0006500D01*
X0007850Y0006600D01*
Y0007300D01*
X0009650D01*
Y0005700D01*
Y0003950D02*
X0007850D01*
Y0004650D01*
X0007950Y0004750D01*
X0007850Y0004850D01*
Y0005550D01*
X0009650D01*
Y0003950D01*
X0010750Y0009200D02*
X0011250D01*
X0011350Y0009100D01*
Y0007800D01*
X0010650D01*
Y0009100D01*
X0010750Y0009200D01*
X0010650Y0008600D02*
X0011350D01*
X0016700Y0006050D02*
Y0003950D01*
X0017800D01*
Y0006050D01*
X0016700D01*
X0009650Y0000450D02*
X0007850D01*
Y0001150D01*
X0007950Y0001250D01*
X0007850Y0001350D01*
Y0002050D01*
X0009650D01*
Y0000450D01*
Y0002200D02*
X0007850D01*
Y0002900D01*
X0007950Y0003000D01*
X0007850Y0003100D01*
Y0003800D01*
X0009650D01*
Y0002200D01*
X0029750Y0012300D02*
X0029250D01*
X0029150Y0012400D01*
Y0013700D01*
X0029850D01*
Y0012400D01*
X0029750Y0012300D01*
X0029850Y0012900D02*
X0029150D01*
X0025075Y0012425D02*
Y0013575D01*
X0024430D01*
Y0012425D01*
X0025075D01*
X0014650Y0003950D02*
X0012850D01*
Y0004650D01*
X0012950Y0004750D01*
X0012850Y0004850D01*
Y0005550D01*
X0014650D01*
Y0003950D01*
X0010000Y0009200D02*
X0010500D01*
X0010600Y0009100D01*
Y0007800D01*
X0009900D01*
Y0009100D01*
X0010000Y0009200D01*
X0009900Y0008600D02*
X0010600D01*
X0012650Y0003950D02*
X0010850D01*
Y0004650D01*
X0010950Y0004750D01*
X0010850Y0004850D01*
Y0005550D01*
X0012650D01*
Y0003950D01*
X0024675Y0012075D02*
Y0010925D01*
X0025320D01*
Y0012075D01*
X0024675D01*
X0022913Y0003423D02*
X0022039D01*
Y0002561D01*
X0022398D01*
Y0002439D01*
X0022039D01*
Y0001577D01*
X0022913D01*
Y0003423D01*
X0020134Y0000996D02*
X0019976D01*
Y0001323D01*
X0018846D01*
Y0003677D01*
X0023153D01*
Y0001323D01*
X0022024D01*
Y0000996D01*
X0021866D01*
Y0000531D01*
X0020134D01*
Y0000996D01*
Y0001577D01*
X0020476D01*
X0020945D01*
Y0002439D01*
X0020071D01*
Y0001577D01*
X0020134D01*
X0021866Y0000996D02*
Y0001577D01*
X0021929D01*
Y0002439D01*
X0021055D01*
Y0001577D01*
X0021524D01*
Y0001468D01*
X0020476D01*
Y0001577D01*
X0019399Y0003117D02*
Y0002867D01*
X0019649D01*
Y0003117D01*
X0019399D01*
X0019458Y0003058D01*
Y0002926D01*
X0019589D01*
Y0003058D01*
X0019458D01*
X0019589Y0001942D02*
X0019649Y0001883D01*
X0019399D01*
X0019458Y0001942D01*
X0019589D01*
Y0002074D01*
X0019649Y0002133D01*
X0019399D01*
X0019458Y0002074D01*
X0019589D01*
X0019399Y0002133D02*
Y0001883D01*
Y0002867D02*
X0019458Y0002926D01*
X0019649Y0002867D02*
X0019589Y0002926D01*
X0019649Y0003117D02*
X0019589Y0003058D01*
X0022410D02*
X0022351Y0003117D01*
X0022601D01*
X0022542Y0003058D01*
X0022410D01*
Y0002926D01*
X0022351Y0002867D01*
X0022601D01*
X0022542Y0002926D01*
X0022410D01*
X0022542Y0003058D02*
Y0002926D01*
Y0001942D02*
X0022601Y0001883D01*
X0022351D01*
X0022410Y0001942D01*
X0022542D01*
Y0002074D01*
X0022601Y0002133D01*
X0022351D01*
X0022410Y0002074D01*
X0022542D01*
X0022351Y0003117D02*
Y0002867D01*
Y0002133D02*
Y0001883D01*
X0022410Y0001942D02*
Y0002074D01*
X0022601Y0003117D02*
Y0002867D01*
Y0002133D02*
Y0001883D01*
X0022398Y0002561D02*
X0022634D01*
Y0002439D01*
X0022398D01*
X0022913Y0002561D02*
X0022634D01*
Y0002439D02*
X0022913D01*
X0020383Y0003117D02*
Y0002867D01*
X0020633D01*
X0020574Y0002926D01*
Y0003058D01*
X0020633Y0003117D01*
X0020383D01*
X0020442Y0003058D01*
Y0002926D01*
X0020574D01*
X0020442Y0003058D02*
X0020574D01*
X0020383Y0002867D02*
X0020442Y0002926D01*
X0020574Y0001942D02*
X0020633Y0001883D01*
X0020383D01*
X0020442Y0001942D01*
X0020574D01*
Y0002074D01*
X0020633Y0002133D01*
X0020383D01*
X0020442Y0002074D01*
X0020574D01*
X0020383Y0002133D02*
Y0001883D01*
X0020442Y0001942D02*
Y0002074D01*
X0020633Y0003117D02*
Y0002867D01*
Y0002133D02*
Y0001883D01*
X0021367Y0003117D02*
Y0002867D01*
X0021617D01*
X0021558Y0002926D01*
Y0003058D01*
X0021617Y0003117D01*
X0021367D01*
X0021426Y0003058D01*
Y0002926D01*
X0021558D01*
X0021426Y0003058D02*
X0021558D01*
X0021367Y0002867D02*
X0021426Y0002926D01*
X0021558Y0001942D02*
X0021617Y0001883D01*
X0021367D01*
X0021426Y0001942D01*
X0021558D01*
Y0002074D01*
X0021617Y0002133D01*
X0021367D01*
X0021426Y0002074D01*
X0021558D01*
X0021367Y0002133D02*
Y0001883D01*
X0021426Y0001942D02*
Y0002074D01*
X0021617Y0003117D02*
Y0002867D01*
Y0002133D02*
Y0001883D01*
X0019976Y0000276D02*
Y0000421D01*
X0022024D01*
Y0000276D01*
X0021945Y0000197D02*
X0020055D01*
X0019976Y0000996D02*
Y0000421D01*
X0022024Y0000996D02*
Y0000421D01*
X0021524Y0001577D02*
X0021866D01*
X0019961D02*
Y0002439D01*
X0019087D01*
Y0001577D01*
X0019961D01*
X0021929Y0003423D02*
X0021055D01*
Y0002561D01*
X0021929D01*
Y0003423D01*
X0020945D02*
X0020071D01*
Y0002561D01*
X0020945D01*
Y0003423D01*
X0019961D02*
X0019087D01*
Y0002561D01*
X0019961D01*
Y0003423D01*
X0019458Y0001942D02*
Y0002074D01*
X0019649Y0002133D02*
Y0001883D01*
X0017898Y0003413D02*
X0017024D01*
Y0002551D01*
X0017382D01*
Y0002429D01*
X0017024D01*
Y0001567D01*
X0017898D01*
Y0003413D01*
X0014134Y0000986D02*
X0013976D01*
Y0001313D01*
X0011862D01*
Y0003667D01*
X0018138D01*
Y0001313D01*
X0016024D01*
Y0000986D01*
X0015866D01*
Y0000521D01*
X0014134D01*
Y0000986D01*
Y0001567D01*
X0014476D01*
X0014945D01*
Y0002429D01*
X0014071D01*
Y0001567D01*
X0014134D01*
X0015866Y0000986D02*
Y0001567D01*
X0015929D01*
Y0002429D01*
X0015055D01*
Y0001567D01*
X0015524D01*
Y0001458D01*
X0014476D01*
Y0001567D01*
X0013468Y0009673D02*
X0012594D01*
Y0008811D01*
X0013468D01*
Y0009673D01*
X0012965Y0008192D02*
Y0008324D01*
X0013156Y0008383D02*
Y0008133D01*
X0017925Y0009325D02*
Y0008175D01*
X0018570D01*
Y0009325D01*
X0017925D01*
X0016075Y0010175D02*
Y0011325D01*
X0015430D01*
Y0010175D01*
X0016075D01*
X0017950Y0006050D02*
Y0003950D01*
X0019050D01*
Y0006050D01*
X0017950D01*
X0022825Y0003925D02*
Y0005075D01*
X0022180D01*
Y0003925D01*
X0022825D01*
X0023575D02*
Y0005075D01*
X0022930D01*
Y0003925D01*
X0023575D01*
X0016419Y0012809D02*
X0016955D01*
Y0014187D02*
Y0014423D01*
X0016419D01*
X0014081D02*
X0013545D01*
Y0014187D01*
Y0012809D01*
X0014081Y0014187D02*
X0013545D01*
X0014384Y0011781D02*
X0016116D01*
Y0012250D01*
Y0012827D01*
X0016179D01*
Y0013689D01*
X0015305D01*
Y0012827D01*
X0015774D01*
Y0012716D01*
X0014726D01*
Y0012827D01*
X0015195D01*
Y0013689D01*
X0014837D01*
Y0013811D01*
X0015195D01*
Y0014673D01*
X0014321D01*
Y0012827D01*
X0014384D01*
Y0012250D01*
Y0011781D01*
X0014081Y0012809D02*
X0013545D01*
Y0012573D01*
X0014081D01*
Y0014927D01*
X0016419D01*
Y0012573D01*
X0016955D01*
Y0012809D01*
Y0014187D01*
X0016419D01*
X0015808Y0014176D02*
X0015867Y0014117D01*
Y0014367D01*
X0015617D01*
X0015676Y0014308D01*
Y0014176D01*
X0015808D01*
Y0014308D01*
X0015676D01*
X0015867Y0014117D02*
X0015617D01*
X0015676Y0014176D01*
X0015808Y0013192D02*
X0015867Y0013133D01*
X0015617D01*
X0015676Y0013192D01*
X0015808D01*
Y0013324D01*
X0015867Y0013383D01*
X0015617D01*
X0015676Y0013324D01*
X0015808D01*
X0015617Y0014367D02*
Y0014117D01*
Y0013383D02*
Y0013133D01*
X0015676Y0013192D02*
Y0013324D01*
X0015867Y0013383D02*
Y0013133D01*
X0014321Y0013689D02*
X0014600D01*
Y0013811D01*
X0014837D01*
Y0013689D02*
X0014600D01*
X0014633Y0014367D02*
Y0014117D01*
X0014883D01*
X0014824Y0014176D01*
Y0014308D01*
X0014883Y0014367D01*
X0014633D01*
X0014692Y0014308D01*
Y0014176D01*
X0014824D01*
X0014692Y0014308D02*
X0014824D01*
X0014633Y0014117D02*
X0014692Y0014176D01*
X0014824Y0013192D02*
X0014883Y0013133D01*
X0014633D01*
X0014692Y0013192D01*
X0014824D01*
Y0013324D01*
X0014883Y0013383D01*
X0014633D01*
X0014692Y0013324D01*
X0014824D01*
X0014633Y0013383D02*
Y0013133D01*
X0014692Y0013192D02*
Y0013324D01*
X0014883Y0014367D02*
Y0014117D01*
Y0013383D02*
Y0013133D01*
X0014321Y0013811D02*
X0014600D01*
X0014226Y0011526D02*
Y0011675D01*
X0016274D01*
Y0011526D01*
X0016195Y0011447D02*
X0014300Y0011450D01*
X0014081Y0012573D02*
X0014226D01*
Y0012250D01*
Y0011675D01*
X0016116Y0012250D02*
X0016274D01*
Y0011675D01*
X0015867Y0014367D02*
X0015808Y0014308D01*
X0014384Y0012827D02*
X0014726D01*
X0015774D02*
X0016116D01*
X0016179Y0014673D02*
X0015305D01*
Y0013811D01*
X0016179D01*
Y0014673D01*
X0016419Y0012573D02*
X0016274D01*
Y0012250D01*
X0014384D02*
X0014226D01*
X0029075Y0013925D02*
Y0015075D01*
X0028430D01*
Y0013925D01*
X0029075D01*
X0028325D02*
Y0015075D01*
X0027680D01*
Y0013925D01*
X0028325D01*
X0027575D02*
Y0015075D01*
X0026930D01*
Y0013925D01*
X0027575D01*
X0015075Y0010175D02*
Y0011325D01*
X0014430D01*
Y0010175D01*
X0015075D01*
X0029825Y0013925D02*
Y0015075D01*
X0029180D01*
Y0013925D01*
X0029825D01*
X0026825D02*
Y0015075D01*
X0026180D01*
Y0013925D01*
X0026825D01*
X0027675Y0012075D02*
Y0010925D01*
X0028320D01*
Y0012075D01*
X0027675D01*
X0022630Y0012563D02*
X0021370D01*
X0022630Y0012523D02*
X0021370D01*
X0022630Y0012484D02*
X0021370D01*
X0022630Y0012445D02*
X0021370D01*
X0022630Y0012405D02*
X0021370D01*
Y0012681D02*
Y0010319D01*
X0022630D01*
Y0012681D01*
X0021370D01*
X0022630D02*
X0021370D01*
X0022630Y0012642D02*
X0021370D01*
X0022630Y0012602D02*
X0021370D01*
X0026925Y0012075D02*
Y0010925D01*
X0027570D01*
Y0012075D01*
X0026925D01*
X0029075Y0010925D02*
Y0012075D01*
X0028430D01*
Y0010925D01*
X0029075D01*
X0029825D02*
Y0012075D01*
X0029180D01*
Y0010925D01*
X0029825D01*
X0026825D02*
Y0012075D01*
X0026180D01*
Y0010925D01*
X0026825D01*
X0024130Y0012563D02*
X0022870D01*
X0024130Y0012523D02*
X0022870D01*
X0024130Y0012484D02*
X0022870D01*
X0024130Y0012445D02*
X0022870D01*
X0024130Y0012405D02*
X0022870D01*
Y0012681D02*
Y0010319D01*
X0024130D01*
Y0012681D01*
X0022870D01*
X0024130D02*
X0022870D01*
X0024130Y0012642D02*
X0022870D01*
X0024130Y0012602D02*
X0022870D01*
X0026825Y0006425D02*
Y0007575D01*
X0026180D01*
Y0006425D01*
X0026825D01*
X0026925Y0007575D02*
Y0006425D01*
X0027570D01*
Y0007575D01*
X0026925D01*
X0028175Y0008575D02*
Y0007425D01*
X0028820D01*
Y0008575D01*
X0028175D01*
X0034805Y0009051D02*
X0034648D01*
Y0008602D01*
X0034805D01*
Y0009051D01*
X0035254D01*
Y0008602D01*
X0034805D01*
X0036390Y0005835D02*
X0036211D01*
X0036246Y0004776D02*
X0036446D01*
X0036303Y0009890D02*
X0033880D01*
Y0006110D01*
X0034589D01*
X0036303Y0009890D02*
X0036396D01*
X0036553Y0010047D01*
X0036947D01*
X0037104Y0009890D01*
X0037197D01*
X0037659D01*
Y0008669D01*
X0034904Y0006110D02*
X0036303D01*
X0035888Y0006819D02*
X0036242Y0006465D01*
X0037305D01*
Y0007882D01*
X0036242D01*
X0035888Y0007528D01*
Y0006819D01*
X0034234Y0008472D02*
X0034589Y0008118D01*
X0035652D01*
Y0009535D01*
X0034589D01*
X0034234Y0009181D01*
Y0008472D01*
X0035888Y0008118D02*
X0037305D01*
Y0009535D01*
X0035888D01*
Y0008118D01*
X0034234Y0006465D02*
X0035652D01*
Y0007882D01*
X0034234D01*
Y0006465D01*
X0034805Y0007398D02*
Y0006949D01*
X0034648D01*
Y0007398D01*
X0034805D01*
X0035254D01*
Y0006949D01*
X0034805D01*
X0036891Y0007398D02*
X0037049D01*
Y0006949D01*
X0036891D01*
Y0007398D01*
X0036443D01*
Y0006949D01*
X0036891D01*
X0036446Y0011224D02*
X0036246D01*
X0036211Y0010165D02*
X0036390D01*
X0036446Y0011224D02*
X0037054D01*
X0037109Y0010165D02*
X0037289D01*
X0037254Y0011224D02*
X0037054D01*
X0037659Y0007331D02*
Y0008669D01*
X0038210D01*
Y0007331D01*
X0037659D01*
Y0006110D01*
X0037197D01*
X0036303D01*
X0036446Y0004776D02*
X0037054D01*
X0037109Y0005835D02*
X0037289D01*
X0037254Y0004776D02*
X0037054D01*
X0036891Y0009051D02*
X0037049D01*
Y0008602D01*
X0036891D01*
Y0009051D01*
X0036443D01*
Y0008602D01*
X0036891D01*
X0031825Y0009675D02*
Y0010825D01*
X0031180D01*
Y0009675D01*
X0031825D01*
X0005317Y0008909D02*
X0005354D01*
X0005361D01*
X0005405D01*
X0005450D01*
X0005457D01*
X0005494D01*
Y0007671D01*
X0005317D02*
Y0007673D01*
Y0007671D01*
Y0008909D01*
X0005333D01*
X0005337D01*
X0005405D01*
X0005474D01*
X0005477D01*
X0005494D01*
X0005092D02*
X0005055D01*
X0005048D01*
X0005004D01*
Y0007569D01*
X0005092Y0007671D02*
Y0008909D01*
X0005076D01*
X0005072D01*
X0005004D01*
X0004935D01*
X0004932D01*
X0004915D01*
Y0007671D01*
X0004674Y0008909D02*
X0004691D01*
Y0007671D01*
X0004514D02*
Y0007673D01*
Y0007671D01*
Y0008909D01*
X0004530D01*
X0004533D01*
X0004602D01*
X0004671D01*
X0004112D02*
X0004149D01*
X0004157D01*
X0004201D01*
X0004245D01*
X0004252D01*
X0004289D01*
Y0007671D01*
X0004112D02*
Y0007673D01*
Y0007671D01*
Y0008909D01*
X0004129D01*
X0004132D01*
X0004201D01*
X0004269D01*
X0004273D01*
X0004289D01*
X0003711D02*
X0003748D01*
X0003755D01*
X0003799D01*
X0003843D01*
X0003851D01*
X0003888D01*
Y0007671D01*
X0003711D02*
Y0007673D01*
Y0007671D01*
Y0008909D01*
X0003727D01*
X0003730D01*
X0003799D01*
X0003868D01*
X0003871D01*
X0003888D01*
X0003309D02*
X0003346D01*
X0003353D01*
X0003398D01*
X0003442D01*
X0003449D01*
X0003486D01*
Y0007671D01*
X0003309D02*
Y0007673D01*
Y0007671D01*
Y0008909D01*
X0003325D01*
X0003329D01*
X0003398D01*
X0003466D01*
X0003469D01*
X0003486D01*
X0002907D02*
X0002945D01*
X0002952D01*
X0002996D01*
X0003040D01*
X0003047D01*
X0003085D01*
Y0007671D01*
X0002907D02*
Y0007673D01*
Y0007671D01*
Y0008909D01*
X0002924D01*
X0002927D01*
X0002996D01*
X0003064D01*
X0003068D01*
X0003085D01*
X0002506D02*
X0002543D01*
X0002550D01*
X0002594D01*
X0002638D01*
X0002646D01*
X0002683D01*
Y0007671D01*
X0002506D02*
Y0007673D01*
Y0007671D01*
Y0008909D01*
X0002522D01*
X0002526D01*
X0002594D01*
X0002663D01*
X0002666D01*
X0002683D01*
X0002074Y0010709D02*
X0002053Y0010945D01*
X0001638D01*
X0000949D01*
Y0010709D01*
X0007051D01*
Y0004449D01*
X0000949D01*
Y0010709D01*
X0002256Y0008909D02*
X0005744D01*
Y0009401D01*
X0002256D01*
Y0008909D01*
X0001655D01*
Y0006220D01*
X0002701D01*
X0005299D01*
Y0005555D01*
X0004807D01*
Y0005051D01*
X0004799D01*
Y0004697D01*
X0003201D01*
Y0005051D01*
X0003193D01*
Y0005555D01*
X0002701D01*
Y0006220D01*
X0005744Y0008909D02*
X0006344D01*
Y0006220D01*
X0005299D01*
X0004514Y0008909D02*
X0004551D01*
X0004558D01*
X0004602D01*
X0004646D01*
X0004654D01*
X0004691D01*
X0002594D02*
Y0007569D01*
X0002996Y0008909D02*
Y0007569D01*
X0003398Y0008909D02*
Y0007569D01*
X0003799Y0008909D02*
Y0007569D01*
X0004201Y0008909D02*
Y0007569D01*
X0004602Y0008909D02*
Y0007569D01*
X0005004Y0008909D02*
X0004960D01*
X0004952D01*
X0004915D01*
X0005405D02*
Y0007569D01*
X0006362Y0010709D02*
Y0010945D01*
X0005935D01*
X0005872Y0010709D01*
X0005628D02*
X0005565Y0010945D01*
X0005447D01*
X0005426Y0010709D01*
X0005074D02*
X0005053Y0010945D01*
X0004935D01*
X0004872Y0010709D01*
X0004628D02*
X0004565Y0010945D01*
X0004447D01*
X0004426Y0010709D01*
X0004074D02*
X0004053Y0010945D01*
X0003935D01*
X0003872Y0010709D01*
X0003628D02*
X0003565Y0010945D01*
X0003447D01*
X0003426Y0010709D01*
X0003074D02*
X0003053Y0010945D01*
X0002935D01*
X0002872Y0010709D01*
X0002628D02*
X0002565Y0010945D01*
X0002447D01*
X0002426Y0010709D01*
X0007051D02*
Y0010945D01*
X0006362D01*
X0007051Y0005433D02*
X0007524D01*
Y0009716D01*
X0007051D01*
X0000949D02*
X0000476D01*
Y0005433D01*
X0000949D01*
X0001638Y0010709D02*
Y0010945D01*
X0002248Y0006220D02*
Y0006614D01*
X0001655D01*
X0006344D02*
X0005752D01*
Y0006220D01*
X0004799Y0005051D02*
X0003201D01*
X0028925Y0008325D02*
Y0007175D01*
X0029570D01*
Y0008325D01*
X0028925D01*
X0030325Y0009675D02*
Y0010825D01*
X0029680D01*
Y0009675D01*
X0030325D01*
X0028825Y0006175D02*
Y0007325D01*
X0028180D01*
Y0006175D01*
X0028825D01*
X0028250Y0012300D02*
X0027750D01*
X0027650Y0012400D01*
Y0013700D01*
X0028350D01*
Y0012400D01*
X0028250Y0012300D01*
X0028350Y0012900D02*
X0027650D01*
X0011500Y0009200D02*
X0012000D01*
X0012100Y0009100D01*
Y0007800D01*
X0011400D01*
Y0009100D01*
X0011500Y0009200D01*
X0011400Y0008600D02*
X0012100D01*
X0027700Y0010800D02*
Y0008700D01*
X0028800D01*
Y0010800D01*
X0027700D01*
X0031075Y0006675D02*
Y0007825D01*
X0030430D01*
Y0006675D01*
X0031075D01*
X0027419Y0002526D02*
X0027955D01*
Y0002685D01*
X0027419D01*
Y0001315D01*
X0027274D01*
Y0000992D01*
X0027116D01*
Y0000524D01*
X0025384D01*
Y0000992D01*
X0025226D01*
Y0000417D01*
X0027274D01*
Y0000992D01*
X0025081Y0002526D02*
X0024545D01*
Y0001474D01*
Y0001315D01*
X0025081D01*
Y0002685D01*
X0024545D01*
Y0002526D01*
X0025384Y0000992D02*
Y0001569D01*
X0025321D01*
Y0002431D01*
X0027179D01*
Y0001569D01*
X0027116D01*
X0026774D01*
X0026305D01*
Y0001915D01*
Y0002151D01*
X0026195D01*
Y0001915D01*
X0026305D01*
X0025384Y0001569D02*
X0025726D01*
X0026195D01*
Y0001915D01*
X0026774Y0001569D02*
Y0001459D01*
X0025726D01*
Y0001569D01*
X0027274Y0000417D02*
Y0000189D01*
X0025226D01*
Y0000417D01*
X0027116Y0000992D02*
Y0001569D01*
X0027419Y0001474D02*
X0027955D01*
Y0001315D01*
X0027419D01*
X0025633Y0001875D02*
X0025883D01*
Y0002125D01*
X0025824Y0002066D01*
X0025692D01*
X0025633Y0002125D01*
Y0001875D01*
X0025692Y0001934D01*
Y0002066D01*
X0025883Y0002125D02*
X0025633D01*
X0026808Y0001934D02*
X0026867Y0001875D01*
X0026617D01*
X0026676Y0001934D01*
X0026808D01*
Y0002066D01*
X0026867Y0002125D01*
X0026617D01*
X0026676Y0002066D01*
X0026808D01*
X0026617Y0002125D02*
Y0001875D01*
X0026676Y0001934D02*
Y0002066D01*
X0026867Y0002125D02*
Y0001875D01*
X0025081Y0001474D02*
X0024545D01*
X0025226Y0000992D02*
Y0001315D01*
X0025081D01*
X0026305Y0002151D02*
Y0002431D01*
X0026195Y0002151D02*
Y0002431D01*
X0025883Y0001875D02*
X0025824Y0001934D01*
X0025692D01*
X0025824D02*
Y0002066D01*
X0027955Y0001474D02*
Y0002526D01*
X0025081Y0002685D02*
X0027419D01*
X0032140Y0012542D02*
Y0014340D01*
X0032592D01*
Y0014551D01*
X0032256D01*
X0032163Y0014819D01*
X0033337D01*
X0033244Y0014551D01*
X0032907D01*
Y0014340D01*
X0033360D01*
Y0012542D01*
X0032140D01*
X0031825Y0007175D02*
Y0008325D01*
X0031180D01*
Y0007175D01*
X0031825D01*
X0030425Y0010825D02*
Y0009675D01*
X0031070D01*
Y0010825D01*
X0030425D01*
X0030575Y0013925D02*
Y0015075D01*
X0029930D01*
Y0013925D01*
X0030575D01*
X0016601Y0002123D02*
Y0001873D01*
X0014383Y0003107D02*
Y0002857D01*
X0014633D01*
X0014574Y0002916D01*
Y0003048D01*
X0014633Y0003107D01*
X0014383D01*
X0014442Y0003048D01*
Y0002916D01*
X0014574D01*
X0014442Y0003048D02*
X0014574D01*
X0014383Y0002857D02*
X0014442Y0002916D01*
X0014574Y0001932D02*
X0014633Y0001873D01*
X0014383D01*
X0014442Y0001932D01*
X0014574D01*
Y0002064D01*
X0014633Y0002123D01*
X0014383D01*
X0014442Y0002064D01*
X0014574D01*
X0014383Y0002123D02*
Y0001873D01*
X0014442Y0001932D02*
Y0002064D01*
X0014633Y0003107D02*
Y0002857D01*
Y0002123D02*
Y0001873D01*
X0015367Y0003107D02*
Y0002857D01*
X0015617D01*
X0015558Y0002916D01*
Y0003048D01*
X0015617Y0003107D01*
X0015367D01*
X0015426Y0003048D01*
Y0002916D01*
X0015558D01*
X0015426Y0003048D02*
X0015558D01*
X0015367Y0002857D02*
X0015426Y0002916D01*
X0015558Y0001932D02*
X0015617Y0001873D01*
X0015367D01*
X0015426Y0001932D01*
X0015558D01*
Y0002064D01*
X0015617Y0002123D01*
X0015367D01*
X0015426Y0002064D01*
X0015558D01*
X0015367Y0002123D02*
Y0001873D01*
X0015426Y0001932D02*
Y0002064D01*
X0015617Y0003107D02*
Y0002857D01*
Y0002123D02*
Y0001873D01*
X0014050Y0000187D02*
X0015945D01*
X0016024Y0000266D02*
Y0000411D01*
X0013976D01*
Y0000266D01*
Y0000986D02*
Y0000411D01*
X0016024Y0000986D02*
Y0000411D01*
X0015524Y0001567D02*
X0015866D01*
X0013399Y0003107D02*
Y0002857D01*
X0013649D01*
X0013589Y0002916D01*
Y0003048D01*
X0013649Y0003107D01*
X0013399D01*
X0013458Y0003048D01*
Y0002916D01*
X0013589D01*
X0013458Y0003048D02*
X0013589D01*
X0013399Y0002857D02*
X0013458Y0002916D01*
X0013589Y0001932D02*
X0013649Y0001873D01*
X0013399D01*
X0013458Y0001932D01*
X0013589D01*
Y0002064D01*
X0013649Y0002123D01*
X0013399D01*
X0013458Y0002064D01*
X0013589D01*
X0013399Y0002123D02*
Y0001873D01*
X0013458Y0001932D02*
Y0002064D01*
X0013649Y0003107D02*
Y0002857D01*
Y0002123D02*
Y0001873D01*
X0012976Y0001567D02*
Y0002429D01*
X0012102D01*
Y0001567D01*
X0012976D01*
X0016913Y0003413D02*
X0016039D01*
Y0002551D01*
X0016913D01*
Y0003413D01*
Y0001567D02*
Y0002429D01*
X0016039D01*
Y0001567D01*
X0016913D01*
X0015929Y0003413D02*
X0015055D01*
Y0002551D01*
X0015929D01*
Y0003413D01*
X0014945D02*
X0014071D01*
Y0002551D01*
X0014945D01*
Y0003413D01*
X0013961D02*
X0013087D01*
Y0002551D01*
X0013961D01*
Y0003413D01*
Y0001567D02*
Y0002429D01*
X0013087D01*
Y0001567D01*
X0013961D01*
X0012976Y0003413D02*
X0012102D01*
Y0002551D01*
X0012976D01*
Y0003413D01*
X0012473Y0001932D02*
Y0002064D01*
X0012664Y0002123D02*
Y0001873D01*
X0025425Y0012075D02*
Y0010925D01*
X0026070D01*
Y0012075D01*
X0025425D01*
X0034425Y0011225D02*
Y0010075D01*
X0035070D01*
Y0011225D01*
X0034425D01*
X0009675Y0007575D02*
Y0006425D01*
X0010320D01*
Y0007575D01*
X0009675D01*
X0030750Y0012300D02*
X0030250D01*
X0030150Y0012400D01*
Y0013700D01*
X0030850D01*
Y0012400D01*
X0030750Y0012300D01*
X0030850Y0012900D02*
X0030150D01*
X0012925Y0006825D02*
Y0005675D01*
X0013570D01*
Y0006825D01*
X0012925D01*
X0027500Y0012300D02*
X0027000D01*
X0026900Y0012400D01*
Y0013700D01*
X0027600D01*
Y0012400D01*
X0027500Y0012300D01*
X0027600Y0012900D02*
X0026900D01*
X0010450Y0003550D02*
Y0001450D01*
X0011550D01*
Y0003550D01*
X0010450D01*
X0008001Y0008329D02*
X0007924Y0008410D01*
Y0009708D01*
X0009576D01*
Y0008289D01*
X0008041D01*
X0008001Y0008329D01*
X0029900Y0007950D02*
X0031000D01*
Y0009600D01*
X0029750D01*
Y0008100D01*
X0029900Y0007950D01*
X0029768Y0007912D02*
X0029631D01*
X0029769Y0007988D02*
Y0007914D01*
X0029715Y0008028D02*
Y0007874D01*
X0029661Y0008019D02*
Y0007882D01*
X0029737Y0008020D02*
X0029663D01*
X0029777Y0007966D02*
X0029623D01*
X0034289Y0013461D02*
X0034407Y0013342D01*
X0034092D01*
X0034211Y0013461D01*
X0034092Y0013657D02*
Y0013342D01*
X0034407D02*
Y0013657D01*
X0032711Y0013461D02*
Y0013539D01*
X0032592Y0013657D02*
Y0013342D01*
X0032907D02*
Y0013657D01*
X0034289Y0013539D02*
X0034407Y0013657D01*
X0034092D01*
X0034211Y0013539D01*
X0034289D01*
Y0013461D01*
X0034211D01*
Y0013539D01*
X0033756Y0014551D02*
X0033663Y0014819D01*
X0034837D01*
X0034744Y0014551D01*
X0034407D01*
Y0014340D01*
X0034860D01*
Y0012542D01*
X0033640D01*
Y0014340D01*
X0034092D01*
Y0014551D01*
X0033756D01*
X0026750Y0012300D02*
X0026250D01*
X0026150Y0012400D01*
Y0013700D01*
X0026850D01*
Y0012400D01*
X0026750Y0012300D01*
X0026850Y0012900D02*
X0026150D01*
X0012414Y0003107D02*
Y0002857D01*
X0012664D01*
Y0003107D01*
X0012414D01*
X0012473Y0003048D01*
Y0002916D01*
X0012605D01*
Y0003048D01*
X0012473D01*
X0012605Y0001932D02*
X0012664Y0001873D01*
X0012414D01*
X0012473Y0001932D01*
X0012605D01*
Y0002064D01*
X0012664Y0002123D01*
X0012414D01*
X0012473Y0002064D01*
X0012605D01*
X0012414Y0002123D02*
Y0001873D01*
Y0002857D02*
X0012473Y0002916D01*
X0012664Y0002857D02*
X0012605Y0002916D01*
X0012664Y0003107D02*
X0012605Y0003048D01*
X0017395D02*
X0017336Y0003107D01*
X0017586D01*
X0017526Y0003048D01*
X0017395D01*
Y0002916D01*
X0017336Y0002857D01*
X0017586D01*
X0017526Y0002916D01*
X0017395D01*
X0017526Y0003048D02*
Y0002916D01*
X0032789Y0013539D02*
X0032907Y0013657D01*
X0032592D01*
X0032711Y0013539D01*
X0032789D01*
Y0013461D01*
X0032907Y0013342D01*
X0032592D01*
X0032711Y0013461D01*
X0032789D01*
X0020300Y0003950D02*
Y0006050D01*
X0019200D01*
Y0003950D01*
X0020300D01*
X0018075Y0006175D02*
Y0007325D01*
X0017430D01*
Y0006175D01*
X0018075D01*
X0010325Y0002425D02*
Y0003575D01*
X0009680D01*
Y0002425D01*
X0010325D01*
X0017526Y0001932D02*
X0017586Y0001873D01*
X0017336D01*
X0017395Y0001932D01*
X0017526D01*
Y0002064D01*
X0017586Y0002123D01*
X0017336D01*
X0017395Y0002064D01*
X0017526D01*
X0017336Y0003107D02*
Y0002857D01*
Y0002123D02*
Y0001873D01*
X0019338Y0007809D02*
X0018803D01*
Y0007573D01*
X0019338D01*
Y0009927D01*
X0022661D01*
Y0007573D01*
X0022024D01*
Y0007250D01*
X0021866D01*
Y0006781D01*
X0020134D01*
Y0007250D01*
Y0007827D01*
X0019579D01*
Y0009673D01*
X0020453D01*
Y0008811D01*
X0020094D01*
Y0008689D01*
X0020453D01*
Y0007716D01*
X0021547D01*
Y0008689D01*
X0022421D01*
Y0007827D01*
X0021866D01*
Y0007250D01*
X0022661Y0009187D02*
X0023197D01*
Y0007809D01*
Y0007573D01*
X0022661D01*
X0022050Y0009176D02*
X0022109Y0009117D01*
Y0009367D01*
X0021859D01*
X0021918Y0009308D01*
Y0009176D01*
X0022050D01*
Y0009308D01*
X0021918D01*
X0022109Y0009117D02*
X0021859D01*
X0021918Y0009176D01*
X0022050Y0008192D02*
X0022109Y0008133D01*
X0021859D01*
X0021918Y0008192D01*
X0022050D01*
Y0008324D01*
X0022109Y0008383D01*
X0021859D01*
X0021918Y0008324D01*
X0022050D01*
X0021859Y0009367D02*
Y0009117D01*
Y0008383D02*
Y0008133D01*
X0021918Y0008192D02*
Y0008324D01*
X0022109Y0008383D02*
Y0008133D01*
X0019579Y0008689D02*
X0019858D01*
Y0008811D01*
X0020094D01*
Y0008689D02*
X0019858D01*
X0019891Y0009367D02*
Y0009117D01*
X0020141D01*
X0020082Y0009176D01*
Y0009308D01*
X0020141Y0009367D01*
X0019891D01*
X0019950Y0009308D01*
Y0009176D01*
X0020082D01*
X0019950Y0009308D02*
X0020082D01*
X0019891Y0009117D02*
X0019950Y0009176D01*
X0020082Y0008192D02*
X0020141Y0008133D01*
X0019891D01*
X0019950Y0008192D01*
X0020082D01*
Y0008324D01*
X0020141Y0008383D01*
X0019891D01*
X0019950Y0008324D01*
X0020082D01*
X0019891Y0008383D02*
Y0008133D01*
X0019950Y0008192D02*
Y0008324D01*
X0020141Y0009367D02*
Y0009117D01*
Y0008383D02*
Y0008133D01*
X0019579Y0008811D02*
X0019858D01*
X0020060Y0006447D02*
X0021945D01*
X0022024Y0006526D02*
Y0006675D01*
X0019976D01*
Y0006526D01*
X0019338Y0007573D02*
X0019976D01*
Y0007250D01*
Y0006675D01*
X0022024Y0007250D02*
Y0006675D01*
X0022109Y0009367D02*
X0022050Y0009308D01*
X0020134Y0007827D02*
X0020453D01*
X0021547D02*
X0021866D01*
X0020875Y0009367D02*
Y0009117D01*
X0021125D01*
X0021066Y0009176D01*
Y0009308D01*
X0021125Y0009367D01*
X0020875D01*
X0020934Y0009308D01*
Y0009176D01*
X0021066D01*
X0020934Y0009308D02*
X0021066D01*
X0020875Y0009117D02*
X0020934Y0009176D01*
X0021066Y0008192D02*
X0021125Y0008133D01*
X0020875D01*
X0020934Y0008192D01*
X0021066D01*
Y0008324D01*
X0021125Y0008383D01*
X0020875D01*
X0020934Y0008324D01*
X0021066D01*
X0020875Y0008383D02*
Y0008133D01*
X0020934Y0008192D02*
Y0008324D01*
X0021125Y0009367D02*
Y0009117D01*
Y0008383D02*
Y0008133D01*
X0021437Y0007827D02*
Y0008689D01*
X0020563D01*
Y0007827D01*
X0021437D01*
X0022421Y0009673D02*
X0021547D01*
Y0008811D01*
X0022421D01*
Y0009673D01*
X0021437D02*
X0020563D01*
Y0008811D01*
X0021437D01*
Y0009673D01*
X0020134Y0007250D02*
X0019976D01*
X0022661Y0007809D02*
X0023197D01*
Y0009187D02*
Y0009423D01*
X0022661D01*
X0019338D02*
X0018803D01*
Y0009187D01*
Y0007809D01*
X0019338Y0009187D02*
X0018803D01*
X0017395Y0001932D02*
Y0002064D01*
X0017586Y0003107D02*
Y0002857D01*
Y0002123D02*
Y0001873D01*
X0017382Y0002551D02*
X0017618D01*
Y0002429D01*
X0017382D01*
X0017898Y0002551D02*
X0017618D01*
Y0002429D02*
X0017898D01*
X0016351Y0003107D02*
Y0002857D01*
X0016601D01*
X0016542Y0002916D01*
Y0003048D01*
X0016601Y0003107D01*
X0016351D01*
X0016410Y0003048D01*
Y0002916D01*
X0016542D01*
X0016410Y0003048D02*
X0016542D01*
X0016351Y0002857D02*
X0016410Y0002916D01*
X0016542Y0001932D02*
X0016601Y0001873D01*
X0016351D01*
X0016410Y0001932D01*
X0016542D01*
Y0002064D01*
X0016601Y0002123D01*
X0016351D01*
X0016410Y0002064D01*
X0016542D01*
X0016351Y0002123D02*
Y0001873D01*
X0016410Y0001932D02*
Y0002064D01*
X0022751Y0015229D02*
X0022750Y0015216D01*
X0022752D01*
X0023203Y0015104D02*
X0023209Y0015116D01*
X0023619Y0014705D02*
X0023607Y0014699D01*
X0023631Y0014650D01*
X0023639Y0014633D01*
X0023646Y0014616D01*
X0023653Y0014599D01*
X0023659Y0014582D01*
X0023666Y0014564D01*
X0023671Y0014547D01*
X0023677Y0014529D01*
X0023682Y0014511D01*
X0023687Y0014493D01*
X0023692Y0014475D01*
X0023696Y0014457D01*
X0023706Y0014401D01*
X0023709Y0014383D01*
X0023711Y0014364D01*
X0023714Y0014345D01*
X0023718Y0014248D01*
X0023717Y0014196D01*
X0023714Y0014161D01*
X0023713Y0014144D01*
X0023711Y0014127D01*
X0023693Y0014027D01*
X0023689Y0014010D01*
X0023684Y0013994D01*
X0023665Y0013930D01*
X0023659Y0013914D01*
X0023653Y0013899D01*
X0023647Y0013884D01*
X0023627Y0013838D01*
X0023639Y0013833D01*
X0023646Y0013848D01*
X0023659Y0013879D01*
X0023665Y0013894D01*
X0023671Y0013910D01*
X0023677Y0013926D01*
X0023697Y0013991D01*
X0023701Y0014007D01*
X0023705Y0014024D01*
X0023709Y0014041D01*
X0023713Y0014057D01*
X0023719Y0014091D01*
X0023721Y0014108D01*
X0023724Y0014126D01*
X0023726Y0014143D01*
X0023727Y0014160D01*
X0023730Y0014195D01*
X0023731Y0014249D01*
X0023726Y0014346D01*
X0023724Y0014365D01*
X0023722Y0014385D01*
X0023719Y0014404D01*
X0023700Y0014497D01*
X0023695Y0014515D01*
X0023689Y0014533D01*
X0023684Y0014551D01*
X0023678Y0014569D01*
X0023658Y0014621D01*
X0023651Y0014638D01*
X0023643Y0014655D01*
X0023619Y0014705D01*
X0022750Y0013268D02*
X0022751Y0013281D01*
X0022654Y0013285D01*
X0022616Y0013290D01*
X0022597Y0013293D01*
X0022542Y0013303D01*
X0022524Y0013307D01*
X0022506Y0013312D01*
X0022470Y0013322D01*
X0022452Y0013328D01*
X0022435Y0013333D01*
X0022400Y0013346D01*
X0022383Y0013353D01*
X0022349Y0013368D01*
X0022300Y0013392D01*
X0022294Y0013380D01*
X0022344Y0013356D01*
X0022361Y0013348D01*
X0022378Y0013341D01*
X0022430Y0013321D01*
X0022448Y0013315D01*
X0022466Y0013310D01*
X0022484Y0013304D01*
X0022502Y0013299D01*
X0022596Y0013280D01*
X0022615Y0013277D01*
X0022653Y0013273D01*
X0022750Y0013268D01*
X0021882Y0013792D02*
X0021894Y0013798D01*
X0021783Y0014249D02*
X0021770Y0014248D01*
X0021854Y0015233D02*
X0023315D01*
Y0015212D01*
X0021850D01*
X0021787Y0015144D02*
Y0013684D01*
X0021766D01*
Y0015144D01*
X0021855Y0015233D02*
Y0015229D01*
X0021770Y0015145D02*
Y0014636D01*
X0021926D01*
Y0014649D01*
X0021783D01*
Y0015149D01*
X0021849Y0015216D02*
X0022336D01*
Y0015070D01*
X0021920Y0014645D02*
X0021932Y0014639D01*
X0022349Y0015062D02*
Y0015229D01*
X0021855D01*
X0023155Y0013425D02*
X0023135D01*
Y0013264D01*
X0023373D01*
X0023735Y0013620D01*
Y0013846D01*
X0023559D01*
X0023545Y0013819D01*
X0023533Y0013798D01*
X0023495Y0013738D01*
X0023482Y0013719D01*
X0023438Y0013663D01*
X0023422Y0013645D01*
X0023406Y0013628D01*
X0023390Y0013611D01*
X0023373Y0013594D01*
X0023356Y0013578D01*
X0023338Y0013563D01*
X0023302Y0013533D01*
X0023283Y0013519D01*
X0023203Y0013467D01*
X0023183Y0013455D01*
X0023162Y0013444D01*
X0023140Y0013434D01*
X0023149Y0013415D01*
X0023193Y0013438D01*
X0023214Y0013450D01*
X0023295Y0013503D01*
X0023314Y0013517D01*
X0023405Y0013597D01*
X0023421Y0013614D01*
X0023438Y0013632D01*
X0023454Y0013650D01*
X0023469Y0013669D01*
X0023484Y0013687D01*
X0023526Y0013747D01*
X0023539Y0013767D01*
X0023551Y0013788D01*
X0023563Y0013809D01*
X0023571Y0013825D01*
X0023715D01*
Y0013629D01*
X0023365Y0013285D01*
X0023155D01*
Y0013425D01*
X0023715Y0013629D02*
Y0014813D01*
X0023735D01*
Y0013620D01*
X0023365Y0013285D02*
X0022186D01*
Y0013264D01*
X0023373D01*
X0023276Y0014784D02*
X0023286Y0014774D01*
X0023506Y0014994D01*
X0023496Y0015004D01*
X0023276Y0014784D01*
X0021996Y0013493D02*
X0021767Y0013684D01*
X0021969Y0013886D01*
X0021977Y0013871D01*
X0022230Y0013554D02*
X0022220Y0013562D01*
X0021966Y0013864D02*
X0021787Y0013685D01*
X0022004Y0013503D01*
X0022187Y0013285D01*
X0022366Y0013464D01*
X0022221Y0013553D02*
X0022229Y0013563D01*
X0022388Y0013468D02*
X0022186Y0013265D01*
X0021996Y0013493D01*
X0022004Y0013503D01*
X0021781Y0013689D01*
X0021770Y0013693D01*
X0022195Y0013268D02*
X0022191Y0013279D01*
X0022005Y0013502D01*
X0021995Y0013494D01*
X0022179Y0013273D01*
X0022176Y0013281D01*
X0021783Y0013675D02*
X0021775Y0013677D01*
X0021996Y0013493D01*
X0022000Y0013498D01*
X0022185Y0013276D01*
X0022186Y0013275D01*
X0021777Y0013684D02*
X0021778Y0013683D01*
X0022000Y0013498D01*
X0021995Y0013503D01*
X0022005Y0013494D01*
X0022224Y0013713D01*
X0022215Y0013723D01*
X0021995Y0013503D01*
X0023724Y0014813D02*
X0023722Y0014814D01*
X0023501Y0014999D01*
X0023315Y0015221D01*
Y0015222D01*
X0023321Y0015224D01*
X0023324Y0015216D01*
X0023718Y0014823D02*
X0023505Y0015004D01*
X0023496Y0014994D01*
X0023719Y0014808D01*
X0023730Y0014803D01*
X0023306Y0015228D02*
X0023309Y0015217D01*
X0023495Y0014994D01*
X0023506Y0015003D01*
X0023321Y0015224D01*
X0023440Y0014764D02*
X0023445Y0014769D01*
X0023113Y0015029D02*
X0023315Y0015232D01*
X0023506Y0015003D01*
X0023734Y0014813D01*
X0023531Y0014611D01*
X0023436Y0014770D02*
X0023446Y0014778D01*
X0023535Y0014633D02*
X0023714Y0014812D01*
X0023496Y0014995D01*
X0023314Y0015212D01*
X0023135Y0015033D01*
X0023437Y0014779D02*
X0023445Y0014769D01*
X0023440Y0014764D01*
X0022056Y0013728D02*
X0022064Y0013718D01*
X0022055Y0013720D02*
X0022065Y0013727D01*
X0014134Y0007246D02*
X0013976D01*
Y0007573D01*
X0012354D01*
Y0009927D01*
X0017646D01*
Y0007573D01*
X0016024D01*
Y0007246D01*
X0015866D01*
Y0006781D01*
X0014134D01*
Y0007246D01*
Y0007827D01*
X0014453D01*
X0017405Y0009673D02*
X0016531D01*
Y0008811D01*
X0016890D01*
Y0008689D01*
X0016531D01*
Y0007827D01*
X0017405D01*
Y0009673D01*
X0015437Y0007827D02*
Y0008689D01*
X0014563D01*
Y0007827D01*
X0015437D01*
X0014134D02*
X0013579D01*
Y0008689D01*
X0014453D01*
Y0007718D01*
X0015547D01*
Y0008689D01*
X0016421D01*
Y0007827D01*
X0015866D01*
Y0007246D01*
X0012906Y0009367D02*
Y0009117D01*
X0013156D01*
Y0009367D01*
X0012906D01*
X0012965Y0009308D01*
Y0009176D01*
X0013097D01*
Y0009308D01*
X0012965D01*
X0013097Y0008192D02*
X0013156Y0008133D01*
X0012906D01*
X0012965Y0008192D01*
X0013097D01*
Y0008324D01*
X0013156Y0008383D01*
X0012906D01*
X0012965Y0008324D01*
X0013097D01*
X0012906Y0008383D02*
Y0008133D01*
Y0009117D02*
X0012965Y0009176D01*
X0013156Y0009117D02*
X0013097Y0009176D01*
X0013156Y0009367D02*
X0013097Y0009308D01*
X0016902D02*
X0016843Y0009367D01*
X0017093D01*
X0017034Y0009308D01*
X0016902D01*
Y0009176D01*
X0016843Y0009117D01*
X0017093D01*
X0017034Y0009176D01*
X0016902D01*
X0017034Y0009308D02*
Y0009176D01*
Y0008192D02*
X0017093Y0008133D01*
X0016843D01*
X0016902Y0008192D01*
X0017034D01*
Y0008324D01*
X0017093Y0008383D01*
X0016843D01*
X0016902Y0008324D01*
X0017034D01*
X0016843Y0009367D02*
Y0009117D01*
Y0008383D02*
Y0008133D01*
X0016902Y0008192D02*
Y0008324D01*
X0017093Y0009367D02*
Y0009117D01*
Y0008383D02*
Y0008133D01*
X0016890Y0008811D02*
X0017126D01*
Y0008689D01*
X0016890D01*
X0017405Y0008811D02*
X0017126D01*
Y0008689D02*
X0017405D01*
X0014875Y0009367D02*
Y0009117D01*
X0015125D01*
X0015066Y0009176D01*
Y0009308D01*
X0015125Y0009367D01*
X0014875D01*
X0014934Y0009308D01*
Y0009176D01*
X0015066D01*
X0014934Y0009308D02*
X0015066D01*
X0014875Y0009117D02*
X0014934Y0009176D01*
X0015066Y0008192D02*
X0015125Y0008133D01*
X0014875D01*
X0014934Y0008192D01*
X0015066D01*
Y0008324D01*
X0015125Y0008383D01*
X0014875D01*
X0014934Y0008324D01*
X0015066D01*
X0014875Y0008383D02*
Y0008133D01*
X0014934Y0008192D02*
Y0008324D01*
X0015125Y0009367D02*
Y0009117D01*
Y0008383D02*
Y0008133D01*
X0013891Y0009367D02*
Y0009117D01*
X0014141D01*
X0014082Y0009176D01*
Y0009308D01*
X0014141Y0009367D01*
X0013891D01*
X0013950Y0009308D01*
Y0009176D01*
X0014082D01*
X0013950Y0009308D02*
X0014082D01*
X0013891Y0009117D02*
X0013950Y0009176D01*
X0014082Y0008192D02*
X0014141Y0008133D01*
X0013891D01*
X0013950Y0008192D01*
X0014082D01*
Y0008324D01*
X0014141Y0008383D01*
X0013891D01*
X0013950Y0008324D01*
X0014082D01*
X0013891Y0008383D02*
Y0008133D01*
X0013950Y0008192D02*
Y0008324D01*
X0014141Y0009367D02*
Y0009117D01*
Y0008383D02*
Y0008133D01*
X0015859Y0009367D02*
Y0009117D01*
X0016109D01*
X0016050Y0009176D01*
Y0009308D01*
X0016109Y0009367D01*
X0015859D01*
X0015918Y0009308D01*
Y0009176D01*
X0016050D01*
X0015918Y0009308D02*
X0016050D01*
X0015859Y0009117D02*
X0015918Y0009176D01*
X0016050Y0008192D02*
X0016109Y0008133D01*
X0015859D01*
X0015918Y0008192D01*
X0016050D01*
Y0008324D01*
X0016109Y0008383D01*
X0015859D01*
X0015918Y0008324D01*
X0016050D01*
X0015859Y0008383D02*
Y0008133D01*
X0015918Y0008192D02*
Y0008324D01*
X0016109Y0009367D02*
Y0009117D01*
Y0008383D02*
Y0008133D01*
X0013976Y0006526D02*
Y0006671D01*
X0016024D01*
Y0006526D01*
X0015945Y0006447D02*
X0014040D01*
X0013976Y0007246D02*
Y0006671D01*
X0016024Y0007246D02*
Y0006671D01*
X0015547Y0007827D02*
X0015866D01*
X0013468D02*
Y0008689D01*
X0012594D01*
Y0007827D01*
X0013468D01*
X0016421Y0009673D02*
X0015547D01*
Y0008811D01*
X0016421D01*
Y0009673D01*
X0015437D02*
X0014563D01*
Y0008811D01*
X0015437D01*
Y0009673D01*
X0014453D02*
X0013579D01*
Y0008811D01*
X0014453D01*
Y0009673D01*
G01X0021945Y0000197D02*
G03X0022024Y0000276I0000000J0000079D01*
G01X0020042Y0000196D02*
G03X0020055Y0000197I0000000J0000068D01*
G01X0019974Y0000264D02*
G03X0020042Y0000196I0000068J0000000D01*
G01X0019975Y0000277D02*
G03X0019974Y0000264I0000067J0000013D01*
G01X0016195Y0011447D02*
G03X0016274Y0011526I0000000J0000079D01*
G01X0014230Y0011520D02*
G03X0014300Y0011450I0000080J0000010D01*
G01X0036750Y0004732D02*
G03X0036973Y0004776I0000000J0000591D01*
G01X0036527D02*
G03X0036750Y0004732I0000223J0000547D01*
G01X0037045Y0005959D02*
G03X0037109Y0005835I0000152J0000000D01*
G01X0037197Y0006110D02*
G03X0037046Y0005959I0000000J0000151D01*
G01X0036750Y0011267D02*
G03X0036527Y0011224I0000000J0000590D01*
G01X0036973D02*
G03X0036750Y0011268I0000223J0000547D01*
G01X0036211Y0005835D02*
G03X0036007Y0005323I0000539J0000512D01*
G01X0036006D02*
G03X0036246Y0004776I0000744J0000000D01*
G01X0036455Y0010041D02*
G03X0036390Y0010165I0000152J0000000D01*
G01X0036303Y0009890D02*
G03X0036454Y0010041I0000000J0000151D01*
G01X0037045D02*
G03X0037197Y0009889I0000152J0000000D01*
G01X0037109Y0010165D02*
G03X0037045Y0010041I0000088J0000124D01*
G01X0034746Y0005945D02*
G03X0034904Y0006103I0000000J0000158D01*
G01X0034589D02*
G03X0034746Y0005946I0000157J0000000D01*
G01X0036246Y0011224D02*
G03X0036006Y0010677I0000504J0000547D01*
G03X0036211Y0010165I0000744J0000000D01*
G01X0036125Y0010677D02*
G03X0036390Y0010165I0000625J0000000D01*
G01X0036446Y0011224D02*
G03X0036124Y0010677I0000304J0000547D01*
G01X0037375D02*
G03X0037054Y0011224I0000625J0000000D01*
G01X0037109Y0010165D02*
G03X0037375Y0010677I0000359J0000512D01*
G01X0037289Y0010165D02*
G03X0037493Y0010677I0000539J0000512D01*
G03X0037254Y0011224I0000743J0000000D01*
G01X0036455Y0005959D02*
G03X0036303Y0006111I0000152J0000000D01*
G01X0036390Y0005835D02*
G03X0036454Y0005959I0000087J0000124D01*
G01X0036390Y0005835D02*
G03X0036124Y0005323I0000360J0000512D01*
G01X0036125D02*
G03X0036446Y0004776I0000625J0000000D01*
G01X0037054D02*
G03X0037376Y0005323I0000304J0000547D01*
G01X0037375D02*
G03X0037109Y0005835I0000625J0000000D01*
G01X0037493Y0005323D02*
G03X0037289Y0005835I0000743J0000000D01*
G01X0037254Y0004776D02*
G03X0037494Y0005323I0000504J0000547D01*
G01X0005494Y0007665D02*
G03X0005494Y0007671I0000096J0000000D01*
G01X0005405Y0007569D02*
G03X0005494Y0007665I0000007J0000096D01*
G01X0005317D02*
G03X0005405Y0007569I0000096J0000000D01*
G01X0005317Y0007671D02*
G03X0005317Y0007665I0000096J0000006D01*
G01X0005004Y0007569D02*
G03X0005092Y0007665I0000008J0000096D01*
G01X0005093D02*
G03X0005092Y0007671I0000097J0000000D01*
G01X0004915Y0007677D02*
G03X0004915Y0007671I0000097J0000000D01*
G01X0005004Y0007773D02*
G03X0004916Y0007677I0000008J0000096D01*
G01X0004691Y0007665D02*
G03X0004691Y0007671I0000096J0000000D01*
G01X0004602Y0007569D02*
G03X0004691Y0007665I0000007J0000096D01*
G01X0004514D02*
G03X0004602Y0007569I0000096J0000000D01*
G01X0004514Y0007671D02*
G03X0004514Y0007665I0000096J0000006D01*
G01X0004289D02*
G03X0004289Y0007671I0000096J0000000D01*
G01X0004201Y0007569D02*
G03X0004289Y0007665I0000008J0000096D01*
G01X0004112D02*
G03X0004201Y0007569I0000096J0000000D01*
G01X0004112Y0007671D02*
G03X0004112Y0007665I0000096J0000006D01*
G01X0003888D02*
G03X0003888Y0007671I0000097J0000000D01*
G01X0003799Y0007569D02*
G03X0003887Y0007665I0000008J0000096D01*
G01X0003710D02*
G03X0003799Y0007569I0000097J0000000D01*
G01X0003711Y0007671D02*
G03X0003711Y0007665I0000096J0000006D01*
G01X0003486D02*
G03X0003486Y0007671I0000096J0000000D01*
G01X0003398Y0007569D02*
G03X0003486Y0007665I0000008J0000096D01*
G01X0003309D02*
G03X0003398Y0007569I0000096J0000000D01*
G01X0003309Y0007671D02*
G03X0003309Y0007665I0000096J0000006D01*
G01X0003085D02*
G03X0003085Y0007671I0000097J0000000D01*
G01X0002996Y0007569D02*
G03X0003084Y0007665I0000008J0000096D01*
G01X0002907D02*
G03X0002996Y0007569I0000097J0000000D01*
G01X0002907Y0007671D02*
G03X0002907Y0007665I0000097J0000006D01*
G01X0002683D02*
G03X0002683Y0007671I0000096J0000000D01*
G01X0002594Y0007569D02*
G03X0002683Y0007665I0000007J0000096D01*
G01X0002506D02*
G03X0002594Y0007569I0000096J0000000D01*
G01X0002506Y0007671D02*
G03X0002506Y0007665I0000096J0000006D01*
G01X0004915D02*
G03X0005004Y0007569I0000097J0000000D01*
G01X0004915Y0007671D02*
G03X0004915Y0007665I0000097J0000006D01*
G01X0013980Y0000257D02*
G03X0014050Y0000187I0000074J0000004D01*
G01X0015945D02*
G03X0016024Y0000266I0000000J0000079D01*
G01X0029700Y0008030D02*
G03X0029621Y0007951I0000000J0000079D01*
G03X0029700Y0007872I0000079J0000000D01*
G03X0029779Y0007951I0000000J0000079D01*
G03X0029700Y0008030I0000079J0000000D01*
G01X0019980Y0006527D02*
G03X0020060Y0006447I0000083J0000003D01*
G01X0021945D02*
G03X0022024Y0006526I0000000J0000079D01*
G01X0023203Y0015104D02*
G03X0022752Y0015216I0000451J0000853D01*
G01X0023209Y0015116D02*
G03X0022752Y0015229I0000457J0000864D01*
G01X0021783Y0014247D02*
G03X0021894Y0013798I0000963J0000000D01*
G01X0021783Y0014249D02*
G03X0021783Y0014247I0000963J0000002D01*
G01X0021770Y0014248D02*
G03X0021770Y0014247I0000977J0000001D01*
G03X0021882Y0013792I0000977J0000000D01*
G01X0021850Y0015212D02*
G03X0021787Y0015144I0000005J0000068D01*
G01X0021855Y0015233D02*
G03X0021766Y0015144I0000000J0000089D01*
G01X0021855Y0015229D02*
G03X0021770Y0015145I0000000J0000085D01*
G01X0021849Y0015216D02*
G03X0021783Y0015149I0000006J0000072D01*
G01X0022336Y0015070D02*
G03X0021920Y0014645I0000416J0000824D01*
G01X0022349Y0015062D02*
G03X0021932Y0014639I0000404J0000816D01*
G01X0021977Y0013871D02*
G03X0022061Y0013733I0000772J0000376D01*
G01X0022137Y0013759D02*
G03X0022061Y0013733I0000000J0000124D01*
G01X0022261Y0013635D02*
G03X0022137Y0013759I0000124J0000000D01*
G01X0022230Y0013554D02*
G03X0022260Y0013635I0000093J0000081D01*
G01X0022220Y0013562D02*
G03X0022248Y0013635I0000083J0000073D01*
G03X0022137Y0013746I0000111J0000000D01*
G03X0022059Y0013714I0000000J0000111D01*
G01X0021966Y0013864D02*
G03X0022059Y0013714I0000786J0000385D01*
G01X0022221Y0013553D02*
G03X0022366Y0013464I0000527J0000692D01*
G01X0022229Y0013563D02*
G03X0022388Y0013468I0000523J0000689D01*
G01X0021770Y0013693D02*
G03X0021769Y0013666I0000398J0000027D01*
G03X0022168Y0013267I0000399J0000000D01*
G03X0022195Y0013268I0000000J0000399D01*
G01X0022168Y0013281D02*
G03X0022176Y0013281I0000000J0000385D01*
G01X0021783Y0013666D02*
G03X0022168Y0013281I0000385J0000000D01*
G01X0021783Y0013675D02*
G03X0021783Y0013666I0000385J0000009D01*
G01X0022168Y0013274D02*
G03X0022186Y0013275I0000000J0000392D01*
G01X0021776Y0013666D02*
G03X0022168Y0013274I0000392J0000000D01*
G01X0021777Y0013684D02*
G03X0021777Y0013666I0000391J0000018D01*
G01X0023333Y0015222D02*
G03X0023315Y0015222I0000000J0000391D01*
G01X0023724Y0014831D02*
G03X0023333Y0015222I0000391J0000000D01*
G01X0023724Y0014813D02*
G03X0023724Y0014831I0000391J0000018D01*
G01X0023333Y0015216D02*
G03X0023324Y0015216I0000000J0000385D01*
G01X0023718Y0014831D02*
G03X0023333Y0015216I0000385J0000000D01*
G01X0023718Y0014823D02*
G03X0023718Y0014831I0000385J0000008D01*
G01X0023730Y0014803D02*
G03X0023731Y0014830I0000398J0000027D01*
G03X0023332Y0015229I0000399J0000000D01*
G03X0023306Y0015228I0000000J0000399D01*
G01X0023364Y0014738D02*
G03X0023440Y0014764I0000000J0000124D01*
G01X0023364Y0014738D02*
G03X0023445Y0014769I0000000J0000124D01*
G01X0023240Y0014862D02*
G03X0023364Y0014738I0000124J0000000D01*
G01X0023266Y0014938D02*
G03X0023240Y0014862I0000098J0000076D01*
G01X0023266Y0014938D02*
G03X0023113Y0015029I0000516J0000692D01*
G01X0023531Y0014611D02*
G03X0023436Y0014770I0000771J0000357D01*
G01X0023535Y0014633D02*
G03X0023446Y0014778I0000776J0000379D01*
G01X0023285Y0014940D02*
G03X0023135Y0015033I0000535J0000694D01*
G01X0023285Y0014940D02*
G03X0023253Y0014862I0000079J0000078D01*
G03X0023364Y0014751I0000111J0000000D01*
G03X0023437Y0014779I0000000J0000111D01*
G01X0023612Y0014248D02*
G03X0023440Y0014764I0000861J0000000D01*
G01X0022751Y0013387D02*
G03X0023612Y0014248I0000000J0000861D01*
G01X0022235Y0013559D02*
G03X0022751Y0013387I0000516J0000689D01*
G01X0022235Y0013559D02*
G03X0022261Y0013635I0000098J0000076D01*
G03X0022137Y0013759I0000124J0000000D01*
G03X0022056Y0013728I0000000J0000124D01*
G01X0022137Y0013746D02*
G03X0022064Y0013718I0000000J0000111D01*
G01X0022248Y0013635D02*
G03X0022137Y0013746I0000111J0000000D01*
G01X0022216Y0013557D02*
G03X0022248Y0013635I0000079J0000078D01*
G01X0022216Y0013557D02*
G03X0022750Y0013375I0000534J0000692D01*
Y0013374D02*
G03X0023625Y0014249I0000000J0000875D01*
G03X0023442Y0014783I0000875J0000000D01*
G01X0023364Y0014751D02*
G03X0023442Y0014783I0000000J0000111D01*
G01X0023253Y0014862D02*
G03X0023364Y0014751I0000111J0000000D01*
G01X0023285Y0014940D02*
G03X0023253Y0014862I0000079J0000078D01*
G01X0023285Y0014940D02*
G03X0022751Y0015122I0000534J0000691D01*
Y0015123D02*
G03X0021877Y0014249I0000000J0000874D01*
G01X0021876D02*
G03X0022055Y0013720I0000875J0000000D01*
G01X0021889Y0014249D02*
G03X0022065Y0013727I0000861J0000000D01*
G01X0022750Y0015110D02*
G03X0021889Y0014249I0000000J0000861D01*
G01X0023266Y0014938D02*
G03X0022750Y0015110I0000516J0000689D01*
G01X0023266Y0014938D02*
G03X0023240Y0014862I0000098J0000076D01*
G01X0015945Y0006447D02*
G03X0016024Y0006526I0000000J0000079D01*
G01X0013970Y0006517D02*
G03X0014040Y0006447I0000071J0000001D01*
G54D64*
G01X0012091Y0012409D02*
X0011697Y0012015D01*
X0010417Y0010959D02*
X0010318D01*
X0010417Y0010931D02*
X0010318D01*
X0010417Y0011128D02*
Y0010931D01*
Y0011128D02*
X0010318D01*
Y0010931D01*
X0010399Y0011128D02*
Y0010931D01*
X0010346Y0011128D02*
Y0010931D01*
X0010417Y0011117D02*
X0010318D01*
X0010417Y0011065D02*
X0010318D01*
X0010417Y0011012D02*
X0010318D01*
X0010614Y0015362D02*
Y0010638D01*
X0010417Y0014899D02*
X0010318D01*
Y0015068D02*
Y0014871D01*
X0010417Y0015068D02*
X0010318D01*
X0010417D02*
Y0014871D01*
X0010318D01*
X0010399Y0015068D02*
Y0014871D01*
X0010346Y0015068D02*
Y0014871D01*
X0010417Y0015057D02*
X0010318D01*
X0010417Y0015004D02*
X0010318D01*
X0010417Y0014952D02*
X0010318D01*
X0012091Y0014773D02*
X0011697Y0014379D01*
Y0012015D02*
X0012091D01*
Y0012409D01*
X0011697D01*
Y0012015D01*
X0011063Y0015368D02*
Y0015270D01*
X0011011Y0015368D02*
Y0015270D01*
X0010958Y0015368D02*
Y0015270D01*
X0010905Y0015368D02*
Y0015270D01*
X0010852Y0015368D02*
Y0015270D01*
X0010799Y0015368D02*
Y0015270D01*
X0010747Y0015368D02*
Y0015270D01*
X0010694Y0015368D02*
Y0015270D01*
X0010641Y0015368D02*
Y0015270D01*
X0011106Y0015351D02*
X0010613D01*
X0011106Y0015298D02*
X0010613D01*
Y0015368D02*
Y0015270D01*
X0011106Y0015368D02*
X0010613D01*
X0011106D02*
Y0015270D01*
X0010613D01*
X0011697Y0012803D02*
X0012091D01*
Y0013197D01*
X0011697D01*
Y0012803D01*
X0012091Y0013197D02*
X0011697Y0012803D01*
X0012091D02*
X0011697Y0013197D01*
X0011303Y0011227D02*
X0010909Y0011621D01*
Y0012015D02*
X0011303D01*
Y0012409D01*
X0010909D01*
Y0012015D01*
X0011303Y0012409D02*
X0010909Y0012015D01*
X0011303D02*
X0010909Y0012409D01*
Y0012803D02*
X0011303D01*
Y0013197D01*
X0010909D01*
Y0012803D01*
X0011303Y0013197D02*
X0010909Y0012803D01*
Y0013591D02*
X0011303D01*
Y0013985D01*
X0010909D01*
Y0013591D01*
X0012245Y0015368D02*
Y0015270D01*
X0012193Y0015368D02*
Y0015270D01*
X0012140Y0015368D02*
Y0015270D01*
X0012087Y0015368D02*
Y0015270D01*
X0012034Y0015368D02*
Y0015270D01*
X0011981Y0015368D02*
Y0015270D01*
X0011929Y0015368D02*
Y0015270D01*
X0011876Y0015368D02*
Y0015270D01*
X0011823Y0015368D02*
Y0015270D01*
X0012288Y0015351D02*
X0011795D01*
X0012288Y0015298D02*
X0011795D01*
X0012288Y0015270D02*
X0011795D01*
X0012288Y0015368D02*
Y0015270D01*
Y0015368D02*
X0011795D01*
Y0015270D01*
X0012664Y0011617D02*
Y0011124D01*
X0012611Y0011617D02*
Y0011124D01*
X0012682Y0011574D02*
X0012583D01*
X0012682Y0011521D02*
X0012583D01*
X0012682Y0011469D02*
X0012583D01*
X0012682Y0011416D02*
X0012583D01*
X0012682Y0011363D02*
X0012583D01*
X0012682Y0011310D02*
X0012583D01*
X0012682Y0011257D02*
X0012583D01*
X0012682Y0011205D02*
X0012583D01*
X0012682Y0011152D02*
X0012583D01*
X0012682Y0011124D02*
X0012583D01*
Y0011617D02*
Y0011124D01*
X0012682Y0011617D02*
X0012583D01*
X0012682D02*
Y0011124D01*
X0012091Y0013985D02*
X0011697Y0013591D01*
X0012091D02*
X0011697Y0013985D01*
X0010909Y0011227D02*
X0011303D01*
Y0011621D01*
X0010909D01*
Y0011227D01*
Y0014379D02*
X0011303D01*
Y0014773D01*
X0010909D01*
Y0014379D01*
X0011303Y0014773D02*
X0010909Y0014379D01*
X0011303D02*
X0010909Y0014773D01*
X0012386Y0013591D02*
Y0015362D01*
Y0012409D02*
Y0010638D01*
X0011063Y0010730D02*
Y0010631D01*
X0011011Y0010730D02*
Y0010631D01*
X0010958Y0010730D02*
Y0010631D01*
X0010905Y0010730D02*
Y0010631D01*
X0010852Y0010730D02*
Y0010631D01*
X0010799Y0010730D02*
Y0010631D01*
X0010747Y0010730D02*
Y0010631D01*
X0010694Y0010730D02*
Y0010631D01*
X0010641Y0010730D02*
Y0010631D01*
X0011106Y0010712D02*
X0010613D01*
X0011106Y0010659D02*
X0010613D01*
Y0010730D02*
Y0010631D01*
X0011106Y0010730D02*
X0010613D01*
X0011106D02*
Y0010631D01*
X0010613D01*
X0012245Y0010730D02*
Y0010631D01*
X0012193Y0010730D02*
Y0010631D01*
X0012140Y0010730D02*
Y0010631D01*
X0012087Y0010730D02*
Y0010631D01*
X0012034Y0010730D02*
Y0010631D01*
X0011981Y0010730D02*
Y0010631D01*
X0011929Y0010730D02*
Y0010631D01*
X0011876Y0010730D02*
Y0010631D01*
X0011823Y0010730D02*
Y0010631D01*
X0012288Y0010712D02*
X0011795D01*
X0012288Y0010659D02*
X0011795D01*
X0012288Y0010631D02*
X0011795D01*
X0012288Y0010730D02*
Y0010631D01*
Y0010730D02*
X0011795D01*
Y0010631D01*
X0011697Y0013591D02*
X0012091D01*
Y0013985D01*
X0011697D01*
Y0013591D01*
Y0014379D02*
X0012091D01*
Y0014773D01*
X0011697D01*
Y0014379D01*
X0012091Y0012015D02*
X0011697Y0012409D01*
X0011303Y0012803D02*
X0010909Y0013197D01*
X0011303Y0013985D02*
X0010909Y0013591D01*
X0011303D02*
X0010909Y0013985D01*
X0012091Y0014379D02*
X0011697Y0014773D01*
Y0011227D02*
X0012091D01*
Y0011621D01*
X0011697D01*
Y0011227D01*
X0012091Y0011621D02*
X0011697Y0011227D01*
X0012091D02*
X0011697Y0011621D01*
X0011303D02*
X0010909Y0011227D01*
G54D65*
G01X0029502Y0003104D02*
X0030998D01*
Y0004561D01*
X0029502D01*
Y0003104D01*
Y0000939D02*
X0030998D01*
Y0002041D01*
X0030644Y0002396D01*
X0029817D01*
X0029502Y0002081D01*
Y0000939D01*
X0029859Y0000860D02*
Y0000309D01*
X0029788Y0000860D02*
Y0000309D01*
X0029718Y0000860D02*
Y0000309D01*
X0029647Y0000860D02*
Y0000309D01*
X0030919Y0000800D02*
X0029581D01*
X0030919Y0000729D02*
X0029581D01*
X0030919Y0000658D02*
X0029581D01*
X0030919Y0000588D02*
X0029581D01*
X0030919Y0000517D02*
X0029581D01*
X0030919Y0000446D02*
X0029581D01*
X0030638Y0000860D02*
Y0000309D01*
X0030567Y0000860D02*
Y0000309D01*
X0030496Y0000860D02*
Y0000309D01*
X0030426Y0000860D02*
Y0000309D01*
X0030355Y0000860D02*
Y0000309D01*
X0030284Y0000860D02*
Y0000309D01*
X0030213Y0000860D02*
Y0000309D01*
X0030142Y0000860D02*
Y0000309D01*
X0030072Y0000860D02*
Y0000309D01*
X0030001Y0000860D02*
Y0000309D01*
X0029930Y0000860D02*
Y0000309D01*
X0030919Y0000375D02*
X0029581D01*
Y0000860D02*
Y0000309D01*
X0030919D02*
X0029581D01*
X0030919Y0000860D02*
Y0000309D01*
Y0000860D02*
X0029581D01*
X0030850D02*
Y0000309D01*
X0030780Y0000860D02*
Y0000309D01*
X0030709Y0000860D02*
Y0000309D01*
X0029187Y0000860D02*
X0031313D01*
Y0004640D01*
X0029187D01*
Y0000860D01*
X0024050Y0005000D02*
X0027300D01*
Y0003000D01*
X0024050D01*
Y0005000D01*
X0003758Y0000463D02*
X0007616D01*
Y0001880D01*
X0003758D01*
Y0000463D01*
X0007616Y0000856D02*
X0007458D01*
Y0001722D01*
X0003915D01*
Y0000856D01*
X0003758D01*
X0006887Y0000656D02*
Y0000463D01*
X0006816Y0000719D02*
Y0000463D01*
X0006745Y0000773D02*
Y0000463D01*
X0006674Y0000710D02*
Y0000463D01*
X0006603Y0000647D02*
Y0000463D01*
X0006533Y0000584D02*
Y0000463D01*
X0006462Y0000521D02*
Y0000463D01*
X0006791Y0000741D02*
X0006709D01*
X0006870Y0000670D02*
X0006629D01*
X0006950Y0000600D02*
X0006550D01*
X0007029Y0000529D02*
X0006470D01*
X0006435Y0000463D02*
X0006396D01*
X0007104D02*
X0006435D01*
X0006750Y0000778D02*
X0007104Y0000463D01*
X0006750Y0000778D02*
X0006396Y0000463D01*
X0007028Y0000530D02*
Y0000463D01*
X0006957Y0000593D02*
Y0000463D01*
X0018213Y0015321D02*
X0018134Y0015323D01*
Y0010679D01*
X0021242D01*
Y0015321D01*
X0018213D01*
X0018597Y0015103D02*
Y0014834D01*
X0018527Y0015153D02*
Y0014784D01*
X0018456Y0015169D02*
Y0014768D01*
X0018385Y0015159D02*
Y0014778D01*
X0018314Y0015118D02*
Y0014819D01*
X0018583Y0015117D02*
X0018314D01*
X0018633Y0015047D02*
X0018264D01*
X0018649Y0014976D02*
X0018248D01*
X0018639Y0014905D02*
X0018258D01*
X0018598Y0014834D02*
X0018299D01*
X0027537Y0007792D02*
X0025963D01*
Y0009208D01*
X0027537D01*
Y0007792D01*
X0025787D02*
X0024213D01*
Y0009208D01*
X0025787D01*
Y0007792D01*
X0032002Y0003104D02*
X0033498D01*
Y0004561D01*
X0032002D01*
Y0003104D01*
Y0000939D02*
X0033498D01*
Y0002041D01*
X0033144Y0002396D01*
X0032317D01*
X0032002Y0002081D01*
Y0000939D01*
X0032359Y0000860D02*
Y0000309D01*
X0032288Y0000860D02*
Y0000309D01*
X0032218Y0000860D02*
Y0000309D01*
X0032147Y0000860D02*
Y0000309D01*
X0033419Y0000800D02*
X0032081D01*
X0033419Y0000729D02*
X0032081D01*
X0033419Y0000658D02*
X0032081D01*
X0033419Y0000588D02*
X0032081D01*
X0033419Y0000517D02*
X0032081D01*
X0033419Y0000446D02*
X0032081D01*
X0033138Y0000860D02*
Y0000309D01*
X0033067Y0000860D02*
Y0000309D01*
X0032996Y0000860D02*
Y0000309D01*
X0032926Y0000860D02*
Y0000309D01*
X0032855Y0000860D02*
Y0000309D01*
X0032784Y0000860D02*
Y0000309D01*
X0032713Y0000860D02*
Y0000309D01*
X0032642Y0000860D02*
Y0000309D01*
X0032572Y0000860D02*
Y0000309D01*
X0032501Y0000860D02*
Y0000309D01*
X0032430Y0000860D02*
Y0000309D01*
X0033419Y0000375D02*
X0032081D01*
Y0000860D02*
Y0000309D01*
X0033419D02*
X0032081D01*
X0033419Y0000860D02*
Y0000309D01*
Y0000860D02*
X0032081D01*
X0033350D02*
Y0000309D01*
X0033280Y0000860D02*
Y0000309D01*
X0033209Y0000860D02*
Y0000309D01*
X0031687Y0000860D02*
X0033813D01*
Y0004640D01*
X0031687D01*
Y0000860D01*
X0027537Y0009292D02*
X0025963D01*
Y0010708D01*
X0027537D01*
Y0009292D01*
X0025787D02*
X0024213D01*
Y0010708D01*
X0025787D01*
Y0009292D01*
X0028007Y0008275D02*
X0028047D01*
Y0007725D01*
X0028007D01*
X0027653Y0007843D02*
Y0007882D01*
X0028047D01*
Y0007843D01*
X0027653D01*
X0027693Y0007725D02*
X0027653D01*
Y0008275D01*
X0027693D01*
G01X0018449Y0014768D02*
G03X0018650Y0014969I0000000J0000201D01*
G01X0018248D02*
G03X0018449Y0014768I0000201J0000000D01*
Y0015169D02*
G03X0018249Y0014969I0000000J0000200D01*
G01X0018649D02*
G03X0018449Y0015169I0000200J0000000D01*
G54D66*
G01X0012681Y0010835D02*
Y0015362D01*
X0010417D01*
Y0010638D01*
X0012681D01*
Y0010835D01*
Y0012410D02*
X0012287D01*
Y0010638D01*
X0012681Y0013590D02*
X0012287D01*
Y0015362D01*
X0010417Y0011424D02*
Y0011818D01*
X0010318D01*
Y0014182D01*
X0010417D01*
G54D14*
X0027850Y0007606D03*
Y0008394D03*
G54D45*
X0030000Y0008250D03*
X0030256D03*
X0030512D03*
X0030768D03*
X0030000Y0009274D03*
X0030256D03*
X0030512D03*
X0030768D03*
M02*
