*
G04 Mass Parameters ***
*
G04 Image ***
*
%IND:\UTENTI\00.LAVORI IN CORSO\METALTRONICA\22-313-0\22-313-0.SMB*%
%ICAS*%
%MOIN*%
%IPPOS*%
%ASAXBY*%
G74*%FSLAN2X34Y34*%
*
G04 Aperture Definitions ***
*
%ADD10C,0.0394*%
%ADD11R,0.0380X0.0320*%
%ADD12R,0.0886X0.0905*%
%ADD13R,0.1024X0.0510*%
%ADD14R,0.0197X0.0315*%
%ADD15R,0.0501X0.0404*%
%ADD16R,0.0527X0.0630*%
%ADD17R,0.1913X0.1496*%
%ADD18C,0.2756*%
%ADD19C,0.0787*%
%ADD20C,0.0512*%
%ADD21R,0.0787X0.0787*%
%ADD22O,0.0787X0.1181*%
%ADD23C,0.0669*%
%ADD24R,0.0669X0.0669*%
%ADD25C,0.0590*%
%ADD26R,0.0590X0.0590*%
%ADD27C,0.1200*%
%ADD28R,0.1200X0.1200*%
%ADD29C,0.0866*%
%ADD30C,0.1000*%
%ADD31R,0.1000X0.1000*%
%ADD32C,0.0610*%
%ADD33R,0.0610X0.0610*%
%ADD34C,0.1181*%
%ADD35C,0.0984*%
%ADD36R,0.0984X0.0984*%
%ADD37R,0.0630X0.0630*%
%ADD38C,0.0630*%
%ADD39C,0.1299*%
%ADD40C,0.0187*%
%ADD41R,0.0500X0.0400*%
%ADD42R,0.0354X0.0315*%
%ADD43R,0.0710X0.0400*%
%ADD44R,0.1080X0.0850*%
%ADD45R,0.0177X0.0394*%
%ADD46C,0.0800*%
%ADD47R,0.0236X0.0512*%
%ADD48C,0.0276*%
%ADD49C,0.0050*%
%ADD50C,0.0100*%
%ADD51C,0.0080*%
%ADD52C,0.0276*%
%ADD53C,0.0300*%
%ADD54C,0.0120*%
%ADD55C,0.0200*%
%ADD56C,0.0500*%
%ADD57C,0.0250*%
%ADD58C,0.1000*%
%ADD59C,0.0150*%
%ADD60C,0.0276*%
%ADD61C,0.0276*%
*
G04 Plot Data ***
*
G54D50*
G01X0035400Y0000490D02*
X0029100D01*
X0036050Y0009450D02*
Y0006050D01*
X0034100Y0004100D01*
Y0003000D01*
X0033550Y0002450D01*
X0029100D01*
Y0000450D01*
X0035400D02*
X0029100D01*
X0035400Y0003000D02*
Y0000450D01*
X0036250Y0003850D02*
X0035400Y0003000D01*
X0037650Y0003850D02*
X0036250D01*
X0037650Y0009450D02*
Y0003850D01*
Y0009450D02*
X0036050D01*
X0037650Y0004990D02*
X0034990D01*
X0037600Y0009450D02*
Y0003850D01*
X0037510Y0009450D02*
Y0003850D01*
X0037420Y0009450D02*
Y0003850D01*
X0037330Y0009450D02*
Y0003850D01*
X0037240Y0009450D02*
Y0003850D01*
X0037150Y0009450D02*
Y0003850D01*
X0037060Y0009450D02*
Y0003850D01*
X0036970Y0009450D02*
Y0003850D01*
X0036880Y0009450D02*
Y0003850D01*
X0036790Y0009450D02*
Y0003850D01*
X0036700Y0009450D02*
Y0003850D01*
X0036610Y0009450D02*
Y0003850D01*
X0036520Y0009450D02*
Y0003850D01*
X0036430Y0009450D02*
Y0003850D01*
X0036340Y0009450D02*
Y0003850D01*
X0036250Y0009450D02*
Y0003850D01*
X0036160Y0009450D02*
Y0003760D01*
X0036070Y0009450D02*
Y0003670D01*
X0035980Y0005980D02*
Y0003580D01*
X0035890Y0005890D02*
Y0003490D01*
X0035800Y0005800D02*
Y0003400D01*
X0035710Y0005710D02*
Y0003310D01*
X0035620Y0005620D02*
Y0003220D01*
X0035530Y0005530D02*
Y0003130D01*
X0035440Y0005440D02*
Y0003040D01*
X0035350Y0005350D02*
Y0000450D01*
X0035260Y0005260D02*
Y0000450D01*
X0035170Y0005170D02*
Y0000450D01*
X0035080Y0005080D02*
Y0000450D01*
X0034990Y0004990D02*
Y0000450D01*
X0034900Y0004900D02*
Y0000450D01*
X0034810Y0004810D02*
Y0000450D01*
X0034720Y0004720D02*
Y0000450D01*
X0034630Y0004630D02*
Y0000450D01*
X0034540Y0004540D02*
Y0000450D01*
X0034450Y0004450D02*
Y0000450D01*
X0034360Y0004360D02*
Y0000450D01*
X0034270Y0004270D02*
Y0000450D01*
X0034180Y0004180D02*
Y0000450D01*
X0034090Y0002990D02*
Y0000450D01*
X0034000Y0002900D02*
Y0000450D01*
X0033910Y0002810D02*
Y0000450D01*
X0033820Y0002720D02*
Y0000450D01*
X0033730Y0002630D02*
Y0000450D01*
X0033640Y0002540D02*
Y0000450D01*
X0033550Y0002450D02*
Y0000450D01*
X0033460Y0002450D02*
Y0000450D01*
X0033370Y0002450D02*
Y0000450D01*
X0033280Y0002450D02*
Y0000450D01*
X0033190Y0002450D02*
Y0000450D01*
X0033100Y0002450D02*
Y0000450D01*
X0033010Y0002450D02*
Y0000450D01*
X0032920Y0002450D02*
Y0000450D01*
X0032830Y0002450D02*
Y0000450D01*
X0032740Y0002450D02*
Y0000450D01*
X0032650Y0002450D02*
Y0000450D01*
X0032560Y0002450D02*
Y0000450D01*
X0032470Y0002450D02*
Y0000450D01*
X0032380Y0002450D02*
Y0000450D01*
X0032290Y0002450D02*
Y0000450D01*
X0032200Y0002450D02*
Y0000450D01*
X0032110Y0002450D02*
Y0000450D01*
X0032020Y0002450D02*
Y0000450D01*
X0031930Y0002450D02*
Y0000450D01*
X0031840Y0002450D02*
Y0000450D01*
X0031750Y0002450D02*
Y0000450D01*
X0031660Y0002450D02*
Y0000450D01*
X0031570Y0002450D02*
Y0000450D01*
X0031480Y0002450D02*
Y0000450D01*
X0031390Y0002450D02*
Y0000450D01*
X0031300Y0002450D02*
Y0000450D01*
X0031210Y0002450D02*
Y0000450D01*
X0031120Y0002450D02*
Y0000450D01*
X0031030Y0002450D02*
Y0000450D01*
X0030940Y0002450D02*
Y0000450D01*
X0030850Y0002450D02*
Y0000450D01*
X0030760Y0002450D02*
Y0000450D01*
X0030670Y0002450D02*
Y0000450D01*
X0030580Y0002450D02*
Y0000450D01*
X0030490Y0002450D02*
Y0000450D01*
X0030400Y0002450D02*
Y0000450D01*
X0030310Y0002450D02*
Y0000450D01*
X0030220Y0002450D02*
Y0000450D01*
X0030130Y0002450D02*
Y0000450D01*
X0030040Y0002450D02*
Y0000450D01*
X0029950Y0002450D02*
Y0000450D01*
X0029860Y0002450D02*
Y0000450D01*
X0029770Y0002450D02*
Y0000450D01*
X0029680Y0002450D02*
Y0000450D01*
X0029590Y0002450D02*
Y0000450D01*
X0029500Y0002450D02*
Y0000450D01*
X0029410Y0002450D02*
Y0000450D01*
X0029320Y0002450D02*
Y0000450D01*
X0029230Y0002450D02*
Y0000450D01*
X0037650Y0009400D02*
X0036050D01*
X0037650Y0009310D02*
X0036050D01*
X0037650Y0009220D02*
X0036050D01*
X0037650Y0009130D02*
X0036050D01*
X0037650Y0009040D02*
X0036050D01*
X0037650Y0008950D02*
X0036050D01*
X0037650Y0008860D02*
X0036050D01*
X0037650Y0008770D02*
X0036050D01*
X0037650Y0008680D02*
X0036050D01*
X0037650Y0008590D02*
X0036050D01*
X0037650Y0008500D02*
X0036050D01*
X0037650Y0008410D02*
X0036050D01*
X0037650Y0008320D02*
X0036050D01*
X0037650Y0008230D02*
X0036050D01*
X0037650Y0008140D02*
X0036050D01*
X0037650Y0008050D02*
X0036050D01*
X0037650Y0007960D02*
X0036050D01*
X0037650Y0007870D02*
X0036050D01*
X0037650Y0007780D02*
X0036050D01*
X0037650Y0007690D02*
X0036050D01*
X0037650Y0007600D02*
X0036050D01*
X0037650Y0007510D02*
X0036050D01*
X0037650Y0007420D02*
X0036050D01*
X0037650Y0007330D02*
X0036050D01*
X0037650Y0007240D02*
X0036050D01*
X0037650Y0007150D02*
X0036050D01*
X0037650Y0007060D02*
X0036050D01*
X0037650Y0006970D02*
X0036050D01*
X0037650Y0006880D02*
X0036050D01*
X0037650Y0006790D02*
X0036050D01*
X0037650Y0006700D02*
X0036050D01*
X0037650Y0006610D02*
X0036050D01*
X0037650Y0006520D02*
X0036050D01*
X0037650Y0006430D02*
X0036050D01*
X0037650Y0006340D02*
X0036050D01*
X0037650Y0006250D02*
X0036050D01*
X0037650Y0006160D02*
X0036050D01*
X0037650Y0006070D02*
X0036050D01*
X0037650Y0005980D02*
X0035980D01*
X0037650Y0005890D02*
X0035890D01*
X0037650Y0005800D02*
X0035800D01*
X0037650Y0005710D02*
X0035710D01*
X0037650Y0005620D02*
X0035620D01*
X0037650Y0005530D02*
X0035530D01*
X0037650Y0005440D02*
X0035440D01*
X0037650Y0005350D02*
X0035350D01*
X0037650Y0005260D02*
X0035260D01*
X0037650Y0005170D02*
X0035170D01*
X0037650Y0005080D02*
X0035080D01*
X0029140Y0002450D02*
Y0000450D01*
X0037650Y0004900D02*
X0034900D01*
X0037650Y0004810D02*
X0034810D01*
X0037650Y0004720D02*
X0034720D01*
X0037650Y0004630D02*
X0034630D01*
X0037650Y0004540D02*
X0034540D01*
X0037650Y0004450D02*
X0034450D01*
X0037650Y0004360D02*
X0034360D01*
X0037650Y0004270D02*
X0034270D01*
X0037650Y0004180D02*
X0034180D01*
X0037650Y0004090D02*
X0034100D01*
X0037650Y0004000D02*
X0034100D01*
X0037650Y0003910D02*
X0034100D01*
X0036220Y0003820D02*
X0034100D01*
X0036130Y0003730D02*
X0034100D01*
X0036040Y0003640D02*
X0034100D01*
X0035950Y0003550D02*
X0034100D01*
X0035860Y0003460D02*
X0034100D01*
X0035770Y0003370D02*
X0034100D01*
X0035680Y0003280D02*
X0034100D01*
X0035590Y0003190D02*
X0034100D01*
X0035500Y0003100D02*
X0034100D01*
X0035410Y0003010D02*
X0034100D01*
X0035400Y0002920D02*
X0034020D01*
X0035400Y0002830D02*
X0033930D01*
X0035400Y0002740D02*
X0033840D01*
X0035400Y0002650D02*
X0033750D01*
X0035400Y0002560D02*
X0033660D01*
X0035400Y0002470D02*
X0033570D01*
X0035400Y0002380D02*
X0029100D01*
X0035400Y0002290D02*
X0029100D01*
X0035400Y0002200D02*
X0029100D01*
X0035400Y0002110D02*
X0029100D01*
X0035400Y0002020D02*
X0029100D01*
X0035400Y0001930D02*
X0029100D01*
X0035400Y0001840D02*
X0029100D01*
X0035400Y0001750D02*
X0029100D01*
X0035400Y0001660D02*
X0029100D01*
X0035400Y0001570D02*
X0029100D01*
X0035400Y0001480D02*
X0029100D01*
X0035400Y0001390D02*
X0029100D01*
X0035400Y0001300D02*
X0029100D01*
X0035400Y0001210D02*
X0029100D01*
X0035400Y0001120D02*
X0029100D01*
X0035400Y0001030D02*
X0029100D01*
X0035400Y0000940D02*
X0029100D01*
X0035400Y0000850D02*
X0029100D01*
X0035400Y0000760D02*
X0029100D01*
X0035400Y0000670D02*
X0029100D01*
X0035400Y0000580D02*
X0029100D01*
X0033150Y0003150D02*
X0029150D01*
X0033450Y0003450D02*
X0033150Y0003150D01*
X0033450Y0004450D02*
Y0003450D01*
X0035400Y0006400D02*
X0033450Y0004450D01*
X0035400Y0009500D02*
Y0006400D01*
Y0009500D02*
X0033300D01*
Y0007050D01*
X0031450Y0005200D01*
X0029150D01*
Y0003150D01*
X0033190Y0003190D02*
X0029150D01*
X0035310Y0009500D02*
Y0006310D01*
X0035220Y0009500D02*
Y0006220D01*
X0035130Y0009500D02*
Y0006130D01*
X0035040Y0009500D02*
Y0006040D01*
X0034950Y0009500D02*
Y0005950D01*
X0034860Y0009500D02*
Y0005860D01*
X0034770Y0009500D02*
Y0005770D01*
X0034680Y0009500D02*
Y0005680D01*
X0034590Y0009500D02*
Y0005590D01*
X0034500Y0009500D02*
Y0005500D01*
X0034410Y0009500D02*
Y0005410D01*
X0034320Y0009500D02*
Y0005320D01*
X0034230Y0009500D02*
Y0005230D01*
X0034140Y0009500D02*
Y0005140D01*
X0034050Y0009500D02*
Y0005050D01*
X0033960Y0009500D02*
Y0004960D01*
X0033870Y0009500D02*
Y0004870D01*
X0033780Y0009500D02*
Y0004780D01*
X0033690Y0009500D02*
Y0004690D01*
X0033600Y0009500D02*
Y0004600D01*
X0033510Y0009500D02*
Y0004510D01*
X0033420Y0009500D02*
Y0003420D01*
X0033330Y0009500D02*
Y0003330D01*
X0033240Y0006990D02*
Y0003240D01*
X0033150Y0006900D02*
Y0003150D01*
X0033060Y0006810D02*
Y0003150D01*
X0032970Y0006720D02*
Y0003150D01*
X0032880Y0006630D02*
Y0003150D01*
X0032790Y0006540D02*
Y0003150D01*
X0032700Y0006450D02*
Y0003150D01*
X0032610Y0006360D02*
Y0003150D01*
X0032520Y0006270D02*
Y0003150D01*
X0032430Y0006180D02*
Y0003150D01*
X0032340Y0006090D02*
Y0003150D01*
X0032250Y0006000D02*
Y0003150D01*
X0032160Y0005910D02*
Y0003150D01*
X0032070Y0005820D02*
Y0003150D01*
X0031980Y0005730D02*
Y0003150D01*
X0031890Y0005640D02*
Y0003150D01*
X0031800Y0005550D02*
Y0003150D01*
X0031710Y0005460D02*
Y0003150D01*
X0031620Y0005370D02*
Y0003150D01*
X0031530Y0005280D02*
Y0003150D01*
X0031440Y0005200D02*
Y0003150D01*
X0031350Y0005200D02*
Y0003150D01*
X0031260Y0005200D02*
Y0003150D01*
X0031170Y0005200D02*
Y0003150D01*
X0031080Y0005200D02*
Y0003150D01*
X0030990Y0005200D02*
Y0003150D01*
X0030900Y0005200D02*
Y0003150D01*
X0030810Y0005200D02*
Y0003150D01*
X0030720Y0005200D02*
Y0003150D01*
X0030630Y0005200D02*
Y0003150D01*
X0030540Y0005200D02*
Y0003150D01*
X0030450Y0005200D02*
Y0003150D01*
X0030360Y0005200D02*
Y0003150D01*
X0030270Y0005200D02*
Y0003150D01*
X0030180Y0005200D02*
Y0003150D01*
X0030090Y0005200D02*
Y0003150D01*
X0030000Y0005200D02*
Y0003150D01*
X0029910Y0005200D02*
Y0003150D01*
X0029820Y0005200D02*
Y0003150D01*
X0029730Y0005200D02*
Y0003150D01*
X0029640Y0005200D02*
Y0003150D01*
X0029550Y0005200D02*
Y0003150D01*
X0029460Y0005200D02*
Y0003150D01*
X0029370Y0005200D02*
Y0003150D01*
X0029280Y0005200D02*
Y0003150D01*
X0029190Y0005200D02*
Y0003150D01*
X0035400Y0009490D02*
X0033300D01*
X0035400Y0009400D02*
X0033300D01*
X0035400Y0009310D02*
X0033300D01*
X0035400Y0009220D02*
X0033300D01*
X0035400Y0009130D02*
X0033300D01*
X0035400Y0009040D02*
X0033300D01*
X0035400Y0008950D02*
X0033300D01*
X0035400Y0008860D02*
X0033300D01*
X0035400Y0008770D02*
X0033300D01*
X0035400Y0008680D02*
X0033300D01*
X0035400Y0008590D02*
X0033300D01*
X0035400Y0008500D02*
X0033300D01*
X0035400Y0008410D02*
X0033300D01*
X0035400Y0008320D02*
X0033300D01*
X0035400Y0008230D02*
X0033300D01*
X0035400Y0008140D02*
X0033300D01*
X0035400Y0008050D02*
X0033300D01*
X0035400Y0007960D02*
X0033300D01*
X0035400Y0007870D02*
X0033300D01*
X0035400Y0007780D02*
X0033300D01*
X0035400Y0007690D02*
X0033300D01*
X0035400Y0007600D02*
X0033300D01*
X0035400Y0007510D02*
X0033300D01*
X0035400Y0007420D02*
X0033300D01*
X0035400Y0007330D02*
X0033300D01*
X0035400Y0007240D02*
X0033300D01*
X0035400Y0007150D02*
X0033300D01*
X0035400Y0007060D02*
X0033300D01*
X0035400Y0006970D02*
X0033220D01*
X0035400Y0006880D02*
X0033130D01*
X0035400Y0006790D02*
X0033040D01*
X0035400Y0006700D02*
X0032950D01*
X0035400Y0006610D02*
X0032860D01*
X0035400Y0006520D02*
X0032770D01*
X0035400Y0006430D02*
X0032680D01*
X0035340Y0006340D02*
X0032590D01*
X0035250Y0006250D02*
X0032500D01*
X0035160Y0006160D02*
X0032410D01*
X0035070Y0006070D02*
X0032320D01*
X0034980Y0005980D02*
X0032230D01*
X0034890Y0005890D02*
X0032140D01*
X0034800Y0005800D02*
X0032050D01*
X0034710Y0005710D02*
X0031960D01*
X0034620Y0005620D02*
X0031870D01*
X0034530Y0005530D02*
X0031780D01*
X0034440Y0005440D02*
X0031690D01*
X0034350Y0005350D02*
X0031600D01*
X0034260Y0005260D02*
X0031510D01*
X0034170Y0005170D02*
X0029150D01*
X0034080Y0005080D02*
X0029150D01*
X0033990Y0004990D02*
X0029150D01*
X0033900Y0004900D02*
X0029150D01*
X0033810Y0004810D02*
X0029150D01*
X0033720Y0004720D02*
X0029150D01*
X0033630Y0004630D02*
X0029150D01*
X0033540Y0004540D02*
X0029150D01*
X0033450Y0004450D02*
X0029150D01*
X0033450Y0004360D02*
X0029150D01*
X0033450Y0004270D02*
X0029150D01*
X0033450Y0004180D02*
X0029150D01*
X0033450Y0004090D02*
X0029150D01*
X0033450Y0004000D02*
X0029150D01*
X0033450Y0003910D02*
X0029150D01*
X0033450Y0003820D02*
X0029150D01*
X0033450Y0003730D02*
X0029150D01*
X0033450Y0003640D02*
X0029150D01*
X0033450Y0003550D02*
X0029150D01*
X0033450Y0003460D02*
X0029150D01*
X0033370Y0003370D02*
X0029150D01*
X0033280Y0003280D02*
X0029150D01*
G54D18*
X0037401Y0001968D03*
X0001968D03*
X0037401Y0013779D03*
X0001968D03*
G54D19*
X0016968Y0009242D03*
X0015984D03*
X0015000D03*
X0014016D03*
X0013031D03*
X0016968Y0008258D03*
X0015984D03*
X0015000D03*
X0014016D03*
X0017461Y0002992D03*
X0016476D03*
X0015492D03*
X0014508D03*
X0013524D03*
X0012539D03*
X0017461Y0002008D03*
X0016476D03*
X0015492D03*
X0014508D03*
X0013524D03*
X0008750Y0012159D03*
X0022476Y0002992D03*
X0021492D03*
X0020508D03*
X0019524D03*
X0022476Y0002008D03*
X0021492D03*
X0020508D03*
G54D21*
X0019000Y0014000D03*
X0012539Y0002008D03*
X0008750Y0013340D03*
X0019524Y0002008D03*
G54D22*
X0013903Y0013372D03*
X0016596D03*
X0019161Y0008372D03*
X0022838D03*
G54D23*
X0015742Y0014242D03*
X0014758D03*
X0015742Y0013258D03*
X0026742Y0002000D03*
X0021984Y0009242D03*
X0021000D03*
X0020016D03*
X0021000Y0008258D03*
X0021984D03*
G54D24*
X0014758Y0013258D03*
X0013031Y0008258D03*
X0025758Y0002000D03*
X0020016Y0008258D03*
G54D25*
X0005963Y0001250D03*
X0005175D03*
X0004388D03*
G54D26*
X0006750D03*
G54D27*
X0032750Y0001667D03*
X0030250D03*
G54D28*
X0032750Y0003833D03*
X0030250D03*
G54D29*
X0027596Y0002000D03*
X0024903D03*
G54D30*
X0032750Y0013500D03*
G54D31*
X0034250D03*
G54D32*
X0011106Y0011425D03*
X0011893Y0012213D03*
X0011106D03*
X0011893Y0013000D03*
X0011106D03*
X0011893Y0013787D03*
X0011106D03*
X0011893Y0014574D03*
X0011106D03*
G54D33*
X0011893Y0011425D03*
G54D35*
X0034766Y0008827D03*
X0036931Y0007173D03*
Y0008827D03*
G54D36*
X0034766Y0007173D03*
G54D37*
X0002250Y0009500D03*
G54D38*
X0005750Y0010500D03*
X0004750D03*
X0003750D03*
X0002750D03*
X0005250Y0009500D03*
X0004250D03*
X0003250D03*
G54D46*
X0019000Y0013000D03*
Y0012000D03*
M02*
