*
G04 Mass Parameters ***
*
G04 Image ***
*
%IND:\UTENTI\00.LAVORI IN CORSO\METALTRONICA\22-313-0\22-313-0.SPT*%
%ICAS*%
%MOIN*%
%IPPOS*%
%ASAXBY*%
G74*%FSLAN2X34Y34*%
*
G04 Aperture Definitions ***
*
%ADD10C,0.0394*%
%ADD11R,0.0380X0.0320*%
%ADD12R,0.0886X0.0905*%
%ADD13R,0.1024X0.0510*%
%ADD14R,0.0197X0.0315*%
%ADD15R,0.0501X0.0404*%
%ADD16R,0.0527X0.0630*%
%ADD17R,0.1913X0.1496*%
%ADD18C,0.2756*%
%ADD19C,0.0787*%
%ADD20C,0.0512*%
%ADD21R,0.0787X0.0787*%
%ADD22O,0.0787X0.1181*%
%ADD23C,0.0669*%
%ADD24R,0.0669X0.0669*%
%ADD25C,0.0590*%
%ADD26R,0.0590X0.0590*%
%ADD27C,0.1200*%
%ADD28R,0.1200X0.1200*%
%ADD29C,0.0866*%
%ADD30C,0.1000*%
%ADD31R,0.1000X0.1000*%
%ADD32C,0.0610*%
%ADD33R,0.0610X0.0610*%
%ADD34C,0.1181*%
%ADD35C,0.0984*%
%ADD36R,0.0984X0.0984*%
%ADD37R,0.0630X0.0630*%
%ADD38C,0.0630*%
%ADD39C,0.1299*%
%ADD40C,0.0187*%
%ADD41R,0.0500X0.0400*%
%ADD42R,0.0354X0.0315*%
%ADD43R,0.0710X0.0400*%
%ADD44R,0.1080X0.0850*%
%ADD45R,0.0177X0.0394*%
%ADD46C,0.0800*%
%ADD47R,0.0236X0.0512*%
%ADD48C,0.0276*%
%ADD49C,0.0050*%
%ADD50C,0.0100*%
%ADD51C,0.0080*%
%ADD52C,0.0276*%
%ADD53C,0.0300*%
%ADD54C,0.0120*%
%ADD55C,0.0200*%
%ADD56C,0.0500*%
%ADD57C,0.0250*%
%ADD58C,0.1000*%
%ADD59C,0.0150*%
%ADD60C,0.0276*%
%ADD61C,0.0276*%
%ADD62R,0.0354X0.0354*%
%ADD63C,0.0060*%
*
G04 Plot Data ***
*
G54D49*
G01X0023713Y0014570D02*
X0023461D01*
X0023713Y0014525D02*
X0023479D01*
X0023713Y0014480D02*
X0023495D01*
X0023713Y0014435D02*
X0023508D01*
X0023713Y0014390D02*
X0023518D01*
X0023713Y0014345D02*
X0023525D01*
X0023713Y0014300D02*
X0023530D01*
X0023713Y0014255D02*
X0023533D01*
X0023713Y0014210D02*
X0023532D01*
X0023713Y0014165D02*
X0023529D01*
X0023713Y0014120D02*
X0023523D01*
X0023713Y0014075D02*
X0023514D01*
X0023713Y0014030D02*
X0023503D01*
X0023713Y0013985D02*
X0023488D01*
X0023713Y0013940D02*
X0023471D01*
X0023713Y0013895D02*
X0023450D01*
X0023713Y0013850D02*
X0023425D01*
X0023713Y0013805D02*
X0023396D01*
X0023713Y0013760D02*
X0023363D01*
X0023713Y0013715D02*
X0023324D01*
X0023713Y0013670D02*
X0023279D01*
X0023713Y0013625D02*
X0023224D01*
X0023713Y0013580D02*
X0023158D01*
X0023713Y0013535D02*
X0023093D01*
X0023713Y0013490D02*
X0023093D01*
X0023713Y0013445D02*
X0023093D01*
X0023713Y0013400D02*
X0023093D01*
X0023713Y0013355D02*
X0023093D01*
X0023673Y0015220D02*
Y0013280D01*
X0023628Y0015230D02*
Y0013270D01*
X0023583Y0015230D02*
Y0013270D01*
X0023538Y0015230D02*
Y0013270D01*
X0023493Y0013998D02*
Y0013270D01*
X0023448Y0013891D02*
Y0013270D01*
X0023403Y0013814D02*
Y0013270D01*
X0023358Y0013753D02*
Y0013270D01*
X0023313Y0013703D02*
Y0013270D01*
X0023268Y0013660D02*
Y0013270D01*
X0023223Y0013624D02*
Y0013270D01*
X0023178Y0013592D02*
Y0013270D01*
X0023133Y0013565D02*
Y0013270D01*
Y0015230D02*
Y0014937D01*
X0023696Y0015200D02*
X0023093D01*
X0023713Y0015155D02*
X0023093D01*
X0023713Y0015110D02*
X0023093D01*
X0023713Y0015065D02*
X0023093D01*
X0023713Y0015020D02*
X0023093D01*
X0023713Y0014975D02*
X0023093D01*
X0023713Y0014930D02*
X0023145D01*
X0023713Y0014885D02*
X0023211D01*
X0023713Y0014840D02*
X0023265D01*
X0023713Y0014795D02*
X0023310D01*
X0023713Y0014750D02*
X0023350D01*
X0023713Y0014705D02*
X0023384D01*
X0023713Y0014660D02*
X0023413D01*
X0023713Y0014615D02*
X0023439D01*
X0023493Y0015230D02*
Y0014486D01*
X0023448Y0015230D02*
Y0014597D01*
X0023403Y0015230D02*
Y0014676D01*
X0023358Y0015230D02*
Y0014740D01*
X0023313Y0015230D02*
Y0014792D01*
X0023268Y0015230D02*
Y0014837D01*
X0023223Y0015230D02*
Y0014875D01*
X0023178Y0015230D02*
Y0014909D01*
X0023703Y0013310D02*
X0023093D01*
X0023103Y0013550D02*
X0023093Y0013540D01*
Y0013270D01*
X0023633D02*
X0023093D01*
X0023635D02*
X0023633D01*
X0023713Y0015150D02*
Y0013350D01*
Y0015152D02*
Y0015150D01*
X0023633Y0015230D02*
X0023093D01*
Y0014960D01*
X0023533Y0014250D02*
Y0014244D01*
X0022018Y0014566D02*
X0021771D01*
X0021999Y0014521D02*
X0021771D01*
X0021984Y0014476D02*
X0021771D01*
X0021972Y0014431D02*
X0021771D01*
X0021963Y0014386D02*
X0021771D01*
X0021956Y0014341D02*
X0021771D01*
X0021952Y0014296D02*
X0021771D01*
X0021951Y0014251D02*
X0021771D01*
X0021953Y0014206D02*
X0021771D01*
X0021957Y0014161D02*
X0021771D01*
X0021964Y0014116D02*
X0021771D01*
X0021974Y0014071D02*
X0021771D01*
X0021986Y0014026D02*
X0021771D01*
X0022001Y0013981D02*
X0021771D01*
X0022019Y0013936D02*
X0021771D01*
X0022040Y0013891D02*
X0021771D01*
X0022065Y0013846D02*
X0021771D01*
X0022094Y0013801D02*
X0021771D01*
X0022127Y0013756D02*
X0021771D01*
X0022165Y0013711D02*
X0021771D01*
X0022209Y0013666D02*
X0021771D01*
X0022261Y0013621D02*
X0021771D01*
X0022323Y0013576D02*
X0021771D01*
X0022391Y0013531D02*
X0021771D01*
X0022391Y0013486D02*
X0021771D01*
X0022391Y0013441D02*
X0021771D01*
X0022391Y0013396D02*
X0021771D01*
X0022391Y0013351D02*
X0021771D01*
X0022351Y0013559D02*
Y0013267D01*
X0022306Y0013588D02*
Y0013267D01*
X0022261Y0013621D02*
Y0013267D01*
X0022216Y0013659D02*
Y0013267D01*
X0022171Y0013704D02*
Y0013267D01*
X0022126Y0013757D02*
Y0013267D01*
X0022081Y0013820D02*
Y0013267D01*
X0022036Y0013899D02*
Y0013267D01*
X0021991Y0014010D02*
Y0013267D01*
X0021946Y0015227D02*
Y0013267D01*
X0021901Y0015227D02*
Y0013267D01*
X0021856Y0015227D02*
Y0013267D01*
X0021811Y0015217D02*
Y0013276D01*
X0021991Y0015227D02*
Y0014498D01*
X0022391Y0015196D02*
X0021788D01*
X0022391Y0015151D02*
X0021771D01*
X0022391Y0015106D02*
X0021771D01*
X0022391Y0015061D02*
X0021771D01*
X0022391Y0015016D02*
X0021771D01*
X0022391Y0014971D02*
X0021771D01*
X0022343Y0014926D02*
X0021771D01*
X0022273Y0014881D02*
X0021771D01*
X0022216Y0014836D02*
X0021771D01*
X0022169Y0014791D02*
X0021771D01*
X0022129Y0014746D02*
X0021771D01*
X0022094Y0014701D02*
X0021771D01*
X0022065Y0014656D02*
X0021771D01*
X0022039Y0014611D02*
X0021771D01*
X0022351Y0015227D02*
Y0014931D01*
X0022306Y0015227D02*
Y0014904D01*
X0022261Y0015227D02*
Y0014873D01*
X0022216Y0015227D02*
Y0014836D01*
X0022171Y0015227D02*
Y0014793D01*
X0022126Y0015227D02*
Y0014743D01*
X0022081Y0015227D02*
Y0014682D01*
X0022036Y0015227D02*
Y0014605D01*
X0022391Y0013306D02*
X0021781D01*
X0021951Y0014252D02*
Y0014247D01*
X0022391Y0013537D02*
Y0013267D01*
X0021851D01*
X0021850Y0013266D01*
X0021771Y0015147D02*
Y0013347D01*
Y0015148D02*
Y0015147D01*
X0022391Y0015227D02*
X0021851D01*
X0022391D02*
Y0014957D01*
X0022381Y0014947D01*
G01X0023635Y0013270D02*
G03X0023713Y0013348I0000000J0000078D01*
G03X0023713Y0013350I0000078J0000000D01*
Y0015152D02*
G03X0023635Y0015230I0000078J0000000D01*
G03X0023633Y0015230I0000000J0000078D01*
G01X0023533Y0014250D02*
G03X0023093Y0014960I0000820J0000017D01*
G01X0023103Y0013550D02*
G03X0023532Y0014244I0000346J0000694D01*
G01X0022381Y0014947D02*
G03X0021951Y0014252I0000346J0000695D01*
Y0014247D02*
G03X0022391Y0013537I0000821J0000017D01*
G01X0021771Y0013345D02*
G03X0021850Y0013266I0000079J0000000D01*
G01X0021771Y0013347D02*
G03X0021771Y0013345I0000079J0000002D01*
G01X0021850Y0015227D02*
G03X0021771Y0015148I0000000J0000079D01*
G01X0021851Y0015227D02*
G03X0021850Y0015227I0000001J0000079D01*
G54D63*
G01X0025518Y0004630D02*
Y0004315D01*
X0025464Y0004630D02*
Y0004315D01*
X0025410Y0004630D02*
Y0004315D01*
X0025356Y0004630D02*
Y0004315D01*
X0025302Y0004630D02*
Y0004315D01*
X0025577Y0004571D02*
X0025262D01*
X0025577Y0004517D02*
X0025262D01*
X0025577Y0004463D02*
X0025262D01*
X0025577Y0004409D02*
X0025262D01*
X0025577Y0004355D02*
X0025262D01*
X0025577Y0004630D02*
X0025262D01*
Y0004315D01*
X0025577D02*
X0025262D01*
X0025577Y0004630D02*
Y0004315D01*
X0025518Y0004157D02*
Y0003842D01*
X0025464Y0004157D02*
Y0003842D01*
X0025410Y0004157D02*
Y0003842D01*
X0025356Y0004157D02*
Y0003842D01*
X0025302Y0004157D02*
Y0003842D01*
X0025577Y0004098D02*
X0025262D01*
X0025577Y0004044D02*
X0025262D01*
X0025577Y0003990D02*
X0025262D01*
X0025577Y0003936D02*
X0025262D01*
X0025577Y0003882D02*
X0025262D01*
X0025577Y0004157D02*
X0025262D01*
Y0003842D01*
X0025577D02*
X0025262D01*
X0025577Y0004157D02*
Y0003842D01*
X0025518Y0003685D02*
Y0003370D01*
X0025464Y0003685D02*
Y0003370D01*
X0025410Y0003685D02*
Y0003370D01*
X0025356Y0003685D02*
Y0003370D01*
X0025302Y0003685D02*
Y0003370D01*
X0025577Y0003626D02*
X0025262D01*
X0025577Y0003572D02*
X0025262D01*
X0025577Y0003518D02*
X0025262D01*
X0025577Y0003464D02*
X0025262D01*
X0025577Y0003410D02*
X0025262D01*
X0025577Y0003685D02*
X0025262D01*
Y0003370D01*
X0025577D02*
X0025262D01*
X0025577Y0003685D02*
Y0003370D01*
X0025045Y0004630D02*
Y0004315D01*
X0024991Y0004630D02*
Y0004315D01*
X0024937Y0004630D02*
Y0004315D01*
X0024883Y0004630D02*
Y0004315D01*
X0024829Y0004630D02*
Y0004315D01*
X0025104Y0004571D02*
X0024789D01*
X0025104Y0004517D02*
X0024789D01*
X0025104Y0004463D02*
X0024789D01*
X0025104Y0004409D02*
X0024789D01*
X0025104Y0004355D02*
X0024789D01*
X0025104Y0004630D02*
X0024789D01*
Y0004315D01*
X0025104D02*
X0024789D01*
X0025104Y0004630D02*
Y0004315D01*
X0025045Y0004157D02*
Y0003842D01*
X0024991Y0004157D02*
Y0003842D01*
X0024937Y0004157D02*
Y0003842D01*
X0024883Y0004157D02*
Y0003842D01*
X0024829Y0004157D02*
Y0003842D01*
X0025104Y0004098D02*
X0024789D01*
X0025104Y0004044D02*
X0024789D01*
X0025104Y0003990D02*
X0024789D01*
X0025104Y0003936D02*
X0024789D01*
X0025104Y0003882D02*
X0024789D01*
X0025104Y0004157D02*
X0024789D01*
Y0003842D01*
X0025104D02*
X0024789D01*
X0025104Y0004157D02*
Y0003842D01*
X0025045Y0003685D02*
Y0003370D01*
X0024991Y0003685D02*
Y0003370D01*
X0024937Y0003685D02*
Y0003370D01*
X0024883Y0003685D02*
Y0003370D01*
X0024829Y0003685D02*
Y0003370D01*
X0025104Y0003626D02*
X0024789D01*
X0025104Y0003572D02*
X0024789D01*
X0025104Y0003518D02*
X0024789D01*
X0025104Y0003464D02*
X0024789D01*
X0025104Y0003410D02*
X0024789D01*
X0025104Y0003685D02*
X0024789D01*
Y0003370D01*
X0025104D02*
X0024789D01*
X0025104Y0003685D02*
Y0003370D01*
X0024632Y0004280D02*
X0024337D01*
X0024632Y0004226D02*
X0024337D01*
X0024632Y0004172D02*
X0024337D01*
X0024632Y0004118D02*
X0024337D01*
X0024632Y0004064D02*
X0024337D01*
X0024632Y0004010D02*
X0024337D01*
X0024632Y0003956D02*
X0024337D01*
X0024632Y0003902D02*
X0024337D01*
X0024632Y0003848D02*
X0024337D01*
X0024632Y0003794D02*
X0024337D01*
X0024632Y0003740D02*
X0024337D01*
X0024632Y0003646D02*
X0024337D01*
X0024632Y0004354D02*
Y0003646D01*
X0024593Y0004354D02*
Y0003646D01*
X0024539Y0004354D02*
Y0003646D01*
X0024485Y0004354D02*
Y0003646D01*
X0024431Y0004354D02*
Y0003646D01*
X0024377Y0004354D02*
Y0003646D01*
X0024632Y0004334D02*
X0024337D01*
X0024632Y0003686D02*
X0024337D01*
X0024632Y0004354D02*
X0024337D01*
Y0003646D01*
X0025990Y0004630D02*
Y0004315D01*
X0025936Y0004630D02*
Y0004315D01*
X0025882Y0004630D02*
Y0004315D01*
X0025828Y0004630D02*
Y0004315D01*
X0025774Y0004630D02*
Y0004315D01*
X0026049Y0004571D02*
X0025734D01*
X0026049Y0004517D02*
X0025734D01*
X0026049Y0004463D02*
X0025734D01*
X0026049Y0004409D02*
X0025734D01*
X0026049Y0004355D02*
X0025734D01*
X0026049Y0004630D02*
X0025734D01*
Y0004315D01*
X0026049D02*
X0025734D01*
X0026049Y0004630D02*
Y0004315D01*
X0025990Y0004157D02*
Y0003842D01*
X0025936Y0004157D02*
Y0003842D01*
X0025882Y0004157D02*
Y0003842D01*
X0025828Y0004157D02*
Y0003842D01*
X0025774Y0004157D02*
Y0003842D01*
X0026049Y0004098D02*
X0025734D01*
X0026049Y0004044D02*
X0025734D01*
X0026049Y0003990D02*
X0025734D01*
X0026049Y0003936D02*
X0025734D01*
X0026049Y0003882D02*
X0025734D01*
X0026049Y0004157D02*
X0025734D01*
Y0003842D01*
X0026049D02*
X0025734D01*
X0026049Y0004157D02*
Y0003842D01*
X0025990Y0003685D02*
Y0003370D01*
X0025936Y0003685D02*
Y0003370D01*
X0025882Y0003685D02*
Y0003370D01*
X0025828Y0003685D02*
Y0003370D01*
X0025774Y0003685D02*
Y0003370D01*
X0026049Y0003626D02*
X0025734D01*
X0026049Y0003572D02*
X0025734D01*
X0026049Y0003518D02*
X0025734D01*
X0026049Y0003464D02*
X0025734D01*
X0026049Y0003410D02*
X0025734D01*
X0026049Y0003685D02*
X0025734D01*
Y0003370D01*
X0026049D02*
X0025734D01*
X0026049Y0003685D02*
Y0003370D01*
G54D11*
X0011750Y0007280D03*
Y0006720D03*
X0012500Y0005970D03*
Y0006530D03*
X0011750Y0009470D03*
Y0010030D03*
X0017000Y0006470D03*
Y0007030D03*
X0011000Y0009470D03*
Y0010030D03*
X0010250Y0009470D03*
Y0010030D03*
X0015000Y0004470D03*
Y0005030D03*
X0010250Y0004720D03*
Y0005280D03*
X0010000Y0002720D03*
Y0003280D03*
X0017750Y0006470D03*
Y0007030D03*
X0013250Y0006530D03*
Y0005970D03*
X0010000Y0007280D03*
Y0006720D03*
X0034750Y0010930D03*
Y0010370D03*
X0025750Y0011780D03*
Y0011220D03*
X0030250Y0014220D03*
Y0014780D03*
X0030750Y0010530D03*
Y0009970D03*
X0031500Y0007470D03*
Y0008030D03*
X0030750Y0006970D03*
Y0007530D03*
X0028500Y0006470D03*
Y0007030D03*
X0030000Y0009970D03*
Y0010530D03*
X0029250Y0008030D03*
Y0007470D03*
X0031500Y0009970D03*
Y0010530D03*
X0028500Y0008280D03*
Y0007720D03*
X0027250Y0007280D03*
Y0006720D03*
X0026500D03*
Y0007280D03*
Y0011220D03*
Y0011780D03*
X0029500Y0011220D03*
Y0011780D03*
X0028750Y0011220D03*
Y0011780D03*
X0027250D03*
Y0011220D03*
X0028000Y0011780D03*
Y0011220D03*
X0026500Y0014220D03*
Y0014780D03*
X0029500Y0014220D03*
Y0014780D03*
X0027250Y0014220D03*
Y0014780D03*
X0028000Y0014220D03*
Y0014780D03*
X0028750Y0014220D03*
Y0014780D03*
X0023250Y0004220D03*
Y0004780D03*
X0022500Y0004220D03*
Y0004780D03*
X0014750Y0010470D03*
Y0011030D03*
X0015750Y0010470D03*
Y0011030D03*
X0018250Y0009030D03*
Y0008470D03*
X0025000Y0011780D03*
Y0011220D03*
X0024750Y0012720D03*
Y0013280D03*
X0030000Y0006970D03*
Y0007530D03*
X0029250Y0008720D03*
Y0009280D03*
G54D12*
X0022000Y0012464D03*
Y0010535D03*
X0023500Y0012464D03*
Y0010535D03*
G54D13*
X0017250Y0010600D03*
Y0011900D03*
G54D14*
X0027850Y0007606D03*
Y0008394D03*
G54D15*
X0011750Y0008900D03*
Y0008100D03*
X0011000Y0008900D03*
Y0008100D03*
X0010250Y0008900D03*
Y0008100D03*
X0031250Y0012600D03*
Y0013400D03*
X0025500Y0012600D03*
Y0013400D03*
X0030500Y0012600D03*
Y0013400D03*
X0027250Y0012600D03*
Y0013400D03*
X0028000Y0012600D03*
Y0013400D03*
X0026500Y0012600D03*
Y0013400D03*
X0029500Y0012600D03*
Y0013400D03*
X0028750Y0012600D03*
Y0013400D03*
G54D41*
X0011300Y0004750D03*
X0012200Y0004350D03*
Y0005150D03*
X0013300Y0004750D03*
X0014200Y0004350D03*
Y0005150D03*
X0008300Y0003000D03*
X0009200Y0002600D03*
Y0003400D03*
X0008300Y0001250D03*
X0009200Y0000850D03*
Y0001650D03*
X0008300Y0004750D03*
X0009200Y0004350D03*
Y0005150D03*
X0008300Y0006500D03*
X0009200Y0006100D03*
Y0006900D03*
X0024800Y0007000D03*
X0025700Y0006600D03*
Y0007400D03*
X0022800Y0006500D03*
X0023700Y0006100D03*
Y0006900D03*
X0020800Y0005250D03*
X0021700Y0004850D03*
Y0005650D03*
G54D42*
X0026337Y0010000D03*
X0027163Y0009626D03*
Y0010374D03*
X0024587Y0010000D03*
X0025413Y0009626D03*
Y0010374D03*
X0026337Y0008500D03*
X0027163Y0008126D03*
Y0008874D03*
X0024587Y0008500D03*
X0025413Y0008126D03*
Y0008874D03*
G54D43*
X0017250Y0005660D03*
Y0004340D03*
X0016000D03*
Y0005660D03*
X0011000Y0003160D03*
Y0001840D03*
X0028250Y0010410D03*
Y0009090D03*
X0019750Y0004340D03*
Y0005660D03*
X0018500D03*
Y0004340D03*
G54D44*
X0004500Y0012380D03*
Y0014120D03*
X0006250Y0012380D03*
Y0014120D03*
G54D45*
X0030000Y0008250D03*
X0030256D03*
X0030512D03*
X0030768D03*
X0030000Y0009274D03*
X0030256D03*
X0030512D03*
X0030768D03*
G54D47*
X0008250Y0007898D03*
X0009250D03*
Y0010102D03*
X0008250D03*
G54D62*
X0026864Y0003587D03*
Y0004425D03*
M02*
