*
G04 Mass Parameters ***
*
G04 Image ***
*
%IND:\UTENTI\00.LAVORI IN CORSO\METALTRONICA\22-313-0\22-313-0.SST*%
%ICAS*%
%MOIN*%
%IPPOS*%
%ASAXBY*%
G74*%FSLAN2X34Y34*%
*
G04 Aperture Definitions ***
*
%ADD10C,0.0394*%
%ADD11R,0.0380X0.0320*%
%ADD12R,0.0886X0.0905*%
%ADD13R,0.1024X0.0510*%
%ADD14R,0.0197X0.0315*%
%ADD15R,0.0501X0.0404*%
%ADD16R,0.0527X0.0630*%
%ADD17R,0.1913X0.1496*%
%ADD18C,0.2756*%
%ADD19C,0.0787*%
%ADD20C,0.0512*%
%ADD21R,0.0787X0.0787*%
%ADD22O,0.0787X0.1181*%
%ADD23C,0.0669*%
%ADD24R,0.0669X0.0669*%
%ADD25C,0.0590*%
%ADD26R,0.0590X0.0590*%
%ADD27C,0.1200*%
%ADD28R,0.1200X0.1200*%
%ADD29C,0.0866*%
%ADD30C,0.1000*%
%ADD31R,0.1000X0.1000*%
%ADD32C,0.0610*%
%ADD33R,0.0610X0.0610*%
%ADD34C,0.1181*%
%ADD35C,0.0984*%
%ADD36R,0.0984X0.0984*%
%ADD37R,0.0630X0.0630*%
%ADD38C,0.0630*%
%ADD39C,0.1299*%
%ADD40C,0.0187*%
%ADD41R,0.0500X0.0400*%
%ADD42R,0.0354X0.0315*%
%ADD43R,0.0710X0.0400*%
%ADD44R,0.1080X0.0850*%
%ADD45R,0.0177X0.0394*%
%ADD46C,0.0800*%
%ADD47R,0.0236X0.0512*%
%ADD48C,0.0276*%
%ADD49C,0.0050*%
%ADD50C,0.0100*%
%ADD51C,0.0080*%
%ADD52C,0.0276*%
%ADD53C,0.0300*%
%ADD54C,0.0120*%
%ADD55C,0.0200*%
%ADD56C,0.0500*%
%ADD57C,0.0250*%
%ADD58C,0.1000*%
%ADD59C,0.0150*%
%ADD60C,0.0276*%
%ADD61C,0.0276*%
%ADD62R,0.0354X0.0354*%
%ADD63C,0.0060*%
%ADD64C,0.0059*%
%ADD65C,0.0079*%
%ADD66C,0.0078*%
*
G04 Plot Data ***
*
G54D49*
G01X0023853Y0015370D02*
X0021623D01*
Y0013150D01*
X0023853D01*
Y0015370D01*
G54D50*
G01X0035600Y0003220D02*
X0035000D01*
X0035600Y0003130D02*
X0035000D01*
X0035600Y0003040D02*
X0035000D01*
X0035600Y0002950D02*
X0035000D01*
X0035600Y0002860D02*
X0035000D01*
X0035600Y0002770D02*
X0035000D01*
X0035600Y0002680D02*
X0035000D01*
X0035600Y0002590D02*
X0035000D01*
X0035600Y0002500D02*
X0035000D01*
X0035600Y0002410D02*
X0035000D01*
X0035600Y0002320D02*
X0035000D01*
X0035600Y0002230D02*
X0035000D01*
X0035600Y0004300D02*
X0035000D01*
X0035600Y0004210D02*
X0035000D01*
X0035600Y0004120D02*
X0035000D01*
X0035600Y0004030D02*
X0035000D01*
X0035600Y0003940D02*
X0035000D01*
X0035600Y0003850D02*
X0035000D01*
X0035600Y0003760D02*
X0035000D01*
X0035600Y0003670D02*
X0035000D01*
X0035600Y0003580D02*
X0035000D01*
X0035600Y0003490D02*
X0035000D01*
X0035600Y0003400D02*
X0035000D01*
X0035600Y0003310D02*
X0035000D01*
X0035600Y0005380D02*
X0035000D01*
X0035600Y0005290D02*
X0035000D01*
X0035600Y0005200D02*
X0035000D01*
X0035600Y0005110D02*
X0035000D01*
X0035600Y0005020D02*
X0035000D01*
X0035600Y0004930D02*
X0035000D01*
X0035600Y0004840D02*
X0035000D01*
X0035600Y0004750D02*
X0035000D01*
X0035600Y0004660D02*
X0035000D01*
X0035600Y0004570D02*
X0035000D01*
X0035600Y0004480D02*
X0035000D01*
X0035600Y0004390D02*
X0035000D01*
X0035600Y0005500D02*
X0035000D01*
X0035600D02*
Y0002100D01*
X0035000D01*
X0035580Y0005500D02*
Y0002100D01*
X0035490Y0005500D02*
Y0002100D01*
X0035400Y0005500D02*
Y0002100D01*
X0035310Y0005500D02*
Y0002100D01*
X0035220Y0005500D02*
Y0002100D01*
X0035130Y0005500D02*
Y0002100D01*
X0035040Y0005500D02*
Y0002100D01*
X0035600Y0005470D02*
X0035000D01*
X0035600Y0002140D02*
X0035000D01*
Y0005500D02*
Y0002100D01*
X0034750Y0003220D02*
X0034150D01*
X0034750Y0003130D02*
X0034150D01*
X0034750Y0003040D02*
X0034150D01*
X0034750Y0002950D02*
X0034150D01*
X0034750Y0002860D02*
X0034150D01*
X0034750Y0002770D02*
X0034150D01*
X0034750Y0002680D02*
X0034150D01*
X0034750Y0002590D02*
X0034150D01*
X0034750Y0002500D02*
X0034150D01*
X0034750Y0002410D02*
X0034150D01*
X0034750Y0002320D02*
X0034150D01*
X0034750Y0002230D02*
X0034150D01*
X0034750Y0004300D02*
X0034150D01*
X0034750Y0004210D02*
X0034150D01*
X0034750Y0004120D02*
X0034150D01*
X0034750Y0004030D02*
X0034150D01*
X0034750Y0003940D02*
X0034150D01*
X0034750Y0003850D02*
X0034150D01*
X0034750Y0003760D02*
X0034150D01*
X0034750Y0003670D02*
X0034150D01*
X0034750Y0003580D02*
X0034150D01*
X0034750Y0003490D02*
X0034150D01*
X0034750Y0003400D02*
X0034150D01*
X0034750Y0003310D02*
X0034150D01*
X0034750Y0005380D02*
X0034150D01*
X0034750Y0005290D02*
X0034150D01*
X0034750Y0005200D02*
X0034150D01*
X0034750Y0005110D02*
X0034150D01*
X0034750Y0005020D02*
X0034150D01*
X0034750Y0004930D02*
X0034150D01*
X0034750Y0004840D02*
X0034150D01*
X0034750Y0004750D02*
X0034150D01*
X0034750Y0004660D02*
X0034150D01*
X0034750Y0004570D02*
X0034150D01*
X0034750Y0004480D02*
X0034150D01*
X0034750Y0004390D02*
X0034150D01*
X0034750Y0005500D02*
Y0002100D01*
Y0005500D02*
X0034150D01*
Y0002100D01*
X0034730Y0005500D02*
Y0002100D01*
X0034640Y0005500D02*
Y0002100D01*
X0034550Y0005500D02*
Y0002100D01*
X0034460Y0005500D02*
Y0002100D01*
X0034370Y0005500D02*
Y0002100D01*
X0034280Y0005500D02*
Y0002100D01*
X0034190Y0005500D02*
Y0002100D01*
X0034750Y0005470D02*
X0034150D01*
X0034750Y0002140D02*
X0034150D01*
X0034750Y0002100D02*
X0034150D01*
X0031851Y0015191D02*
X0031772D01*
Y0012319D01*
X0035214D01*
Y0015173D01*
X0035194Y0015191D01*
X0031851D01*
G54D51*
G01X0038929Y0006795D02*
X0038846Y0006737D01*
X0038762Y0006707D01*
X0038596D01*
X0038512Y0006737D01*
X0038429Y0006795D01*
Y0006853D01*
X0038512Y0006912D01*
X0038596Y0006941D01*
X0038762D01*
X0038846Y0006912D01*
X0038929Y0006853D01*
Y0006795D01*
X0038679Y0006518D02*
Y0006285D01*
X0038846Y0005862D02*
X0038929Y0005921D01*
Y0006037D01*
X0038846Y0006096D01*
X0038762D01*
X0038596Y0005979D01*
X0038429Y0006096D01*
Y0005862D01*
X0038929Y0005673D02*
Y0005557D01*
Y0005615D02*
X0038429D01*
X0038512Y0005557D01*
X0038846Y0005076D02*
X0038929Y0005134D01*
Y0005251D01*
X0038846Y0005309D01*
X0038762D01*
X0038596Y0005192D01*
X0038429Y0005309D01*
Y0005076D01*
X0038679Y0004887D02*
Y0004653D01*
X0038929Y0004464D02*
Y0004231D01*
X0038596Y0004464D01*
X0038512D01*
X0038429Y0004435D01*
Y0004260D01*
X0038512Y0004231D01*
X0038929Y0004042D02*
Y0003808D01*
X0038596Y0004042D01*
X0038512D01*
X0038429Y0004012D01*
Y0003837D01*
X0038512Y0003808D01*
X0034656Y0001868D02*
X0034422D01*
X0034189Y0001977D02*
X0034422Y0001895D01*
Y0001840D01*
X0034189Y0001759D01*
X0034267Y0001572D02*
X0034189Y0001544D01*
Y0001381D01*
X0034267Y0001354D01*
X0034344D01*
X0034422Y0001381D01*
Y0001544D01*
X0034500Y0001572D01*
X0034578D01*
X0034656Y0001544D01*
Y0001381D01*
X0034578Y0001354D01*
X0034267Y0001167D02*
X0034189Y0001139D01*
Y0000976D01*
X0034267Y0000949D01*
X0034344D01*
X0034422Y0000976D01*
Y0001139D01*
X0034500Y0001167D01*
X0034578D01*
X0034656Y0001139D01*
Y0000976D01*
X0034578Y0000949D01*
X0034500Y0000762D02*
Y0000544D01*
X0034656Y0000762D02*
X0034422D01*
X0034189Y0000680D01*
Y0000625D01*
X0034422Y0000544D01*
X0034656D01*
X0035272Y0001872D02*
Y0001654D01*
X0035506Y0001872D02*
X0035039D01*
X0035506Y0001654D02*
X0035039D01*
X0035428Y0001467D02*
X0035506Y0001439D01*
Y0001276D01*
X0035428Y0001249D01*
X0035117D01*
X0035039Y0001276D01*
Y0001439D01*
X0035117Y0001467D01*
Y0001062D02*
X0035039Y0001034D01*
Y0000871D01*
X0035117Y0000844D01*
X0035194D01*
X0035272Y0000871D01*
Y0001034D01*
X0035350Y0001062D01*
X0035428D01*
X0035506Y0001034D01*
Y0000871D01*
X0035428Y0000844D01*
G54D63*
G01X0025933Y0006023D02*
Y0005930D01*
Y0005977D02*
X0025533D01*
X0025600Y0005930D01*
Y0005740D02*
X0025533Y0005717D01*
Y0005577D01*
X0025600Y0005553D01*
X0025667D01*
X0025733Y0005577D01*
Y0005717D01*
X0025800Y0005740D01*
X0025867D01*
X0025933Y0005717D01*
Y0005577D01*
X0025867Y0005553D01*
X0025933Y0005247D02*
X0025533D01*
X0025933Y0005223D02*
Y0005363D01*
X0025800Y0005410D01*
X0025667D01*
X0025533Y0005363D01*
Y0005223D01*
X0004411Y0002317D02*
X0004478Y0002364D01*
Y0002457D01*
X0004411Y0002504D01*
X0004344D01*
X0004211Y0002410D01*
X0004078Y0002504D01*
Y0002317D01*
X0004344Y0002010D02*
X0004411D01*
X0004478Y0002034D01*
Y0002127D01*
X0004411Y0002150D01*
X0004078D01*
Y0002174D02*
Y0002080D01*
X0007842Y0000963D02*
X0007749D01*
X0007795D02*
Y0001363D01*
X0007749Y0001296D01*
X0030517Y0004897D02*
Y0004803D01*
Y0004850D02*
X0030117D01*
X0030183Y0004803D01*
X0033017Y0004897D02*
Y0004803D01*
Y0004850D02*
X0032617D01*
X0032683Y0004803D01*
X0028727Y0008278D02*
X0028327Y0008418D01*
Y0008231D01*
X0028727Y0008088D02*
Y0007994D01*
Y0008041D02*
X0028327D01*
X0028394Y0007994D01*
X0028527Y0007734D02*
X0028727Y0007804D01*
X0028527Y0007618D02*
Y0007758D01*
X0028460Y0007804D01*
X0028394D01*
X0028327Y0007758D01*
Y0007618D01*
X0028727D01*
X0033339Y0010655D02*
X0033273Y0010679D01*
X0033206D01*
X0033139Y0010655D01*
Y0010515D01*
X0033206Y0010492D01*
X0033273D01*
X0033339Y0010515D01*
Y0010655D01*
X0033406Y0010679D01*
X0033473D01*
X0033539Y0010655D01*
Y0010515D01*
X0033473Y0010492D01*
X0033406D01*
X0033339Y0010515D01*
X0033539Y0010349D02*
Y0010255D01*
Y0010302D02*
X0033139D01*
X0033206Y0010255D01*
X0033339Y0009995D02*
X0033539Y0010065D01*
X0033339Y0009879D02*
Y0010019D01*
X0033273Y0010065D01*
X0033206D01*
X0033139Y0010019D01*
Y0009879D01*
X0033539D01*
X0029327Y0007044D02*
Y0006904D01*
X0029260Y0006881D01*
X0029194D01*
X0029127Y0006904D01*
Y0007044D01*
X0029194Y0007068D01*
X0029260D01*
X0029527Y0006974D01*
Y0006738D02*
Y0006644D01*
Y0006691D02*
X0029127D01*
X0029194Y0006644D01*
X0029327Y0006384D02*
X0029527Y0006454D01*
X0029327Y0006268D02*
Y0006408D01*
X0029260Y0006454D01*
X0029194D01*
X0029127Y0006408D01*
Y0006268D01*
X0029527D01*
X0032389Y0010609D02*
X0032323Y0010562D01*
X0032256Y0010539D01*
X0032123D01*
X0032056Y0010562D01*
X0031989Y0010609D01*
Y0010655D01*
X0032056Y0010702D01*
X0032123Y0010725D01*
X0032256D01*
X0032323Y0010702D01*
X0032389Y0010655D01*
Y0010609D01*
Y0010395D02*
Y0010209D01*
X0032123Y0010395D01*
X0032056D01*
X0031989Y0010372D01*
Y0010232D01*
X0032056Y0010209D01*
X0032189Y0009995D02*
X0032389Y0010065D01*
X0032189Y0009879D02*
Y0010019D01*
X0032123Y0010065D01*
X0032056D01*
X0031989Y0010019D01*
Y0009879D01*
X0032389D01*
X0028639Y0006029D02*
Y0005935D01*
Y0005982D02*
X0028239D01*
X0028306Y0005935D01*
X0028639Y0005745D02*
Y0005559D01*
X0028373Y0005745D01*
X0028306D01*
X0028239Y0005722D01*
Y0005582D01*
X0028306Y0005559D01*
X0028439Y0005345D02*
X0028639Y0005415D01*
X0028439Y0005229D02*
Y0005369D01*
X0028373Y0005415D01*
X0028306D01*
X0028239Y0005369D01*
Y0005229D01*
X0028639D01*
X0030873Y0006289D02*
X0030939Y0006335D01*
Y0006429D01*
X0030873Y0006475D01*
X0030806D01*
X0030673Y0006382D01*
X0030539Y0006475D01*
Y0006289D01*
X0030939Y0006145D02*
Y0005959D01*
X0030673Y0006145D01*
X0030606D01*
X0030539Y0006122D01*
Y0005982D01*
X0030606Y0005959D01*
X0030739Y0005745D02*
X0030939Y0005815D01*
X0030739Y0005629D02*
Y0005769D01*
X0030673Y0005815D01*
X0030606D01*
X0030539Y0005769D01*
Y0005629D01*
X0030939D01*
X0031556Y0007025D02*
Y0006839D01*
X0031289Y0006932D01*
Y0006979D01*
X0031689D01*
Y0006695D02*
Y0006509D01*
X0031423Y0006695D01*
X0031356D01*
X0031289Y0006672D01*
Y0006532D01*
X0031356Y0006509D01*
X0031489Y0006295D02*
X0031689Y0006365D01*
X0031489Y0006179D02*
Y0006319D01*
X0031423Y0006365D01*
X0031356D01*
X0031289Y0006319D01*
Y0006179D01*
X0031689D01*
X0032910Y0010528D02*
X0032977Y0010551D01*
Y0010691D01*
X0032910Y0010714D01*
X0032777D01*
X0032710Y0010668D01*
Y0010528D01*
X0032577D01*
Y0010714D01*
X0032977Y0010384D02*
Y0010198D01*
X0032710Y0010384D01*
X0032644D01*
X0032577Y0010361D01*
Y0010221D01*
X0032644Y0010198D01*
X0032777Y0009984D02*
X0032977Y0010054D01*
X0032777Y0009868D02*
Y0010008D01*
X0032710Y0010054D01*
X0032644D01*
X0032577Y0010008D01*
Y0009868D01*
X0032977D01*
X0030663Y0015322D02*
X0030803D01*
X0030826Y0015255D01*
Y0015189D01*
X0030803Y0015122D01*
X0030663D01*
X0030639Y0015189D01*
Y0015255D01*
X0030733Y0015522D01*
X0030496Y0015122D02*
X0030309D01*
X0030496Y0015389D01*
Y0015455D01*
X0030473Y0015522D01*
X0030333D01*
X0030309Y0015455D01*
X0030096Y0015322D02*
X0030166Y0015122D01*
X0029979Y0015322D02*
X0030119D01*
X0030166Y0015389D01*
Y0015455D01*
X0030119Y0015522D01*
X0029979D01*
Y0015122D01*
X0030427Y0011774D02*
X0030027Y0011914D01*
Y0011728D01*
X0030427Y0011584D02*
Y0011398D01*
X0030160Y0011584D01*
X0030094D01*
X0030027Y0011561D01*
Y0011421D01*
X0030094Y0011398D01*
X0030227Y0011184D02*
X0030427Y0011254D01*
X0030227Y0011068D02*
Y0011208D01*
X0030160Y0011254D01*
X0030094D01*
X0030027Y0011208D01*
Y0011068D01*
X0030427D01*
X0035427Y0010991D02*
X0035360Y0011014D01*
X0035294D01*
X0035227Y0010991D01*
Y0010851D01*
X0035294Y0010828D01*
X0035360D01*
X0035427Y0010851D01*
Y0010991D01*
X0035494Y0011014D01*
X0035560D01*
X0035627Y0010991D01*
Y0010851D01*
X0035560Y0010828D01*
X0035494D01*
X0035427Y0010851D01*
X0035627Y0010684D02*
Y0010498D01*
X0035360Y0010684D01*
X0035294D01*
X0035227Y0010661D01*
Y0010521D01*
X0035294Y0010498D01*
X0035427Y0010284D02*
X0035627Y0010354D01*
X0035427Y0010168D02*
Y0010308D01*
X0035360Y0010354D01*
X0035294D01*
X0035227Y0010308D01*
Y0010168D01*
X0035627D01*
X0010627Y0007541D02*
Y0007401D01*
X0010560Y0007378D01*
X0010494D01*
X0010427Y0007401D01*
Y0007541D01*
X0010494Y0007564D01*
X0010560D01*
X0010827Y0007471D01*
Y0007234D02*
Y0007048D01*
X0010560Y0007234D01*
X0010494D01*
X0010427Y0007211D01*
Y0007071D01*
X0010494Y0007048D01*
X0010627Y0006834D02*
X0010827Y0006904D01*
X0010627Y0006718D02*
Y0006858D01*
X0010560Y0006904D01*
X0010494D01*
X0010427Y0006858D01*
Y0006718D01*
X0010827D01*
X0013697Y0007011D02*
X0013650Y0007078D01*
X0013627Y0007144D01*
Y0007278D01*
X0013650Y0007344D01*
X0013697Y0007411D01*
X0013744D01*
X0013790Y0007344D01*
X0013814Y0007278D01*
Y0007144D01*
X0013790Y0007078D01*
X0013744Y0007011D01*
X0013697D01*
X0013297Y0007078D02*
X0013344Y0007011D01*
X0013437D01*
X0013484Y0007078D01*
Y0007144D01*
X0013390Y0007278D01*
X0013484Y0007411D01*
X0013297D01*
X0013084Y0007211D02*
X0013154Y0007011D01*
X0012967Y0007211D02*
X0013107D01*
X0013154Y0007278D01*
Y0007344D01*
X0013107Y0007411D01*
X0012967D01*
Y0007011D01*
X0018639Y0007579D02*
Y0007485D01*
Y0007532D02*
X0018239D01*
X0018306Y0007485D01*
X0018573Y0007109D02*
X0018639Y0007155D01*
Y0007249D01*
X0018573Y0007295D01*
X0018506D01*
X0018373Y0007202D01*
X0018239Y0007295D01*
Y0007109D01*
X0018439Y0006895D02*
X0018639Y0006965D01*
X0018439Y0006779D02*
Y0006919D01*
X0018373Y0006965D01*
X0018306D01*
X0018239Y0006919D01*
Y0006779D01*
X0018639D01*
X0010239Y0002275D02*
Y0002089D01*
X0009973Y0002275D01*
X0009906D01*
X0009839Y0002252D01*
Y0002112D01*
X0009906Y0002089D01*
X0010173Y0001759D02*
X0010239Y0001805D01*
Y0001899D01*
X0010173Y0001945D01*
X0010106D01*
X0009973Y0001852D01*
X0009839Y0001945D01*
Y0001759D01*
X0010039Y0001545D02*
X0010239Y0001615D01*
X0010039Y0001429D02*
Y0001569D01*
X0009973Y0001615D01*
X0009906D01*
X0009839Y0001569D01*
Y0001429D01*
X0010239D01*
X0010756Y0006525D02*
Y0006339D01*
X0010489Y0006432D01*
Y0006479D01*
X0010889D01*
X0010823Y0006009D02*
X0010889Y0006055D01*
Y0006149D01*
X0010823Y0006195D01*
X0010756D01*
X0010623Y0006102D01*
X0010489Y0006195D01*
Y0006009D01*
X0010689Y0005795D02*
X0010889Y0005865D01*
X0010689Y0005679D02*
Y0005819D01*
X0010623Y0005865D01*
X0010556D01*
X0010489Y0005819D01*
Y0005679D01*
X0010889D01*
X0015339Y0003789D02*
X0015363Y0003722D01*
X0015503D01*
X0015526Y0003789D01*
Y0003922D01*
X0015479Y0003989D01*
X0015339D01*
Y0004122D01*
X0015526D01*
X0015009Y0003789D02*
X0015056Y0003722D01*
X0015149D01*
X0015196Y0003789D01*
Y0003855D01*
X0015103Y0003989D01*
X0015196Y0004122D01*
X0015009D01*
X0014796Y0003922D02*
X0014866Y0003722D01*
X0014679Y0003922D02*
X0014819D01*
X0014866Y0003989D01*
Y0004055D01*
X0014819Y0004122D01*
X0014679D01*
Y0003722D01*
X0010389Y0009985D02*
X0009989Y0010125D01*
Y0009939D01*
X0010323Y0009609D02*
X0010389Y0009655D01*
Y0009749D01*
X0010323Y0009795D01*
X0010256D01*
X0010123Y0009702D01*
X0009989Y0009795D01*
Y0009609D01*
X0010189Y0009395D02*
X0010389Y0009465D01*
X0010189Y0009279D02*
Y0009419D01*
X0010123Y0009465D01*
X0010056D01*
X0009989Y0009419D01*
Y0009279D01*
X0010389D01*
X0010939Y0010102D02*
X0010873Y0010125D01*
X0010806D01*
X0010739Y0010102D01*
Y0009962D01*
X0010806Y0009939D01*
X0010873D01*
X0010939Y0009962D01*
Y0010102D01*
X0011006Y0010125D01*
X0011073D01*
X0011139Y0010102D01*
Y0009962D01*
X0011073Y0009939D01*
X0011006D01*
X0010939Y0009962D01*
X0011073Y0009609D02*
X0011139Y0009655D01*
Y0009749D01*
X0011073Y0009795D01*
X0011006D01*
X0010873Y0009702D01*
X0010739Y0009795D01*
Y0009609D01*
X0010939Y0009395D02*
X0011139Y0009465D01*
X0010939Y0009279D02*
Y0009419D01*
X0010873Y0009465D01*
X0010806D01*
X0010739Y0009419D01*
Y0009279D01*
X0011139D01*
X0016539Y0007309D02*
X0016473Y0007262D01*
X0016406Y0007239D01*
X0016273D01*
X0016206Y0007262D01*
X0016139Y0007309D01*
Y0007355D01*
X0016206Y0007402D01*
X0016273Y0007425D01*
X0016406D01*
X0016473Y0007402D01*
X0016539Y0007355D01*
Y0007309D01*
X0016406Y0007095D02*
Y0006909D01*
X0016139Y0007002D01*
Y0007049D01*
X0016539D01*
X0016339Y0006695D02*
X0016539Y0006765D01*
X0016339Y0006579D02*
Y0006719D01*
X0016273Y0006765D01*
X0016206D01*
X0016139Y0006719D01*
Y0006579D01*
X0016539D01*
X0011889Y0010079D02*
Y0009985D01*
Y0010032D02*
X0011489D01*
X0011556Y0009985D01*
X0011756Y0009795D02*
Y0009609D01*
X0011489Y0009702D01*
Y0009749D01*
X0011889D01*
X0011689Y0009395D02*
X0011889Y0009465D01*
X0011689Y0009279D02*
Y0009419D01*
X0011623Y0009465D01*
X0011556D01*
X0011489Y0009419D01*
Y0009279D01*
X0011889D01*
X0012026Y0005772D02*
X0011839D01*
X0012026Y0006039D01*
Y0006105D01*
X0012003Y0006172D01*
X0011863D01*
X0011839Y0006105D01*
X0011696Y0005905D02*
X0011509D01*
X0011603Y0006172D01*
X0011649D01*
Y0005772D01*
X0011296Y0005972D02*
X0011366Y0005772D01*
X0011179Y0005972D02*
X0011319D01*
X0011366Y0006039D01*
Y0006105D01*
X0011319Y0006172D01*
X0011179D01*
Y0005772D01*
X0011260Y0007378D02*
X0011327Y0007424D01*
Y0007518D01*
X0011260Y0007564D01*
X0011194D01*
X0011060Y0007471D01*
X0010927Y0007564D01*
Y0007378D01*
X0011194Y0007234D02*
Y0007048D01*
X0010927Y0007141D01*
Y0007188D01*
X0011327D01*
X0011127Y0006834D02*
X0011327Y0006904D01*
X0011127Y0006718D02*
Y0006858D01*
X0011060Y0006904D01*
X0010994D01*
X0010927Y0006858D01*
Y0006718D01*
X0011327D01*
X0010241Y0001143D02*
X0010174Y0001097D01*
X0010107Y0001073D01*
X0009974D01*
X0009907Y0001097D01*
X0009841Y0001143D01*
Y0001190D01*
X0009907Y0001237D01*
X0009974Y0001260D01*
X0010107D01*
X0010174Y0001237D01*
X0010241Y0001190D01*
Y0001143D01*
Y0000930D02*
Y0000837D01*
Y0000883D02*
X0009841D01*
X0009907Y0000837D01*
X0010107Y0000553D02*
X0010241Y0000647D01*
X0010174Y0000460D02*
X0010241Y0000483D01*
Y0000577D01*
X0010174Y0000600D01*
X0010107Y0000647D01*
X0009907D01*
X0009841Y0000623D01*
Y0000483D01*
X0009907Y0000460D01*
X0010174D01*
X0023957Y0008627D02*
Y0008440D01*
X0023691Y0008533D01*
Y0008580D01*
X0024091D01*
X0023957Y0008203D02*
X0024091Y0008297D01*
X0024024Y0008110D02*
X0024091Y0008133D01*
Y0008227D01*
X0024024Y0008250D01*
X0023957Y0008297D01*
X0023757D01*
X0023691Y0008273D01*
Y0008133D01*
X0023757Y0008110D01*
X0024024D01*
X0004200Y0004000D02*
X0004013D01*
X0004107Y0004267D01*
X0004153D01*
Y0003867D01*
X0003870D02*
X0003777D01*
X0003823D02*
Y0004267D01*
X0003777Y0004200D01*
X0003423Y0004000D02*
Y0003933D01*
X0003447Y0003867D01*
X0003540D01*
X0003563Y0003933D01*
Y0004267D01*
X0003587D02*
X0003493D01*
X0031583Y0009136D02*
Y0009043D01*
Y0009090D02*
X0031183D01*
X0031250Y0009043D01*
X0031183Y0008853D02*
X0031517D01*
X0031583Y0008830D01*
Y0008690D01*
X0031517Y0008666D01*
X0031183D01*
X0007836Y0010233D02*
X0007903Y0010279D01*
Y0010373D01*
X0007836Y0010419D01*
X0007769D01*
X0007636Y0010326D01*
X0007503Y0010419D01*
Y0010233D01*
Y0010089D02*
X0007836D01*
X0007903Y0010066D01*
Y0009926D01*
X0007836Y0009903D01*
X0007503D01*
X0035707Y0012223D02*
Y0012037D01*
X0035441Y0012130D01*
Y0012177D01*
X0035841D01*
Y0011893D02*
Y0011730D01*
X0035441D01*
X0035841Y0011423D02*
X0035441D01*
X0035841Y0011400D02*
Y0011540D01*
X0035707Y0011587D01*
X0035574D01*
X0035441Y0011540D01*
Y0011400D01*
X0011559Y0007890D02*
Y0007983D01*
Y0007937D02*
X0011959D01*
X0011892Y0007983D01*
X0011559Y0008173D02*
Y0008267D01*
Y0008220D02*
X0011959D01*
X0011892Y0008267D01*
X0011559Y0008457D02*
Y0008620D01*
X0011959D01*
X0011559Y0008927D02*
X0011959D01*
X0011559Y0008950D02*
Y0008810D01*
X0011692Y0008763D01*
X0011826D01*
X0011959Y0008810D01*
Y0008950D01*
X0029642Y0010314D02*
X0029455D01*
X0029642Y0010580D01*
Y0010647D01*
X0029619Y0010714D01*
X0029479D01*
X0029455Y0010647D01*
X0029312Y0010314D02*
X0029125D01*
X0029312Y0010580D01*
Y0010647D01*
X0029289Y0010714D01*
X0029149D01*
X0029125Y0010647D01*
X0028912Y0010514D02*
X0028982Y0010314D01*
X0028795Y0010514D02*
X0028935D01*
X0028982Y0010580D01*
Y0010647D01*
X0028935Y0010714D01*
X0028795D01*
Y0010314D01*
X0009813Y0013517D02*
X0009720D01*
X0009767D02*
Y0013917D01*
X0009720Y0013850D01*
X0006771Y0011173D02*
X0006677D01*
X0006724D02*
Y0011573D01*
X0006677Y0011507D01*
X0006487D02*
X0006464Y0011573D01*
X0006324D01*
X0006301Y0011507D01*
Y0011440D01*
X0006324Y0011373D01*
X0006464D01*
X0006487Y0011307D01*
Y0011240D01*
X0006464Y0011173D01*
X0006324D01*
X0006301Y0011240D01*
X0006157Y0011573D02*
Y0011440D01*
X0006064Y0011173D01*
X0005971Y0011440D01*
Y0011573D01*
X0005734Y0011173D02*
Y0011573D01*
X0005827D02*
X0005641D01*
X0008833Y0015293D02*
Y0015153D01*
X0008767Y0015130D01*
X0008700D01*
X0008633Y0015153D01*
Y0015293D01*
X0008700Y0015317D01*
X0008767D01*
X0009033Y0015223D01*
X0008900Y0014823D02*
X0008967D01*
X0009033Y0014847D01*
Y0014940D01*
X0008967Y0014963D01*
X0008633D01*
Y0014987D02*
Y0014893D01*
X0025983Y0001263D02*
Y0001170D01*
Y0001217D02*
X0025583D01*
X0025650Y0001170D01*
X0027867Y0000880D02*
X0027933Y0000903D01*
Y0001043D01*
X0027867Y0001067D01*
X0027733D01*
X0027667Y0001020D01*
Y0000880D01*
X0027533D01*
Y0001067D01*
X0027800Y0000573D02*
X0027867D01*
X0027933Y0000597D01*
Y0000690D01*
X0027867Y0000713D01*
X0027533D01*
Y0000737D02*
Y0000643D01*
X0035513Y0013217D02*
X0035420D01*
X0035467D02*
Y0013617D01*
X0035420Y0013550D01*
X0017521Y0012824D02*
Y0012964D01*
X0017587Y0012987D01*
X0017654D01*
X0017721Y0012964D01*
Y0012824D01*
X0017654Y0012800D01*
X0017587D01*
X0017321Y0012894D01*
X0017654Y0012657D02*
X0017721Y0012634D01*
Y0012494D01*
X0017654Y0012470D01*
X0017387D01*
X0017321Y0012494D01*
Y0012634D01*
X0017387Y0012657D01*
X0007691Y0003313D02*
Y0003220D01*
Y0003267D02*
X0007291D01*
X0007357Y0003220D01*
X0007691Y0003030D02*
Y0002937D01*
Y0002983D02*
X0007291D01*
X0007357Y0002937D01*
X0007557Y0002653D02*
X0007691Y0002747D01*
X0007624Y0002560D02*
X0007691Y0002583D01*
Y0002677D01*
X0007624Y0002700D01*
X0007557Y0002747D01*
X0007357D01*
X0007291Y0002723D01*
Y0002583D01*
X0007357Y0002560D01*
X0007624D01*
X0014581Y0005753D02*
X0014394D01*
X0014581Y0006020D01*
Y0006087D01*
X0014557Y0006153D01*
X0014417D01*
X0014394Y0006087D01*
X0014251Y0005753D02*
X0014157D01*
X0014204D02*
Y0006153D01*
X0014157Y0006087D01*
X0013874Y0005887D02*
X0013967Y0005753D01*
X0013781Y0005820D02*
X0013804Y0005753D01*
X0013897D01*
X0013921Y0005820D01*
X0013967Y0005887D01*
Y0006087D01*
X0013944Y0006153D01*
X0013804D01*
X0013781Y0006087D01*
Y0005820D01*
X0010809Y0007960D02*
X0010876Y0008007D01*
X0010942Y0008030D01*
X0011076D01*
X0011142Y0008007D01*
X0011209Y0007960D01*
Y0007913D01*
X0011142Y0007867D01*
X0011076Y0007843D01*
X0010942D01*
X0010876Y0007867D01*
X0010809Y0007913D01*
Y0007960D01*
Y0008173D02*
Y0008267D01*
Y0008220D02*
X0011209D01*
X0011142Y0008267D01*
X0010809Y0008457D02*
Y0008620D01*
X0011209D01*
X0010809Y0008927D02*
X0011209D01*
X0010809Y0008950D02*
Y0008810D01*
X0010942Y0008763D01*
X0011076D01*
X0011209Y0008810D01*
Y0008950D01*
X0018489Y0002600D02*
Y0002740D01*
X0018555Y0002764D01*
X0018622D01*
X0018689Y0002740D01*
Y0002600D01*
X0018622Y0002577D01*
X0018555D01*
X0018289Y0002670D01*
X0018355Y0003094D02*
X0018289Y0003047D01*
Y0002954D01*
X0018355Y0002907D01*
X0018422D01*
X0018555Y0003000D01*
X0018689Y0002907D01*
Y0003094D01*
X0018489Y0003307D02*
X0018289Y0003237D01*
X0018489Y0003424D02*
Y0003284D01*
X0018555Y0003237D01*
X0018622D01*
X0018689Y0003284D01*
Y0003424D01*
X0018289D01*
X0030189Y0006395D02*
Y0006209D01*
X0029923Y0006395D01*
X0029856D01*
X0029789Y0006372D01*
Y0006232D01*
X0029856Y0006209D01*
X0030123Y0006065D02*
X0030189Y0006042D01*
Y0005902D01*
X0030123Y0005879D01*
X0029856D01*
X0029789Y0005902D01*
Y0006042D01*
X0029856Y0006065D01*
X0012693Y0001103D02*
Y0001010D01*
Y0001057D02*
X0012293D01*
X0012360Y0001010D01*
X0016783Y0001033D02*
X0016717Y0000987D01*
X0016650Y0000963D01*
X0016517D01*
X0016450Y0000987D01*
X0016383Y0001033D01*
Y0001080D01*
X0016450Y0001127D01*
X0016517Y0001150D01*
X0016650D01*
X0016717Y0001127D01*
X0016783Y0001080D01*
Y0001033D01*
Y0000820D02*
Y0000727D01*
Y0000773D02*
X0016383D01*
X0016450Y0000727D01*
X0016650Y0000373D02*
X0016717D01*
X0016783Y0000397D01*
Y0000490D01*
X0016717Y0000513D01*
X0016383D01*
Y0000537D02*
Y0000443D01*
X0019039Y0006500D02*
X0019105Y0006547D01*
Y0006640D01*
X0019039Y0006687D01*
X0018972D01*
X0018839Y0006594D01*
X0018705Y0006687D01*
Y0006500D01*
X0018905Y0006287D02*
X0019105Y0006357D01*
X0018905Y0006170D02*
Y0006310D01*
X0018839Y0006357D01*
X0018772D01*
X0018705Y0006310D01*
Y0006170D01*
X0019105D01*
X0022683Y0001070D02*
Y0000977D01*
Y0001023D02*
X0022283D01*
X0022350Y0000977D01*
X0022550Y0000623D02*
X0022617D01*
X0022683Y0000647D01*
Y0000740D01*
X0022617Y0000763D01*
X0022283D01*
Y0000787D02*
Y0000693D01*
X0024873Y0014059D02*
X0024939Y0014105D01*
Y0014199D01*
X0024873Y0014245D01*
X0024806D01*
X0024673Y0014152D01*
X0024539Y0014245D01*
Y0014059D01*
X0024873Y0013915D02*
X0024939Y0013892D01*
Y0013752D01*
X0024873Y0013729D01*
X0024606D01*
X0024539Y0013752D01*
Y0013892D01*
X0024606Y0013915D01*
X0019683Y0001163D02*
Y0001070D01*
Y0001117D02*
X0019283D01*
X0019350Y0001070D01*
X0024577Y0011644D02*
X0024177Y0011784D01*
Y0011598D01*
X0024510Y0011454D02*
X0024577Y0011431D01*
Y0011291D01*
X0024510Y0011268D01*
X0024244D01*
X0024177Y0011291D01*
Y0011431D01*
X0024244Y0011454D01*
X0018177Y0010011D02*
X0018110Y0010034D01*
X0018044D01*
X0017977Y0010011D01*
Y0009871D01*
X0018044Y0009848D01*
X0018110D01*
X0018177Y0009871D01*
Y0010011D01*
X0018244Y0010034D01*
X0018310D01*
X0018377Y0010011D01*
Y0009871D01*
X0018310Y0009848D01*
X0018244D01*
X0018177Y0009871D01*
X0018310Y0009704D02*
X0018377Y0009681D01*
Y0009541D01*
X0018310Y0009518D01*
X0018044D01*
X0017977Y0009541D01*
Y0009681D01*
X0018044Y0009704D01*
X0037391Y0012060D02*
Y0012200D01*
X0037457Y0012223D01*
X0037524D01*
X0037591Y0012200D01*
Y0012060D01*
X0037524Y0012037D01*
X0037457D01*
X0037191Y0012130D01*
X0037591Y0011893D02*
Y0011730D01*
X0037191D01*
X0037591Y0011423D02*
X0037191D01*
X0037591Y0011400D02*
Y0011540D01*
X0037457Y0011587D01*
X0037324D01*
X0037191Y0011540D01*
Y0011400D01*
X0037041Y0012223D02*
Y0012037D01*
X0036774Y0012223D01*
X0036707D01*
X0036641Y0012200D01*
Y0012060D01*
X0036707Y0012037D01*
X0037041Y0011893D02*
Y0011730D01*
X0036641D01*
X0037041Y0011423D02*
X0036641D01*
X0037041Y0011400D02*
Y0011540D01*
X0036907Y0011587D01*
X0036774D01*
X0036641Y0011540D01*
Y0011400D01*
X0016389Y0011072D02*
Y0010932D01*
X0016323Y0010909D01*
X0016256D01*
X0016189Y0010932D01*
Y0011072D01*
X0016256Y0011095D01*
X0016323D01*
X0016589Y0011002D01*
X0016523Y0010765D02*
X0016589Y0010742D01*
Y0010602D01*
X0016523Y0010579D01*
X0016256D01*
X0016189Y0010602D01*
Y0010742D01*
X0016256Y0010765D01*
X0021889Y0004349D02*
Y0004255D01*
Y0004302D02*
X0021489D01*
X0021556Y0004255D01*
X0021689Y0003995D02*
X0021889Y0004065D01*
X0021689Y0003879D02*
Y0004019D01*
X0021623Y0004065D01*
X0021556D01*
X0021489Y0004019D01*
Y0003879D01*
X0021889D01*
X0035224Y0012037D02*
X0035291Y0012060D01*
Y0012200D01*
X0035224Y0012223D01*
X0035091D01*
X0035024Y0012177D01*
Y0012037D01*
X0034891D01*
Y0012223D01*
X0035291Y0011893D02*
Y0011730D01*
X0034891D01*
X0035291Y0011423D02*
X0034891D01*
X0035291Y0011400D02*
Y0011540D01*
X0035157Y0011587D01*
X0035024D01*
X0034891Y0011540D01*
Y0011400D01*
X0023739Y0003745D02*
Y0003559D01*
X0023473Y0003745D01*
X0023406D01*
X0023339Y0003722D01*
Y0003582D01*
X0023406Y0003559D01*
X0023539Y0003345D02*
X0023739Y0003415D01*
X0023539Y0003229D02*
Y0003369D01*
X0023473Y0003415D01*
X0023406D01*
X0023339Y0003369D01*
Y0003229D01*
X0023739D01*
X0010544Y0003920D02*
X0010591Y0003853D01*
X0010684D01*
X0010731Y0003920D01*
Y0003987D01*
X0010637Y0004120D01*
X0010731Y0004253D01*
X0010544D01*
X0010401Y0003853D02*
X0010307D01*
X0010354D02*
Y0004253D01*
X0010307Y0004187D01*
X0010024Y0003987D02*
X0010117Y0003853D01*
X0009931Y0003920D02*
X0009954Y0003853D01*
X0010047D01*
X0010071Y0003920D01*
X0010117Y0003987D01*
Y0004187D01*
X0010094Y0004253D01*
X0009954D01*
X0009931Y0004187D01*
Y0003920D01*
X0011139Y0001080D02*
X0011205Y0001127D01*
Y0001220D01*
X0011139Y0001267D01*
X0011072D01*
X0010939Y0001174D01*
X0010805Y0001267D01*
Y0001080D01*
X0011139Y0000750D02*
X0011205Y0000797D01*
Y0000890D01*
X0011139Y0000937D01*
X0011072D01*
X0010939Y0000844D01*
X0010805Y0000937D01*
Y0000750D01*
X0011005Y0000537D02*
X0011205Y0000607D01*
X0011005Y0000420D02*
Y0000560D01*
X0010939Y0000607D01*
X0010872D01*
X0010805Y0000560D01*
Y0000420D01*
X0011205D01*
X0028809Y0015189D02*
X0028833Y0015122D01*
X0028973D01*
X0028996Y0015189D01*
Y0015322D01*
X0028949Y0015389D01*
X0028809D01*
Y0015522D01*
X0028996D01*
X0028596Y0015322D02*
X0028666Y0015122D01*
X0028479Y0015322D02*
X0028619D01*
X0028666Y0015389D01*
Y0015455D01*
X0028619Y0015522D01*
X0028479D01*
Y0015122D01*
X0028083Y0015322D02*
X0028223D01*
X0028246Y0015255D01*
Y0015189D01*
X0028223Y0015122D01*
X0028083D01*
X0028059Y0015189D01*
Y0015255D01*
X0028153Y0015522D01*
X0027846Y0015322D02*
X0027916Y0015122D01*
X0027729Y0015322D02*
X0027869D01*
X0027916Y0015389D01*
Y0015455D01*
X0027869Y0015522D01*
X0027729D01*
Y0015122D01*
X0028780Y0002906D02*
Y0002719D01*
X0028514Y0002812D01*
Y0002859D01*
X0028914D01*
X0028780Y0002412D02*
X0028847D01*
X0028914Y0002436D01*
Y0002529D01*
X0028847Y0002552D01*
X0028514D01*
Y0002576D02*
Y0002482D01*
X0027406Y0015122D02*
X0027546Y0015522D01*
X0027359D01*
X0027146Y0015322D02*
X0027216Y0015122D01*
X0027029Y0015322D02*
X0027169D01*
X0027216Y0015389D01*
Y0015455D01*
X0027169Y0015522D01*
X0027029D01*
Y0015122D01*
X0021038Y0010210D02*
X0021062Y0010143D01*
X0021202D01*
X0021225Y0010210D01*
Y0010343D01*
X0021178Y0010410D01*
X0021038D01*
Y0010543D01*
X0021225D01*
X0020895Y0010210D02*
X0020872Y0010143D01*
X0020732D01*
X0020708Y0010210D01*
Y0010477D01*
X0020732Y0010543D01*
X0020872D01*
X0020895Y0010477D01*
X0034624Y0012037D02*
X0034691Y0012083D01*
Y0012177D01*
X0034624Y0012223D01*
X0034557D01*
X0034424Y0012130D01*
X0034291Y0012223D01*
Y0012037D01*
X0034691Y0011893D02*
Y0011730D01*
X0034291D01*
X0034691Y0011423D02*
X0034291D01*
X0034691Y0011400D02*
Y0011540D01*
X0034557Y0011587D01*
X0034424D01*
X0034291Y0011540D01*
Y0011400D01*
X0010259Y0008150D02*
Y0008290D01*
X0010326Y0008313D01*
X0010392D01*
X0010459Y0008290D01*
Y0008150D01*
X0010392Y0008127D01*
X0010326D01*
X0010059Y0008220D01*
Y0008457D02*
Y0008620D01*
X0010459D01*
X0010059Y0008927D02*
X0010459D01*
X0010059Y0008950D02*
Y0008810D01*
X0010192Y0008763D01*
X0010326D01*
X0010459Y0008810D01*
Y0008950D01*
X0029723Y0015322D02*
X0029746Y0015389D01*
Y0015455D01*
X0029723Y0015522D01*
X0029583D01*
X0029559Y0015455D01*
Y0015389D01*
X0029583Y0015322D01*
X0029723D01*
X0029746Y0015255D01*
Y0015189D01*
X0029723Y0015122D01*
X0029583D01*
X0029559Y0015189D01*
Y0015255D01*
X0029583Y0015322D01*
X0029346D02*
X0029416Y0015122D01*
X0029229Y0015322D02*
X0029369D01*
X0029416Y0015389D01*
Y0015455D01*
X0029369Y0015522D01*
X0029229D01*
Y0015122D01*
X0026723Y0015322D02*
X0026583D01*
X0026559Y0015389D01*
Y0015455D01*
X0026583Y0015522D01*
X0026723D01*
X0026746Y0015455D01*
Y0015389D01*
X0026653Y0015122D01*
X0026346Y0015322D02*
X0026416Y0015122D01*
X0026229Y0015322D02*
X0026369D01*
X0026416Y0015389D01*
Y0015455D01*
X0026369Y0015522D01*
X0026229D01*
Y0015122D01*
X0017954Y0015113D02*
Y0014926D01*
X0017687Y0015113D01*
X0017620D01*
X0017554Y0015089D01*
Y0014949D01*
X0017620Y0014926D01*
X0017554Y0014783D02*
X0017887D01*
X0017954Y0014759D01*
Y0014619D01*
X0017887Y0014596D01*
X0017554D01*
X0020941Y0004330D02*
Y0004237D01*
Y0004283D02*
X0020541D01*
X0020607Y0004237D01*
X0020807Y0003953D02*
X0020941Y0004047D01*
X0020874Y0003860D02*
X0020941Y0003883D01*
Y0003977D01*
X0020874Y0004000D01*
X0020807Y0004047D01*
X0020607D01*
X0020541Y0004023D01*
Y0003883D01*
X0020607Y0003860D01*
X0020874D01*
X0024041Y0005627D02*
Y0005440D01*
X0023774Y0005627D01*
X0023707D01*
X0023641Y0005603D01*
Y0005463D01*
X0023707Y0005440D01*
X0023907Y0005203D02*
X0024041Y0005297D01*
X0023974Y0005110D02*
X0024041Y0005133D01*
Y0005227D01*
X0023974Y0005250D01*
X0023907Y0005297D01*
X0023707D01*
X0023641Y0005273D01*
Y0005133D01*
X0023707Y0005110D01*
X0023974D01*
X0033914Y0005639D02*
Y0005452D01*
X0033647Y0005639D01*
X0033580D01*
X0033514Y0005616D01*
Y0005476D01*
X0033580Y0005452D01*
X0033914Y0005309D02*
Y0005216D01*
Y0005262D02*
X0033514D01*
X0033580Y0005216D01*
X0033780Y0004862D02*
X0033847D01*
X0033914Y0004886D01*
Y0004979D01*
X0033847Y0005002D01*
X0033514D01*
Y0005026D02*
Y0004932D01*
X0019578Y0006693D02*
Y0006506D01*
X0019311Y0006600D01*
Y0006646D01*
X0019711D01*
X0019511Y0006293D02*
X0019711Y0006363D01*
X0019511Y0006176D02*
Y0006316D01*
X0019444Y0006363D01*
X0019378D01*
X0019311Y0006316D01*
Y0006176D01*
X0019711D01*
X0037991Y0012200D02*
X0037924Y0012223D01*
X0037857D01*
X0037791Y0012200D01*
Y0012060D01*
X0037857Y0012037D01*
X0037924D01*
X0037991Y0012060D01*
Y0012200D01*
X0038057Y0012223D01*
X0038124D01*
X0038191Y0012200D01*
Y0012060D01*
X0038124Y0012037D01*
X0038057D01*
X0037991Y0012060D01*
X0038191Y0011893D02*
Y0011730D01*
X0037791D01*
X0038191Y0011423D02*
X0037791D01*
X0038191Y0011400D02*
Y0011540D01*
X0038057Y0011587D01*
X0037924D01*
X0037791Y0011540D01*
Y0011400D01*
X0032127Y0011801D02*
X0032060Y0011754D01*
X0031994Y0011731D01*
X0031860D01*
X0031794Y0011754D01*
X0031727Y0011801D01*
Y0011848D01*
X0031794Y0011894D01*
X0031860Y0011918D01*
X0031994D01*
X0032060Y0011894D01*
X0032127Y0011848D01*
Y0011801D01*
Y0011588D02*
Y0011494D01*
Y0011541D02*
X0031727D01*
X0031794Y0011494D01*
X0031927Y0011234D02*
X0032127Y0011304D01*
X0031927Y0011118D02*
Y0011258D01*
X0031860Y0011304D01*
X0031794D01*
X0031727Y0011258D01*
Y0011118D01*
X0032127D01*
X0031577Y0011871D02*
Y0011778D01*
Y0011824D02*
X0031177D01*
X0031244Y0011778D01*
X0031577Y0011588D02*
Y0011494D01*
Y0011541D02*
X0031177D01*
X0031244Y0011494D01*
X0031377Y0011234D02*
X0031577Y0011304D01*
X0031377Y0011118D02*
Y0011258D01*
X0031310Y0011304D01*
X0031244D01*
X0031177Y0011258D01*
Y0011118D01*
X0031577D01*
X0016917Y0015213D02*
X0016983Y0015260D01*
Y0015353D01*
X0016917Y0015400D01*
X0016850D01*
X0016717Y0015307D01*
X0016583Y0015400D01*
Y0015213D01*
X0016983Y0015070D02*
Y0014977D01*
Y0015023D02*
X0016583D01*
X0016650Y0014977D01*
X0016850Y0014623D02*
X0016917D01*
X0016983Y0014647D01*
Y0014740D01*
X0016917Y0014763D01*
X0016583D01*
Y0014787D02*
Y0014693D01*
X0007491Y0004853D02*
Y0004713D01*
X0007424Y0004690D01*
X0007357D01*
X0007291Y0004713D01*
Y0004853D01*
X0007357Y0004877D01*
X0007424D01*
X0007691Y0004783D01*
X0007557Y0004453D02*
X0007691Y0004547D01*
X0007624Y0004360D02*
X0007691Y0004383D01*
Y0004477D01*
X0007624Y0004500D01*
X0007557Y0004547D01*
X0007357D01*
X0007291Y0004523D01*
Y0004383D01*
X0007357Y0004360D01*
X0007624D01*
X0019133Y0010067D02*
Y0009880D01*
X0018867Y0010067D01*
X0018800D01*
X0018733Y0010043D01*
Y0009903D01*
X0018800Y0009880D01*
X0019000Y0009573D02*
X0019067D01*
X0019133Y0009597D01*
Y0009690D01*
X0019067Y0009713D01*
X0018733D01*
Y0009737D02*
Y0009643D01*
X0019713Y0007067D02*
X0019620D01*
X0019667D02*
Y0007467D01*
X0019620Y0007400D01*
X0013913Y0011917D02*
X0013820D01*
X0013867D02*
Y0012317D01*
X0013820Y0012250D01*
X0023335Y0009967D02*
Y0009780D01*
X0023068Y0009873D01*
Y0009920D01*
X0023468D01*
X0023402Y0009637D02*
X0023468Y0009613D01*
Y0009473D01*
X0023402Y0009450D01*
X0023135D01*
X0023068Y0009473D01*
Y0009613D01*
X0023135Y0009637D01*
X0032689Y0011929D02*
Y0011742D01*
X0032423Y0011929D01*
X0032356D01*
X0032289Y0011905D01*
Y0011765D01*
X0032356Y0011742D01*
X0032689Y0011599D02*
Y0011505D01*
Y0011552D02*
X0032289D01*
X0032356Y0011505D01*
X0032489Y0011245D02*
X0032689Y0011315D01*
X0032489Y0011129D02*
Y0011269D01*
X0032423Y0011315D01*
X0032356D01*
X0032289Y0011269D01*
Y0011129D01*
X0032689D01*
X0033223Y0011742D02*
X0033289Y0011789D01*
Y0011882D01*
X0033223Y0011929D01*
X0033156D01*
X0033023Y0011835D01*
X0032889Y0011929D01*
Y0011742D01*
X0033289Y0011599D02*
Y0011505D01*
Y0011552D02*
X0032889D01*
X0032956Y0011505D01*
X0033089Y0011245D02*
X0033289Y0011315D01*
X0033089Y0011129D02*
Y0011269D01*
X0033023Y0011315D01*
X0032956D01*
X0032889Y0011269D01*
Y0011129D01*
X0033289D01*
X0023841Y0009813D02*
Y0009953D01*
X0023907Y0009977D01*
X0023974D01*
X0024041Y0009953D01*
Y0009813D01*
X0023974Y0009790D01*
X0023907D01*
X0023641Y0009883D01*
X0023907Y0009553D02*
X0024041Y0009647D01*
X0023974Y0009460D02*
X0024041Y0009483D01*
Y0009577D01*
X0023974Y0009600D01*
X0023907Y0009647D01*
X0023707D01*
X0023641Y0009623D01*
Y0009483D01*
X0023707Y0009460D01*
X0023974D01*
X0026411Y0007970D02*
X0026434Y0007903D01*
X0026574D01*
X0026597Y0007970D01*
Y0008103D01*
X0026551Y0008170D01*
X0026411D01*
Y0008303D01*
X0026597D01*
X0026174Y0008037D02*
X0026267Y0007903D01*
X0026081Y0007970D02*
X0026104Y0007903D01*
X0026197D01*
X0026221Y0007970D01*
X0026267Y0008037D01*
Y0008237D01*
X0026244Y0008303D01*
X0026104D01*
X0026081Y0008237D01*
Y0007970D01*
X0030856Y0011879D02*
Y0011692D01*
X0030589Y0011785D01*
Y0011832D01*
X0030989D01*
Y0011549D02*
Y0011455D01*
Y0011502D02*
X0030589D01*
X0030656Y0011455D01*
X0030789Y0011195D02*
X0030989Y0011265D01*
X0030789Y0011079D02*
Y0011219D01*
X0030723Y0011265D01*
X0030656D01*
X0030589Y0011219D01*
Y0011079D01*
X0030989D01*
X0028031Y0007210D02*
Y0007117D01*
Y0007163D02*
X0027631D01*
X0027698Y0007117D01*
X0028031Y0006763D02*
X0027631D01*
X0028031Y0006740D02*
Y0006880D01*
X0027898Y0006927D01*
X0027764D01*
X0027631Y0006880D01*
Y0006740D01*
X0017913Y0013817D02*
X0017820D01*
X0017867D02*
Y0014217D01*
X0017820Y0014150D01*
X0036441Y0012227D02*
Y0012133D01*
Y0012180D02*
X0036041D01*
X0036107Y0012133D01*
X0036441Y0011943D02*
Y0011780D01*
X0036041D01*
X0036441Y0011473D02*
X0036041D01*
X0036441Y0011450D02*
Y0011590D01*
X0036307Y0011637D01*
X0036174D01*
X0036041Y0011590D01*
Y0011450D01*
X0015061Y0006160D02*
Y0006300D01*
X0015128Y0006323D01*
X0015194D01*
X0015261Y0006300D01*
Y0006160D01*
X0015194Y0006136D01*
X0015128D01*
X0014861Y0006230D01*
X0015194Y0005806D02*
X0015261Y0005853D01*
Y0005946D01*
X0015194Y0005993D01*
X0015128D01*
X0014994Y0005900D01*
X0014861Y0005993D01*
Y0005806D01*
X0015061Y0005593D02*
X0015261Y0005663D01*
X0015061Y0005476D02*
Y0005616D01*
X0014994Y0005663D01*
X0014928D01*
X0014861Y0005616D01*
Y0005476D01*
X0015261D01*
X0029539Y0010199D02*
Y0010105D01*
Y0010152D02*
X0029139D01*
X0029206Y0010105D01*
X0029473Y0009915D02*
X0029539Y0009892D01*
Y0009752D01*
X0029473Y0009729D01*
X0029206D01*
X0029139Y0009752D01*
Y0009892D01*
X0029206Y0009915D01*
X0002813Y0011017D02*
X0002720D01*
X0002767D02*
Y0011417D01*
X0002720Y0011350D01*
X0024406Y0015180D02*
Y0015087D01*
Y0015133D02*
X0024006D01*
X0024073Y0015087D01*
X0024406Y0014897D02*
Y0014733D01*
X0024006D01*
X0013433Y0010803D02*
Y0010710D01*
Y0010757D02*
X0013033D01*
X0013100Y0010710D01*
X0013433Y0010520D02*
Y0010427D01*
Y0010473D02*
X0013033D01*
X0013100Y0010427D01*
X0013300Y0010073D02*
X0013367D01*
X0013433Y0010097D01*
Y0010190D01*
X0013367Y0010213D01*
X0013033D01*
Y0010237D02*
Y0010143D01*
X0012503Y0007027D02*
X0012410D01*
X0012457D02*
Y0007427D01*
X0012410Y0007360D01*
X0014289Y0011012D02*
X0014223Y0010965D01*
X0014156Y0010942D01*
X0014023D01*
X0013956Y0010965D01*
X0013889Y0011012D01*
Y0011059D01*
X0013956Y0011105D01*
X0014023Y0011129D01*
X0014156D01*
X0014223Y0011105D01*
X0014289Y0011059D01*
Y0011012D01*
Y0010799D02*
Y0010705D01*
Y0010752D02*
X0013889D01*
X0013956Y0010705D01*
X0014223Y0010515D02*
X0014289Y0010492D01*
Y0010352D01*
X0014223Y0010329D01*
X0013956D01*
X0013889Y0010352D01*
Y0010492D01*
X0013956Y0010515D01*
X0026673Y0006092D02*
X0026739Y0006115D01*
Y0006255D01*
X0026673Y0006279D01*
X0026539D01*
X0026473Y0006232D01*
Y0006092D01*
X0026339D01*
Y0006279D01*
X0026739Y0005949D02*
Y0005855D01*
Y0005902D02*
X0026339D01*
X0026406Y0005855D01*
X0026539Y0005595D02*
X0026739Y0005665D01*
X0026539Y0005479D02*
Y0005619D01*
X0026473Y0005665D01*
X0026406D01*
X0026339Y0005619D01*
Y0005479D01*
X0026739D01*
X0035599Y0015011D02*
Y0015151D01*
X0035666Y0015175D01*
X0035733D01*
X0035799Y0015151D01*
Y0015011D01*
X0035733Y0014988D01*
X0035666D01*
X0035399Y0015081D01*
X0035666Y0014681D02*
X0035733D01*
X0035799Y0014705D01*
Y0014798D01*
X0035733Y0014821D01*
X0035399D01*
Y0014845D02*
Y0014751D01*
X0025691Y0014533D02*
X0025291Y0014673D01*
Y0014487D01*
X0025691Y0014343D02*
Y0014180D01*
X0025291D01*
X0025691Y0013873D02*
X0025291D01*
X0025691Y0013850D02*
Y0013990D01*
X0025557Y0014037D01*
X0025424D01*
X0025291Y0013990D01*
Y0013850D01*
X0025174Y0005940D02*
X0025241Y0005987D01*
Y0006080D01*
X0025174Y0006127D01*
X0025107D01*
X0024974Y0006033D01*
X0024841Y0006127D01*
Y0005940D01*
X0025107Y0005703D02*
X0025241Y0005797D01*
X0025174Y0005610D02*
X0025241Y0005633D01*
Y0005727D01*
X0025174Y0005750D01*
X0025107Y0005797D01*
X0024907D01*
X0024841Y0005773D01*
Y0005633D01*
X0024907Y0005610D01*
X0025174D01*
X0026457Y0010203D02*
X0026597Y0010603D01*
X0026411D01*
X0026174Y0010337D02*
X0026267Y0010203D01*
X0026081Y0010270D02*
X0026104Y0010203D01*
X0026197D01*
X0026221Y0010270D01*
X0026267Y0010337D01*
Y0010537D01*
X0026244Y0010603D01*
X0026104D01*
X0026081Y0010537D01*
Y0010270D01*
X0008741Y0007953D02*
X0008674Y0007977D01*
X0008607D01*
X0008541Y0007953D01*
Y0007813D01*
X0008607Y0007790D01*
X0008674D01*
X0008741Y0007813D01*
Y0007953D01*
X0008807Y0007977D01*
X0008874D01*
X0008941Y0007953D01*
Y0007813D01*
X0008874Y0007790D01*
X0008807D01*
X0008741Y0007813D01*
X0008807Y0007553D02*
X0008941Y0007647D01*
X0008874Y0007460D02*
X0008941Y0007483D01*
Y0007577D01*
X0008874Y0007600D01*
X0008807Y0007647D01*
X0008607D01*
X0008541Y0007623D01*
Y0007483D01*
X0008607Y0007460D01*
X0008874D01*
X0033483Y0009193D02*
X0033417Y0009216D01*
X0033350D01*
X0033283Y0009193D01*
Y0009053D01*
X0033350Y0009030D01*
X0033417D01*
X0033483Y0009053D01*
Y0009193D01*
X0033550Y0009216D01*
X0033617D01*
X0033683Y0009193D01*
Y0009053D01*
X0033617Y0009030D01*
X0033550D01*
X0033483Y0009053D01*
X0033550Y0008723D02*
X0033617D01*
X0033683Y0008746D01*
Y0008840D01*
X0033617Y0008863D01*
X0033283D01*
Y0008886D02*
Y0008793D01*
X0005117Y0011173D02*
X0004931D01*
X0005117Y0011440D01*
Y0011507D01*
X0005094Y0011573D01*
X0004954D01*
X0004931Y0011507D01*
X0004787D02*
X0004764Y0011573D01*
X0004624D01*
X0004601Y0011507D01*
Y0011440D01*
X0004624Y0011373D01*
X0004764D01*
X0004787Y0011307D01*
Y0011240D01*
X0004764Y0011173D01*
X0004624D01*
X0004601Y0011240D01*
X0004457Y0011573D02*
Y0011440D01*
X0004364Y0011173D01*
X0004271Y0011440D01*
Y0011573D01*
X0004034Y0011173D02*
Y0011573D01*
X0004127D02*
X0003941D01*
X0027127Y0006154D02*
Y0006294D01*
X0027194Y0006318D01*
X0027260D01*
X0027327Y0006294D01*
Y0006154D01*
X0027260Y0006131D01*
X0027194D01*
X0026927Y0006224D01*
X0027327Y0005988D02*
Y0005894D01*
Y0005941D02*
X0026927D01*
X0026994Y0005894D01*
X0027127Y0005634D02*
X0027327Y0005704D01*
X0027127Y0005518D02*
Y0005658D01*
X0027060Y0005704D01*
X0026994D01*
X0026927Y0005658D01*
Y0005518D01*
X0027327D01*
X0033601Y0006948D02*
X0033508D01*
X0033554D02*
Y0007348D01*
X0033508Y0007281D01*
X0013404Y0015175D02*
X0013004Y0015315D01*
Y0015129D01*
X0013270Y0014822D02*
X0013337D01*
X0013404Y0014845D01*
Y0014939D01*
X0013337Y0014962D01*
X0013004D01*
Y0014985D02*
Y0014892D01*
X0012979Y0011230D02*
X0012886D01*
X0012933D02*
Y0011630D01*
X0012886Y0011563D01*
X0026050Y0012250D02*
X0026100Y0012200D01*
X0030000D01*
X0030100Y0012100D01*
X0034150D01*
X0017450Y0003950D02*
X0017600Y0003800D01*
X0018400D01*
X0018500Y0003700D01*
Y0003500D01*
X0035113Y0015152D02*
Y0014896D01*
X0035059Y0015152D02*
Y0014950D01*
X0035005Y0015152D02*
Y0015004D01*
X0034951Y0015152D02*
Y0015058D01*
X0034897Y0015152D02*
Y0015112D01*
X0035211Y0015108D02*
X0034901D01*
X0035211Y0015054D02*
X0034955D01*
X0035211Y0015000D02*
X0035009D01*
X0035211Y0014946D02*
X0035063D01*
X0035211Y0014892D02*
X0035117D01*
X0035211Y0014838D02*
X0035171D01*
X0034857Y0015152D02*
X0035211Y0014798D01*
Y0015152D02*
X0034857D01*
X0035211D02*
Y0014798D01*
X0035167Y0015152D02*
Y0014842D01*
X0032592Y0013657D02*
Y0013342D01*
X0015325Y0004175D02*
Y0005325D01*
X0014680D01*
Y0004175D01*
X0015325D01*
X0010575Y0009175D02*
Y0010325D01*
X0009930D01*
Y0009175D01*
X0010575D01*
X0011325D02*
Y0010325D01*
X0010680D01*
Y0009175D01*
X0011325D01*
X0017325Y0006175D02*
Y0007325D01*
X0016680D01*
Y0006175D01*
X0017325D01*
X0012075Y0009175D02*
Y0010325D01*
X0011430D01*
Y0009175D01*
X0012075D01*
X0012825Y0005675D02*
Y0006825D01*
X0012180D01*
Y0005675D01*
X0012825D01*
X0011425Y0007575D02*
Y0006425D01*
X0012070D01*
Y0007575D01*
X0011425D01*
X0017700Y0012250D02*
X0016650D01*
Y0010250D01*
X0017850D01*
Y0012250D01*
X0017700D01*
X0029575Y0008425D02*
Y0009575D01*
X0028930D01*
Y0008425D01*
X0029575D01*
X0005286Y0012386D02*
X0005287Y0014100D01*
Y0014745D01*
X0003713D01*
X0003710Y0011940D01*
X0003890Y0011760D01*
X0005150D01*
X0005290Y0011930D01*
X0005286Y0012386D01*
X0004346Y0011850D02*
Y0011780D01*
X0004292Y0011850D02*
Y0011780D01*
X0004238Y0011850D02*
Y0011780D01*
X0004184Y0011850D02*
Y0011780D01*
X0004130Y0011850D02*
Y0011780D01*
X0004076Y0011850D02*
Y0011780D01*
X0004022Y0011850D02*
Y0011780D01*
X0003968Y0011850D02*
Y0011780D01*
X0003914Y0011850D02*
Y0011780D01*
X0003860Y0011850D02*
Y0011810D01*
X0004940Y0011850D02*
Y0011780D01*
X0004886Y0011850D02*
Y0011780D01*
X0004832Y0011850D02*
Y0011780D01*
X0004778Y0011850D02*
Y0011780D01*
X0004724Y0011850D02*
Y0011780D01*
X0004670Y0011850D02*
Y0011780D01*
X0004616Y0011850D02*
Y0011780D01*
X0004562Y0011850D02*
Y0011780D01*
X0004508Y0011850D02*
Y0011780D01*
X0004454Y0011850D02*
Y0011780D01*
X0004400Y0011850D02*
Y0011780D01*
X0005150D02*
X0003890D01*
X0005200Y0011840D02*
X0005150Y0011780D01*
X0005230Y0011860D02*
X0005200Y0011840D01*
X0005250Y0011880D02*
X0005230Y0011860D01*
X0005156Y0011850D02*
Y0011787D01*
X0005102Y0011850D02*
Y0011780D01*
X0005048Y0011850D02*
Y0011780D01*
X0004994Y0011850D02*
Y0011780D01*
X0005183Y0011820D02*
X0003850D01*
X0005250Y0011880D02*
X0005210Y0011840D01*
X0005200Y0011850D02*
X0005210Y0011840D01*
X0005200Y0011850D02*
X0003820D01*
X0003890Y0011780D01*
X0005216Y0012030D02*
X0005103D01*
X0005194Y0012099D02*
Y0012000D01*
X0005140Y0012106D02*
Y0011993D01*
X0005209Y0012084D02*
X0005110D01*
X0005270Y0012930D02*
X0003720D01*
X0029000Y0012300D02*
X0028500D01*
X0028400Y0012400D01*
Y0013700D01*
X0029100D01*
Y0012400D01*
X0029000Y0012300D01*
X0029100Y0012900D02*
X0028400D01*
X0007036Y0012386D02*
X0007037Y0014100D01*
Y0014745D01*
X0005463D01*
X0005460Y0011940D01*
X0005640Y0011760D01*
X0006900D01*
X0007040Y0011930D01*
X0007036Y0012386D01*
X0030325Y0006675D02*
Y0007825D01*
X0029680D01*
Y0006675D01*
X0030325D01*
X0025075Y0012425D02*
Y0013575D01*
X0024430D01*
Y0012425D01*
X0025075D01*
X0006096Y0011850D02*
Y0011780D01*
X0006042Y0011850D02*
Y0011780D01*
X0005988Y0011850D02*
Y0011780D01*
X0005934Y0011850D02*
Y0011780D01*
X0005880Y0011850D02*
Y0011780D01*
X0005826Y0011850D02*
Y0011780D01*
X0005772Y0011850D02*
Y0011780D01*
X0005718Y0011850D02*
Y0011780D01*
X0005664Y0011850D02*
Y0011780D01*
X0005610Y0011850D02*
Y0011810D01*
X0006690Y0011850D02*
Y0011780D01*
X0006636Y0011850D02*
Y0011780D01*
X0006582Y0011850D02*
Y0011780D01*
X0006528Y0011850D02*
Y0011780D01*
X0006474Y0011850D02*
Y0011780D01*
X0006420Y0011850D02*
Y0011780D01*
X0006366Y0011850D02*
Y0011780D01*
X0006312Y0011850D02*
Y0011780D01*
X0006258Y0011850D02*
Y0011780D01*
X0006204Y0011850D02*
Y0011780D01*
X0006150Y0011850D02*
Y0011780D01*
X0006900D02*
X0005640D01*
X0006950Y0011840D02*
X0006900Y0011780D01*
X0006980Y0011860D02*
X0006950Y0011840D01*
X0007000Y0011880D02*
X0006980Y0011860D01*
X0006906Y0011850D02*
Y0011787D01*
X0006852Y0011850D02*
Y0011780D01*
X0006798Y0011850D02*
Y0011780D01*
X0006744Y0011850D02*
Y0011780D01*
X0006933Y0011820D02*
X0005600D01*
X0007000Y0011880D02*
X0006960Y0011840D01*
X0006950Y0011850D02*
X0006960Y0011840D01*
X0006950Y0011850D02*
X0005570D01*
X0005640Y0011780D01*
X0006966Y0012030D02*
X0006853D01*
X0006944Y0012099D02*
Y0012000D01*
X0006890Y0012106D02*
Y0011993D01*
X0006959Y0012084D02*
X0006860D01*
X0007020Y0012930D02*
X0005470D01*
X0031500Y0012300D02*
X0031000D01*
X0030900Y0012400D01*
Y0013700D01*
X0031600D01*
Y0012400D01*
X0031500Y0012300D01*
X0031600Y0012900D02*
X0030900D01*
X0016550Y0003950D02*
X0015450D01*
Y0006050D01*
X0016550D01*
Y0003950D01*
X0025750Y0012300D02*
X0025250D01*
X0025150Y0012400D01*
Y0013700D01*
X0025850D01*
Y0012400D01*
X0025750Y0012300D01*
X0025850Y0012900D02*
X0025150D01*
X0012650Y0003950D02*
Y0005550D01*
X0010850D01*
Y0004850D01*
X0010950Y0004750D01*
X0010850Y0004650D01*
Y0003950D01*
X0012650D01*
X0008254Y0011401D02*
Y0010850D01*
X0009069D01*
Y0011401D01*
X0008002Y0012238D02*
X0007529D01*
Y0013262D01*
X0008002D01*
X0009069Y0010850D02*
X0009321D01*
X0009069Y0014098D02*
X0009522D01*
X0008262Y0011659D02*
X0009262D01*
Y0012659D01*
X0008262D01*
Y0011659D01*
X0008254Y0010850D02*
X0008002D01*
Y0011401D01*
X0009069Y0014650D02*
X0008254D01*
X0008706Y0012199D02*
Y0012120D01*
X0008002Y0014098D02*
X0008254D01*
Y0014650D01*
X0008002D01*
Y0014098D01*
Y0011401D01*
X0008254D01*
X0009069D01*
X0009522D01*
Y0011218D01*
X0009722D01*
Y0010850D01*
X0009321D01*
X0009522Y0011218D01*
Y0014281D02*
X0009321Y0014650D01*
X0009722D01*
Y0014281D01*
X0009522D01*
Y0014098D01*
Y0011401D01*
X0008793Y0013297D02*
Y0013384D01*
X0008706D01*
Y0013297D01*
X0008793D01*
X0008876Y0013214D01*
X0008624D01*
X0008706Y0013297D01*
X0008624Y0013214D02*
Y0013466D01*
X0008876D01*
X0008793Y0013384D01*
X0008876Y0013214D02*
Y0013466D01*
X0008706Y0013384D02*
X0008624Y0013466D01*
X0008793Y0012120D02*
Y0012199D01*
X0008706D01*
X0008624Y0012285D01*
X0008876D01*
Y0012033D01*
X0008624D01*
X0008706Y0012120D01*
X0008793D01*
X0008876Y0012033D01*
Y0012285D02*
X0008793Y0012199D01*
X0008624Y0012285D02*
Y0012033D01*
X0009522Y0012937D02*
X0009722D01*
Y0013331D01*
X0009522D01*
Y0012169D02*
X0009722D01*
Y0012563D01*
X0009522D01*
X0008262Y0012840D02*
X0009006D01*
X0009262Y0013096D01*
Y0013840D01*
X0008262D01*
Y0012840D01*
X0009321Y0014650D02*
X0009069D01*
Y0014098D01*
X0008254D01*
X0022150Y0004450D02*
Y0006050D01*
X0020350D01*
Y0005350D01*
X0020450Y0005250D01*
X0020350Y0005150D01*
Y0004450D01*
X0022150D01*
X0024150Y0005700D02*
Y0007300D01*
X0022350D01*
Y0006600D01*
X0022450Y0006500D01*
X0022350Y0006400D01*
Y0005700D01*
X0024150D01*
X0026150Y0006200D02*
Y0007800D01*
X0024350D01*
Y0007100D01*
X0024450Y0007000D01*
X0024350Y0006900D01*
Y0006200D01*
X0026150D01*
X0009650Y0005700D02*
Y0007300D01*
X0007850D01*
Y0006600D01*
X0007950Y0006500D01*
X0007850Y0006400D01*
Y0005700D01*
X0009650D01*
X0010750Y0009200D02*
X0011250D01*
X0011350Y0009100D01*
Y0007800D01*
X0010650D01*
Y0009100D01*
X0010750Y0009200D01*
X0010650Y0008600D02*
X0011350D01*
X0016700Y0006050D02*
X0017800D01*
Y0003950D01*
X0016700D01*
Y0006050D01*
X0009650Y0003950D02*
Y0005550D01*
X0007850D01*
Y0004850D01*
X0007950Y0004750D01*
X0007850Y0004650D01*
Y0003950D01*
X0009650D01*
X0022913Y0003423D02*
X0022039D01*
Y0002561D01*
X0022398D01*
Y0002439D01*
X0022039D01*
Y0001577D01*
X0022913D01*
Y0003423D01*
X0020134Y0000996D02*
X0019976D01*
Y0001323D01*
X0018846D01*
Y0003677D01*
X0023153D01*
Y0001323D01*
X0022024D01*
Y0000996D01*
X0021866D01*
Y0000531D01*
X0020134D01*
Y0000996D01*
Y0001577D01*
X0020476D01*
X0020945D01*
Y0002439D01*
X0020071D01*
Y0001577D01*
X0020134D01*
X0021866Y0000996D02*
Y0001577D01*
X0021929D01*
Y0002439D01*
X0021055D01*
Y0001577D01*
X0021524D01*
Y0001468D01*
X0020476D01*
Y0001577D01*
X0019399Y0003117D02*
Y0002867D01*
X0019649D01*
Y0003117D01*
X0019399D01*
X0019458Y0003058D01*
Y0002926D01*
X0019589D01*
Y0003058D01*
X0019458D01*
X0009650Y0000450D02*
Y0002050D01*
X0007850D01*
Y0001350D01*
X0007950Y0001250D01*
X0007850Y0001150D01*
Y0000450D01*
X0009650D01*
X0029750Y0012300D02*
X0029250D01*
X0029150Y0012400D01*
Y0013700D01*
X0029850D01*
Y0012400D01*
X0029750Y0012300D01*
X0029850Y0012900D02*
X0029150D01*
X0024675Y0012075D02*
Y0010925D01*
X0025320D01*
Y0012075D01*
X0024675D01*
X0009650Y0002200D02*
Y0003800D01*
X0007850D01*
Y0003100D01*
X0007950Y0003000D01*
X0007850Y0002900D01*
Y0002200D01*
X0009650D01*
X0010000Y0009200D02*
X0010500D01*
X0010600Y0009100D01*
Y0007800D01*
X0009900D01*
Y0009100D01*
X0010000Y0009200D01*
X0009900Y0008600D02*
X0010600D01*
X0014650Y0003950D02*
Y0005550D01*
X0012850D01*
Y0004850D01*
X0012950Y0004750D01*
X0012850Y0004650D01*
Y0003950D01*
X0014650D01*
X0017925Y0009325D02*
Y0008175D01*
X0018570D01*
Y0009325D01*
X0017925D01*
X0019589Y0001942D02*
X0019649Y0001883D01*
X0019399D01*
X0019458Y0001942D01*
X0019589D01*
Y0002074D01*
X0019649Y0002133D01*
X0019399D01*
X0019458Y0002074D01*
X0019589D01*
X0019399Y0002133D02*
Y0001883D01*
Y0002867D02*
X0019458Y0002926D01*
X0019649Y0002867D02*
X0019589Y0002926D01*
X0019649Y0003117D02*
X0019589Y0003058D01*
X0022410D02*
X0022351Y0003117D01*
X0022601D01*
X0022542Y0003058D01*
X0022410D01*
Y0002926D01*
X0022351Y0002867D01*
X0022601D01*
X0022542Y0002926D01*
X0022410D01*
X0022542Y0003058D02*
Y0002926D01*
Y0001942D02*
X0022601Y0001883D01*
X0022351D01*
X0022410Y0001942D01*
X0022542D01*
Y0002074D01*
X0022601Y0002133D01*
X0022351D01*
X0022410Y0002074D01*
X0022542D01*
X0022351Y0003117D02*
Y0002867D01*
Y0002133D02*
Y0001883D01*
X0022410Y0001942D02*
Y0002074D01*
X0022601Y0003117D02*
Y0002867D01*
Y0002133D02*
Y0001883D01*
X0022398Y0002561D02*
X0022634D01*
Y0002439D01*
X0022398D01*
X0022913Y0002561D02*
X0022634D01*
Y0002439D02*
X0022913D01*
X0020383Y0003117D02*
Y0002867D01*
X0020633D01*
X0020574Y0002926D01*
Y0003058D01*
X0020633Y0003117D01*
X0020383D01*
X0020442Y0003058D01*
Y0002926D01*
X0020574D01*
X0020442Y0003058D02*
X0020574D01*
X0020383Y0002867D02*
X0020442Y0002926D01*
X0020574Y0001942D02*
X0020633Y0001883D01*
X0020383D01*
X0020442Y0001942D01*
X0020574D01*
Y0002074D01*
X0020633Y0002133D01*
X0020383D01*
X0020442Y0002074D01*
X0020574D01*
X0020383Y0002133D02*
Y0001883D01*
X0020442Y0001942D02*
Y0002074D01*
X0020633Y0003117D02*
Y0002867D01*
Y0002133D02*
Y0001883D01*
X0021367Y0003117D02*
Y0002867D01*
X0021617D01*
X0021558Y0002926D01*
Y0003058D01*
X0021617Y0003117D01*
X0021367D01*
X0021426Y0003058D01*
Y0002926D01*
X0021558D01*
X0021426Y0003058D02*
X0021558D01*
X0021367Y0002867D02*
X0021426Y0002926D01*
X0021558Y0001942D02*
X0021617Y0001883D01*
X0021367D01*
X0021426Y0001942D01*
X0021558D01*
Y0002074D01*
X0021617Y0002133D01*
X0021367D01*
X0021426Y0002074D01*
X0021558D01*
X0021367Y0002133D02*
Y0001883D01*
X0021426Y0001942D02*
Y0002074D01*
X0021617Y0003117D02*
Y0002867D01*
Y0002133D02*
Y0001883D01*
X0019976Y0000276D02*
Y0000421D01*
X0022024D01*
Y0000276D01*
X0021945Y0000197D02*
X0020055D01*
X0019976Y0000996D02*
Y0000421D01*
X0022024Y0000996D02*
Y0000421D01*
X0021524Y0001577D02*
X0021866D01*
X0019961D02*
Y0002439D01*
X0019087D01*
Y0001577D01*
X0019961D01*
X0021929Y0003423D02*
X0021055D01*
Y0002561D01*
X0021929D01*
Y0003423D01*
X0020945D02*
X0020071D01*
Y0002561D01*
X0020945D01*
Y0003423D01*
X0019961D02*
X0019087D01*
Y0002561D01*
X0019961D01*
Y0003423D01*
X0019458Y0001942D02*
Y0002074D01*
X0019649Y0002133D02*
Y0001883D01*
X0013458Y0001942D02*
Y0002074D01*
X0013649Y0003117D02*
Y0002867D01*
Y0002133D02*
Y0001883D01*
X0012976Y0001577D02*
Y0002439D01*
X0012102D01*
Y0001577D01*
X0012976D01*
X0016913Y0003423D02*
X0016039D01*
Y0002561D01*
X0016913D01*
Y0003423D01*
Y0001577D02*
Y0002439D01*
X0016039D01*
Y0001577D01*
X0016913D01*
X0015929Y0003423D02*
X0015055D01*
Y0002561D01*
X0015929D01*
Y0003423D01*
X0014945D02*
X0014071D01*
Y0002561D01*
X0014945D01*
Y0003423D01*
X0013961D02*
X0013087D01*
Y0002561D01*
X0013961D01*
Y0003423D01*
Y0001577D02*
Y0002439D01*
X0013087D01*
Y0001577D01*
X0013961D01*
X0012976Y0003423D02*
X0012102D01*
Y0002561D01*
X0012976D01*
Y0003423D01*
X0012473Y0001942D02*
Y0002074D01*
X0012664Y0002133D02*
Y0001883D01*
X0016075Y0010175D02*
Y0011325D01*
X0015430D01*
Y0010175D01*
X0016075D01*
X0022825Y0003925D02*
Y0005075D01*
X0022180D01*
Y0003925D01*
X0022825D01*
X0017950Y0006050D02*
X0019050D01*
Y0003950D01*
X0017950D01*
Y0006050D01*
X0023575Y0003925D02*
Y0005075D01*
X0022930D01*
Y0003925D01*
X0023575D01*
X0016419Y0012809D02*
X0016955D01*
Y0014187D02*
Y0014423D01*
X0016419D01*
X0014081D02*
X0013545D01*
Y0014187D01*
Y0012809D01*
X0014081Y0014187D02*
X0013545D01*
X0014384Y0011781D02*
X0016116D01*
Y0012250D01*
Y0012827D01*
X0016179D01*
Y0013689D01*
X0015305D01*
Y0012827D01*
X0015774D01*
Y0012716D01*
X0014726D01*
Y0012827D01*
X0015195D01*
Y0013689D01*
X0014837D01*
Y0013811D01*
X0015195D01*
Y0014673D01*
X0014321D01*
Y0012827D01*
X0014384D01*
Y0012250D01*
Y0011781D01*
X0014081Y0012809D02*
X0013545D01*
Y0012573D01*
X0014081D01*
Y0014927D01*
X0016419D01*
Y0012573D01*
X0016955D01*
Y0012809D01*
Y0014187D01*
X0016419D01*
X0015808Y0014176D02*
X0015867Y0014117D01*
Y0014367D01*
X0015617D01*
X0015676Y0014308D01*
Y0014176D01*
X0015808D01*
Y0014308D01*
X0015676D01*
X0015867Y0014117D02*
X0015617D01*
X0015676Y0014176D01*
X0015808Y0013192D02*
X0015867Y0013133D01*
X0015617D01*
X0015676Y0013192D01*
X0015808D01*
Y0013324D01*
X0015867Y0013383D01*
X0015617D01*
X0015676Y0013324D01*
X0015808D01*
X0015617Y0014367D02*
Y0014117D01*
Y0013383D02*
Y0013133D01*
X0015676Y0013192D02*
Y0013324D01*
X0015867Y0013383D02*
Y0013133D01*
X0014321Y0013689D02*
X0014600D01*
Y0013811D01*
X0014837D01*
Y0013689D02*
X0014600D01*
X0014633Y0014367D02*
Y0014117D01*
X0014883D01*
X0014824Y0014176D01*
Y0014308D01*
X0014883Y0014367D01*
X0014633D01*
X0014692Y0014308D01*
Y0014176D01*
X0014824D01*
X0014692Y0014308D02*
X0014824D01*
X0014633Y0014117D02*
X0014692Y0014176D01*
X0014824Y0013192D02*
X0014883Y0013133D01*
X0014633D01*
X0014692Y0013192D01*
X0014824D01*
Y0013324D01*
X0014883Y0013383D01*
X0014633D01*
X0014692Y0013324D01*
X0014824D01*
X0014633Y0013383D02*
Y0013133D01*
X0014692Y0013192D02*
Y0013324D01*
X0014883Y0014367D02*
Y0014117D01*
Y0013383D02*
Y0013133D01*
X0014321Y0013811D02*
X0014600D01*
X0014226Y0011526D02*
Y0011675D01*
X0016274D01*
Y0011526D01*
X0016195Y0011447D02*
X0014300Y0011450D01*
X0014081Y0012573D02*
X0014226D01*
Y0012250D01*
Y0011675D01*
X0016116Y0012250D02*
X0016274D01*
Y0011675D01*
X0015867Y0014367D02*
X0015808Y0014308D01*
X0014384Y0012827D02*
X0014726D01*
X0015774D02*
X0016116D01*
X0016179Y0014673D02*
X0015305D01*
Y0013811D01*
X0016179D01*
Y0014673D01*
X0016419Y0012573D02*
X0016274D01*
Y0012250D01*
X0014384D02*
X0014226D01*
X0029075Y0013925D02*
Y0015075D01*
X0028430D01*
Y0013925D01*
X0029075D01*
X0028325D02*
Y0015075D01*
X0027680D01*
Y0013925D01*
X0028325D01*
X0027575D02*
Y0015075D01*
X0026930D01*
Y0013925D01*
X0027575D01*
X0015075Y0010175D02*
Y0011325D01*
X0014430D01*
Y0010175D01*
X0015075D01*
X0029825Y0013925D02*
Y0015075D01*
X0029180D01*
Y0013925D01*
X0029825D01*
X0026825D02*
Y0015075D01*
X0026180D01*
Y0013925D01*
X0026825D01*
X0027675Y0012075D02*
Y0010925D01*
X0028320D01*
Y0012075D01*
X0027675D01*
X0026925D02*
Y0010925D01*
X0027570D01*
Y0012075D01*
X0026925D01*
X0021488Y0012681D02*
X0021370D01*
Y0010319D01*
X0021488D01*
X0021847Y0011950D02*
Y0011825D01*
X0021793Y0011950D02*
Y0011825D01*
X0021739Y0011950D02*
Y0011825D01*
X0021685Y0011950D02*
Y0011825D01*
X0021631Y0011950D02*
Y0011825D01*
X0021577Y0011950D02*
Y0011825D01*
X0021523Y0011950D02*
Y0011825D01*
X0021469Y0011950D02*
Y0011825D01*
X0021415Y0011950D02*
Y0011825D01*
X0022625Y0011919D02*
X0021375D01*
X0022441Y0011950D02*
Y0011825D01*
X0022387Y0011950D02*
Y0011825D01*
X0022333Y0011950D02*
Y0011825D01*
X0022279Y0011950D02*
Y0011825D01*
X0022225Y0011950D02*
Y0011825D01*
X0022171Y0011950D02*
Y0011825D01*
X0022117Y0011950D02*
Y0011825D01*
X0022063Y0011950D02*
Y0011825D01*
X0022009Y0011950D02*
Y0011825D01*
X0021955Y0011950D02*
Y0011825D01*
X0021901Y0011950D02*
Y0011825D01*
X0022625Y0011865D02*
X0021375D01*
Y0011950D02*
Y0011825D01*
X0022625D02*
X0021375D01*
X0022625Y0011950D02*
Y0011825D01*
Y0011950D02*
X0021375D01*
X0022603D02*
Y0011825D01*
X0022549Y0011950D02*
Y0011825D01*
X0022495Y0011950D02*
Y0011825D01*
X0022512Y0012681D02*
X0022630D01*
Y0010319D01*
X0022512D01*
X0021458Y0012868D02*
X0021361D01*
X0021454Y0012898D02*
Y0012857D01*
X0021400Y0012926D02*
Y0012829D01*
X0021430Y0012922D02*
X0021388D01*
X0029075Y0010925D02*
Y0012075D01*
X0028430D01*
Y0010925D01*
X0029075D01*
X0029825D02*
Y0012075D01*
X0029180D01*
Y0010925D01*
X0029825D01*
X0026825D02*
Y0012075D01*
X0026180D01*
Y0010925D01*
X0026825D01*
Y0006425D02*
Y0007575D01*
X0026180D01*
Y0006425D01*
X0026825D01*
X0022988Y0012681D02*
X0022870D01*
Y0010319D01*
X0022988D01*
X0023347Y0011950D02*
Y0011825D01*
X0023293Y0011950D02*
Y0011825D01*
X0023239Y0011950D02*
Y0011825D01*
X0023185Y0011950D02*
Y0011825D01*
X0023131Y0011950D02*
Y0011825D01*
X0023077Y0011950D02*
Y0011825D01*
X0023023Y0011950D02*
Y0011825D01*
X0022969Y0011950D02*
Y0011825D01*
X0022915Y0011950D02*
Y0011825D01*
X0024125Y0011919D02*
X0022875D01*
X0023941Y0011950D02*
Y0011825D01*
X0023887Y0011950D02*
Y0011825D01*
X0023833Y0011950D02*
Y0011825D01*
X0023779Y0011950D02*
Y0011825D01*
X0023725Y0011950D02*
Y0011825D01*
X0023671Y0011950D02*
Y0011825D01*
X0023617Y0011950D02*
Y0011825D01*
X0023563Y0011950D02*
Y0011825D01*
X0023509Y0011950D02*
Y0011825D01*
X0023455Y0011950D02*
Y0011825D01*
X0023401Y0011950D02*
Y0011825D01*
X0024125Y0011865D02*
X0022875D01*
Y0011950D02*
Y0011825D01*
X0024125D02*
X0022875D01*
X0024125Y0011950D02*
Y0011825D01*
Y0011950D02*
X0022875D01*
X0024103D02*
Y0011825D01*
X0024049Y0011950D02*
Y0011825D01*
X0023995Y0011950D02*
Y0011825D01*
X0024012Y0012681D02*
X0024130D01*
Y0010319D01*
X0024012D01*
X0022958Y0012868D02*
X0022861D01*
X0022954Y0012898D02*
Y0012857D01*
X0022900Y0012926D02*
Y0012829D01*
X0022930Y0012922D02*
X0022888D01*
X0026925Y0007575D02*
Y0006425D01*
X0027570D01*
Y0007575D01*
X0026925D01*
X0028175Y0008575D02*
Y0007425D01*
X0028820D01*
Y0008575D01*
X0028175D01*
X0034805Y0007398D02*
Y0006949D01*
X0034648D01*
Y0007398D01*
X0034805D01*
X0035254D01*
Y0006949D01*
X0034805D01*
X0036891Y0007398D02*
X0037049D01*
Y0006949D01*
X0036891D01*
Y0007398D01*
X0036443D01*
Y0006949D01*
X0036891D01*
X0036446Y0011224D02*
X0036246D01*
X0036211Y0010165D02*
X0036390D01*
X0036446Y0011224D02*
X0037054D01*
X0037109Y0010165D02*
X0037289D01*
X0037254Y0011224D02*
X0037054D01*
X0037659Y0007331D02*
Y0008669D01*
X0038210D01*
Y0007331D01*
X0037659D01*
Y0006110D01*
X0037197D01*
X0036303D01*
X0036446Y0004776D02*
X0037054D01*
X0037109Y0005835D02*
X0037289D01*
X0037254Y0004776D02*
X0037054D01*
X0036891Y0009051D02*
X0037049D01*
Y0008602D01*
X0036891D01*
Y0009051D01*
X0036443D01*
Y0008602D01*
X0036891D01*
X0034805Y0009051D02*
X0034648D01*
Y0008602D01*
X0034805D01*
Y0009051D01*
X0035254D01*
Y0008602D01*
X0034805D01*
X0036390Y0005835D02*
X0036211D01*
X0036246Y0004776D02*
X0036446D01*
X0036303Y0009890D02*
X0033880D01*
Y0006110D01*
X0034589D01*
X0036303Y0009890D02*
X0036396D01*
X0036553Y0010047D01*
X0036947D01*
X0037104Y0009890D01*
X0037197D01*
X0037659D01*
Y0008669D01*
X0034904Y0006110D02*
X0036303D01*
X0035888Y0006819D02*
X0036242Y0006465D01*
X0037305D01*
Y0007882D01*
X0036242D01*
X0035888Y0007528D01*
Y0006819D01*
X0034234Y0008472D02*
X0034589Y0008118D01*
X0035652D01*
Y0009535D01*
X0034589D01*
X0034234Y0009181D01*
Y0008472D01*
X0038185Y0007974D02*
X0037667D01*
X0038185Y0007920D02*
X0037667D01*
X0038185Y0007866D02*
X0037667D01*
X0038185Y0007812D02*
X0037667D01*
X0038185Y0007758D02*
X0037667D01*
X0038185Y0007704D02*
X0037667D01*
X0038185Y0007650D02*
X0037667D01*
X0038185Y0007596D02*
X0037667D01*
X0038185Y0007542D02*
X0037667D01*
X0038185Y0007488D02*
X0037667D01*
X0038185Y0007434D02*
X0037667D01*
X0038185Y0008568D02*
X0037667D01*
X0038185Y0008514D02*
X0037667D01*
X0038185Y0008460D02*
X0037667D01*
X0038185Y0008406D02*
X0037667D01*
X0038185Y0008352D02*
X0037667D01*
X0038185Y0008298D02*
X0037667D01*
X0038185Y0008244D02*
X0037667D01*
X0038185Y0008190D02*
X0037667D01*
X0038185Y0008136D02*
X0037667D01*
X0038185Y0008082D02*
X0037667D01*
X0038185Y0008028D02*
X0037667D01*
X0038139Y0008646D02*
Y0007340D01*
X0038085Y0008646D02*
Y0007340D01*
X0038031Y0008646D02*
Y0007340D01*
X0037977Y0008646D02*
Y0007340D01*
X0037923Y0008646D02*
Y0007340D01*
X0037869Y0008646D02*
Y0007340D01*
X0037815Y0008646D02*
Y0007340D01*
X0037761Y0008646D02*
Y0007340D01*
X0037707Y0008646D02*
Y0007340D01*
X0038185Y0008622D02*
X0037667D01*
X0038185Y0007380D02*
X0037667D01*
Y0008646D02*
Y0007340D01*
X0038185D02*
X0037667D01*
X0038185Y0008646D02*
Y0007340D01*
Y0008646D02*
X0037667D01*
X0035888Y0008118D02*
X0037305D01*
Y0009535D01*
X0035888D01*
Y0008118D01*
X0034234Y0006465D02*
X0035652D01*
Y0007882D01*
X0034234D01*
Y0006465D01*
X0031825Y0009675D02*
Y0010825D01*
X0031180D01*
Y0009675D01*
X0031825D01*
X0005317Y0008909D02*
X0005354D01*
X0005361D01*
X0005405D01*
X0005450D01*
X0005457D01*
X0005494D01*
Y0007671D01*
X0005317D02*
Y0007673D01*
Y0007671D01*
Y0008909D01*
X0005333D01*
X0005337D01*
X0005405D01*
X0005474D01*
X0005477D01*
X0005494D01*
X0005092D02*
X0005055D01*
X0005048D01*
X0005004D01*
Y0007569D01*
X0005092Y0007671D02*
Y0008909D01*
X0005076D01*
X0005072D01*
X0005004D01*
X0004935D01*
X0004932D01*
X0004915D01*
Y0007671D01*
X0004674Y0008909D02*
X0004691D01*
Y0007671D01*
X0004514D02*
Y0007673D01*
Y0007671D01*
Y0008909D01*
X0004530D01*
X0004533D01*
X0004602D01*
X0004671D01*
X0004112D02*
X0004149D01*
X0004157D01*
X0004201D01*
X0004245D01*
X0004252D01*
X0004289D01*
Y0007671D01*
X0004112D02*
Y0007673D01*
Y0007671D01*
Y0008909D01*
X0004129D01*
X0004132D01*
X0004201D01*
X0004269D01*
X0004273D01*
X0004289D01*
X0003711D02*
X0003748D01*
X0003755D01*
X0003799D01*
X0003843D01*
X0003851D01*
X0003888D01*
Y0007671D01*
X0003711D02*
Y0007673D01*
Y0007671D01*
Y0008909D01*
X0003727D01*
X0003730D01*
X0003799D01*
X0003868D01*
X0003871D01*
X0003888D01*
X0003309D02*
X0003346D01*
X0003353D01*
X0003398D01*
X0003442D01*
X0003449D01*
X0003486D01*
Y0007671D01*
X0003309D02*
Y0007673D01*
Y0007671D01*
Y0008909D01*
X0003325D01*
X0003329D01*
X0003398D01*
X0003466D01*
X0003469D01*
X0003486D01*
X0002907D02*
X0002945D01*
X0002952D01*
X0002996D01*
X0003040D01*
X0003047D01*
X0003085D01*
Y0007671D01*
X0002907D02*
Y0007673D01*
Y0007671D01*
Y0008909D01*
X0002924D01*
X0002927D01*
X0002996D01*
X0003064D01*
X0003068D01*
X0003085D01*
X0002506D02*
X0002543D01*
X0002550D01*
X0002594D01*
X0002638D01*
X0002646D01*
X0002683D01*
Y0007671D01*
X0002506D02*
Y0007673D01*
Y0007671D01*
Y0008909D01*
X0002522D01*
X0002526D01*
X0002594D01*
X0002663D01*
X0002666D01*
X0002683D01*
X0002074Y0010709D02*
X0002053Y0010945D01*
X0001638D01*
X0000949D01*
Y0010709D01*
X0007051D01*
Y0004449D01*
X0000949D01*
Y0010709D01*
X0002256Y0008909D02*
X0005744D01*
Y0009401D01*
X0002256D01*
Y0008909D01*
X0001655D01*
Y0006220D01*
X0002701D01*
X0005299D01*
Y0005555D01*
X0004807D01*
Y0005051D01*
X0004799D01*
Y0004697D01*
X0003201D01*
Y0005051D01*
X0003193D01*
Y0005555D01*
X0002701D01*
Y0006220D01*
X0005744Y0008909D02*
X0006344D01*
Y0006220D01*
X0005299D01*
X0004514Y0008909D02*
X0004551D01*
X0004558D01*
X0004602D01*
X0004646D01*
X0004654D01*
X0004691D01*
X0002594D02*
Y0007569D01*
X0002996Y0008909D02*
Y0007569D01*
X0003398Y0008909D02*
Y0007569D01*
X0003799Y0008909D02*
Y0007569D01*
X0004201Y0008909D02*
Y0007569D01*
X0004602Y0008909D02*
Y0007569D01*
X0005004Y0008909D02*
X0004960D01*
X0004952D01*
X0004915D01*
X0005405D02*
Y0007569D01*
X0006362Y0010709D02*
Y0010945D01*
X0005935D01*
X0005872Y0010709D01*
X0005628D02*
X0005565Y0010945D01*
X0005447D01*
X0005426Y0010709D01*
X0005074D02*
X0005053Y0010945D01*
X0004935D01*
X0004872Y0010709D01*
X0004628D02*
X0004565Y0010945D01*
X0004447D01*
X0004426Y0010709D01*
X0004074D02*
X0004053Y0010945D01*
X0003935D01*
X0003872Y0010709D01*
X0003628D02*
X0003565Y0010945D01*
X0003447D01*
X0003426Y0010709D01*
X0003074D02*
X0003053Y0010945D01*
X0002935D01*
X0002872Y0010709D01*
X0002628D02*
X0002565Y0010945D01*
X0002447D01*
X0002426Y0010709D01*
X0007051D02*
Y0010945D01*
X0006362D01*
X0007051Y0005433D02*
X0007524D01*
Y0009716D01*
X0007051D01*
X0000949D02*
X0000476D01*
Y0005433D01*
X0000949D01*
X0001638Y0010709D02*
Y0010945D01*
X0002248Y0006220D02*
Y0006614D01*
X0001655D01*
X0006344D02*
X0005752D01*
Y0006220D01*
X0004799Y0005051D02*
X0003201D01*
X0028925Y0008325D02*
Y0007175D01*
X0029570D01*
Y0008325D01*
X0028925D01*
X0030325Y0009675D02*
Y0010825D01*
X0029680D01*
Y0009675D01*
X0030325D01*
X0028825Y0006175D02*
Y0007325D01*
X0028180D01*
Y0006175D01*
X0028825D01*
X0028250Y0012300D02*
X0027750D01*
X0027650Y0012400D01*
Y0013700D01*
X0028350D01*
Y0012400D01*
X0028250Y0012300D01*
X0028350Y0012900D02*
X0027650D01*
X0011500Y0009200D02*
X0012000D01*
X0012100Y0009100D01*
Y0007800D01*
X0011400D01*
Y0009100D01*
X0011500Y0009200D01*
X0011400Y0008600D02*
X0012100D01*
X0027700Y0010800D02*
X0028800D01*
Y0008700D01*
X0027700D01*
Y0010800D01*
X0031075Y0006675D02*
Y0007825D01*
X0030430D01*
Y0006675D01*
X0031075D01*
X0025824Y0001934D02*
Y0002066D01*
X0027955Y0001474D02*
Y0002526D01*
X0025081Y0002685D02*
X0027419D01*
Y0002526D02*
X0027955D01*
Y0002685D01*
X0027419D01*
Y0001315D01*
X0027274D01*
Y0000992D01*
X0027116D01*
Y0000524D01*
X0025384D01*
Y0000992D01*
X0025226D01*
Y0000417D01*
X0027274D01*
Y0000992D01*
X0025081Y0002526D02*
X0024545D01*
Y0001474D01*
Y0001315D01*
X0025081D01*
Y0002685D01*
X0024545D01*
Y0002526D01*
X0025384Y0000992D02*
Y0001569D01*
X0025321D01*
Y0002431D01*
X0027179D01*
Y0001569D01*
X0027116D01*
X0026774D01*
X0026305D01*
Y0001915D01*
Y0002151D01*
X0026195D01*
Y0001915D01*
X0026305D01*
X0025384Y0001569D02*
X0025726D01*
X0026195D01*
Y0001915D01*
X0026774Y0001569D02*
Y0001459D01*
X0025726D01*
Y0001569D01*
X0027274Y0000417D02*
Y0000189D01*
X0025226D01*
Y0000417D01*
X0027116Y0000992D02*
Y0001569D01*
X0027419Y0001474D02*
X0027955D01*
Y0001315D01*
X0027419D01*
X0025633Y0001875D02*
X0025883D01*
Y0002125D01*
X0025824Y0002066D01*
X0025692D01*
X0025633Y0002125D01*
Y0001875D01*
X0025692Y0001934D01*
Y0002066D01*
X0025883Y0002125D02*
X0025633D01*
X0026808Y0001934D02*
X0026867Y0001875D01*
X0026617D01*
X0026676Y0001934D01*
X0026808D01*
Y0002066D01*
X0026867Y0002125D01*
X0026617D01*
X0026676Y0002066D01*
X0026808D01*
X0026617Y0002125D02*
Y0001875D01*
X0026676Y0001934D02*
Y0002066D01*
X0026867Y0002125D02*
Y0001875D01*
X0025081Y0001474D02*
X0024545D01*
X0025226Y0000992D02*
Y0001315D01*
X0025081D01*
X0026305Y0002151D02*
Y0002431D01*
X0026195Y0002151D02*
Y0002431D01*
X0025883Y0001875D02*
X0025824Y0001934D01*
X0025692D01*
X0031825Y0007175D02*
Y0008325D01*
X0031180D01*
Y0007175D01*
X0031825D01*
X0030425Y0010825D02*
Y0009675D01*
X0031070D01*
Y0010825D01*
X0030425D01*
X0030575Y0013925D02*
Y0015075D01*
X0029930D01*
Y0013925D01*
X0030575D01*
X0017898Y0003423D02*
X0017024D01*
Y0002561D01*
X0017382D01*
Y0002439D01*
X0017024D01*
Y0001577D01*
X0017898D01*
Y0003423D01*
X0014134Y0000996D02*
X0013976D01*
Y0001323D01*
X0011862D01*
Y0003677D01*
X0018138D01*
Y0001323D01*
X0016024D01*
Y0000996D01*
X0015866D01*
Y0000531D01*
X0014134D01*
Y0000996D01*
Y0001577D01*
X0014476D01*
X0014945D01*
Y0002439D01*
X0014071D01*
Y0001577D01*
X0014134D01*
X0015866Y0000996D02*
Y0001577D01*
X0015929D01*
Y0002439D01*
X0015055D01*
Y0001577D01*
X0015524D01*
Y0001468D01*
X0014476D01*
Y0001577D01*
X0012414Y0003117D02*
Y0002867D01*
X0012664D01*
Y0003117D01*
X0012414D01*
X0012473Y0003058D01*
Y0002926D01*
X0012605D01*
Y0003058D01*
X0012473D01*
X0012605Y0001942D02*
X0012664Y0001883D01*
X0012414D01*
X0012473Y0001942D01*
X0012605D01*
Y0002074D01*
X0012664Y0002133D01*
X0012414D01*
X0012473Y0002074D01*
X0012605D01*
X0012414Y0002133D02*
Y0001883D01*
Y0002867D02*
X0012473Y0002926D01*
X0012664Y0002867D02*
X0012605Y0002926D01*
X0012664Y0003117D02*
X0012605Y0003058D01*
X0017395D02*
X0017336Y0003117D01*
X0017586D01*
X0017526Y0003058D01*
X0017395D01*
Y0002926D01*
X0017336Y0002867D01*
X0017586D01*
X0017526Y0002926D01*
X0017395D01*
X0017526Y0003058D02*
Y0002926D01*
Y0001942D02*
X0017586Y0001883D01*
X0017336D01*
X0017395Y0001942D01*
X0017526D01*
Y0002074D01*
X0017586Y0002133D01*
X0017336D01*
X0017395Y0002074D01*
X0017526D01*
X0017336Y0003117D02*
Y0002867D01*
Y0002133D02*
Y0001883D01*
X0017395Y0001942D02*
Y0002074D01*
X0017586Y0003117D02*
Y0002867D01*
Y0002133D02*
Y0001883D01*
X0017382Y0002561D02*
X0017618D01*
Y0002439D01*
X0017382D01*
X0017898Y0002561D02*
X0017618D01*
Y0002439D02*
X0017898D01*
X0016351Y0003117D02*
Y0002867D01*
X0016601D01*
X0016542Y0002926D01*
Y0003058D01*
X0016601Y0003117D01*
X0016351D01*
X0016410Y0003058D01*
Y0002926D01*
X0016542D01*
X0016410Y0003058D02*
X0016542D01*
X0016351Y0002867D02*
X0016410Y0002926D01*
X0016542Y0001942D02*
X0016601Y0001883D01*
X0016351D01*
X0016410Y0001942D01*
X0016542D01*
Y0002074D01*
X0016601Y0002133D01*
X0016351D01*
X0016410Y0002074D01*
X0016542D01*
X0016351Y0002133D02*
Y0001883D01*
X0016410Y0001942D02*
Y0002074D01*
X0016601Y0003117D02*
Y0002867D01*
Y0002133D02*
Y0001883D01*
X0014383Y0003117D02*
Y0002867D01*
X0014633D01*
X0014574Y0002926D01*
Y0003058D01*
X0014633Y0003117D01*
X0014383D01*
X0014442Y0003058D01*
Y0002926D01*
X0014574D01*
X0014442Y0003058D02*
X0014574D01*
X0014383Y0002867D02*
X0014442Y0002926D01*
X0014574Y0001942D02*
X0014633Y0001883D01*
X0014383D01*
X0014442Y0001942D01*
X0014574D01*
Y0002074D01*
X0014633Y0002133D01*
X0014383D01*
X0014442Y0002074D01*
X0014574D01*
X0014383Y0002133D02*
Y0001883D01*
X0014442Y0001942D02*
Y0002074D01*
X0014633Y0003117D02*
Y0002867D01*
Y0002133D02*
Y0001883D01*
X0015367Y0003117D02*
Y0002867D01*
X0015617D01*
X0015558Y0002926D01*
Y0003058D01*
X0015617Y0003117D01*
X0015367D01*
X0015426Y0003058D01*
Y0002926D01*
X0015558D01*
X0015426Y0003058D02*
X0015558D01*
X0015367Y0002867D02*
X0015426Y0002926D01*
X0015558Y0001942D02*
X0015617Y0001883D01*
X0015367D01*
X0015426Y0001942D01*
X0015558D01*
Y0002074D01*
X0015617Y0002133D01*
X0015367D01*
X0015426Y0002074D01*
X0015558D01*
X0015367Y0002133D02*
Y0001883D01*
X0015426Y0001942D02*
Y0002074D01*
X0015617Y0003117D02*
Y0002867D01*
Y0002133D02*
Y0001883D01*
X0014050Y0000197D02*
X0015945D01*
X0016024Y0000276D02*
Y0000421D01*
X0013976D01*
Y0000276D01*
Y0000996D02*
Y0000421D01*
X0016024Y0000996D02*
Y0000421D01*
X0015524Y0001577D02*
X0015866D01*
X0013399Y0003117D02*
Y0002867D01*
X0013649D01*
X0013589Y0002926D01*
Y0003058D01*
X0013649Y0003117D01*
X0013399D01*
X0013458Y0003058D01*
Y0002926D01*
X0013589D01*
X0013458Y0003058D02*
X0013589D01*
X0013399Y0002867D02*
X0013458Y0002926D01*
X0013589Y0001942D02*
X0013649Y0001883D01*
X0013399D01*
X0013458Y0001942D01*
X0013589D01*
Y0002074D01*
X0013649Y0002133D01*
X0013399D01*
X0013458Y0002074D01*
X0013589D01*
X0013399Y0002133D02*
Y0001883D01*
X0025425Y0012075D02*
Y0010925D01*
X0026070D01*
Y0012075D01*
X0025425D01*
X0034425Y0011225D02*
Y0010075D01*
X0035070D01*
Y0011225D01*
X0034425D01*
X0009675Y0007575D02*
Y0006425D01*
X0010320D01*
Y0007575D01*
X0009675D01*
X0030750Y0012300D02*
X0030250D01*
X0030150Y0012400D01*
Y0013700D01*
X0030850D01*
Y0012400D01*
X0030750Y0012300D01*
X0030850Y0012900D02*
X0030150D01*
X0012925Y0006825D02*
Y0005675D01*
X0013570D01*
Y0006825D01*
X0012925D01*
X0027500Y0012300D02*
X0027000D01*
X0026900Y0012400D01*
Y0013700D01*
X0027600D01*
Y0012400D01*
X0027500Y0012300D01*
X0027600Y0012900D02*
X0026900D01*
X0018075Y0006175D02*
Y0007325D01*
X0017430D01*
Y0006175D01*
X0018075D01*
X0010450Y0003550D02*
X0011550D01*
Y0001450D01*
X0010450D01*
Y0003550D01*
X0008174Y0008668D02*
X0008046D01*
X0008133Y0008765D02*
Y0008632D01*
X0008079Y0008762D02*
Y0008635D01*
X0008177Y0008722D02*
X0008043D01*
X0008001Y0008329D02*
X0008041Y0008289D01*
X0009576D01*
Y0009708D01*
X0007924D01*
Y0008410D01*
X0008001Y0008329D01*
X0009537Y0008528D02*
X0007924D01*
X0029768Y0007912D02*
X0029631D01*
X0029769Y0007988D02*
Y0007914D01*
X0029715Y0008028D02*
Y0007874D01*
X0029661Y0008019D02*
Y0007882D01*
X0029737Y0008020D02*
X0029663D01*
X0029777Y0007966D02*
X0029623D01*
X0029900Y0007950D02*
X0029750Y0008100D01*
Y0009600D01*
X0031000D01*
Y0007950D01*
X0029900D01*
X0032907Y0013342D02*
Y0013657D01*
X0034407Y0013342D02*
Y0013657D01*
X0034289Y0013539D02*
X0034407Y0013657D01*
X0034092D01*
X0034211Y0013539D01*
X0034289D01*
Y0013461D01*
X0034211D01*
Y0013539D01*
X0034289Y0013461D02*
X0034407Y0013342D01*
X0034092D01*
X0034211Y0013461D01*
X0034092Y0013657D02*
Y0013342D01*
X0026750Y0012300D02*
X0026250D01*
X0026150Y0012400D01*
Y0013700D01*
X0026850D01*
Y0012400D01*
X0026750Y0012300D01*
X0026850Y0012900D02*
X0026150D01*
X0032140Y0012542D02*
Y0014340D01*
X0032592D01*
Y0014551D01*
X0032256D01*
X0032163Y0014819D01*
X0033337D01*
X0033244Y0014551D01*
X0032907D01*
Y0014340D01*
X0033360D01*
Y0012542D01*
X0032140D01*
X0033756Y0014551D02*
X0033663Y0014819D01*
X0034837D01*
X0034744Y0014551D01*
X0034407D01*
Y0014340D01*
X0034860D01*
Y0012542D01*
X0033640D01*
Y0014340D01*
X0034092D01*
Y0014551D01*
X0033756D01*
X0032789Y0013539D02*
X0032907Y0013657D01*
X0032592D01*
X0032711Y0013539D01*
X0032789D01*
Y0013461D01*
X0032907Y0013342D01*
X0032592D01*
X0032711Y0013461D01*
X0032789D01*
X0020300Y0003950D02*
X0019200D01*
Y0006050D01*
X0020300D01*
Y0003950D01*
X0010325Y0002425D02*
Y0003575D01*
X0009680D01*
Y0002425D01*
X0010325D01*
X0010575Y0004425D02*
Y0005575D01*
X0009930D01*
Y0004425D01*
X0010575D01*
X0019338Y0007809D02*
X0018803D01*
Y0007573D01*
X0019338D01*
Y0009927D01*
X0022661D01*
Y0007573D01*
X0022024D01*
Y0007250D01*
X0021866D01*
Y0006781D01*
X0020134D01*
Y0007250D01*
Y0007827D01*
X0019579D01*
Y0009673D01*
X0020453D01*
Y0008811D01*
X0020094D01*
Y0008689D01*
X0020453D01*
Y0007716D01*
X0021547D01*
Y0008689D01*
X0022421D01*
Y0007827D01*
X0021866D01*
Y0007250D01*
X0022661Y0009187D02*
X0023197D01*
Y0007809D01*
Y0007573D01*
X0022661D01*
X0022050Y0009176D02*
X0022109Y0009117D01*
Y0009367D01*
X0021859D01*
X0021918Y0009308D01*
Y0009176D01*
X0022050D01*
Y0009308D01*
X0021918D01*
X0022109Y0009117D02*
X0021859D01*
X0021918Y0009176D01*
X0022050Y0008192D02*
X0022109Y0008133D01*
X0021859D01*
X0021918Y0008192D01*
X0022050D01*
Y0008324D01*
X0022109Y0008383D01*
X0021859D01*
X0021918Y0008324D01*
X0022050D01*
X0021859Y0009367D02*
Y0009117D01*
Y0008383D02*
Y0008133D01*
X0021918Y0008192D02*
Y0008324D01*
X0022109Y0008383D02*
Y0008133D01*
X0019579Y0008689D02*
X0019858D01*
Y0008811D01*
X0020094D01*
Y0008689D02*
X0019858D01*
X0019891Y0009367D02*
Y0009117D01*
X0020141D01*
X0020082Y0009176D01*
Y0009308D01*
X0020141Y0009367D01*
X0019891D01*
X0019950Y0009308D01*
Y0009176D01*
X0020082D01*
X0019950Y0009308D02*
X0020082D01*
X0019891Y0009117D02*
X0019950Y0009176D01*
X0020082Y0008192D02*
X0020141Y0008133D01*
X0019891D01*
X0019950Y0008192D01*
X0020082D01*
Y0008324D01*
X0020141Y0008383D01*
X0019891D01*
X0019950Y0008324D01*
X0020082D01*
X0019891Y0008383D02*
Y0008133D01*
X0019950Y0008192D02*
Y0008324D01*
X0020141Y0009367D02*
Y0009117D01*
Y0008383D02*
Y0008133D01*
X0019579Y0008811D02*
X0019858D01*
X0020060Y0006447D02*
X0021945D01*
X0022024Y0006526D02*
Y0006675D01*
X0019976D01*
Y0006526D01*
X0019338Y0007573D02*
X0019976D01*
Y0007250D01*
Y0006675D01*
X0022024Y0007250D02*
Y0006675D01*
X0022109Y0009367D02*
X0022050Y0009308D01*
X0020134Y0007827D02*
X0020453D01*
X0021547D02*
X0021866D01*
X0020875Y0009367D02*
Y0009117D01*
X0021125D01*
X0021066Y0009176D01*
Y0009308D01*
X0021125Y0009367D01*
X0020875D01*
X0020934Y0009308D01*
Y0009176D01*
X0021066D01*
X0020934Y0009308D02*
X0021066D01*
X0020875Y0009117D02*
X0020934Y0009176D01*
X0021066Y0008192D02*
X0021125Y0008133D01*
X0020875D01*
X0020934Y0008192D01*
X0021066D01*
Y0008324D01*
X0021125Y0008383D01*
X0020875D01*
X0020934Y0008324D01*
X0021066D01*
X0020875Y0008383D02*
Y0008133D01*
X0020934Y0008192D02*
Y0008324D01*
X0021125Y0009367D02*
Y0009117D01*
Y0008383D02*
Y0008133D01*
X0021437Y0007827D02*
Y0008689D01*
X0020563D01*
Y0007827D01*
X0021437D01*
X0022421Y0009673D02*
X0021547D01*
Y0008811D01*
X0022421D01*
Y0009673D01*
X0021437D02*
X0020563D01*
Y0008811D01*
X0021437D01*
Y0009673D01*
X0020134Y0007250D02*
X0019976D01*
X0022661Y0007809D02*
X0023197D01*
Y0009187D02*
Y0009423D01*
X0022661D01*
X0019338D02*
X0018803D01*
Y0009187D01*
Y0007809D01*
X0019338Y0009187D02*
X0018803D01*
X0027693Y0008275D02*
X0027653D01*
Y0007725D01*
X0027693D01*
X0028007D02*
X0028047D01*
Y0008275D01*
X0028007D01*
X0027653Y0007843D02*
Y0007882D01*
X0028047D01*
Y0007843D01*
X0027653D01*
X0021882Y0013792D02*
X0021894Y0013798D01*
X0021783Y0014249D02*
X0021770Y0014248D01*
X0021854Y0015233D02*
X0023315D01*
Y0015212D01*
X0021850D01*
X0021787Y0015144D02*
Y0013684D01*
X0021766D01*
Y0015144D01*
X0021855Y0015233D02*
Y0015229D01*
X0021770Y0015145D02*
Y0014636D01*
X0021926D01*
Y0014649D01*
X0021783D01*
Y0015149D01*
X0021849Y0015216D02*
X0022336D01*
Y0015070D01*
X0021920Y0014645D02*
X0021932Y0014639D01*
X0022349Y0015062D02*
Y0015229D01*
X0021855D01*
X0023155Y0013425D02*
X0023135D01*
Y0013264D01*
X0023373D01*
X0023735Y0013620D01*
Y0013846D01*
X0023559D01*
X0023545Y0013819D01*
X0023533Y0013798D01*
X0023495Y0013738D01*
X0023482Y0013719D01*
X0023438Y0013663D01*
X0023422Y0013645D01*
X0023406Y0013628D01*
X0023390Y0013611D01*
X0023373Y0013594D01*
X0023356Y0013578D01*
X0023338Y0013563D01*
X0023302Y0013533D01*
X0023283Y0013519D01*
X0023203Y0013467D01*
X0023183Y0013455D01*
X0023162Y0013444D01*
X0023140Y0013434D01*
X0023149Y0013415D01*
X0023193Y0013438D01*
X0023214Y0013450D01*
X0023295Y0013503D01*
X0023314Y0013517D01*
X0023405Y0013597D01*
X0023421Y0013614D01*
X0023438Y0013632D01*
X0023454Y0013650D01*
X0023469Y0013669D01*
X0023484Y0013687D01*
X0023526Y0013747D01*
X0023539Y0013767D01*
X0023551Y0013788D01*
X0023563Y0013809D01*
X0023571Y0013825D01*
X0023715D01*
Y0013629D01*
X0023365Y0013285D01*
X0023155D01*
Y0013425D01*
X0023715Y0013629D02*
Y0014813D01*
X0023735D01*
Y0013620D01*
X0023365Y0013285D02*
X0022186D01*
Y0013264D01*
X0023373D01*
X0023276Y0014784D02*
X0023286Y0014774D01*
X0023506Y0014994D01*
X0023496Y0015004D01*
X0023276Y0014784D01*
X0021996Y0013493D02*
X0021767Y0013684D01*
X0021969Y0013886D01*
X0021977Y0013871D01*
X0022230Y0013554D02*
X0022220Y0013562D01*
X0021966Y0013864D02*
X0021787Y0013685D01*
X0022004Y0013503D01*
X0022187Y0013285D01*
X0022366Y0013464D01*
X0022221Y0013553D02*
X0022229Y0013563D01*
X0022388Y0013468D02*
X0022186Y0013265D01*
X0021996Y0013493D01*
X0022004Y0013503D01*
X0021781Y0013689D01*
X0021770Y0013693D01*
X0022195Y0013268D02*
X0022191Y0013279D01*
X0022005Y0013502D01*
X0021995Y0013494D01*
X0022179Y0013273D01*
X0022176Y0013281D01*
X0021783Y0013675D02*
X0021775Y0013677D01*
X0021996Y0013493D01*
X0022000Y0013498D01*
X0022185Y0013276D01*
X0022186Y0013275D01*
X0021777Y0013684D02*
X0021778Y0013683D01*
X0022000Y0013498D01*
X0021995Y0013503D01*
X0022005Y0013494D01*
X0022224Y0013713D01*
X0022215Y0013723D01*
X0021995Y0013503D01*
X0023724Y0014813D02*
X0023722Y0014814D01*
X0023501Y0014999D01*
X0023315Y0015221D01*
Y0015222D01*
X0023321Y0015224D01*
X0023324Y0015216D01*
X0023718Y0014823D02*
X0023505Y0015004D01*
X0023496Y0014994D01*
X0023719Y0014808D01*
X0023730Y0014803D01*
X0023306Y0015228D02*
X0023309Y0015217D01*
X0023495Y0014994D01*
X0023506Y0015003D01*
X0023321Y0015224D01*
X0023440Y0014764D02*
X0023445Y0014769D01*
X0023113Y0015029D02*
X0023315Y0015232D01*
X0023506Y0015003D01*
X0023734Y0014813D01*
X0023531Y0014611D01*
X0023436Y0014770D02*
X0023446Y0014778D01*
X0023535Y0014633D02*
X0023714Y0014812D01*
X0023496Y0014995D01*
X0023314Y0015212D01*
X0023135Y0015033D01*
X0023437Y0014779D02*
X0023445Y0014769D01*
X0023440Y0014764D01*
X0022056Y0013728D02*
X0022064Y0013718D01*
X0022055Y0013720D02*
X0022065Y0013727D01*
X0022751Y0015229D02*
X0022750Y0015216D01*
X0022752D01*
X0023203Y0015104D02*
X0023209Y0015116D01*
X0023619Y0014705D02*
X0023607Y0014699D01*
X0023631Y0014650D01*
X0023639Y0014633D01*
X0023646Y0014616D01*
X0023653Y0014599D01*
X0023659Y0014582D01*
X0023666Y0014564D01*
X0023671Y0014547D01*
X0023677Y0014529D01*
X0023682Y0014511D01*
X0023687Y0014493D01*
X0023692Y0014475D01*
X0023696Y0014457D01*
X0023706Y0014401D01*
X0023709Y0014383D01*
X0023711Y0014364D01*
X0023714Y0014345D01*
X0023718Y0014248D01*
X0023717Y0014196D01*
X0023714Y0014161D01*
X0023713Y0014144D01*
X0023711Y0014127D01*
X0023693Y0014027D01*
X0023689Y0014010D01*
X0023684Y0013994D01*
X0023665Y0013930D01*
X0023659Y0013914D01*
X0023653Y0013899D01*
X0023647Y0013884D01*
X0023627Y0013838D01*
X0023639Y0013833D01*
X0023646Y0013848D01*
X0023659Y0013879D01*
X0023665Y0013894D01*
X0023671Y0013910D01*
X0023677Y0013926D01*
X0023697Y0013991D01*
X0023701Y0014007D01*
X0023705Y0014024D01*
X0023709Y0014041D01*
X0023713Y0014057D01*
X0023719Y0014091D01*
X0023721Y0014108D01*
X0023724Y0014126D01*
X0023726Y0014143D01*
X0023727Y0014160D01*
X0023730Y0014195D01*
X0023731Y0014249D01*
X0023726Y0014346D01*
X0023724Y0014365D01*
X0023722Y0014385D01*
X0023719Y0014404D01*
X0023700Y0014497D01*
X0023695Y0014515D01*
X0023689Y0014533D01*
X0023684Y0014551D01*
X0023678Y0014569D01*
X0023658Y0014621D01*
X0023651Y0014638D01*
X0023643Y0014655D01*
X0023619Y0014705D01*
X0022750Y0013268D02*
X0022751Y0013281D01*
X0022654Y0013285D01*
X0022616Y0013290D01*
X0022597Y0013293D01*
X0022542Y0013303D01*
X0022524Y0013307D01*
X0022506Y0013312D01*
X0022470Y0013322D01*
X0022452Y0013328D01*
X0022435Y0013333D01*
X0022400Y0013346D01*
X0022383Y0013353D01*
X0022349Y0013368D01*
X0022300Y0013392D01*
X0022294Y0013380D01*
X0022344Y0013356D01*
X0022361Y0013348D01*
X0022378Y0013341D01*
X0022430Y0013321D01*
X0022448Y0013315D01*
X0022466Y0013310D01*
X0022484Y0013304D01*
X0022502Y0013299D01*
X0022596Y0013280D01*
X0022615Y0013277D01*
X0022653Y0013273D01*
X0022750Y0013268D01*
X0014134Y0007246D02*
X0013976D01*
Y0007573D01*
X0012354D01*
Y0009927D01*
X0017646D01*
Y0007573D01*
X0016024D01*
Y0007246D01*
X0015866D01*
Y0006781D01*
X0014134D01*
Y0007246D01*
Y0007827D01*
X0014453D01*
X0017405Y0009673D02*
X0016531D01*
Y0008811D01*
X0016890D01*
Y0008689D01*
X0016531D01*
Y0007827D01*
X0017405D01*
Y0009673D01*
X0015437Y0007827D02*
Y0008689D01*
X0014563D01*
Y0007827D01*
X0015437D01*
X0014134D02*
X0013579D01*
Y0008689D01*
X0014453D01*
Y0007718D01*
X0015547D01*
Y0008689D01*
X0016421D01*
Y0007827D01*
X0015866D01*
Y0007246D01*
X0012906Y0009367D02*
Y0009117D01*
X0013156D01*
Y0009367D01*
X0012906D01*
X0012965Y0009308D01*
Y0009176D01*
X0013097D01*
Y0009308D01*
X0012965D01*
X0013097Y0008192D02*
X0013156Y0008133D01*
X0012906D01*
X0012965Y0008192D01*
X0013097D01*
Y0008324D01*
X0013156Y0008383D01*
X0012906D01*
X0012965Y0008324D01*
X0013097D01*
X0012906Y0008383D02*
Y0008133D01*
Y0009117D02*
X0012965Y0009176D01*
X0013156Y0009117D02*
X0013097Y0009176D01*
X0013156Y0009367D02*
X0013097Y0009308D01*
X0016902D02*
X0016843Y0009367D01*
X0017093D01*
X0017034Y0009308D01*
X0016902D01*
Y0009176D01*
X0016843Y0009117D01*
X0017093D01*
X0017034Y0009176D01*
X0016902D01*
X0017034Y0009308D02*
Y0009176D01*
Y0008192D02*
X0017093Y0008133D01*
X0016843D01*
X0016902Y0008192D01*
X0017034D01*
Y0008324D01*
X0017093Y0008383D01*
X0016843D01*
X0016902Y0008324D01*
X0017034D01*
X0016843Y0009367D02*
Y0009117D01*
Y0008383D02*
Y0008133D01*
X0016902Y0008192D02*
Y0008324D01*
X0017093Y0009367D02*
Y0009117D01*
Y0008383D02*
Y0008133D01*
X0016890Y0008811D02*
X0017126D01*
Y0008689D01*
X0016890D01*
X0017405Y0008811D02*
X0017126D01*
Y0008689D02*
X0017405D01*
X0014875Y0009367D02*
Y0009117D01*
X0015125D01*
X0015066Y0009176D01*
Y0009308D01*
X0015125Y0009367D01*
X0014875D01*
X0014934Y0009308D01*
Y0009176D01*
X0015066D01*
X0014934Y0009308D02*
X0015066D01*
X0014875Y0009117D02*
X0014934Y0009176D01*
X0015066Y0008192D02*
X0015125Y0008133D01*
X0014875D01*
X0014934Y0008192D01*
X0015066D01*
Y0008324D01*
X0015125Y0008383D01*
X0014875D01*
X0014934Y0008324D01*
X0015066D01*
X0014875Y0008383D02*
Y0008133D01*
X0014934Y0008192D02*
Y0008324D01*
X0015125Y0009367D02*
Y0009117D01*
Y0008383D02*
Y0008133D01*
X0013891Y0009367D02*
Y0009117D01*
X0014141D01*
X0014082Y0009176D01*
Y0009308D01*
X0014141Y0009367D01*
X0013891D01*
X0013950Y0009308D01*
Y0009176D01*
X0014082D01*
X0013950Y0009308D02*
X0014082D01*
X0013891Y0009117D02*
X0013950Y0009176D01*
X0014082Y0008192D02*
X0014141Y0008133D01*
X0013891D01*
X0013950Y0008192D01*
X0014082D01*
Y0008324D01*
X0014141Y0008383D01*
X0013891D01*
X0013950Y0008324D01*
X0014082D01*
X0013891Y0008383D02*
Y0008133D01*
X0013950Y0008192D02*
Y0008324D01*
X0014141Y0009367D02*
Y0009117D01*
Y0008383D02*
Y0008133D01*
X0015859Y0009367D02*
Y0009117D01*
X0016109D01*
X0016050Y0009176D01*
Y0009308D01*
X0016109Y0009367D01*
X0015859D01*
X0015918Y0009308D01*
Y0009176D01*
X0016050D01*
X0015918Y0009308D02*
X0016050D01*
X0015859Y0009117D02*
X0015918Y0009176D01*
X0016050Y0008192D02*
X0016109Y0008133D01*
X0015859D01*
X0015918Y0008192D01*
X0016050D01*
Y0008324D01*
X0016109Y0008383D01*
X0015859D01*
X0015918Y0008324D01*
X0016050D01*
X0015859Y0008383D02*
Y0008133D01*
X0015918Y0008192D02*
Y0008324D01*
X0016109Y0009367D02*
Y0009117D01*
Y0008383D02*
Y0008133D01*
X0013976Y0006526D02*
Y0006671D01*
X0016024D01*
Y0006526D01*
X0015945Y0006447D02*
X0014040D01*
X0013976Y0007246D02*
Y0006671D01*
X0016024Y0007246D02*
Y0006671D01*
X0015547Y0007827D02*
X0015866D01*
X0013468D02*
Y0008689D01*
X0012594D01*
Y0007827D01*
X0013468D01*
X0016421Y0009673D02*
X0015547D01*
Y0008811D01*
X0016421D01*
Y0009673D01*
X0015437D02*
X0014563D01*
Y0008811D01*
X0015437D01*
Y0009673D01*
X0014453D02*
X0013579D01*
Y0008811D01*
X0014453D01*
Y0009673D01*
X0013468D02*
X0012594D01*
Y0008811D01*
X0013468D01*
Y0009673D01*
X0012965Y0008192D02*
Y0008324D01*
X0013156Y0008383D02*
Y0008133D01*
X0032711Y0013461D02*
Y0013539D01*
G01X0005160Y0011990D02*
G03X0005220Y0012050I0000000J0000060D01*
G01X0005100D02*
G03X0005160Y0011990I0000060J0000000D01*
Y0012110D02*
G03X0005100Y0012050I0000000J0000060D01*
G01X0005220D02*
G03X0005160Y0012110I0000060J0000000D01*
G01X0006910Y0011990D02*
G03X0006970Y0012050I0000000J0000060D01*
G01X0006850D02*
G03X0006910Y0011990I0000060J0000000D01*
Y0012110D02*
G03X0006850Y0012050I0000000J0000060D01*
G01X0006970D02*
G03X0006910Y0012110I0000060J0000000D01*
G01X0021945Y0000197D02*
G03X0022024Y0000276I0000000J0000079D01*
G01X0020042Y0000196D02*
G03X0020055Y0000197I0000000J0000068D01*
G01X0019974Y0000264D02*
G03X0020042Y0000196I0000068J0000000D01*
G01X0019975Y0000277D02*
G03X0019974Y0000264I0000067J0000013D01*
G01X0016195Y0011447D02*
G03X0016274Y0011526I0000000J0000079D01*
G01X0014230Y0011520D02*
G03X0014300Y0011450I0000080J0000010D01*
G01X0021409Y0012828D02*
G03X0021459Y0012878I0000000J0000050D01*
G01X0021360D02*
G03X0021409Y0012829I0000049J0000000D01*
Y0012927D02*
G03X0021360Y0012878I0000000J0000049D01*
G01X0021459D02*
G03X0021409Y0012928I0000050J0000000D01*
G01X0022909Y0012828D02*
G03X0022959Y0012878I0000000J0000050D01*
G01X0022860D02*
G03X0022909Y0012829I0000049J0000000D01*
Y0012927D02*
G03X0022860Y0012878I0000000J0000049D01*
G01X0022959D02*
G03X0022909Y0012928I0000050J0000000D01*
G01X0036246Y0011224D02*
G03X0036006Y0010677I0000504J0000547D01*
G03X0036211Y0010165I0000744J0000000D01*
G01X0036125Y0010677D02*
G03X0036390Y0010165I0000625J0000000D01*
G01X0036446Y0011224D02*
G03X0036124Y0010677I0000304J0000547D01*
G01X0037375D02*
G03X0037054Y0011224I0000625J0000000D01*
G01X0037109Y0010165D02*
G03X0037375Y0010677I0000359J0000512D01*
G01X0037289Y0010165D02*
G03X0037493Y0010677I0000539J0000512D01*
G03X0037254Y0011224I0000743J0000000D01*
G01X0036455Y0005959D02*
G03X0036303Y0006111I0000152J0000000D01*
G01X0036390Y0005835D02*
G03X0036454Y0005959I0000087J0000124D01*
G01X0036390Y0005835D02*
G03X0036124Y0005323I0000360J0000512D01*
G01X0036125D02*
G03X0036446Y0004776I0000625J0000000D01*
G01X0037054D02*
G03X0037376Y0005323I0000304J0000547D01*
G01X0037375D02*
G03X0037109Y0005835I0000625J0000000D01*
G01X0037493Y0005323D02*
G03X0037289Y0005835I0000743J0000000D01*
G01X0037254Y0004776D02*
G03X0037494Y0005323I0000504J0000547D01*
G01X0036750Y0004732D02*
G03X0036973Y0004776I0000000J0000591D01*
G01X0036527D02*
G03X0036750Y0004732I0000223J0000547D01*
G01X0037045Y0005959D02*
G03X0037109Y0005835I0000152J0000000D01*
G01X0037197Y0006110D02*
G03X0037046Y0005959I0000000J0000151D01*
G01X0036750Y0011267D02*
G03X0036527Y0011224I0000000J0000590D01*
G01X0036973D02*
G03X0036750Y0011268I0000223J0000547D01*
G01X0036211Y0005835D02*
G03X0036007Y0005323I0000539J0000512D01*
G01X0036006D02*
G03X0036246Y0004776I0000744J0000000D01*
G01X0036455Y0010041D02*
G03X0036390Y0010165I0000152J0000000D01*
G01X0036303Y0009890D02*
G03X0036454Y0010041I0000000J0000151D01*
G01X0037045D02*
G03X0037197Y0009889I0000152J0000000D01*
G01X0037109Y0010165D02*
G03X0037045Y0010041I0000088J0000124D01*
G01X0034746Y0005945D02*
G03X0034904Y0006103I0000000J0000158D01*
G01X0034589D02*
G03X0034746Y0005946I0000157J0000000D01*
G01X0005494Y0007665D02*
G03X0005494Y0007671I0000096J0000000D01*
G01X0005405Y0007569D02*
G03X0005494Y0007665I0000007J0000096D01*
G01X0005317D02*
G03X0005405Y0007569I0000096J0000000D01*
G01X0005317Y0007671D02*
G03X0005317Y0007665I0000096J0000006D01*
G01X0005004Y0007569D02*
G03X0005092Y0007665I0000008J0000096D01*
G01X0005093D02*
G03X0005092Y0007671I0000097J0000000D01*
G01X0004915Y0007677D02*
G03X0004915Y0007671I0000097J0000000D01*
G01X0005004Y0007773D02*
G03X0004916Y0007677I0000008J0000096D01*
G01X0004691Y0007665D02*
G03X0004691Y0007671I0000096J0000000D01*
G01X0004602Y0007569D02*
G03X0004691Y0007665I0000007J0000096D01*
G01X0004514D02*
G03X0004602Y0007569I0000096J0000000D01*
G01X0004514Y0007671D02*
G03X0004514Y0007665I0000096J0000006D01*
G01X0004289D02*
G03X0004289Y0007671I0000096J0000000D01*
G01X0004201Y0007569D02*
G03X0004289Y0007665I0000008J0000096D01*
G01X0004112D02*
G03X0004201Y0007569I0000096J0000000D01*
G01X0004112Y0007671D02*
G03X0004112Y0007665I0000096J0000006D01*
G01X0003888D02*
G03X0003888Y0007671I0000097J0000000D01*
G01X0003799Y0007569D02*
G03X0003887Y0007665I0000008J0000096D01*
G01X0003710D02*
G03X0003799Y0007569I0000097J0000000D01*
G01X0003711Y0007671D02*
G03X0003711Y0007665I0000096J0000006D01*
G01X0003486D02*
G03X0003486Y0007671I0000096J0000000D01*
G01X0003398Y0007569D02*
G03X0003486Y0007665I0000008J0000096D01*
G01X0003309D02*
G03X0003398Y0007569I0000096J0000000D01*
G01X0003309Y0007671D02*
G03X0003309Y0007665I0000096J0000006D01*
G01X0003085D02*
G03X0003085Y0007671I0000097J0000000D01*
G01X0002996Y0007569D02*
G03X0003084Y0007665I0000008J0000096D01*
G01X0002907D02*
G03X0002996Y0007569I0000097J0000000D01*
G01X0002907Y0007671D02*
G03X0002907Y0007665I0000097J0000006D01*
G01X0002683D02*
G03X0002683Y0007671I0000096J0000000D01*
G01X0002594Y0007569D02*
G03X0002683Y0007665I0000007J0000096D01*
G01X0002506D02*
G03X0002594Y0007569I0000096J0000000D01*
G01X0002506Y0007671D02*
G03X0002506Y0007665I0000096J0000006D01*
G01X0004915D02*
G03X0005004Y0007569I0000097J0000000D01*
G01X0004915Y0007671D02*
G03X0004915Y0007665I0000097J0000006D01*
G01X0013980Y0000267D02*
G03X0014050Y0000197I0000074J0000004D01*
G01X0015945D02*
G03X0016024Y0000276I0000000J0000079D01*
G01X0008110Y0008628D02*
G03X0008181Y0008699I0000000J0000071D01*
G01X0008039D02*
G03X0008110Y0008628I0000071J0000000D01*
Y0008769D02*
G03X0008040Y0008699I0000000J0000070D01*
G01X0008181D02*
G03X0008110Y0008770I0000071J0000000D01*
G01X0029700Y0007872D02*
G03X0029779Y0007951I0000000J0000079D01*
G01X0029621D02*
G03X0029700Y0007872I0000079J0000000D01*
Y0008030D02*
G03X0029621Y0007951I0000000J0000079D01*
G01X0029779D02*
G03X0029700Y0008030I0000079J0000000D01*
G01X0019980Y0006527D02*
G03X0020060Y0006447I0000083J0000003D01*
G01X0021945D02*
G03X0022024Y0006526I0000000J0000079D01*
G01X0021783Y0014247D02*
G03X0021894Y0013798I0000963J0000000D01*
G01X0021783Y0014249D02*
G03X0021783Y0014247I0000963J0000002D01*
G01X0021770Y0014248D02*
G03X0021770Y0014247I0000977J0000001D01*
G03X0021882Y0013792I0000977J0000000D01*
G01X0021850Y0015212D02*
G03X0021787Y0015144I0000005J0000068D01*
G01X0021855Y0015233D02*
G03X0021766Y0015144I0000000J0000089D01*
G01X0021855Y0015229D02*
G03X0021770Y0015145I0000000J0000085D01*
G01X0021849Y0015216D02*
G03X0021783Y0015149I0000006J0000072D01*
G01X0022336Y0015070D02*
G03X0021920Y0014645I0000416J0000824D01*
G01X0022349Y0015062D02*
G03X0021932Y0014639I0000404J0000816D01*
G01X0021977Y0013871D02*
G03X0022061Y0013733I0000772J0000376D01*
G01X0022137Y0013759D02*
G03X0022061Y0013733I0000000J0000124D01*
G01X0022261Y0013635D02*
G03X0022137Y0013759I0000124J0000000D01*
G01X0022230Y0013554D02*
G03X0022260Y0013635I0000093J0000081D01*
G01X0022220Y0013562D02*
G03X0022248Y0013635I0000083J0000073D01*
G03X0022137Y0013746I0000111J0000000D01*
G03X0022059Y0013714I0000000J0000111D01*
G01X0021966Y0013864D02*
G03X0022059Y0013714I0000786J0000385D01*
G01X0022221Y0013553D02*
G03X0022366Y0013464I0000527J0000692D01*
G01X0022229Y0013563D02*
G03X0022388Y0013468I0000523J0000689D01*
G01X0021770Y0013693D02*
G03X0021769Y0013666I0000398J0000027D01*
G03X0022168Y0013267I0000399J0000000D01*
G03X0022195Y0013268I0000000J0000399D01*
G01X0022168Y0013281D02*
G03X0022176Y0013281I0000000J0000385D01*
G01X0021783Y0013666D02*
G03X0022168Y0013281I0000385J0000000D01*
G01X0021783Y0013675D02*
G03X0021783Y0013666I0000385J0000009D01*
G01X0022168Y0013274D02*
G03X0022186Y0013275I0000000J0000392D01*
G01X0021776Y0013666D02*
G03X0022168Y0013274I0000392J0000000D01*
G01X0021777Y0013684D02*
G03X0021777Y0013666I0000391J0000018D01*
G01X0023333Y0015222D02*
G03X0023315Y0015222I0000000J0000391D01*
G01X0023724Y0014831D02*
G03X0023333Y0015222I0000391J0000000D01*
G01X0023724Y0014813D02*
G03X0023724Y0014831I0000391J0000018D01*
G01X0023333Y0015216D02*
G03X0023324Y0015216I0000000J0000385D01*
G01X0023718Y0014831D02*
G03X0023333Y0015216I0000385J0000000D01*
G01X0023718Y0014823D02*
G03X0023718Y0014831I0000385J0000008D01*
G01X0023730Y0014803D02*
G03X0023731Y0014830I0000398J0000027D01*
G03X0023332Y0015229I0000399J0000000D01*
G03X0023306Y0015228I0000000J0000399D01*
G01X0023364Y0014738D02*
G03X0023440Y0014764I0000000J0000124D01*
G01X0023364Y0014738D02*
G03X0023445Y0014769I0000000J0000124D01*
G01X0023240Y0014862D02*
G03X0023364Y0014738I0000124J0000000D01*
G01X0023266Y0014938D02*
G03X0023240Y0014862I0000098J0000076D01*
G01X0023266Y0014938D02*
G03X0023113Y0015029I0000516J0000692D01*
G01X0023531Y0014611D02*
G03X0023436Y0014770I0000771J0000357D01*
G01X0023535Y0014633D02*
G03X0023446Y0014778I0000776J0000379D01*
G01X0023285Y0014940D02*
G03X0023135Y0015033I0000535J0000694D01*
G01X0023285Y0014940D02*
G03X0023253Y0014862I0000079J0000078D01*
G03X0023364Y0014751I0000111J0000000D01*
G03X0023437Y0014779I0000000J0000111D01*
G01X0023612Y0014248D02*
G03X0023440Y0014764I0000861J0000000D01*
G01X0022751Y0013387D02*
G03X0023612Y0014248I0000000J0000861D01*
G01X0022235Y0013559D02*
G03X0022751Y0013387I0000516J0000689D01*
G01X0022235Y0013559D02*
G03X0022261Y0013635I0000098J0000076D01*
G03X0022137Y0013759I0000124J0000000D01*
G03X0022056Y0013728I0000000J0000124D01*
G01X0022137Y0013746D02*
G03X0022064Y0013718I0000000J0000111D01*
G01X0022248Y0013635D02*
G03X0022137Y0013746I0000111J0000000D01*
G01X0022216Y0013557D02*
G03X0022248Y0013635I0000079J0000078D01*
G01X0022216Y0013557D02*
G03X0022750Y0013375I0000534J0000692D01*
Y0013374D02*
G03X0023625Y0014249I0000000J0000875D01*
G03X0023442Y0014783I0000875J0000000D01*
G01X0023364Y0014751D02*
G03X0023442Y0014783I0000000J0000111D01*
G01X0023253Y0014862D02*
G03X0023364Y0014751I0000111J0000000D01*
G01X0023285Y0014940D02*
G03X0023253Y0014862I0000079J0000078D01*
G01X0023285Y0014940D02*
G03X0022751Y0015122I0000534J0000691D01*
Y0015123D02*
G03X0021877Y0014249I0000000J0000874D01*
G01X0021876D02*
G03X0022055Y0013720I0000875J0000000D01*
G01X0021889Y0014249D02*
G03X0022065Y0013727I0000861J0000000D01*
G01X0022750Y0015110D02*
G03X0021889Y0014249I0000000J0000861D01*
G01X0023266Y0014938D02*
G03X0022750Y0015110I0000516J0000689D01*
G01X0023266Y0014938D02*
G03X0023240Y0014862I0000098J0000076D01*
G01X0023203Y0015104D02*
G03X0022752Y0015216I0000451J0000853D01*
G01X0023209Y0015116D02*
G03X0022752Y0015229I0000457J0000864D01*
G01X0015945Y0006447D02*
G03X0016024Y0006526I0000000J0000079D01*
G01X0013970Y0006517D02*
G03X0014040Y0006447I0000071J0000001D01*
G54D64*
G01X0010417Y0014899D02*
X0010318D01*
Y0015068D02*
Y0014871D01*
X0010417Y0015068D02*
X0010318D01*
X0010417D02*
Y0014871D01*
X0010318D01*
X0010399Y0015068D02*
Y0014871D01*
X0010346Y0015068D02*
Y0014871D01*
X0010417Y0015057D02*
X0010318D01*
X0010417Y0015004D02*
X0010318D01*
X0010417Y0014952D02*
X0010318D01*
X0012091Y0014773D02*
X0011697Y0014379D01*
Y0012015D02*
X0012091D01*
Y0012409D01*
X0011697D01*
Y0012015D01*
X0011063Y0015368D02*
Y0015270D01*
X0011011Y0015368D02*
Y0015270D01*
X0010958Y0015368D02*
Y0015270D01*
X0010905Y0015368D02*
Y0015270D01*
X0010852Y0015368D02*
Y0015270D01*
X0010799Y0015368D02*
Y0015270D01*
X0010747Y0015368D02*
Y0015270D01*
X0010694Y0015368D02*
Y0015270D01*
X0010641Y0015368D02*
Y0015270D01*
X0011106Y0015351D02*
X0010613D01*
X0011106Y0015298D02*
X0010613D01*
Y0015368D02*
Y0015270D01*
X0011106Y0015368D02*
X0010613D01*
X0011106D02*
Y0015270D01*
X0010613D01*
X0011303Y0014773D02*
X0010909Y0014379D01*
X0011303D02*
X0010909Y0014773D01*
X0012386Y0013591D02*
Y0015362D01*
Y0012409D02*
Y0010638D01*
X0011063Y0010730D02*
Y0010631D01*
X0011011Y0010730D02*
Y0010631D01*
X0010958Y0010730D02*
Y0010631D01*
X0010905Y0010730D02*
Y0010631D01*
X0010852Y0010730D02*
Y0010631D01*
X0010799Y0010730D02*
Y0010631D01*
X0010747Y0010730D02*
Y0010631D01*
X0010694Y0010730D02*
Y0010631D01*
X0010641Y0010730D02*
Y0010631D01*
X0011106Y0010712D02*
X0010613D01*
X0011106Y0010659D02*
X0010613D01*
Y0010730D02*
Y0010631D01*
X0011106Y0010730D02*
X0010613D01*
X0011106D02*
Y0010631D01*
X0010613D01*
X0012245Y0010730D02*
Y0010631D01*
X0012193Y0010730D02*
Y0010631D01*
X0012140Y0010730D02*
Y0010631D01*
X0012087Y0010730D02*
Y0010631D01*
X0012034Y0010730D02*
Y0010631D01*
X0011981Y0010730D02*
Y0010631D01*
X0011929Y0010730D02*
Y0010631D01*
X0011876Y0010730D02*
Y0010631D01*
X0011823Y0010730D02*
Y0010631D01*
X0012288Y0010712D02*
X0011795D01*
X0012288Y0010659D02*
X0011795D01*
X0012288Y0010631D02*
X0011795D01*
X0012288Y0010730D02*
Y0010631D01*
Y0010730D02*
X0011795D01*
Y0010631D01*
X0011697Y0013591D02*
X0012091D01*
Y0013985D01*
X0011697D01*
Y0013591D01*
Y0014379D02*
X0012091D01*
Y0014773D01*
X0011697D01*
Y0014379D01*
X0012091Y0012015D02*
X0011697Y0012409D01*
X0011303Y0012803D02*
X0010909Y0013197D01*
X0011303Y0013985D02*
X0010909Y0013591D01*
X0011303D02*
X0010909Y0013985D01*
X0012091Y0014379D02*
X0011697Y0014773D01*
Y0011227D02*
X0012091D01*
Y0011621D01*
X0011697D01*
Y0011227D01*
X0012091Y0011621D02*
X0011697Y0011227D01*
X0012091D02*
X0011697Y0011621D01*
X0011303D02*
X0010909Y0011227D01*
X0012091Y0012409D02*
X0011697Y0012015D01*
X0010417Y0010959D02*
X0010318D01*
X0010417Y0010931D02*
X0010318D01*
X0010417Y0011128D02*
Y0010931D01*
Y0011128D02*
X0010318D01*
Y0010931D01*
X0010399Y0011128D02*
Y0010931D01*
X0010346Y0011128D02*
Y0010931D01*
X0010417Y0011117D02*
X0010318D01*
X0010417Y0011065D02*
X0010318D01*
X0010417Y0011012D02*
X0010318D01*
X0010614Y0015362D02*
Y0010638D01*
X0011697Y0012803D02*
X0012091D01*
Y0013197D01*
X0011697D01*
Y0012803D01*
X0012091Y0013197D02*
X0011697Y0012803D01*
X0012091D02*
X0011697Y0013197D01*
X0011303Y0011227D02*
X0010909Y0011621D01*
Y0012015D02*
X0011303D01*
Y0012409D01*
X0010909D01*
Y0012015D01*
X0011303Y0012409D02*
X0010909Y0012015D01*
X0011303D02*
X0010909Y0012409D01*
Y0012803D02*
X0011303D01*
Y0013197D01*
X0010909D01*
Y0012803D01*
X0011303Y0013197D02*
X0010909Y0012803D01*
Y0013591D02*
X0011303D01*
Y0013985D01*
X0010909D01*
Y0013591D01*
X0012245Y0015368D02*
Y0015270D01*
X0012193Y0015368D02*
Y0015270D01*
X0012140Y0015368D02*
Y0015270D01*
X0012087Y0015368D02*
Y0015270D01*
X0012034Y0015368D02*
Y0015270D01*
X0011981Y0015368D02*
Y0015270D01*
X0011929Y0015368D02*
Y0015270D01*
X0011876Y0015368D02*
Y0015270D01*
X0011823Y0015368D02*
Y0015270D01*
X0012288Y0015351D02*
X0011795D01*
X0012288Y0015298D02*
X0011795D01*
X0012288Y0015270D02*
X0011795D01*
X0012288Y0015368D02*
Y0015270D01*
Y0015368D02*
X0011795D01*
Y0015270D01*
X0012664Y0011617D02*
Y0011124D01*
X0012611Y0011617D02*
Y0011124D01*
X0012682Y0011574D02*
X0012583D01*
X0012682Y0011521D02*
X0012583D01*
X0012682Y0011469D02*
X0012583D01*
X0012682Y0011416D02*
X0012583D01*
X0012682Y0011363D02*
X0012583D01*
X0012682Y0011310D02*
X0012583D01*
X0012682Y0011257D02*
X0012583D01*
X0012682Y0011205D02*
X0012583D01*
X0012682Y0011152D02*
X0012583D01*
X0012682Y0011124D02*
X0012583D01*
Y0011617D02*
Y0011124D01*
X0012682Y0011617D02*
X0012583D01*
X0012682D02*
Y0011124D01*
X0012091Y0013985D02*
X0011697Y0013591D01*
X0012091D02*
X0011697Y0013985D01*
X0010909Y0011227D02*
X0011303D01*
Y0011621D01*
X0010909D01*
Y0011227D01*
Y0014379D02*
X0011303D01*
Y0014773D01*
X0010909D01*
Y0014379D01*
G54D65*
G01X0024050Y0005000D02*
X0027300D01*
Y0003000D01*
X0024050D01*
Y0005000D01*
X0029502Y0000939D02*
X0030998D01*
Y0002041D01*
X0030644Y0002396D01*
X0029817D01*
X0029502Y0002081D01*
Y0000939D01*
X0029187Y0000860D02*
X0031313D01*
Y0004640D01*
X0029187D01*
Y0000860D01*
X0029859D02*
Y0000309D01*
X0029788Y0000860D02*
Y0000309D01*
X0029718Y0000860D02*
Y0000309D01*
X0029647Y0000860D02*
Y0000309D01*
X0030919Y0000800D02*
X0029581D01*
X0030919Y0000729D02*
X0029581D01*
X0030919Y0000658D02*
X0029581D01*
X0030919Y0000588D02*
X0029581D01*
X0030919Y0000517D02*
X0029581D01*
X0030919Y0000446D02*
X0029581D01*
X0030638Y0000860D02*
Y0000309D01*
X0030567Y0000860D02*
Y0000309D01*
X0030496Y0000860D02*
Y0000309D01*
X0030426Y0000860D02*
Y0000309D01*
X0030355Y0000860D02*
Y0000309D01*
X0030284Y0000860D02*
Y0000309D01*
X0030213Y0000860D02*
Y0000309D01*
X0030142Y0000860D02*
Y0000309D01*
X0030072Y0000860D02*
Y0000309D01*
X0030001Y0000860D02*
Y0000309D01*
X0029930Y0000860D02*
Y0000309D01*
X0030919Y0000375D02*
X0029581D01*
X0030919Y0000860D02*
X0029581D01*
X0030919D02*
Y0000309D01*
X0029581D01*
Y0000860D02*
Y0000309D01*
X0030850Y0000860D02*
Y0000309D01*
X0030780Y0000860D02*
Y0000309D01*
X0030709Y0000860D02*
Y0000309D01*
X0029502Y0003104D02*
X0030998D01*
Y0004561D01*
X0029502D01*
Y0003104D01*
X0003758Y0000463D02*
X0007616D01*
Y0001880D01*
X0003758D01*
Y0000463D01*
X0007616Y0000856D02*
X0007458D01*
Y0001722D01*
X0003915D01*
Y0000856D01*
X0003758D01*
X0006887Y0000656D02*
Y0000463D01*
X0006816Y0000719D02*
Y0000463D01*
X0006745Y0000773D02*
Y0000463D01*
X0006674Y0000710D02*
Y0000463D01*
X0006603Y0000647D02*
Y0000463D01*
X0006533Y0000584D02*
Y0000463D01*
X0006462Y0000521D02*
Y0000463D01*
X0006791Y0000741D02*
X0006709D01*
X0006870Y0000670D02*
X0006629D01*
X0006950Y0000600D02*
X0006550D01*
X0007029Y0000529D02*
X0006470D01*
X0006435Y0000463D02*
X0006396D01*
X0007104D02*
X0006435D01*
X0006750Y0000778D02*
X0007104Y0000463D01*
X0006750Y0000778D02*
X0006396Y0000463D01*
X0007028Y0000530D02*
Y0000463D01*
X0006957Y0000593D02*
Y0000463D01*
X0018597Y0015103D02*
Y0014834D01*
X0018527Y0015153D02*
Y0014784D01*
X0018456Y0015169D02*
Y0014768D01*
X0018385Y0015159D02*
Y0014778D01*
X0018314Y0015118D02*
Y0014819D01*
X0018583Y0015117D02*
X0018314D01*
X0018633Y0015047D02*
X0018264D01*
X0018649Y0014976D02*
X0018248D01*
X0018639Y0014905D02*
X0018258D01*
X0018598Y0014834D02*
X0018299D01*
X0018213Y0015321D02*
X0018134Y0015323D01*
Y0010679D01*
X0021242D01*
Y0015321D01*
X0018213D01*
X0027537Y0007792D02*
Y0009208D01*
X0025963D01*
Y0007792D01*
X0027537D01*
X0025787D02*
Y0009208D01*
X0024213D01*
Y0007792D01*
X0025787D01*
X0032002Y0000939D02*
X0033498D01*
Y0002041D01*
X0033144Y0002396D01*
X0032317D01*
X0032002Y0002081D01*
Y0000939D01*
X0031687Y0000860D02*
X0033813D01*
Y0004640D01*
X0031687D01*
Y0000860D01*
X0032359D02*
Y0000309D01*
X0032288Y0000860D02*
Y0000309D01*
X0032218Y0000860D02*
Y0000309D01*
X0032147Y0000860D02*
Y0000309D01*
X0033419Y0000800D02*
X0032081D01*
X0033419Y0000729D02*
X0032081D01*
X0033419Y0000658D02*
X0032081D01*
X0033419Y0000588D02*
X0032081D01*
X0033419Y0000517D02*
X0032081D01*
X0033419Y0000446D02*
X0032081D01*
X0033138Y0000860D02*
Y0000309D01*
X0033067Y0000860D02*
Y0000309D01*
X0032996Y0000860D02*
Y0000309D01*
X0032926Y0000860D02*
Y0000309D01*
X0032855Y0000860D02*
Y0000309D01*
X0032784Y0000860D02*
Y0000309D01*
X0032713Y0000860D02*
Y0000309D01*
X0032642Y0000860D02*
Y0000309D01*
X0032572Y0000860D02*
Y0000309D01*
X0032501Y0000860D02*
Y0000309D01*
X0032430Y0000860D02*
Y0000309D01*
X0033419Y0000375D02*
X0032081D01*
X0033419Y0000860D02*
X0032081D01*
X0033419D02*
Y0000309D01*
X0032081D01*
Y0000860D02*
Y0000309D01*
X0033350Y0000860D02*
Y0000309D01*
X0033280Y0000860D02*
Y0000309D01*
X0033209Y0000860D02*
Y0000309D01*
X0032002Y0003104D02*
X0033498D01*
Y0004561D01*
X0032002D01*
Y0003104D01*
X0027537Y0009292D02*
Y0010708D01*
X0025963D01*
Y0009292D01*
X0027537D01*
X0025787D02*
Y0010708D01*
X0024213D01*
Y0009292D01*
X0025787D01*
G01X0018449Y0014768D02*
G03X0018650Y0014969I0000000J0000201D01*
G01X0018248D02*
G03X0018449Y0014768I0000201J0000000D01*
Y0015169D02*
G03X0018249Y0014969I0000000J0000200D01*
G01X0018649D02*
G03X0018449Y0015169I0000200J0000000D01*
G54D66*
G01X0012681Y0010835D02*
Y0015362D01*
X0010417D01*
Y0010638D01*
X0012681D01*
Y0010835D01*
Y0012410D02*
X0012287D01*
Y0010638D01*
X0012681Y0013590D02*
X0012287D01*
Y0015362D01*
X0010417Y0011424D02*
Y0011818D01*
X0010318D01*
Y0014182D01*
X0010417D01*
M02*
