*
G04 Mass Parameters ***
*
G04 Image ***
*
%IND:\UTENTI\00.LAVORI IN CORSO\METALTRONICA\22-313-0\22-313-0.DRD*%
%ICAS*%
%MOIN*%
%IPPOS*%
%ASAXBY*%
G74*%FSLAN2X34Y34*%
*
G04 Aperture Definitions ***
*
%ADD10C,0.0394*%
%ADD11R,0.0380X0.0320*%
%ADD12R,0.0886X0.0905*%
%ADD13R,0.1024X0.0510*%
%ADD14R,0.0197X0.0315*%
%ADD15R,0.0501X0.0404*%
%ADD16R,0.0527X0.0630*%
%ADD17R,0.1913X0.1496*%
%ADD18C,0.2756*%
%ADD19C,0.0787*%
%ADD20C,0.0512*%
%ADD21R,0.0787X0.0787*%
%ADD22O,0.0787X0.1181*%
%ADD23C,0.0669*%
%ADD24R,0.0669X0.0669*%
%ADD25C,0.0590*%
%ADD26R,0.0590X0.0590*%
%ADD27C,0.1200*%
%ADD28R,0.1200X0.1200*%
%ADD29C,0.0866*%
%ADD30C,0.1000*%
%ADD31R,0.1000X0.1000*%
%ADD32C,0.0610*%
%ADD33R,0.0610X0.0610*%
%ADD34C,0.1181*%
%ADD35C,0.0984*%
%ADD36R,0.0984X0.0984*%
%ADD37R,0.0630X0.0630*%
%ADD38C,0.0630*%
%ADD39C,0.1299*%
%ADD40C,0.0187*%
%ADD41R,0.0500X0.0400*%
%ADD42R,0.0354X0.0315*%
%ADD43R,0.0710X0.0400*%
%ADD44R,0.1080X0.0850*%
%ADD45R,0.0177X0.0394*%
%ADD46C,0.0800*%
%ADD47R,0.0236X0.0512*%
%ADD48C,0.0276*%
%ADD49C,0.0050*%
%ADD50C,0.0100*%
%ADD51C,0.0080*%
%ADD52C,0.0276*%
%ADD53C,0.0300*%
%ADD54C,0.0120*%
%ADD55C,0.0200*%
%ADD56C,0.0500*%
%ADD57C,0.0250*%
%ADD58C,0.1000*%
%ADD59C,0.0150*%
%ADD60C,0.0276*%
%ADD61C,0.0276*%
%ADD62R,0.0354X0.0354*%
%ADD63C,0.0060*%
%ADD64C,0.0059*%
%ADD65C,0.0079*%
%ADD66C,0.0078*%
*
G04 Plot Data ***
*
G54D50*
G01X0024708Y-0024250D02*
X0024042D01*
X0024375Y-0023583D01*
X0024542D01*
Y-0024583D01*
X0023675Y-0024083D02*
X0023175D01*
X0023092Y-0023917D01*
Y-0023750D01*
X0023175Y-0023583D01*
X0023675D01*
X0023758Y-0023750D01*
Y-0023917D01*
X0023425Y-0024583D01*
X0022808D02*
X0022142D01*
X0022808Y-0023917D01*
Y-0023750D01*
X0022725Y-0023583D01*
X0022225D01*
X0022142Y-0023750D01*
X0012312Y-0024583D02*
X0011729D01*
Y-0023583D01*
X0011446Y-0024250D02*
X0010779D01*
X0011446Y-0024583D02*
Y-0024083D01*
X0011196Y-0023583D01*
X0011029D01*
X0010779Y-0024083D01*
Y-0024583D01*
X0010162D02*
Y-0023583D01*
X0010496D02*
X0009829D01*
X0008962Y-0024583D02*
X0008879Y-0024417D01*
Y-0023750D01*
X0008962Y-0023583D01*
X0009462D01*
X0009546Y-0023750D01*
Y-0024417D01*
X0009462Y-0024583D01*
X0008962D01*
X0008262D02*
Y-0023583D01*
X0008596D02*
X0007929D01*
X0032564Y-0022722D02*
Y-0022056D01*
X0032508Y-0022722D02*
X0032841D01*
X0032953Y-0022500D01*
Y-0022278D01*
X0032841Y-0022056D01*
X0032508D01*
X0032141Y-0022389D02*
X0031808D01*
X0032253Y-0022722D02*
X0031808D01*
Y-0022056D01*
X0032253D01*
X0031330Y-0022722D02*
Y-0022056D01*
X0031553D02*
X0031108D01*
X0030853Y-0022500D02*
X0030408D01*
X0030853Y-0022722D02*
Y-0022389D01*
X0030686Y-0022056D01*
X0030575D01*
X0030408Y-0022389D01*
Y-0022722D01*
X0030153D02*
X0029764D01*
Y-0022056D01*
X0029064Y-0022389D02*
X0029397D01*
X0029508Y-0022278D01*
Y-0022167D01*
X0029397Y-0022056D01*
X0029064D01*
Y-0022722D01*
X0028808Y-0022389D02*
X0028364D01*
X0028108Y-0022056D02*
Y-0022722D01*
X0027997Y-0022611D01*
X0027775Y-0022167D01*
X0027664Y-0022056D01*
Y-0022722D01*
X0027019D02*
X0026964Y-0022611D01*
Y-0022167D01*
X0027019Y-0022056D01*
X0027353D01*
X0027408Y-0022167D01*
Y-0022611D01*
X0027353Y-0022722D01*
X0027019D01*
X0026708Y-0022056D02*
Y-0022722D01*
X0026597Y-0022611D01*
X0026375Y-0022167D01*
X0026264Y-0022056D01*
Y-0022722D01*
X0024708D02*
X0024264D01*
X0024708Y-0022278D01*
Y-0022167D01*
X0024653Y-0022056D01*
X0024319D01*
X0024264Y-0022167D01*
X0010869Y-0022722D02*
Y-0022389D01*
X0011092Y-0022722D02*
Y-0022389D01*
X0011036Y-0022278D01*
X0010925D01*
X0010869Y-0022389D01*
X0010814Y-0022278D01*
X0010703D01*
X0010647Y-0022389D01*
Y-0022722D01*
X0010169D02*
Y-0022389D01*
X0010392Y-0022722D02*
Y-0022389D01*
X0010336Y-0022278D01*
X0010225D01*
X0010169Y-0022389D01*
X0010114Y-0022278D01*
X0010003D01*
X0009947Y-0022389D01*
Y-0022722D01*
X0008464D02*
X0008353Y-0022611D01*
X0008297Y-0022500D01*
Y-0022278D01*
X0008353Y-0022167D01*
X0008464Y-0022056D01*
X0008575D01*
X0008686Y-0022167D01*
X0008742Y-0022278D01*
Y-0022500D01*
X0008686Y-0022611D01*
X0008575Y-0022722D01*
X0008464D01*
X0007764D02*
X0007653Y-0022611D01*
X0007597Y-0022500D01*
Y-0022278D01*
X0007653Y-0022167D01*
X0007764Y-0022056D01*
X0007875D01*
X0007986Y-0022167D01*
X0008042Y-0022278D01*
Y-0022500D01*
X0007986Y-0022611D01*
X0007875Y-0022722D01*
X0007764D01*
X0006897Y-0022611D02*
X0007008Y-0022722D01*
X0007230D01*
X0007342Y-0022611D01*
Y-0022500D01*
X0007119Y-0022278D01*
X0007342Y-0022056D01*
X0006897D01*
X0006531Y-0022722D02*
X0006642D01*
Y-0022611D01*
X0006531D01*
Y-0022722D01*
X0005719Y-0022611D02*
X0005831Y-0022722D01*
X0006053D01*
X0006164Y-0022611D01*
Y-0022500D01*
X0005942Y-0022278D01*
X0006164Y-0022056D01*
X0005719D01*
X0024708Y-0021000D02*
X0024264D01*
X0024486Y-0020556D01*
X0024597D01*
Y-0021222D01*
X0010869D02*
Y-0020889D01*
X0011092Y-0021222D02*
Y-0020889D01*
X0011036Y-0020778D01*
X0010925D01*
X0010869Y-0020889D01*
X0010814Y-0020778D01*
X0010703D01*
X0010647Y-0020889D01*
Y-0021222D01*
X0010169D02*
Y-0020889D01*
X0010392Y-0021222D02*
Y-0020889D01*
X0010336Y-0020778D01*
X0010225D01*
X0010169Y-0020889D01*
X0010114Y-0020778D01*
X0010003D01*
X0009947Y-0020889D01*
Y-0021222D01*
X0008464D02*
X0008353Y-0021111D01*
X0008297Y-0021000D01*
Y-0020778D01*
X0008353Y-0020667D01*
X0008464Y-0020556D01*
X0008575D01*
X0008686Y-0020667D01*
X0008742Y-0020778D01*
Y-0021000D01*
X0008686Y-0021111D01*
X0008575Y-0021222D01*
X0008464D01*
X0007764D02*
X0007653Y-0021111D01*
X0007597Y-0021000D01*
Y-0020778D01*
X0007653Y-0020667D01*
X0007764Y-0020556D01*
X0007875D01*
X0007986Y-0020667D01*
X0008042Y-0020778D01*
Y-0021000D01*
X0007986Y-0021111D01*
X0007875Y-0021222D01*
X0007764D01*
X0007064D02*
X0006953Y-0021111D01*
X0006897Y-0021000D01*
Y-0020778D01*
X0006953Y-0020667D01*
X0007064Y-0020556D01*
X0007175D01*
X0007286Y-0020667D01*
X0007342Y-0020778D01*
Y-0021000D01*
X0007286Y-0021111D01*
X0007175Y-0021222D01*
X0007064D01*
X0006531D02*
X0006642D01*
Y-0021111D01*
X0006531D01*
Y-0021222D01*
X0005719Y-0021111D02*
X0005831Y-0021222D01*
X0006053D01*
X0006164Y-0021111D01*
Y-0021000D01*
X0005942Y-0020778D01*
X0006164Y-0020556D01*
X0005719D01*
X0032564Y-0019722D02*
Y-0019056D01*
X0032508Y-0019722D02*
X0032841D01*
X0032953Y-0019500D01*
Y-0019278D01*
X0032841Y-0019056D01*
X0032508D01*
X0032141Y-0019389D02*
X0031808D01*
X0032253Y-0019722D02*
X0031808D01*
Y-0019056D01*
X0032253D01*
X0031330Y-0019722D02*
Y-0019056D01*
X0031553D02*
X0031108D01*
X0030853Y-0019500D02*
X0030408D01*
X0030853Y-0019722D02*
Y-0019389D01*
X0030686Y-0019056D01*
X0030575D01*
X0030408Y-0019389D01*
Y-0019722D01*
X0030153D02*
X0029764D01*
Y-0019056D01*
X0029064Y-0019389D02*
X0029397D01*
X0029508Y-0019278D01*
Y-0019167D01*
X0029397Y-0019056D01*
X0029064D01*
Y-0019722D01*
X0028808Y-0019389D02*
X0028364D01*
X0028108Y-0019056D02*
Y-0019722D01*
X0027997Y-0019611D01*
X0027775Y-0019167D01*
X0027664Y-0019056D01*
Y-0019722D01*
X0027019D02*
X0026964Y-0019611D01*
Y-0019167D01*
X0027019Y-0019056D01*
X0027353D01*
X0027408Y-0019167D01*
Y-0019611D01*
X0027353Y-0019722D01*
X0027019D01*
X0026708Y-0019056D02*
Y-0019722D01*
X0026597Y-0019611D01*
X0026375Y-0019167D01*
X0026264Y-0019056D01*
Y-0019722D01*
X0024708D02*
X0024264D01*
X0024708Y-0019278D01*
Y-0019167D01*
X0024653Y-0019056D01*
X0024319D01*
X0024264Y-0019167D01*
X0010869Y-0019722D02*
Y-0019389D01*
X0011092Y-0019722D02*
Y-0019389D01*
X0011036Y-0019278D01*
X0010925D01*
X0010869Y-0019389D01*
X0010814Y-0019278D01*
X0010703D01*
X0010647Y-0019389D01*
Y-0019722D01*
X0010169D02*
Y-0019389D01*
X0010392Y-0019722D02*
Y-0019389D01*
X0010336Y-0019278D01*
X0010225D01*
X0010169Y-0019389D01*
X0010114Y-0019278D01*
X0010003D01*
X0009947Y-0019389D01*
Y-0019722D01*
X0008464D02*
X0008353Y-0019611D01*
X0008297Y-0019500D01*
Y-0019278D01*
X0008353Y-0019167D01*
X0008464Y-0019056D01*
X0008575D01*
X0008686Y-0019167D01*
X0008742Y-0019278D01*
Y-0019500D01*
X0008686Y-0019611D01*
X0008575Y-0019722D01*
X0008464D01*
X0007764D02*
X0007653Y-0019611D01*
X0007597Y-0019500D01*
Y-0019278D01*
X0007653Y-0019167D01*
X0007764Y-0019056D01*
X0007875D01*
X0007986Y-0019167D01*
X0008042Y-0019278D01*
Y-0019500D01*
X0007986Y-0019611D01*
X0007875Y-0019722D01*
X0007764D01*
X0007064D02*
X0006953Y-0019611D01*
X0006897Y-0019500D01*
Y-0019278D01*
X0006953Y-0019167D01*
X0007064Y-0019056D01*
X0007175D01*
X0007286Y-0019167D01*
X0007342Y-0019278D01*
Y-0019500D01*
X0007286Y-0019611D01*
X0007175Y-0019722D01*
X0007064D01*
X0006531D02*
X0006642D01*
Y-0019611D01*
X0006531D01*
Y-0019722D01*
X0005719Y-0019611D02*
X0005831Y-0019722D01*
X0006053D01*
X0006164Y-0019611D01*
Y-0019500D01*
X0005942Y-0019278D01*
X0006164Y-0019056D01*
X0005719D01*
X0024375Y-0018222D02*
X0024708Y-0017556D01*
X0024264D01*
X0010869Y-0018222D02*
Y-0017889D01*
X0011092Y-0018222D02*
Y-0017889D01*
X0011036Y-0017778D01*
X0010925D01*
X0010869Y-0017889D01*
X0010814Y-0017778D01*
X0010703D01*
X0010647Y-0017889D01*
Y-0018222D01*
X0010169D02*
Y-0017889D01*
X0010392Y-0018222D02*
Y-0017889D01*
X0010336Y-0017778D01*
X0010225D01*
X0010169Y-0017889D01*
X0010114Y-0017778D01*
X0010003D01*
X0009947Y-0017889D01*
Y-0018222D01*
X0008464D02*
X0008353Y-0018111D01*
X0008297Y-0018000D01*
Y-0017778D01*
X0008353Y-0017667D01*
X0008464Y-0017556D01*
X0008575D01*
X0008686Y-0017667D01*
X0008742Y-0017778D01*
Y-0018000D01*
X0008686Y-0018111D01*
X0008575Y-0018222D01*
X0008464D01*
X0007764D02*
X0007653Y-0018111D01*
X0007597Y-0018000D01*
Y-0017778D01*
X0007653Y-0017667D01*
X0007764Y-0017556D01*
X0007875D01*
X0007986Y-0017667D01*
X0008042Y-0017778D01*
Y-0018000D01*
X0007986Y-0018111D01*
X0007875Y-0018222D01*
X0007764D01*
X0006953Y-0017889D02*
X0007286D01*
X0007342Y-0018000D01*
Y-0018111D01*
X0007286Y-0018222D01*
X0006953D01*
X0006897Y-0018111D01*
Y-0018000D01*
X0007119Y-0017556D01*
X0006531Y-0018222D02*
X0006642D01*
Y-0018111D01*
X0006531D01*
Y-0018222D01*
X0006164D02*
X0005942D01*
X0006053D02*
Y-0017556D01*
X0005942Y-0017667D01*
X0024653Y-0016389D02*
X0024708Y-0016278D01*
Y-0016167D01*
X0024653Y-0016056D01*
X0024319D01*
X0024264Y-0016167D01*
Y-0016278D01*
X0024319Y-0016389D01*
X0024653D01*
X0024708Y-0016500D01*
Y-0016611D01*
X0024653Y-0016722D01*
X0024319D01*
X0024264Y-0016611D01*
Y-0016500D01*
X0024319Y-0016389D01*
X0010869Y-0016722D02*
Y-0016389D01*
X0011092Y-0016722D02*
Y-0016389D01*
X0011036Y-0016278D01*
X0010925D01*
X0010869Y-0016389D01*
X0010814Y-0016278D01*
X0010703D01*
X0010647Y-0016389D01*
Y-0016722D01*
X0010169D02*
Y-0016389D01*
X0010392Y-0016722D02*
Y-0016389D01*
X0010336Y-0016278D01*
X0010225D01*
X0010169Y-0016389D01*
X0010114Y-0016278D01*
X0010003D01*
X0009947Y-0016389D01*
Y-0016722D01*
X0008464D02*
X0008353Y-0016611D01*
X0008297Y-0016500D01*
Y-0016278D01*
X0008353Y-0016167D01*
X0008464Y-0016056D01*
X0008575D01*
X0008686Y-0016167D01*
X0008742Y-0016278D01*
Y-0016500D01*
X0008686Y-0016611D01*
X0008575Y-0016722D01*
X0008464D01*
X0007764D02*
X0007653Y-0016611D01*
X0007597Y-0016500D01*
Y-0016278D01*
X0007653Y-0016167D01*
X0007764Y-0016056D01*
X0007875D01*
X0007986Y-0016167D01*
X0008042Y-0016278D01*
Y-0016500D01*
X0007986Y-0016611D01*
X0007875Y-0016722D01*
X0007764D01*
X0007342Y-0016500D02*
X0006897D01*
X0007119Y-0016056D01*
X0007230D01*
Y-0016722D01*
X0006531D02*
X0006642D01*
Y-0016611D01*
X0006531D01*
Y-0016722D01*
X0006164D02*
X0005942D01*
X0006053D02*
Y-0016056D01*
X0005942Y-0016167D01*
X0032564Y-0015222D02*
Y-0014556D01*
X0032508Y-0015222D02*
X0032841D01*
X0032953Y-0015000D01*
Y-0014778D01*
X0032841Y-0014556D01*
X0032508D01*
X0032141Y-0014889D02*
X0031808D01*
X0032253Y-0015222D02*
X0031808D01*
Y-0014556D01*
X0032253D01*
X0031330Y-0015222D02*
Y-0014556D01*
X0031553D02*
X0031108D01*
X0030853Y-0015000D02*
X0030408D01*
X0030853Y-0015222D02*
Y-0014889D01*
X0030686Y-0014556D01*
X0030575D01*
X0030408Y-0014889D01*
Y-0015222D01*
X0030153D02*
X0029764D01*
Y-0014556D01*
X0029064Y-0014889D02*
X0029397D01*
X0029508Y-0014778D01*
Y-0014667D01*
X0029397Y-0014556D01*
X0029064D01*
Y-0015222D01*
X0028808Y-0014889D02*
X0028364D01*
X0028108Y-0014556D02*
Y-0015222D01*
X0027997Y-0015111D01*
X0027775Y-0014667D01*
X0027664Y-0014556D01*
Y-0015222D01*
X0027019D02*
X0026964Y-0015111D01*
Y-0014667D01*
X0027019Y-0014556D01*
X0027353D01*
X0027408Y-0014667D01*
Y-0015111D01*
X0027353Y-0015222D01*
X0027019D01*
X0026708Y-0014556D02*
Y-0015222D01*
X0026597Y-0015111D01*
X0026375Y-0014667D01*
X0026264Y-0014556D01*
Y-0015222D01*
X0024319Y-0014889D02*
X0024653D01*
X0024708Y-0015000D01*
Y-0015111D01*
X0024653Y-0015222D01*
X0024319D01*
X0024264Y-0015111D01*
Y-0015000D01*
X0024486Y-0014556D01*
X0010869Y-0015222D02*
Y-0014889D01*
X0011092Y-0015222D02*
Y-0014889D01*
X0011036Y-0014778D01*
X0010925D01*
X0010869Y-0014889D01*
X0010814Y-0014778D01*
X0010703D01*
X0010647Y-0014889D01*
Y-0015222D01*
X0010169D02*
Y-0014889D01*
X0010392Y-0015222D02*
Y-0014889D01*
X0010336Y-0014778D01*
X0010225D01*
X0010169Y-0014889D01*
X0010114Y-0014778D01*
X0010003D01*
X0009947Y-0014889D01*
Y-0015222D01*
X0008464D02*
X0008353Y-0015111D01*
X0008297Y-0015000D01*
Y-0014778D01*
X0008353Y-0014667D01*
X0008464Y-0014556D01*
X0008575D01*
X0008686Y-0014667D01*
X0008742Y-0014778D01*
Y-0015000D01*
X0008686Y-0015111D01*
X0008575Y-0015222D01*
X0008464D01*
X0007764D02*
X0007653Y-0015111D01*
X0007597Y-0015000D01*
Y-0014778D01*
X0007653Y-0014667D01*
X0007764Y-0014556D01*
X0007875D01*
X0007986Y-0014667D01*
X0008042Y-0014778D01*
Y-0015000D01*
X0007986Y-0015111D01*
X0007875Y-0015222D01*
X0007764D01*
X0006897Y-0015111D02*
X0007008Y-0015222D01*
X0007230D01*
X0007342Y-0015111D01*
Y-0015000D01*
X0007119Y-0014778D01*
X0007342Y-0014556D01*
X0006897D01*
X0006531Y-0015222D02*
X0006642D01*
Y-0015111D01*
X0006531D01*
Y-0015222D01*
X0006164D02*
X0005942D01*
X0006053D02*
Y-0014556D01*
X0005942Y-0014667D01*
X0024653Y-0013389D02*
X0024708Y-0013278D01*
Y-0013167D01*
X0024653Y-0013056D01*
X0024319D01*
X0024264Y-0013167D01*
Y-0013278D01*
X0024319Y-0013389D01*
X0024653D01*
X0024708Y-0013500D01*
Y-0013611D01*
X0024653Y-0013722D01*
X0024319D01*
X0024264Y-0013611D01*
Y-0013500D01*
X0024319Y-0013389D01*
X0024008Y-0013500D02*
X0023564D01*
X0023786Y-0013056D01*
X0023897D01*
Y-0013722D01*
X0010869D02*
Y-0013389D01*
X0011092Y-0013722D02*
Y-0013389D01*
X0011036Y-0013278D01*
X0010925D01*
X0010869Y-0013389D01*
X0010814Y-0013278D01*
X0010703D01*
X0010647Y-0013389D01*
Y-0013722D01*
X0010169D02*
Y-0013389D01*
X0010392Y-0013722D02*
Y-0013389D01*
X0010336Y-0013278D01*
X0010225D01*
X0010169Y-0013389D01*
X0010114Y-0013278D01*
X0010003D01*
X0009947Y-0013389D01*
Y-0013722D01*
X0008464D02*
X0008353Y-0013611D01*
X0008297Y-0013500D01*
Y-0013278D01*
X0008353Y-0013167D01*
X0008464Y-0013056D01*
X0008575D01*
X0008686Y-0013167D01*
X0008742Y-0013278D01*
Y-0013500D01*
X0008686Y-0013611D01*
X0008575Y-0013722D01*
X0008464D01*
X0007764D02*
X0007653Y-0013611D01*
X0007597Y-0013500D01*
Y-0013278D01*
X0007653Y-0013167D01*
X0007764Y-0013056D01*
X0007875D01*
X0007986Y-0013167D01*
X0008042Y-0013278D01*
Y-0013500D01*
X0007986Y-0013611D01*
X0007875Y-0013722D01*
X0007764D01*
X0007342D02*
X0006897D01*
X0007342Y-0013278D01*
Y-0013167D01*
X0007286Y-0013056D01*
X0006953D01*
X0006897Y-0013167D01*
X0006531Y-0013722D02*
X0006642D01*
Y-0013611D01*
X0006531D01*
Y-0013722D01*
X0006164D02*
X0005942D01*
X0006053D02*
Y-0013056D01*
X0005942Y-0013167D01*
X0024653Y-0011889D02*
X0024708Y-0011778D01*
Y-0011667D01*
X0024653Y-0011556D01*
X0024319D01*
X0024264Y-0011667D01*
Y-0011778D01*
X0024319Y-0011889D01*
X0024653D01*
X0024708Y-0012000D01*
Y-0012111D01*
X0024653Y-0012222D01*
X0024319D01*
X0024264Y-0012111D01*
Y-0012000D01*
X0024319Y-0011889D01*
X0010869Y-0012222D02*
Y-0011889D01*
X0011092Y-0012222D02*
Y-0011889D01*
X0011036Y-0011778D01*
X0010925D01*
X0010869Y-0011889D01*
X0010814Y-0011778D01*
X0010703D01*
X0010647Y-0011889D01*
Y-0012222D01*
X0010169D02*
Y-0011889D01*
X0010392Y-0012222D02*
Y-0011889D01*
X0010336Y-0011778D01*
X0010225D01*
X0010169Y-0011889D01*
X0010114Y-0011778D01*
X0010003D01*
X0009947Y-0011889D01*
Y-0012222D01*
X0008464D02*
X0008353Y-0012111D01*
X0008297Y-0012000D01*
Y-0011778D01*
X0008353Y-0011667D01*
X0008464Y-0011556D01*
X0008575D01*
X0008686Y-0011667D01*
X0008742Y-0011778D01*
Y-0012000D01*
X0008686Y-0012111D01*
X0008575Y-0012222D01*
X0008464D01*
X0007764D02*
X0007653Y-0012111D01*
X0007597Y-0012000D01*
Y-0011778D01*
X0007653Y-0011667D01*
X0007764Y-0011556D01*
X0007875D01*
X0007986Y-0011667D01*
X0008042Y-0011778D01*
Y-0012000D01*
X0007986Y-0012111D01*
X0007875Y-0012222D01*
X0007764D01*
X0007286Y-0011889D02*
X0006953D01*
X0006897Y-0011778D01*
Y-0011667D01*
X0006953Y-0011556D01*
X0007286D01*
X0007342Y-0011667D01*
Y-0011778D01*
X0007119Y-0012222D01*
X0006531D02*
X0006642D01*
Y-0012111D01*
X0006531D01*
Y-0012222D01*
X0005886D02*
X0005775Y-0012111D01*
X0005719Y-0012000D01*
Y-0011778D01*
X0005775Y-0011667D01*
X0005886Y-0011556D01*
X0005997D01*
X0006108Y-0011667D01*
X0006164Y-0011778D01*
Y-0012000D01*
X0006108Y-0012111D01*
X0005997Y-0012222D01*
X0005886D01*
X0024708Y-0010500D02*
X0024264D01*
X0024486Y-0010056D01*
X0024597D01*
Y-0010722D01*
X0010869D02*
Y-0010389D01*
X0011092Y-0010722D02*
Y-0010389D01*
X0011036Y-0010278D01*
X0010925D01*
X0010869Y-0010389D01*
X0010814Y-0010278D01*
X0010703D01*
X0010647Y-0010389D01*
Y-0010722D01*
X0010169D02*
Y-0010389D01*
X0010392Y-0010722D02*
Y-0010389D01*
X0010336Y-0010278D01*
X0010225D01*
X0010169Y-0010389D01*
X0010114Y-0010278D01*
X0010003D01*
X0009947Y-0010389D01*
Y-0010722D01*
X0008686Y-0010389D02*
X0008353D01*
X0008297Y-0010278D01*
Y-0010167D01*
X0008353Y-0010056D01*
X0008686D01*
X0008742Y-0010167D01*
Y-0010278D01*
X0008519Y-0010722D01*
X0007986Y-0010389D02*
X0007653D01*
X0007597Y-0010278D01*
Y-0010167D01*
X0007653Y-0010056D01*
X0007986D01*
X0008042Y-0010167D01*
Y-0010278D01*
X0007819Y-0010722D01*
X0007286Y-0010389D02*
X0007342Y-0010278D01*
Y-0010167D01*
X0007286Y-0010056D01*
X0006953D01*
X0006897Y-0010167D01*
Y-0010278D01*
X0006953Y-0010389D01*
X0007286D01*
X0007342Y-0010500D01*
Y-0010611D01*
X0007286Y-0010722D01*
X0006953D01*
X0006897Y-0010611D01*
Y-0010500D01*
X0006953Y-0010389D01*
X0006531Y-0010722D02*
X0006642D01*
Y-0010611D01*
X0006531D01*
Y-0010722D01*
X0005886D02*
X0005775Y-0010611D01*
X0005719Y-0010500D01*
Y-0010278D01*
X0005775Y-0010167D01*
X0005886Y-0010056D01*
X0005997D01*
X0006108Y-0010167D01*
X0006164Y-0010278D01*
Y-0010500D01*
X0006108Y-0010611D01*
X0005997Y-0010722D01*
X0005886D01*
X0024430Y-0009222D02*
X0024319Y-0009111D01*
X0024264Y-0009000D01*
Y-0008778D01*
X0024319Y-0008667D01*
X0024430Y-0008556D01*
X0024542D01*
X0024653Y-0008667D01*
X0024708Y-0008778D01*
Y-0009000D01*
X0024653Y-0009111D01*
X0024542Y-0009222D01*
X0024430D01*
X0024008D02*
X0023786D01*
X0023897D02*
Y-0008556D01*
X0023786Y-0008667D01*
X0010869Y-0009222D02*
Y-0008889D01*
X0011092Y-0009222D02*
Y-0008889D01*
X0011036Y-0008778D01*
X0010925D01*
X0010869Y-0008889D01*
X0010814Y-0008778D01*
X0010703D01*
X0010647Y-0008889D01*
Y-0009222D01*
X0010169D02*
Y-0008889D01*
X0010392Y-0009222D02*
Y-0008889D01*
X0010336Y-0008778D01*
X0010225D01*
X0010169Y-0008889D01*
X0010114Y-0008778D01*
X0010003D01*
X0009947Y-0008889D01*
Y-0009222D01*
X0008464D02*
X0008353Y-0009111D01*
X0008297Y-0009000D01*
Y-0008778D01*
X0008353Y-0008667D01*
X0008464Y-0008556D01*
X0008575D01*
X0008686Y-0008667D01*
X0008742Y-0008778D01*
Y-0009000D01*
X0008686Y-0009111D01*
X0008575Y-0009222D01*
X0008464D01*
X0007764D02*
X0007653Y-0009111D01*
X0007597Y-0009000D01*
Y-0008778D01*
X0007653Y-0008667D01*
X0007764Y-0008556D01*
X0007875D01*
X0007986Y-0008667D01*
X0008042Y-0008778D01*
Y-0009000D01*
X0007986Y-0009111D01*
X0007875Y-0009222D01*
X0007764D01*
X0007286Y-0008889D02*
X0007342Y-0008778D01*
Y-0008667D01*
X0007286Y-0008556D01*
X0006953D01*
X0006897Y-0008667D01*
Y-0008778D01*
X0006953Y-0008889D01*
X0007286D01*
X0007342Y-0009000D01*
Y-0009111D01*
X0007286Y-0009222D01*
X0006953D01*
X0006897Y-0009111D01*
Y-0009000D01*
X0006953Y-0008889D01*
X0006531Y-0009222D02*
X0006642D01*
Y-0009111D01*
X0006531D01*
Y-0009222D01*
X0005886D02*
X0005775Y-0009111D01*
X0005719Y-0009000D01*
Y-0008778D01*
X0005775Y-0008667D01*
X0005886Y-0008556D01*
X0005997D01*
X0006108Y-0008667D01*
X0006164Y-0008778D01*
Y-0009000D01*
X0006108Y-0009111D01*
X0005997Y-0009222D01*
X0005886D01*
X0024264Y-0007611D02*
X0024319Y-0007722D01*
X0024653D01*
X0024708Y-0007611D01*
Y-0007389D01*
X0024597Y-0007278D01*
X0024264D01*
Y-0007056D01*
X0024708D01*
X0023953Y-0007389D02*
X0023619D01*
X0023564Y-0007278D01*
Y-0007167D01*
X0023619Y-0007056D01*
X0023953D01*
X0024008Y-0007167D01*
Y-0007278D01*
X0023786Y-0007722D01*
X0023308D02*
X0023086D01*
X0023197D02*
Y-0007056D01*
X0023086Y-0007167D01*
X0010869Y-0007722D02*
Y-0007389D01*
X0011092Y-0007722D02*
Y-0007389D01*
X0011036Y-0007278D01*
X0010925D01*
X0010869Y-0007389D01*
X0010814Y-0007278D01*
X0010703D01*
X0010647Y-0007389D01*
Y-0007722D01*
X0010169D02*
Y-0007389D01*
X0010392Y-0007722D02*
Y-0007389D01*
X0010336Y-0007278D01*
X0010225D01*
X0010169Y-0007389D01*
X0010114Y-0007278D01*
X0010003D01*
X0009947Y-0007389D01*
Y-0007722D01*
X0008464D02*
X0008353Y-0007611D01*
X0008297Y-0007500D01*
Y-0007278D01*
X0008353Y-0007167D01*
X0008464Y-0007056D01*
X0008575D01*
X0008686Y-0007167D01*
X0008742Y-0007278D01*
Y-0007500D01*
X0008686Y-0007611D01*
X0008575Y-0007722D01*
X0008464D01*
X0007764D02*
X0007653Y-0007611D01*
X0007597Y-0007500D01*
Y-0007278D01*
X0007653Y-0007167D01*
X0007764Y-0007056D01*
X0007875D01*
X0007986Y-0007167D01*
X0008042Y-0007278D01*
Y-0007500D01*
X0007986Y-0007611D01*
X0007875Y-0007722D01*
X0007764D01*
X0007342D02*
X0006897D01*
X0007342Y-0007278D01*
Y-0007167D01*
X0007286Y-0007056D01*
X0006953D01*
X0006897Y-0007167D01*
X0006531Y-0007722D02*
X0006642D01*
Y-0007611D01*
X0006531D01*
Y-0007722D01*
X0005886D02*
X0005775Y-0007611D01*
X0005719Y-0007500D01*
Y-0007278D01*
X0005775Y-0007167D01*
X0005886Y-0007056D01*
X0005997D01*
X0006108Y-0007167D01*
X0006164Y-0007278D01*
Y-0007500D01*
X0006108Y-0007611D01*
X0005997Y-0007722D01*
X0005886D01*
X0033112Y-0005583D02*
X0032612D01*
X0033279Y-0006083D02*
X0032612D01*
Y-0005083D01*
X0033279D01*
X0031996Y-0006083D02*
Y-0005083D01*
X0032329D02*
X0031662D01*
X0030796Y-0006083D02*
X0030712Y-0005917D01*
Y-0005250D01*
X0030796Y-0005083D01*
X0031296D01*
X0031379Y-0005250D01*
Y-0005917D01*
X0031296Y-0006083D01*
X0030796D01*
X0030429Y-0005083D02*
Y-0006083D01*
X0030262Y-0005917D01*
X0029929Y-0005250D01*
X0029762Y-0005083D01*
Y-0006083D01*
X0023925D02*
Y-0005583D01*
X0024258Y-0005083D02*
X0024008Y-0005583D01*
X0023842D01*
X0023592Y-0005083D01*
X0022975Y-0006083D02*
Y-0005083D01*
X0023308D02*
X0022642D01*
X0022025Y-0005750D02*
X0022358Y-0006083D01*
X0021692Y-0005917D02*
X0021775Y-0006083D01*
X0022108D01*
X0022192Y-0005917D01*
X0022358Y-0005750D01*
Y-0005250D01*
X0022275Y-0005083D01*
X0021775D01*
X0021692Y-0005250D01*
Y-0005917D01*
X0017408Y-0006083D02*
X0016825D01*
Y-0005083D01*
X0015958Y-0006083D02*
X0015875Y-0005917D01*
Y-0005250D01*
X0015958Y-0005083D01*
X0016458D01*
X0016542Y-0005250D01*
Y-0005917D01*
X0016458Y-0006083D01*
X0015958D01*
X0015258D02*
Y-0005083D01*
X0015592D02*
X0014925D01*
X0009587Y-0006083D02*
Y-0005083D01*
X0009421Y-0005250D01*
X0009254Y-0005583D01*
X0009087Y-0005250D01*
X0008921Y-0005083D01*
Y-0006083D01*
X0008637Y-0005750D02*
X0007971D01*
X0008637Y-0006083D02*
Y-0005583D01*
X0008387Y-0005083D01*
X0008221D01*
X0007971Y-0005583D01*
Y-0006083D01*
X0007687D02*
X0007354D01*
X0007521D02*
Y-0005083D01*
X0007687D02*
X0007354D01*
X0006321Y-0006083D02*
Y-0005083D01*
X0006237Y-0006083D02*
X0006737D01*
X0006904Y-0005750D01*
Y-0005417D01*
X0006737Y-0005083D01*
X0006237D01*
X0003150Y-0006083D02*
Y-0005083D01*
X0002983Y-0005250D01*
X0002817Y-0005583D01*
X0002650Y-0005250D01*
X0002483Y-0005083D01*
Y-0006083D01*
X0001867D02*
Y-0005583D01*
X0002200Y-0005083D02*
X0001950Y-0005583D01*
X0001783D01*
X0001533Y-0005083D01*
X0001250Y-0005250D02*
X0001167Y-0005083D01*
X0000667D01*
X0000583Y-0005250D01*
Y-0005417D01*
X0000667Y-0005583D01*
X0001167D01*
X0001250Y-0005750D01*
Y-0005917D01*
X0001167Y-0006083D01*
X0000667D01*
X0000583Y-0005917D01*
X0023437Y-0004083D02*
Y-0003083D01*
X0023771D02*
X0023104D01*
X0022571Y-0003583D02*
X0022821Y-0004083D01*
X0022154Y-0003583D02*
X0022654D01*
X0022821Y-0003417D01*
Y-0003250D01*
X0022654Y-0003083D01*
X0022154D01*
Y-0004083D01*
X0021871Y-0003750D02*
X0021204D01*
X0021871Y-0004083D02*
Y-0003583D01*
X0021621Y-0003083D01*
X0021454D01*
X0021204Y-0003583D01*
Y-0004083D01*
X0020921Y-0003583D02*
X0020254D01*
X0020921Y-0004083D02*
Y-0003083D01*
X0020254Y-0004083D02*
Y-0003083D01*
X0019971Y-0003917D02*
X0019887Y-0004083D01*
X0019387D01*
X0019304Y-0003917D01*
Y-0003250D01*
X0019387Y-0003083D01*
X0019887D01*
X0019971Y-0003250D01*
X0017696Y-0004083D02*
X0017112D01*
Y-0003083D01*
X0016829Y-0004083D02*
X0016246D01*
Y-0003083D01*
X0015962Y-0004083D02*
X0015629D01*
X0015796D02*
Y-0003083D01*
X0015962D02*
X0015629D01*
X0014929Y-0003583D02*
X0015179Y-0004083D01*
X0014512Y-0003583D02*
X0015012D01*
X0015179Y-0003417D01*
Y-0003250D01*
X0015012Y-0003083D01*
X0014512D01*
Y-0004083D01*
X0013646D02*
Y-0003083D01*
X0013562Y-0004083D02*
X0014062D01*
X0014229Y-0003750D01*
Y-0003417D01*
X0014062Y-0003083D01*
X0013562D01*
X0019250Y0005550D02*
Y0004550D01*
X0020250Y0005550D02*
X0019250D01*
X0020250Y0004550D02*
Y0005550D01*
X0019250Y0004550D02*
X0020250D01*
Y0005050D02*
X0019250D01*
X0019750Y0005550D02*
Y0004550D01*
X0022000Y0005700D02*
Y0004700D01*
X0023000Y0005700D02*
X0022000D01*
X0023000Y0004700D02*
Y0005700D01*
X0022000Y0004700D02*
X0023000D01*
Y0005200D02*
X0022000D01*
X0022500Y0005700D02*
Y0004700D01*
X0009500Y0004250D02*
Y0003250D01*
X0010500Y0004250D02*
X0009500D01*
X0010500Y0003250D02*
Y0004250D01*
X0009500Y0003250D02*
X0010500D01*
Y0003750D02*
X0009500D01*
X0010000Y0004250D02*
Y0003250D01*
X0010250Y0005800D02*
Y0004800D01*
X0011250Y0005800D02*
X0010250D01*
X0011250Y0004800D02*
Y0005800D01*
X0010250Y0004800D02*
X0011250D01*
Y0005300D02*
X0010250D01*
X0010750Y0005800D02*
Y0004800D01*
X0018000Y0006700D02*
Y0005700D01*
X0019000Y0006700D02*
X0018000D01*
X0019000Y0005700D02*
Y0006700D01*
X0018000Y0005700D02*
X0019000D01*
Y0006200D02*
X0018000D01*
X0018500Y0006700D02*
Y0005700D01*
X0026450Y0014350D02*
Y0013350D01*
X0027450Y0014350D02*
X0026450D01*
X0027450Y0013350D02*
Y0014350D01*
X0026450Y0013350D02*
X0027450D01*
Y0013850D02*
X0026450D01*
X0026950Y0014350D02*
Y0013350D01*
X0023900Y0011700D02*
Y0010700D01*
X0024900Y0011700D02*
X0023900D01*
X0024900Y0010700D02*
Y0011700D01*
X0023900Y0010700D02*
X0024900D01*
Y0011200D02*
X0023900D01*
X0024400Y0011700D02*
Y0010700D01*
X0015500Y0005500D02*
Y0004500D01*
X0016500Y0005500D02*
X0015500D01*
X0016500Y0004500D02*
Y0005500D01*
X0015500Y0004500D02*
X0016500D01*
Y0005000D02*
X0015500D01*
X0016000Y0005500D02*
Y0004500D01*
X0011700Y0004250D02*
Y0003250D01*
X0012700Y0004250D02*
X0011700D01*
X0012700Y0003250D02*
Y0004250D01*
X0011700Y0003250D02*
X0012700D01*
Y0003750D02*
X0011700D01*
X0012200Y0004250D02*
Y0003250D01*
X0022700Y0007750D02*
Y0006750D01*
X0023700Y0007750D02*
X0022700D01*
X0023700Y0006750D02*
Y0007750D01*
X0022700Y0006750D02*
X0023700D01*
Y0007250D02*
X0022700D01*
X0023200Y0007750D02*
Y0006750D01*
X0024550Y0008150D02*
Y0007150D01*
X0025550Y0008150D02*
X0024550D01*
X0025550Y0007150D02*
Y0008150D01*
X0024550Y0007150D02*
X0025550D01*
Y0007650D02*
X0024550D01*
X0025050Y0008150D02*
Y0007150D01*
X0026650Y0008200D02*
Y0007200D01*
X0027650Y0008200D02*
X0026650D01*
X0027650Y0007200D02*
Y0008200D01*
X0026650Y0007200D02*
X0027650D01*
Y0007700D02*
X0026650D01*
X0027150Y0008200D02*
Y0007200D01*
X0022700Y0007750D02*
Y0006750D01*
X0023700Y0007750D02*
X0022700D01*
X0023700Y0006750D02*
Y0007750D01*
X0022700Y0006750D02*
X0023700D01*
Y0007250D02*
X0022700D01*
X0023200Y0007750D02*
Y0006750D01*
X0025350Y0011000D02*
Y0010000D01*
X0026350Y0011000D02*
X0025350D01*
X0026350Y0010000D02*
Y0011000D01*
X0025350Y0010000D02*
X0026350D01*
Y0010500D02*
X0025350D01*
X0025850Y0011000D02*
Y0010000D01*
X0027100Y0010650D02*
Y0009650D01*
X0028100Y0010650D02*
X0027100D01*
X0028100Y0009650D02*
Y0010650D01*
X0027100Y0009650D02*
X0028100D01*
Y0010150D02*
X0027100D01*
X0027600Y0010650D02*
Y0009650D01*
X0030250Y0011450D02*
Y0010450D01*
X0031250Y0011450D02*
X0030250D01*
X0031250Y0010450D02*
Y0011450D01*
X0030250Y0010450D02*
X0031250D01*
Y0010950D02*
X0030250D01*
X0030750Y0011450D02*
Y0010450D01*
X0030250Y0011450D02*
Y0010450D01*
X0031250Y0011450D02*
X0030250D01*
X0031250Y0010450D02*
Y0011450D01*
X0030250Y0010450D02*
X0031250D01*
Y0010950D02*
X0030250D01*
X0030750Y0011450D02*
Y0010450D01*
X0025350Y0011000D02*
Y0010000D01*
X0026350Y0011000D02*
X0025350D01*
X0026350Y0010000D02*
Y0011000D01*
X0025350Y0010000D02*
X0026350D01*
Y0010500D02*
X0025350D01*
X0025850Y0011000D02*
Y0010000D01*
X0026350Y0012650D02*
Y0011650D01*
X0027350Y0012650D02*
X0026350D01*
X0027350Y0011650D02*
Y0012650D01*
X0026350Y0011650D02*
X0027350D01*
Y0012150D02*
X0026350D01*
X0026850Y0012650D02*
Y0011650D01*
X0024550Y0008150D02*
Y0007150D01*
X0025550Y0008150D02*
X0024550D01*
X0025550Y0007150D02*
Y0008150D01*
X0024550Y0007150D02*
X0025550D01*
Y0007650D02*
X0024550D01*
X0025050Y0008150D02*
Y0007150D01*
X0022700Y0007750D02*
Y0006750D01*
X0023700Y0007750D02*
X0022700D01*
X0023700Y0006750D02*
Y0007750D01*
X0022700Y0006750D02*
X0023700D01*
Y0007250D02*
X0022700D01*
X0023200Y0007750D02*
Y0006750D01*
X0009150Y0005250D02*
Y0004250D01*
X0010150Y0005250D02*
X0009150D01*
X0010150Y0004250D02*
Y0005250D01*
X0009150Y0004250D02*
X0010150D01*
Y0004750D02*
X0009150D01*
X0009650Y0005250D02*
Y0004250D01*
X0014250Y0006250D02*
Y0005250D01*
X0015250Y0006250D02*
X0014250D01*
X0015250Y0005250D02*
Y0006250D01*
X0014250Y0005250D02*
X0015250D01*
Y0005750D02*
X0014250D01*
X0014750Y0006250D02*
Y0005250D01*
X0027100Y0010650D02*
Y0009650D01*
X0028100Y0010650D02*
X0027100D01*
X0028100Y0009650D02*
Y0010650D01*
X0027100Y0009650D02*
X0028100D01*
Y0010150D02*
X0027100D01*
X0027600Y0010650D02*
Y0009650D01*
X0012163Y0012713D02*
Y0011713D01*
X0013163Y0012713D02*
X0012163D01*
X0013163Y0011713D02*
Y0012713D01*
X0012163Y0011713D02*
X0013163D01*
Y0012213D02*
X0012163D01*
X0012663Y0012713D02*
Y0011713D01*
X0013670Y0010970D02*
Y0009970D01*
X0014670Y0010970D02*
X0013670D01*
X0014670Y0009970D02*
Y0010970D01*
X0013670Y0009970D02*
X0014670D01*
Y0010470D02*
X0013670D01*
X0014170Y0010970D02*
Y0009970D01*
X0010700Y0008050D02*
Y0007050D01*
X0011700Y0008050D02*
X0010700D01*
X0011700Y0007050D02*
Y0008050D01*
X0010700Y0007050D02*
X0011700D01*
Y0007550D02*
X0010700D01*
X0011200Y0008050D02*
Y0007050D01*
X0031600Y0013100D02*
Y0012100D01*
X0032600Y0013100D02*
X0031600D01*
X0032600Y0012100D02*
Y0013100D01*
X0031600Y0012100D02*
X0032600D01*
Y0012600D02*
X0031600D01*
X0032100Y0013100D02*
Y0012100D01*
X0035750Y0012500D02*
Y0011500D01*
X0036750Y0012500D02*
X0035750D01*
X0036750Y0011500D02*
Y0012500D01*
X0035750Y0011500D02*
X0036750D01*
Y0012000D02*
X0035750D01*
X0036250Y0012500D02*
Y0011500D01*
X0035750Y0012500D02*
Y0011500D01*
X0036750Y0012500D02*
X0035750D01*
X0036750Y0011500D02*
Y0012500D01*
X0035750Y0011500D02*
X0036750D01*
Y0012000D02*
X0035750D01*
X0036250Y0012500D02*
Y0011500D01*
X0031600Y0013100D02*
Y0012100D01*
X0032600Y0013100D02*
X0031600D01*
X0032600Y0012100D02*
Y0013100D01*
X0031600Y0012100D02*
X0032600D01*
Y0012600D02*
X0031600D01*
X0032100Y0013100D02*
Y0012100D01*
X0028550Y0006750D02*
Y0005750D01*
X0029550Y0006750D02*
X0028550D01*
X0029550Y0005750D02*
Y0006750D01*
X0028550Y0005750D02*
X0029550D01*
Y0006250D02*
X0028550D01*
X0029050Y0006750D02*
Y0005750D01*
X0013670Y0010970D02*
Y0009970D01*
X0014670Y0010970D02*
X0013670D01*
X0014670Y0009970D02*
Y0010970D01*
X0013670Y0009970D02*
X0014670D01*
Y0010470D02*
X0013670D01*
X0014170Y0010970D02*
Y0009970D01*
X0012163Y0012713D02*
Y0011713D01*
X0013163Y0012713D02*
X0012163D01*
X0013163Y0011713D02*
Y0012713D01*
X0012163Y0011713D02*
X0013163D01*
Y0012213D02*
X0012163D01*
X0012663Y0012713D02*
Y0011713D01*
X0009150Y0005250D02*
Y0004250D01*
X0010150Y0005250D02*
X0009150D01*
X0010150Y0004250D02*
Y0005250D01*
X0009150Y0004250D02*
X0010150D01*
Y0004750D02*
X0009150D01*
X0009650Y0005250D02*
Y0004250D01*
X0009150Y0005250D02*
Y0004250D01*
X0010150Y0005250D02*
X0009150D01*
X0010150Y0004250D02*
Y0005250D01*
X0009150Y0004250D02*
X0010150D01*
Y0004750D02*
X0009150D01*
X0009650Y0005250D02*
Y0004250D01*
X0027375Y0004925D02*
Y0003925D01*
X0028375Y0004925D02*
X0027375D01*
X0028375Y0003925D02*
Y0004925D01*
X0027375Y0003925D02*
X0028375D01*
Y0004425D02*
X0027375D01*
X0027875Y0004925D02*
Y0003925D01*
X0026100Y0008250D02*
Y0007250D01*
X0027100Y0008250D02*
X0026100D01*
X0027100Y0007250D02*
Y0008250D01*
X0026100Y0007250D02*
X0027100D01*
Y0007750D02*
X0026100D01*
X0026600Y0008250D02*
Y0007250D01*
X0030750Y0009750D02*
Y0008750D01*
X0031750Y0009750D02*
X0030750D01*
X0031750Y0008750D02*
Y0009750D01*
X0030750Y0008750D02*
X0031750D01*
Y0009250D02*
X0030750D01*
X0031250Y0009750D02*
Y0008750D01*
X0030350Y0012250D02*
Y0011250D01*
X0031350Y0012250D02*
X0030350D01*
X0031350Y0011250D02*
Y0012250D01*
X0030350Y0011250D02*
X0031350D01*
Y0011750D02*
X0030350D01*
X0030850Y0012250D02*
Y0011250D01*
X0028600Y0007250D02*
Y0006250D01*
X0029600Y0007250D02*
X0028600D01*
X0029600Y0006250D02*
Y0007250D01*
X0028600Y0006250D02*
X0029600D01*
Y0006750D02*
X0028600D01*
X0029100Y0007250D02*
Y0006250D01*
X0028600Y0013500D02*
Y0012500D01*
X0029600Y0013500D02*
X0028600D01*
X0029600Y0012500D02*
Y0013500D01*
X0028600Y0012500D02*
X0029600D01*
Y0013000D02*
X0028600D01*
X0029100Y0013500D02*
Y0012500D01*
X0026100Y0008250D02*
Y0007250D01*
X0027100Y0008250D02*
X0026100D01*
X0027100Y0007250D02*
Y0008250D01*
X0026100Y0007250D02*
X0027100D01*
Y0007750D02*
X0026100D01*
X0026600Y0008250D02*
Y0007250D01*
X0026300Y0009000D02*
Y0008000D01*
X0027300Y0009000D02*
X0026300D01*
X0027300Y0008000D02*
Y0009000D01*
X0026300Y0008000D02*
X0027300D01*
Y0008500D02*
X0026300D01*
X0026800Y0009000D02*
Y0008000D01*
X0031350Y0012550D02*
Y0011550D01*
X0032350Y0012550D02*
X0031350D01*
X0032350Y0011550D02*
Y0012550D01*
X0031350Y0011550D02*
X0032350D01*
Y0012050D02*
X0031350D01*
X0031850Y0012550D02*
Y0011550D01*
X0031350Y0009400D02*
Y0008400D01*
X0032350Y0009400D02*
X0031350D01*
X0032350Y0008400D02*
Y0009400D01*
X0031350Y0008400D02*
X0032350D01*
Y0008900D02*
X0031350D01*
X0031850Y0009400D02*
Y0008400D01*
X0015550Y0006700D02*
Y0005700D01*
X0016550Y0006700D02*
X0015550D01*
X0016550Y0005700D02*
Y0006700D01*
X0015550Y0005700D02*
X0016550D01*
Y0006200D02*
X0015550D01*
X0016050Y0006700D02*
Y0005700D01*
X0011750Y0007450D02*
Y0006450D01*
X0012750Y0007450D02*
X0011750D01*
X0012750Y0006450D02*
Y0007450D01*
X0011750Y0006450D02*
X0012750D01*
Y0006950D02*
X0011750D01*
X0012250Y0007450D02*
Y0006450D01*
X0013280Y0007030D02*
Y0006030D01*
X0014280Y0007030D02*
X0013280D01*
X0014280Y0006030D02*
Y0007030D01*
X0013280Y0006030D02*
X0014280D01*
Y0006530D02*
X0013280D01*
X0013780Y0007030D02*
Y0006030D01*
X0008150Y0006450D02*
Y0005450D01*
X0009150Y0006450D02*
X0008150D01*
X0009150Y0005450D02*
Y0006450D01*
X0008150Y0005450D02*
X0009150D01*
Y0005950D02*
X0008150D01*
X0008650Y0006450D02*
Y0005450D01*
X0023850Y0006600D02*
Y0005600D01*
X0024850Y0006600D02*
X0023850D01*
X0024850Y0005600D02*
Y0006600D01*
X0023850Y0005600D02*
X0024850D01*
Y0006100D02*
X0023850D01*
X0024350Y0006600D02*
Y0005600D01*
X0023170Y0004720D02*
Y0003720D01*
X0024170Y0004720D02*
X0023170D01*
X0024170Y0003720D02*
Y0004720D01*
X0023170Y0003720D02*
X0024170D01*
Y0004220D02*
X0023170D01*
X0023670Y0004720D02*
Y0003720D01*
X0009150Y0009400D02*
Y0008400D01*
X0010150Y0009400D02*
X0009150D01*
X0010150Y0008400D02*
Y0009400D01*
X0009150Y0008400D02*
X0010150D01*
Y0008900D02*
X0009150D01*
X0009650Y0009400D02*
Y0008400D01*
X0031000Y0009000D02*
Y0008000D01*
X0032000Y0009000D02*
X0031000D01*
X0032000Y0008000D02*
Y0009000D01*
X0031000Y0008000D02*
X0032000D01*
Y0008500D02*
X0031000D01*
X0031500Y0009000D02*
Y0008000D01*
X0029600Y0009250D02*
Y0008250D01*
X0030600Y0009250D02*
X0029600D01*
X0030600Y0008250D02*
Y0009250D01*
X0029600Y0008250D02*
X0030600D01*
Y0008750D02*
X0029600D01*
X0030100Y0009250D02*
Y0008250D01*
X0027850Y0011350D02*
Y0010350D01*
X0028850Y0011350D02*
X0027850D01*
X0028850Y0010350D02*
Y0011350D01*
X0027850Y0010350D02*
X0028850D01*
Y0010850D02*
X0027850D01*
X0028350Y0011350D02*
Y0010350D01*
X0027500Y0007000D02*
Y0006000D01*
X0028500Y0007000D02*
X0027500D01*
X0028500Y0006000D02*
Y0007000D01*
X0027500Y0006000D02*
X0028500D01*
Y0006500D02*
X0027500D01*
X0028000Y0007000D02*
Y0006000D01*
X0010250Y0005200D02*
Y0004200D01*
X0011250Y0005200D02*
X0010250D01*
X0011250Y0004200D02*
Y0005200D01*
X0010250Y0004200D02*
X0011250D01*
Y0004700D02*
X0010250D01*
X0010750Y0005200D02*
Y0004200D01*
X0010000Y0004500D02*
Y0003500D01*
X0011000Y0004500D02*
X0010000D01*
X0011000Y0003500D02*
Y0004500D01*
X0010000Y0003500D02*
X0011000D01*
Y0004000D02*
X0010000D01*
X0010500Y0004500D02*
Y0003500D01*
X0026750Y0011300D02*
Y0010300D01*
X0027750Y0011300D02*
X0026750D01*
X0027750Y0010300D02*
Y0011300D01*
X0026750Y0010300D02*
X0027750D01*
Y0010800D02*
X0026750D01*
X0027250Y0011300D02*
Y0010300D01*
X0027100Y0014300D02*
Y0013300D01*
X0028100Y0014300D02*
X0027100D01*
X0028100Y0013300D02*
Y0014300D01*
X0027100Y0013300D02*
X0028100D01*
Y0013800D02*
X0027100D01*
X0027600Y0014300D02*
Y0013300D01*
X0020300Y0006850D02*
Y0005850D01*
X0021300Y0006850D02*
X0020300D01*
X0021300Y0005850D02*
Y0006850D01*
X0020300Y0005850D02*
X0021300D01*
Y0006350D02*
X0020300D01*
X0020800Y0006850D02*
Y0005850D01*
X0016000Y0008150D02*
Y0007150D01*
X0017000Y0008150D02*
X0016000D01*
X0017000Y0007150D02*
Y0008150D01*
X0016000Y0007150D02*
X0017000D01*
Y0007650D02*
X0016000D01*
X0016500Y0008150D02*
Y0007150D01*
X0015550Y0006700D02*
Y0005700D01*
X0016550Y0006700D02*
X0015550D01*
X0016550Y0005700D02*
Y0006700D01*
X0015550Y0005700D02*
X0016550D01*
Y0006200D02*
X0015550D01*
X0016050Y0006700D02*
Y0005700D01*
X0022742Y0004192D02*
Y0003192D01*
X0023742Y0004192D02*
X0022742D01*
X0023742Y0003192D02*
Y0004192D01*
X0022742Y0003192D02*
X0023742D01*
Y0003692D02*
X0022742D01*
X0023242Y0004192D02*
Y0003192D01*
X0020992Y0004192D02*
Y0003192D01*
X0021992Y0004192D02*
X0020992D01*
X0021992Y0003192D02*
Y0004192D01*
X0020992Y0003192D02*
X0021992D01*
Y0003692D02*
X0020992D01*
X0021492Y0004192D02*
Y0003192D01*
X0028600Y0014350D02*
Y0013350D01*
X0029600Y0014350D02*
X0028600D01*
X0029600Y0013350D02*
Y0014350D01*
X0028600Y0013350D02*
X0029600D01*
Y0013850D02*
X0028600D01*
X0029100Y0014350D02*
Y0013350D01*
X0029700Y0006750D02*
Y0005750D01*
X0030700Y0006750D02*
X0029700D01*
X0030700Y0005750D02*
Y0006750D01*
X0029700Y0005750D02*
X0030700D01*
Y0006250D02*
X0029700D01*
X0030200Y0006750D02*
Y0005750D01*
X0027100Y0010050D02*
Y0009050D01*
X0028100Y0010050D02*
X0027100D01*
X0028100Y0009050D02*
Y0010050D01*
X0027100Y0009050D02*
X0028100D01*
Y0009550D02*
X0027100D01*
X0027600Y0010050D02*
Y0009050D01*
X0011700Y0010950D02*
Y0009950D01*
X0012700Y0010950D02*
X0011700D01*
X0012700Y0009950D02*
Y0010950D01*
X0011700Y0009950D02*
X0012700D01*
Y0010450D02*
X0011700D01*
X0012200Y0010950D02*
Y0009950D01*
X0027850Y0011350D02*
Y0010350D01*
X0028850Y0011350D02*
X0027850D01*
X0028850Y0010350D02*
Y0011350D01*
X0027850Y0010350D02*
X0028850D01*
Y0010850D02*
X0027850D01*
X0028350Y0011350D02*
Y0010350D01*
X0027850Y0014300D02*
Y0013300D01*
X0028850Y0014300D02*
X0027850D01*
X0028850Y0013300D02*
Y0014300D01*
X0027850Y0013300D02*
X0028850D01*
Y0013800D02*
X0027850D01*
X0028350Y0014300D02*
Y0013300D01*
X0030500Y0014750D02*
Y0013750D01*
X0031500Y0014750D02*
X0030500D01*
X0031500Y0013750D02*
Y0014750D01*
X0030500Y0013750D02*
X0031500D01*
Y0014250D02*
X0030500D01*
X0031000Y0014750D02*
Y0013750D01*
X0034750Y0014750D02*
Y0013750D01*
X0035750Y0014750D02*
X0034750D01*
X0035750Y0013750D02*
Y0014750D01*
X0034750Y0013750D02*
X0035750D01*
Y0014250D02*
X0034750D01*
X0035250Y0014750D02*
Y0013750D01*
X0010700Y0008050D02*
Y0007050D01*
X0011700Y0008050D02*
X0010700D01*
X0011700Y0007050D02*
Y0008050D01*
X0010700Y0007050D02*
X0011700D01*
Y0007550D02*
X0010700D01*
X0011200Y0008050D02*
Y0007050D01*
X0025500Y0014900D02*
Y0013900D01*
X0026500Y0014900D02*
X0025500D01*
X0026500Y0013900D02*
Y0014900D01*
X0025500Y0013900D02*
X0026500D01*
Y0014400D02*
X0025500D01*
X0026000Y0014900D02*
Y0013900D01*
X0015500Y0007150D02*
Y0006150D01*
X0016500Y0007150D02*
X0015500D01*
X0016500Y0006150D02*
Y0007150D01*
X0015500Y0006150D02*
X0016500D01*
Y0006650D02*
X0015500D01*
X0016000Y0007150D02*
Y0006150D01*
X0011750Y0007450D02*
Y0006450D01*
X0012750Y0007450D02*
X0011750D01*
X0012750Y0006450D02*
Y0007450D01*
X0011750Y0006450D02*
X0012750D01*
Y0006950D02*
X0011750D01*
X0012250Y0007450D02*
Y0006450D01*
X0010500Y0006750D02*
Y0005750D01*
X0011500Y0006750D02*
X0010500D01*
X0011500Y0005750D02*
Y0006750D01*
X0010500Y0005750D02*
X0011500D01*
Y0006250D02*
X0010500D01*
X0011000Y0006750D02*
Y0005750D01*
X0001575Y-0022250D02*
Y-0022750D01*
X0002075Y-0022250D02*
X0001575D01*
X0002075Y-0022750D02*
Y-0022250D01*
X0001575Y-0022750D02*
X0002075D01*
Y-0022500D02*
X0001575D01*
X0001825Y-0022250D02*
Y-0022750D01*
X0001575Y-0020750D02*
Y-0021250D01*
X0002075Y-0020750D02*
X0001575D01*
X0002075Y-0021250D02*
Y-0020750D01*
X0001575Y-0021250D02*
X0002075D01*
Y-0020750D02*
X0001575Y-0021250D01*
X0002075D02*
X0001575Y-0020750D01*
X0002075Y-0019500D02*
X0001575D01*
X0001825Y-0019250D02*
Y-0019750D01*
X0001575Y-0017900D02*
Y-0018100D01*
X0001725Y-0017750D02*
X0001575Y-0017900D01*
X0001925Y-0017750D02*
X0001725D01*
X0002075Y-0017900D02*
X0001925Y-0017750D01*
X0002075Y-0018100D02*
Y-0017900D01*
X0001925Y-0018250D02*
X0002075Y-0018100D01*
X0001725Y-0018250D02*
X0001925D01*
X0001575Y-0018100D02*
X0001725Y-0018250D01*
X0001775Y-0017900D02*
Y-0017850D01*
X0001725Y-0017900D02*
X0001775D01*
X0001725Y-0017850D02*
Y-0017900D01*
X0001775Y-0017850D02*
X0001725D01*
X0001875D02*
Y-0017900D01*
X0001925Y-0017850D02*
X0001875D01*
X0001925Y-0017900D02*
Y-0017850D01*
X0001875Y-0017900D02*
X0001925D01*
X0001775Y-0018150D02*
X0001675Y-0018050D01*
X0001875Y-0018150D02*
X0001775D01*
X0001975Y-0018050D02*
X0001875Y-0018150D01*
X0001575Y-0016400D02*
Y-0016600D01*
X0001825Y-0016650D02*
X0001575Y-0016400D01*
X0002075D02*
X0001825Y-0016650D01*
X0002075Y-0016600D02*
Y-0016400D01*
X0001825Y-0016350D02*
X0002075Y-0016600D01*
X0001575D02*
X0001825Y-0016350D01*
X0001575Y-0014900D02*
Y-0015100D01*
X0001725Y-0014750D02*
X0001575Y-0014900D01*
X0001925Y-0014750D02*
X0001725D01*
X0002075Y-0014900D02*
X0001925Y-0014750D01*
X0002075Y-0015100D02*
Y-0014900D01*
X0001925Y-0015250D02*
X0002075Y-0015100D01*
X0001725Y-0015250D02*
X0001925D01*
X0001575Y-0015100D02*
X0001725Y-0015250D01*
X0001575Y-0013250D02*
Y-0013500D01*
X0001825Y-0013250D02*
X0001575D01*
X0001825Y-0013750D02*
Y-0013250D01*
X0002075Y-0013750D02*
X0001825D01*
X0002075Y-0013500D02*
Y-0013750D01*
X0001575Y-0013500D02*
X0002075D01*
X0001825Y-0011750D02*
X0001575Y-0012000D01*
X0002075D02*
X0001825Y-0011750D01*
Y-0012250D02*
X0002075Y-0012000D01*
X0001575D02*
X0001825Y-0012250D01*
Y-0010350D02*
X0001575Y-0010600D01*
X0002075D02*
X0001825Y-0010350D01*
X0001575Y-0010600D02*
X0002075D01*
Y-0008750D02*
X0001575Y-0009250D01*
X0002075D02*
X0001575Y-0008750D01*
X0001325Y-0007000D02*
Y-0008000D01*
X0002325Y-0007000D02*
X0001325D01*
X0002325Y-0008000D02*
Y-0007000D01*
X0001325Y-0008000D02*
X0002325D01*
Y-0007500D02*
X0001325D01*
X0001825Y-0007000D02*
Y-0008000D01*
X0037300Y-0025300D02*
X-0000050D01*
X0037250Y-0025250D02*
X0000000D01*
X0037250Y-0023250D02*
X0000000D01*
X0037250Y-0021750D02*
X0000000D01*
X0037250Y-0020250D02*
X0000000D01*
X0037250Y-0018750D02*
X0000000D01*
X0037250Y-0017250D02*
X0000000D01*
X0037250Y-0015750D02*
X0000000D01*
X0037250Y-0014250D02*
X0000000D01*
X0037250Y-0012750D02*
X0000000D01*
X0037250Y-0011250D02*
X0000000D01*
X0037250Y-0009750D02*
X0000000D01*
X0037250Y-0008250D02*
X0000000D01*
X0037250Y-0006750D02*
X0000000D01*
X0037250Y-0006700D02*
X0000000D01*
X0037250Y-0004750D02*
X0000000D01*
X0037250Y-0004700D02*
X0000000D01*
X0037250Y-0002750D02*
X0000000D01*
X0037300Y-0002700D02*
X-0000050D01*
X0037300Y-0025250D02*
Y-0002750D01*
X0037250Y-0025250D02*
Y-0002750D01*
X0025708Y-0025250D02*
Y-0004750D01*
X0020158Y-0025250D02*
Y-0004750D01*
X0012092Y-0023250D02*
Y-0004750D01*
X0003700Y-0023250D02*
Y-0004750D01*
X0003650Y-0023250D02*
Y-0004750D01*
X-0000050Y-0025250D02*
Y-0002750D01*
X0000000Y-0025250D02*
Y-0002750D01*
X0028500Y0005000D02*
Y0004000D01*
X0029500Y0005000D02*
X0028500D01*
X0029500Y0004000D02*
Y0005000D01*
X0028500Y0004000D02*
X0029500D01*
Y0004500D02*
X0028500D01*
X0029000Y0005000D02*
Y0004000D01*
X0028500Y0004500D02*
Y0003500D01*
X0029500Y0004500D02*
X0028500D01*
X0029500Y0003500D02*
Y0004500D01*
X0028500Y0003500D02*
X0029500D01*
Y0004000D02*
X0028500D01*
X0029000Y0004500D02*
Y0003500D01*
X0031000Y0001500D02*
Y0000500D01*
X0032000Y0001500D02*
X0031000D01*
X0032000Y0000500D02*
Y0001500D01*
X0031000Y0000500D02*
X0032000D01*
Y0001000D02*
X0031000D01*
X0031500Y0001500D02*
Y0000500D01*
X0031000Y0002000D02*
Y0001000D01*
X0032000Y0002000D02*
X0031000D01*
X0032000Y0001000D02*
Y0002000D01*
X0031000Y0001000D02*
X0032000D01*
Y0001500D02*
X0031000D01*
X0031500Y0002000D02*
Y0001000D01*
X0031000Y0002500D02*
Y0001500D01*
X0032000Y0002500D02*
X0031000D01*
X0032000Y0001500D02*
Y0002500D01*
X0031000Y0001500D02*
X0032000D01*
Y0002000D02*
X0031000D01*
X0031500Y0002500D02*
Y0001500D01*
X0032500Y0003000D02*
Y0002000D01*
X0033500Y0003000D02*
X0032500D01*
X0033500Y0002000D02*
Y0003000D01*
X0032500Y0002000D02*
X0033500D01*
Y0002500D02*
X0032500D01*
X0033000Y0003000D02*
Y0002000D01*
X0032000Y0003000D02*
Y0002000D01*
X0033000Y0003000D02*
X0032000D01*
X0033000Y0002000D02*
Y0003000D01*
X0032000Y0002000D02*
X0033000D01*
Y0002500D02*
X0032000D01*
X0032500Y0003000D02*
Y0002000D01*
X0031500Y0003000D02*
Y0002000D01*
X0032500Y0003000D02*
X0031500D01*
X0032500Y0002000D02*
Y0003000D01*
X0031500Y0002000D02*
X0032500D01*
Y0002500D02*
X0031500D01*
X0032000Y0003000D02*
Y0002000D01*
X0031000Y0003000D02*
Y0002000D01*
X0032000Y0003000D02*
X0031000D01*
X0032000Y0002000D02*
Y0003000D01*
X0031000Y0002000D02*
X0032000D01*
Y0002500D02*
X0031000D01*
X0031500Y0003000D02*
Y0002000D01*
X0030500Y0003000D02*
Y0002000D01*
X0031500Y0003000D02*
X0030500D01*
X0031500Y0002000D02*
Y0003000D01*
X0030500Y0002000D02*
X0031500D01*
Y0002500D02*
X0030500D01*
X0031000Y0003000D02*
Y0002000D01*
X0030000Y0003000D02*
Y0002000D01*
X0031000Y0003000D02*
X0030000D01*
X0031000Y0002000D02*
Y0003000D01*
X0030000Y0002000D02*
X0031000D01*
Y0002500D02*
X0030000D01*
X0030500Y0003000D02*
Y0002000D01*
X0029500Y0003000D02*
Y0002000D01*
X0030500Y0003000D02*
X0029500D01*
X0030500Y0002000D02*
Y0003000D01*
X0029500Y0002000D02*
X0030500D01*
Y0002500D02*
X0029500D01*
X0030000Y0003000D02*
Y0002000D01*
X0029000Y0003000D02*
Y0002000D01*
X0030000Y0003000D02*
X0029000D01*
X0030000Y0002000D02*
Y0003000D01*
X0029000Y0002000D02*
X0030000D01*
Y0002500D02*
X0029000D01*
X0029500Y0003000D02*
Y0002000D01*
X0028500Y0003000D02*
Y0002000D01*
X0029500Y0003000D02*
X0028500D01*
X0029500Y0002000D02*
Y0003000D01*
X0028500Y0002000D02*
X0029500D01*
Y0002500D02*
X0028500D01*
X0029000Y0003000D02*
Y0002000D01*
X0028500Y0002500D02*
Y0001500D01*
X0029500Y0002500D02*
X0028500D01*
X0029500Y0001500D02*
Y0002500D01*
X0028500Y0001500D02*
X0029500D01*
Y0002000D02*
X0028500D01*
X0029000Y0002500D02*
Y0001500D01*
X0028500Y0002000D02*
Y0001000D01*
X0029500Y0002000D02*
X0028500D01*
X0029500Y0001000D02*
Y0002000D01*
X0028500Y0001000D02*
X0029500D01*
Y0001500D02*
X0028500D01*
X0029000Y0002000D02*
Y0001000D01*
X0028500Y0001500D02*
Y0000500D01*
X0029500Y0001500D02*
X0028500D01*
X0029500Y0000500D02*
Y0001500D01*
X0028500Y0000500D02*
X0029500D01*
Y0001000D02*
X0028500D01*
X0029000Y0001500D02*
Y0000500D01*
X0028500Y0001000D02*
Y0000000D01*
X0029500Y0001000D02*
X0028500D01*
X0029500Y0000000D02*
Y0001000D01*
X0028500Y0000000D02*
X0029500D01*
Y0000500D02*
X0028500D01*
X0029000Y0001000D02*
Y0000000D01*
Y0001000D02*
Y0000000D01*
X0030000Y0001000D02*
X0029000D01*
X0030000Y0000000D02*
Y0001000D01*
X0029000Y0000000D02*
X0030000D01*
Y0000500D02*
X0029000D01*
X0029500Y0001000D02*
Y0000000D01*
Y0001000D02*
Y0000000D01*
X0030500Y0001000D02*
X0029500D01*
X0030500Y0000000D02*
Y0001000D01*
X0029500Y0000000D02*
X0030500D01*
Y0000500D02*
X0029500D01*
X0030000Y0001000D02*
Y0000000D01*
Y0001000D02*
Y0000000D01*
X0031000Y0001000D02*
X0030000D01*
X0031000Y0000000D02*
Y0001000D01*
X0030000Y0000000D02*
X0031000D01*
Y0000500D02*
X0030000D01*
X0030500Y0001000D02*
Y0000000D01*
Y0001000D02*
Y0000000D01*
X0031500Y0001000D02*
X0030500D01*
X0031500Y0000000D02*
Y0001000D01*
X0030500Y0000000D02*
X0031500D01*
Y0000500D02*
X0030500D01*
X0031000Y0001000D02*
Y0000000D01*
Y0001000D02*
Y0000000D01*
X0032000Y0001000D02*
X0031000D01*
X0032000Y0000000D02*
Y0001000D01*
X0031000Y0000000D02*
X0032000D01*
Y0000500D02*
X0031000D01*
X0031500Y0001000D02*
Y0000000D01*
Y0001000D02*
Y0000000D01*
X0032500Y0001000D02*
X0031500D01*
X0032500Y0000000D02*
Y0001000D01*
X0031500Y0000000D02*
X0032500D01*
Y0000500D02*
X0031500D01*
X0032000Y0001000D02*
Y0000000D01*
Y0001000D02*
Y0000000D01*
X0033000Y0001000D02*
X0032000D01*
X0033000Y0000000D02*
Y0001000D01*
X0032000Y0000000D02*
X0033000D01*
Y0000500D02*
X0032000D01*
X0032500Y0001000D02*
Y0000000D01*
Y0001000D02*
Y0000000D01*
X0033500Y0001000D02*
X0032500D01*
X0033500Y0000000D02*
Y0001000D01*
X0032500Y0000000D02*
X0033500D01*
Y0000500D02*
X0032500D01*
X0033000Y0001000D02*
Y0000000D01*
Y0003000D02*
Y0002000D01*
X0034000Y0003000D02*
X0033000D01*
X0034000Y0002000D02*
Y0003000D01*
X0033000Y0002000D02*
X0034000D01*
Y0002500D02*
X0033000D01*
X0033500Y0003000D02*
Y0002000D01*
X0033000Y0002500D02*
Y0001500D01*
X0034000Y0002500D02*
X0033000D01*
X0034000Y0001500D02*
Y0002500D01*
X0033000Y0001500D02*
X0034000D01*
Y0002000D02*
X0033000D01*
X0033500Y0002500D02*
Y0001500D01*
X0033000D02*
Y0000500D01*
X0034000Y0001500D02*
X0033000D01*
X0034000Y0000500D02*
Y0001500D01*
X0033000Y0000500D02*
X0034000D01*
Y0001000D02*
X0033000D01*
X0033500Y0001500D02*
Y0000500D01*
X0035000Y0001500D02*
Y0000500D01*
X0036000Y0001500D02*
X0035000D01*
X0036000Y0000500D02*
Y0001500D01*
X0035000Y0000500D02*
X0036000D01*
Y0001000D02*
X0035000D01*
X0035500Y0001500D02*
Y0000500D01*
X0034500Y0001500D02*
Y0000500D01*
X0035500Y0001500D02*
X0034500D01*
X0035500Y0000500D02*
Y0001500D01*
X0034500Y0000500D02*
X0035500D01*
Y0001000D02*
X0034500D01*
X0035000Y0001500D02*
Y0000500D01*
X0034000Y0001500D02*
Y0000500D01*
X0035000Y0001500D02*
X0034000D01*
X0035000Y0000500D02*
Y0001500D01*
X0034000Y0000500D02*
X0035000D01*
Y0001000D02*
X0034000D01*
X0034500Y0001500D02*
Y0000500D01*
X0033500Y0001500D02*
Y0000500D01*
X0034500Y0001500D02*
X0033500D01*
X0034500Y0000500D02*
Y0001500D01*
X0033500Y0000500D02*
X0034500D01*
Y0001000D02*
X0033500D01*
X0034000Y0001500D02*
Y0000500D01*
X0033500Y0003500D02*
Y0002500D01*
X0034500Y0003500D02*
X0033500D01*
X0034500Y0002500D02*
Y0003500D01*
X0033500Y0002500D02*
X0034500D01*
Y0003000D02*
X0033500D01*
X0034000Y0003500D02*
Y0002500D01*
Y0003500D02*
Y0002500D01*
X0035000Y0003500D02*
X0034000D01*
X0035000Y0002500D02*
Y0003500D01*
X0034000Y0002500D02*
X0035000D01*
Y0003000D02*
X0034000D01*
X0034500Y0003500D02*
Y0002500D01*
Y0003500D02*
Y0002500D01*
X0035500Y0003500D02*
X0034500D01*
X0035500Y0002500D02*
Y0003500D01*
X0034500Y0002500D02*
X0035500D01*
Y0003000D02*
X0034500D01*
X0035000Y0003500D02*
Y0002500D01*
Y0003500D02*
Y0002500D01*
X0036000Y0003500D02*
X0035000D01*
X0036000Y0002500D02*
Y0003500D01*
X0035000Y0002500D02*
X0036000D01*
Y0003000D02*
X0035000D01*
X0035500Y0003500D02*
Y0002500D01*
X0036000Y0004500D02*
Y0003500D01*
X0037000Y0004500D02*
X0036000D01*
X0037000Y0003500D02*
Y0004500D01*
X0036000Y0003500D02*
X0037000D01*
Y0004000D02*
X0036000D01*
X0036500Y0004500D02*
Y0003500D01*
X0035500Y0005500D02*
Y0004500D01*
X0036500Y0005500D02*
X0035500D01*
X0036500Y0004500D02*
Y0005500D01*
X0035500Y0004500D02*
X0036500D01*
Y0005000D02*
X0035500D01*
X0036000Y0005500D02*
Y0004500D01*
X0035000Y0005500D02*
Y0004500D01*
X0036000Y0005500D02*
X0035000D01*
X0036000Y0004500D02*
Y0005500D01*
X0035000Y0004500D02*
X0036000D01*
Y0005000D02*
X0035000D01*
X0035500Y0005500D02*
Y0004500D01*
X0034500Y0005000D02*
Y0004000D01*
X0035500Y0005000D02*
X0034500D01*
X0035500Y0004000D02*
Y0005000D01*
X0034500Y0004000D02*
X0035500D01*
Y0004500D02*
X0034500D01*
X0035000Y0005000D02*
Y0004000D01*
X0036500Y0005000D02*
Y0004000D01*
X0037500Y0005000D02*
X0036500D01*
X0037500Y0004000D02*
Y0005000D01*
X0036500Y0004000D02*
X0037500D01*
Y0004500D02*
X0036500D01*
X0037000Y0005000D02*
Y0004000D01*
X0036000Y0005000D02*
Y0004000D01*
X0037000Y0005000D02*
X0036000D01*
X0037000Y0004000D02*
Y0005000D01*
X0036000Y0004000D02*
X0037000D01*
Y0004500D02*
X0036000D01*
X0036500Y0005000D02*
Y0004000D01*
X0035500Y0005000D02*
Y0004000D01*
X0036500Y0005000D02*
X0035500D01*
X0036500Y0004000D02*
Y0005000D01*
X0035500Y0004000D02*
X0036500D01*
Y0004500D02*
X0035500D01*
X0036000Y0005000D02*
Y0004000D01*
X0037000Y0008750D02*
Y0007750D01*
X0038000Y0008750D02*
X0037000D01*
X0038000Y0007750D02*
Y0008750D01*
X0037000Y0007750D02*
X0038000D01*
Y0008250D02*
X0037000D01*
X0037500Y0008750D02*
Y0007750D01*
X0037000Y0006250D02*
Y0005250D01*
X0038000Y0006250D02*
X0037000D01*
X0038000Y0005250D02*
Y0006250D01*
X0037000Y0005250D02*
X0038000D01*
Y0005750D02*
X0037000D01*
X0037500Y0006250D02*
Y0005250D01*
X0037000Y0005500D02*
Y0004500D01*
X0038000Y0005500D02*
X0037000D01*
X0038000Y0004500D02*
Y0005500D01*
X0037000Y0004500D02*
X0038000D01*
Y0005000D02*
X0037000D01*
X0037500Y0005500D02*
Y0004500D01*
X0037000Y0005000D02*
Y0004000D01*
X0038000Y0005000D02*
X0037000D01*
X0038000Y0004000D02*
Y0005000D01*
X0037000Y0004000D02*
X0038000D01*
Y0004500D02*
X0037000D01*
X0037500Y0005000D02*
Y0004000D01*
X0035000Y0005000D02*
Y0004000D01*
X0036000Y0005000D02*
X0035000D01*
X0036000Y0004000D02*
Y0005000D01*
X0035000Y0004000D02*
X0036000D01*
Y0004500D02*
X0035000D01*
X0035500Y0005000D02*
Y0004000D01*
X0034500D02*
Y0003000D01*
X0035500Y0004000D02*
X0034500D01*
X0035500Y0003000D02*
Y0004000D01*
X0034500Y0003000D02*
X0035500D01*
Y0003500D02*
X0034500D01*
X0035000Y0004000D02*
Y0003000D01*
X0034500Y0004500D02*
Y0003500D01*
X0035500Y0004500D02*
X0034500D01*
X0035500Y0003500D02*
Y0004500D01*
X0034500Y0003500D02*
X0035500D01*
Y0004000D02*
X0034500D01*
X0035000Y0004500D02*
Y0003500D01*
X0034500Y0002000D02*
Y0001000D01*
X0035500Y0002000D02*
X0034500D01*
X0035500Y0001000D02*
Y0002000D01*
X0034500Y0001000D02*
X0035500D01*
Y0001500D02*
X0034500D01*
X0035000Y0002000D02*
Y0001000D01*
X0034000Y0002000D02*
Y0001000D01*
X0035000Y0002000D02*
X0034000D01*
X0035000Y0001000D02*
Y0002000D01*
X0034000Y0001000D02*
X0035000D01*
Y0001500D02*
X0034000D01*
X0034500Y0002000D02*
Y0001000D01*
X0034000Y0002500D02*
Y0001500D01*
X0035000Y0002500D02*
X0034000D01*
X0035000Y0001500D02*
Y0002500D01*
X0034000Y0001500D02*
X0035000D01*
Y0002000D02*
X0034000D01*
X0034500Y0002500D02*
Y0001500D01*
Y0002500D02*
Y0001500D01*
X0035500Y0002500D02*
X0034500D01*
X0035500Y0001500D02*
Y0002500D01*
X0034500Y0001500D02*
X0035500D01*
Y0002000D02*
X0034500D01*
X0035000Y0002500D02*
Y0001500D01*
X0034500Y0003000D02*
Y0002000D01*
X0035500Y0003000D02*
X0034500D01*
X0035500Y0002000D02*
Y0003000D01*
X0034500Y0002000D02*
X0035500D01*
Y0002500D02*
X0034500D01*
X0035000Y0003000D02*
Y0002000D01*
X0037000Y0004500D02*
Y0003500D01*
X0038000Y0004500D02*
X0037000D01*
X0038000Y0003500D02*
Y0004500D01*
X0037000Y0003500D02*
X0038000D01*
Y0004000D02*
X0037000D01*
X0037500Y0004500D02*
Y0003500D01*
X0036500Y0004500D02*
Y0003500D01*
X0037500Y0004500D02*
X0036500D01*
X0037500Y0003500D02*
Y0004500D01*
X0036500Y0003500D02*
X0037500D01*
Y0004000D02*
X0036500D01*
X0037000Y0004500D02*
Y0003500D01*
X0035500Y0004500D02*
Y0003500D01*
X0036500Y0004500D02*
X0035500D01*
X0036500Y0003500D02*
Y0004500D01*
X0035500Y0003500D02*
X0036500D01*
Y0004000D02*
X0035500D01*
X0036000Y0004500D02*
Y0003500D01*
X0035000Y0004500D02*
Y0003500D01*
X0036000Y0004500D02*
X0035000D01*
X0036000Y0003500D02*
Y0004500D01*
X0035000Y0003500D02*
X0036000D01*
Y0004000D02*
X0035000D01*
X0035500Y0004500D02*
Y0003500D01*
X0035000Y0004000D02*
Y0003000D01*
X0036000Y0004000D02*
X0035000D01*
X0036000Y0003000D02*
Y0004000D01*
X0035000Y0003000D02*
X0036000D01*
Y0003500D02*
X0035000D01*
X0035500Y0004000D02*
Y0003000D01*
X0035000Y0002500D02*
Y0001500D01*
X0036000Y0002500D02*
X0035000D01*
X0036000Y0001500D02*
Y0002500D01*
X0035000Y0001500D02*
X0036000D01*
Y0002000D02*
X0035000D01*
X0035500Y0002500D02*
Y0001500D01*
X0035000Y0002000D02*
Y0001000D01*
X0036000Y0002000D02*
X0035000D01*
X0036000Y0001000D02*
Y0002000D01*
X0035000Y0001000D02*
X0036000D01*
Y0001500D02*
X0035000D01*
X0035500Y0002000D02*
Y0001000D01*
X0035000D02*
Y0000000D01*
X0036000Y0001000D02*
X0035000D01*
X0036000Y0000000D02*
Y0001000D01*
X0035000Y0000000D02*
X0036000D01*
Y0000500D02*
X0035000D01*
X0035500Y0001000D02*
Y0000000D01*
X0034500Y0001000D02*
Y0000000D01*
X0035500Y0001000D02*
X0034500D01*
X0035500Y0000000D02*
Y0001000D01*
X0034500Y0000000D02*
X0035500D01*
Y0000500D02*
X0034500D01*
X0035000Y0001000D02*
Y0000000D01*
X0034000Y0001000D02*
Y0000000D01*
X0035000Y0001000D02*
X0034000D01*
X0035000Y0000000D02*
Y0001000D01*
X0034000Y0000000D02*
X0035000D01*
Y0000500D02*
X0034000D01*
X0034500Y0001000D02*
Y0000000D01*
X0033500Y0001000D02*
Y0000000D01*
X0034500Y0001000D02*
X0033500D01*
X0034500Y0000000D02*
Y0001000D01*
X0033500Y0000000D02*
X0034500D01*
Y0000500D02*
X0033500D01*
X0034000Y0001000D02*
Y0000000D01*
X0033000Y0001000D02*
Y0000000D01*
X0034000Y0001000D02*
X0033000D01*
X0034000Y0000000D02*
Y0001000D01*
X0033000Y0000000D02*
X0034000D01*
Y0000500D02*
X0033000D01*
X0033500Y0001000D02*
Y0000000D01*
Y0002000D02*
Y0001000D01*
X0034500Y0002000D02*
X0033500D01*
X0034500Y0001000D02*
Y0002000D01*
X0033500Y0001000D02*
X0034500D01*
Y0001500D02*
X0033500D01*
X0034000Y0002000D02*
Y0001000D01*
X0033500Y0002500D02*
Y0001500D01*
X0034500Y0002500D02*
X0033500D01*
X0034500Y0001500D02*
Y0002500D01*
X0033500Y0001500D02*
X0034500D01*
Y0002000D02*
X0033500D01*
X0034000Y0002500D02*
Y0001500D01*
X0033500Y0003000D02*
Y0002000D01*
X0034500Y0003000D02*
X0033500D01*
X0034500Y0002000D02*
Y0003000D01*
X0033500Y0002000D02*
X0034500D01*
Y0002500D02*
X0033500D01*
X0034000Y0003000D02*
Y0002000D01*
Y0003000D02*
Y0002000D01*
X0035000Y0003000D02*
X0034000D01*
X0035000Y0002000D02*
Y0003000D01*
X0034000Y0002000D02*
X0035000D01*
Y0002500D02*
X0034000D01*
X0034500Y0003000D02*
Y0002000D01*
X0034000Y0004000D02*
Y0003000D01*
X0035000Y0004000D02*
X0034000D01*
X0035000Y0003000D02*
Y0004000D01*
X0034000Y0003000D02*
X0035000D01*
Y0003500D02*
X0034000D01*
X0034500Y0004000D02*
Y0003000D01*
X0034000Y0004500D02*
Y0003500D01*
X0035000Y0004500D02*
X0034000D01*
X0035000Y0003500D02*
Y0004500D01*
X0034000Y0003500D02*
X0035000D01*
Y0004000D02*
X0034000D01*
X0034500Y0004500D02*
Y0003500D01*
X0034000Y0005000D02*
Y0004000D01*
X0035000Y0005000D02*
X0034000D01*
X0035000Y0004000D02*
Y0005000D01*
X0034000Y0004000D02*
X0035000D01*
Y0004500D02*
X0034000D01*
X0034500Y0005000D02*
Y0004000D01*
Y0005500D02*
Y0004500D01*
X0035500Y0005500D02*
X0034500D01*
X0035500Y0004500D02*
Y0005500D01*
X0034500Y0004500D02*
X0035500D01*
Y0005000D02*
X0034500D01*
X0035000Y0005500D02*
Y0004500D01*
Y0006000D02*
Y0005000D01*
X0036000Y0006000D02*
X0035000D01*
X0036000Y0005000D02*
Y0006000D01*
X0035000Y0005000D02*
X0036000D01*
Y0005500D02*
X0035000D01*
X0035500Y0006000D02*
Y0005000D01*
X0037000Y0006750D02*
Y0005750D01*
X0038000Y0006750D02*
X0037000D01*
X0038000Y0005750D02*
Y0006750D01*
X0037000Y0005750D02*
X0038000D01*
Y0006250D02*
X0037000D01*
X0037500Y0006750D02*
Y0005750D01*
X0036500Y0006750D02*
Y0005750D01*
X0037500Y0006750D02*
X0036500D01*
X0037500Y0005750D02*
Y0006750D01*
X0036500Y0005750D02*
X0037500D01*
Y0006250D02*
X0036500D01*
X0037000Y0006750D02*
Y0005750D01*
X0035750Y0006750D02*
Y0005750D01*
X0036750Y0006750D02*
X0035750D01*
X0036750Y0005750D02*
Y0006750D01*
X0035750Y0005750D02*
X0036750D01*
Y0006250D02*
X0035750D01*
X0036250Y0006750D02*
Y0005750D01*
X0037000Y0009750D02*
Y0008750D01*
X0038000Y0009750D02*
X0037000D01*
X0038000Y0008750D02*
Y0009750D01*
X0037000Y0008750D02*
X0038000D01*
Y0009250D02*
X0037000D01*
X0037500Y0009750D02*
Y0008750D01*
X0036500Y0008500D02*
Y0007500D01*
X0037500Y0008500D02*
X0036500D01*
X0037500Y0007500D02*
Y0008500D01*
X0036500Y0007500D02*
X0037500D01*
Y0008000D02*
X0036500D01*
X0037000Y0008500D02*
Y0007500D01*
Y0008250D02*
Y0007250D01*
X0038000Y0008250D02*
X0037000D01*
X0038000Y0007250D02*
Y0008250D01*
X0037000Y0007250D02*
X0038000D01*
Y0007750D02*
X0037000D01*
X0037500Y0008250D02*
Y0007250D01*
X0037000D02*
Y0006250D01*
X0038000Y0007250D02*
X0037000D01*
X0038000Y0006250D02*
Y0007250D01*
X0037000Y0006250D02*
X0038000D01*
Y0006750D02*
X0037000D01*
X0037500Y0007250D02*
Y0006250D01*
X0035750Y0007250D02*
Y0006250D01*
X0036750Y0007250D02*
X0035750D01*
X0036750Y0006250D02*
Y0007250D01*
X0035750Y0006250D02*
X0036750D01*
Y0006750D02*
X0035750D01*
X0036250Y0007250D02*
Y0006250D01*
X0035750Y0008250D02*
Y0007250D01*
X0036750Y0008250D02*
X0035750D01*
X0036750Y0007250D02*
Y0008250D01*
X0035750Y0007250D02*
X0036750D01*
Y0007750D02*
X0035750D01*
X0036250Y0008250D02*
Y0007250D01*
X0035750Y0009000D02*
Y0008000D01*
X0036750Y0009000D02*
X0035750D01*
X0036750Y0008000D02*
Y0009000D01*
X0035750Y0008000D02*
X0036750D01*
Y0008500D02*
X0035750D01*
X0036250Y0009000D02*
Y0008000D01*
X0035750Y0009750D02*
Y0008750D01*
X0036750Y0009750D02*
X0035750D01*
X0036750Y0008750D02*
Y0009750D01*
X0035750Y0008750D02*
X0036750D01*
Y0009250D02*
X0035750D01*
X0036250Y0009750D02*
Y0008750D01*
X0034000Y0006000D02*
Y0005000D01*
X0035000Y0006000D02*
X0034000D01*
X0035000Y0005000D02*
Y0006000D01*
X0034000Y0005000D02*
X0035000D01*
Y0005500D02*
X0034000D01*
X0034500Y0006000D02*
Y0005000D01*
X0032000Y0006000D02*
Y0005000D01*
X0033000Y0006000D02*
X0032000D01*
X0033000Y0005000D02*
Y0006000D01*
X0032000Y0005000D02*
X0033000D01*
Y0005500D02*
X0032000D01*
X0032500Y0006000D02*
Y0005000D01*
X0034500Y0006750D02*
Y0005750D01*
X0035500Y0006750D02*
X0034500D01*
X0035500Y0005750D02*
Y0006750D01*
X0034500Y0005750D02*
X0035500D01*
Y0006250D02*
X0034500D01*
X0035000Y0006750D02*
Y0005750D01*
X0034000Y0006750D02*
Y0005750D01*
X0035000Y0006750D02*
X0034000D01*
X0035000Y0005750D02*
Y0006750D01*
X0034000Y0005750D02*
X0035000D01*
Y0006250D02*
X0034000D01*
X0034500Y0006750D02*
Y0005750D01*
X0035000Y0007500D02*
Y0006500D01*
X0036000Y0007500D02*
X0035000D01*
X0036000Y0006500D02*
Y0007500D01*
X0035000Y0006500D02*
X0036000D01*
Y0007000D02*
X0035000D01*
X0035500Y0007500D02*
Y0006500D01*
X0034250Y0008500D02*
Y0007500D01*
X0035250Y0008500D02*
X0034250D01*
X0035250Y0007500D02*
Y0008500D01*
X0034250Y0007500D02*
X0035250D01*
Y0008000D02*
X0034250D01*
X0034750Y0008500D02*
Y0007500D01*
X0035000Y0008250D02*
Y0007250D01*
X0036000Y0008250D02*
X0035000D01*
X0036000Y0007250D02*
Y0008250D01*
X0035000Y0007250D02*
X0036000D01*
Y0007750D02*
X0035000D01*
X0035500Y0008250D02*
Y0007250D01*
X0035000Y0009000D02*
Y0008000D01*
X0036000Y0009000D02*
X0035000D01*
X0036000Y0008000D02*
Y0009000D01*
X0035000Y0008000D02*
X0036000D01*
Y0008500D02*
X0035000D01*
X0035500Y0009000D02*
Y0008000D01*
X0035000Y0009750D02*
Y0008750D01*
X0036000Y0009750D02*
X0035000D01*
X0036000Y0008750D02*
Y0009750D01*
X0035000Y0008750D02*
X0036000D01*
Y0009250D02*
X0035000D01*
X0035500Y0009750D02*
Y0008750D01*
X0031000Y0004750D02*
Y0003750D01*
X0032000Y0004750D02*
X0031000D01*
X0032000Y0003750D02*
Y0004750D01*
X0031000Y0003750D02*
X0032000D01*
Y0004250D02*
X0031000D01*
X0031500Y0004750D02*
Y0003750D01*
X0031000Y0004250D02*
Y0003250D01*
X0032000Y0004250D02*
X0031000D01*
X0032000Y0003250D02*
Y0004250D01*
X0031000Y0003250D02*
X0032000D01*
Y0003750D02*
X0031000D01*
X0031500Y0004250D02*
Y0003250D01*
X0032500Y0003500D02*
Y0002500D01*
X0033500Y0003500D02*
X0032500D01*
X0033500Y0002500D02*
Y0003500D01*
X0032500Y0002500D02*
X0033500D01*
Y0003000D02*
X0032500D01*
X0033000Y0003500D02*
Y0002500D01*
X0032000Y0003500D02*
Y0002500D01*
X0033000Y0003500D02*
X0032000D01*
X0033000Y0002500D02*
Y0003500D01*
X0032000Y0002500D02*
X0033000D01*
Y0003000D02*
X0032000D01*
X0032500Y0003500D02*
Y0002500D01*
X0031500Y0003500D02*
Y0002500D01*
X0032500Y0003500D02*
X0031500D01*
X0032500Y0002500D02*
Y0003500D01*
X0031500Y0002500D02*
X0032500D01*
Y0003000D02*
X0031500D01*
X0032000Y0003500D02*
Y0002500D01*
X0031000Y0003500D02*
Y0002500D01*
X0032000Y0003500D02*
X0031000D01*
X0032000Y0002500D02*
Y0003500D01*
X0031000Y0002500D02*
X0032000D01*
Y0003000D02*
X0031000D01*
X0031500Y0003500D02*
Y0002500D01*
X0030500Y0003500D02*
Y0002500D01*
X0031500Y0003500D02*
X0030500D01*
X0031500Y0002500D02*
Y0003500D01*
X0030500Y0002500D02*
X0031500D01*
Y0003000D02*
X0030500D01*
X0031000Y0003500D02*
Y0002500D01*
X0030000Y0003500D02*
Y0002500D01*
X0031000Y0003500D02*
X0030000D01*
X0031000Y0002500D02*
Y0003500D01*
X0030000Y0002500D02*
X0031000D01*
Y0003000D02*
X0030000D01*
X0030500Y0003500D02*
Y0002500D01*
X0029500Y0003500D02*
Y0002500D01*
X0030500Y0003500D02*
X0029500D01*
X0030500Y0002500D02*
Y0003500D01*
X0029500Y0002500D02*
X0030500D01*
Y0003000D02*
X0029500D01*
X0030000Y0003500D02*
Y0002500D01*
X0029000Y0003500D02*
Y0002500D01*
X0030000Y0003500D02*
X0029000D01*
X0030000Y0002500D02*
Y0003500D01*
X0029000Y0002500D02*
X0030000D01*
Y0003000D02*
X0029000D01*
X0029500Y0003500D02*
Y0002500D01*
X0028500Y0003500D02*
Y0002500D01*
X0029500Y0003500D02*
X0028500D01*
X0029500Y0002500D02*
Y0003500D01*
X0028500Y0002500D02*
X0029500D01*
Y0003000D02*
X0028500D01*
X0029000Y0003500D02*
Y0002500D01*
X0028500Y0004000D02*
Y0003000D01*
X0029500Y0004000D02*
X0028500D01*
X0029500Y0003000D02*
Y0004000D01*
X0028500Y0003000D02*
X0029500D01*
Y0003500D02*
X0028500D01*
X0029000Y0004000D02*
Y0003000D01*
Y0005250D02*
Y0004250D01*
X0030000Y0005250D02*
X0029000D01*
X0030000Y0004250D02*
Y0005250D01*
X0029000Y0004250D02*
X0030000D01*
Y0004750D02*
X0029000D01*
X0029500Y0005250D02*
Y0004250D01*
Y0005250D02*
Y0004250D01*
X0030500Y0005250D02*
X0029500D01*
X0030500Y0004250D02*
Y0005250D01*
X0029500Y0004250D02*
X0030500D01*
Y0004750D02*
X0029500D01*
X0030000Y0005250D02*
Y0004250D01*
Y0005250D02*
Y0004250D01*
X0031000Y0005250D02*
X0030000D01*
X0031000Y0004250D02*
Y0005250D01*
X0030000Y0004250D02*
X0031000D01*
Y0004750D02*
X0030000D01*
X0030500Y0005250D02*
Y0004250D01*
Y0005250D02*
Y0004250D01*
X0031500Y0005250D02*
X0030500D01*
X0031500Y0004250D02*
Y0005250D01*
X0030500Y0004250D02*
X0031500D01*
Y0004750D02*
X0030500D01*
X0031000Y0005250D02*
Y0004250D01*
Y0005250D02*
Y0004250D01*
X0032000Y0005250D02*
X0031000D01*
X0032000Y0004250D02*
Y0005250D01*
X0031000Y0004250D02*
X0032000D01*
Y0004750D02*
X0031000D01*
X0031500Y0005250D02*
Y0004250D01*
Y0005250D02*
Y0004250D01*
X0032500Y0005250D02*
X0031500D01*
X0032500Y0004250D02*
Y0005250D01*
X0031500Y0004250D02*
X0032500D01*
Y0004750D02*
X0031500D01*
X0032000Y0005250D02*
Y0004250D01*
Y0005250D02*
Y0004250D01*
X0033000Y0005250D02*
X0032000D01*
X0033000Y0004250D02*
Y0005250D01*
X0032000Y0004250D02*
X0033000D01*
Y0004750D02*
X0032000D01*
X0032500Y0005250D02*
Y0004250D01*
X0033000Y0005250D02*
Y0004250D01*
X0034000Y0005250D02*
X0033000D01*
X0034000Y0004250D02*
Y0005250D01*
X0033000Y0004250D02*
X0034000D01*
Y0004750D02*
X0033000D01*
X0033500Y0005250D02*
Y0004250D01*
X0032500Y0005250D02*
Y0004250D01*
X0033500Y0005250D02*
X0032500D01*
X0033500Y0004250D02*
Y0005250D01*
X0032500Y0004250D02*
X0033500D01*
Y0004750D02*
X0032500D01*
X0033000Y0005250D02*
Y0004250D01*
X0033500Y0006000D02*
Y0005000D01*
X0034500Y0006000D02*
X0033500D01*
X0034500Y0005000D02*
Y0006000D01*
X0033500Y0005000D02*
X0034500D01*
Y0005500D02*
X0033500D01*
X0034000Y0006000D02*
Y0005000D01*
X0033000Y0006000D02*
Y0005000D01*
X0034000Y0006000D02*
X0033000D01*
X0034000Y0005000D02*
Y0006000D01*
X0033000Y0005000D02*
X0034000D01*
Y0005500D02*
X0033000D01*
X0033500Y0006000D02*
Y0005000D01*
X0032500Y0006000D02*
Y0005000D01*
X0033500Y0006000D02*
X0032500D01*
X0033500Y0005000D02*
Y0006000D01*
X0032500Y0005000D02*
X0033500D01*
Y0005500D02*
X0032500D01*
X0033000Y0006000D02*
Y0005000D01*
X0033500Y0006750D02*
Y0005750D01*
X0034500Y0006750D02*
X0033500D01*
X0034500Y0005750D02*
Y0006750D01*
X0033500Y0005750D02*
X0034500D01*
Y0006250D02*
X0033500D01*
X0034000Y0006750D02*
Y0005750D01*
X0033000Y0006750D02*
Y0005750D01*
X0034000Y0006750D02*
X0033000D01*
X0034000Y0005750D02*
Y0006750D01*
X0033000Y0005750D02*
X0034000D01*
Y0006250D02*
X0033000D01*
X0033500Y0006750D02*
Y0005750D01*
X0032500Y0006750D02*
Y0005750D01*
X0033500Y0006750D02*
X0032500D01*
X0033500Y0005750D02*
Y0006750D01*
X0032500Y0005750D02*
X0033500D01*
Y0006250D02*
X0032500D01*
X0033000Y0006750D02*
Y0005750D01*
X0033500Y0009750D02*
Y0008750D01*
X0034500Y0009750D02*
X0033500D01*
X0034500Y0008750D02*
Y0009750D01*
X0033500Y0008750D02*
X0034500D01*
Y0009250D02*
X0033500D01*
X0034000Y0009750D02*
Y0008750D01*
X0033500Y0009000D02*
Y0008000D01*
X0034500Y0009000D02*
X0033500D01*
X0034500Y0008000D02*
Y0009000D01*
X0033500Y0008000D02*
X0034500D01*
Y0008500D02*
X0033500D01*
X0034000Y0009000D02*
Y0008000D01*
X0033500Y0008250D02*
Y0007250D01*
X0034500Y0008250D02*
X0033500D01*
X0034500Y0007250D02*
Y0008250D01*
X0033500Y0007250D02*
X0034500D01*
Y0007750D02*
X0033500D01*
X0034000Y0008250D02*
Y0007250D01*
X0033500Y0007500D02*
Y0006500D01*
X0034500Y0007500D02*
X0033500D01*
X0034500Y0006500D02*
Y0007500D01*
X0033500Y0006500D02*
X0034500D01*
Y0007000D02*
X0033500D01*
X0034000Y0007500D02*
Y0006500D01*
X0033000Y0007500D02*
Y0006500D01*
X0034000Y0007500D02*
X0033000D01*
X0034000Y0006500D02*
Y0007500D01*
X0033000Y0006500D02*
X0034000D01*
Y0007000D02*
X0033000D01*
X0033500Y0007500D02*
Y0006500D01*
X0033000Y0008250D02*
Y0007250D01*
X0034000Y0008250D02*
X0033000D01*
X0034000Y0007250D02*
Y0008250D01*
X0033000Y0007250D02*
X0034000D01*
Y0007750D02*
X0033000D01*
X0033500Y0008250D02*
Y0007250D01*
X0033000Y0009000D02*
Y0008000D01*
X0034000Y0009000D02*
X0033000D01*
X0034000Y0008000D02*
Y0009000D01*
X0033000Y0008000D02*
X0034000D01*
Y0008500D02*
X0033000D01*
X0033500Y0009000D02*
Y0008000D01*
X0033000Y0009750D02*
Y0008750D01*
X0034000Y0009750D02*
X0033000D01*
X0034000Y0008750D02*
Y0009750D01*
X0033000Y0008750D02*
X0034000D01*
Y0009250D02*
X0033000D01*
X0033500Y0009750D02*
Y0008750D01*
X0030700Y0007550D02*
Y0006550D01*
X0031700Y0007550D02*
X0030700D01*
X0031700Y0006550D02*
Y0007550D01*
X0030700Y0006550D02*
X0031700D01*
Y0007050D02*
X0030700D01*
X0031200Y0007550D02*
Y0006550D01*
X0018750Y0014250D02*
Y0014000D01*
X0019000Y0014250D02*
X0018750D01*
X0019000Y0013750D02*
Y0014250D01*
X0019250Y0013750D02*
X0019000D01*
X0019250Y0014000D02*
Y0013750D01*
X0018750Y0014000D02*
X0019250D01*
X0018750Y0013250D02*
Y0013000D01*
X0019000Y0013250D02*
X0018750D01*
X0019000Y0012750D02*
Y0013250D01*
X0019250Y0012750D02*
X0019000D01*
X0019250Y0013000D02*
Y0012750D01*
X0018750Y0013000D02*
X0019250D01*
X0018750Y0012250D02*
Y0012000D01*
X0019000Y0012250D02*
X0018750D01*
X0019000Y0011750D02*
Y0012250D01*
X0019250Y0011750D02*
X0019000D01*
X0019250Y0012000D02*
Y0011750D01*
X0018750Y0012000D02*
X0019250D01*
X0005750Y0010750D02*
X0005500Y0010500D01*
X0006000D02*
X0005750Y0010750D01*
Y0010250D02*
X0006000Y0010500D01*
X0005500D02*
X0005750Y0010250D01*
X0004750Y0010750D02*
X0004500Y0010500D01*
X0005000D02*
X0004750Y0010750D01*
Y0010250D02*
X0005000Y0010500D01*
X0004500D02*
X0004750Y0010250D01*
X0003750Y0010750D02*
X0003500Y0010500D01*
X0004000D02*
X0003750Y0010750D01*
Y0010250D02*
X0004000Y0010500D01*
X0003500D02*
X0003750Y0010250D01*
X0002750Y0010750D02*
X0002500Y0010500D01*
X0003000D02*
X0002750Y0010750D01*
Y0010250D02*
X0003000Y0010500D01*
X0002500D02*
X0002750Y0010250D01*
X0001500Y0007250D02*
Y0006750D01*
X0002000Y0007250D02*
X0001500D01*
X0002000Y0006750D02*
Y0007250D01*
X0001500Y0006750D02*
X0002000D01*
Y0007000D02*
X0001500D01*
X0001750Y0007250D02*
Y0006750D01*
X0006000Y0007250D02*
Y0006750D01*
X0006500Y0007250D02*
X0006000D01*
X0006500Y0006750D02*
Y0007250D01*
X0006000Y0006750D02*
X0006500D01*
Y0007000D02*
X0006000D01*
X0006250Y0007250D02*
Y0006750D01*
X0005250Y0009750D02*
X0005000Y0009500D01*
X0005500D02*
X0005250Y0009750D01*
Y0009250D02*
X0005500Y0009500D01*
X0005000D02*
X0005250Y0009250D01*
X0004250Y0009750D02*
X0004000Y0009500D01*
X0004500D02*
X0004250Y0009750D01*
Y0009250D02*
X0004500Y0009500D01*
X0004000D02*
X0004250Y0009250D01*
X0003250Y0009750D02*
X0003000Y0009500D01*
X0003500D02*
X0003250Y0009750D01*
Y0009250D02*
X0003500Y0009500D01*
X0003000D02*
X0003250Y0009250D01*
X0002250Y0009750D02*
X0002000Y0009500D01*
X0002500D02*
X0002250Y0009750D01*
Y0009250D02*
X0002500Y0009500D01*
X0002000D02*
X0002250Y0009250D01*
X0015492Y0014492D02*
Y0014242D01*
X0015742Y0014492D02*
X0015492D01*
X0015742Y0013992D02*
Y0014492D01*
X0015992Y0013992D02*
X0015742D01*
X0015992Y0014242D02*
Y0013992D01*
X0015492Y0014242D02*
X0015992D01*
X0014508Y0014492D02*
Y0014242D01*
X0014758Y0014492D02*
X0014508D01*
X0014758Y0013992D02*
Y0014492D01*
X0015008Y0013992D02*
X0014758D01*
X0015008Y0014242D02*
Y0013992D01*
X0014508Y0014242D02*
X0015008D01*
X0013653Y0013472D02*
Y0013272D01*
X0013803Y0013622D02*
X0013653Y0013472D01*
X0014003Y0013622D02*
X0013803D01*
X0014153Y0013472D02*
X0014003Y0013622D01*
X0014153Y0013272D02*
Y0013472D01*
X0014003Y0013122D02*
X0014153Y0013272D01*
X0013803Y0013122D02*
X0014003D01*
X0013653Y0013272D02*
X0013803Y0013122D01*
X0013853Y0013472D02*
Y0013522D01*
X0013803Y0013472D02*
X0013853D01*
X0013803Y0013522D02*
Y0013472D01*
X0013853Y0013522D02*
X0013803D01*
X0013953D02*
Y0013472D01*
X0014003Y0013522D02*
X0013953D01*
X0014003Y0013472D02*
Y0013522D01*
X0013953Y0013472D02*
X0014003D01*
X0013853Y0013222D02*
X0013753Y0013322D01*
X0013953Y0013222D02*
X0013853D01*
X0014053Y0013322D02*
X0013953Y0013222D01*
X0014508Y0013508D02*
Y0013258D01*
X0014758Y0013508D02*
X0014508D01*
X0014758Y0013008D02*
Y0013508D01*
X0015008Y0013008D02*
X0014758D01*
X0015008Y0013258D02*
Y0013008D01*
X0014508Y0013258D02*
X0015008D01*
X0015492Y0013508D02*
Y0013258D01*
X0015742Y0013508D02*
X0015492D01*
X0015742Y0013008D02*
Y0013508D01*
X0015992Y0013008D02*
X0015742D01*
X0015992Y0013258D02*
Y0013008D01*
X0015492Y0013258D02*
X0015992D01*
X0016346Y0013472D02*
Y0013272D01*
X0016496Y0013622D02*
X0016346Y0013472D01*
X0016696Y0013622D02*
X0016496D01*
X0016846Y0013472D02*
X0016696Y0013622D01*
X0016846Y0013272D02*
Y0013472D01*
X0016696Y0013122D02*
X0016846Y0013272D01*
X0016496Y0013122D02*
X0016696D01*
X0016346Y0013272D02*
X0016496Y0013122D01*
X0016546Y0013472D02*
Y0013522D01*
X0016496Y0013472D02*
X0016546D01*
X0016496Y0013522D02*
Y0013472D01*
X0016546Y0013522D02*
X0016496D01*
X0016646D02*
Y0013472D01*
X0016696Y0013522D02*
X0016646D01*
X0016696Y0013472D02*
Y0013522D01*
X0016646Y0013472D02*
X0016696D01*
X0016546Y0013222D02*
X0016446Y0013322D01*
X0016646Y0013222D02*
X0016546D01*
X0016746Y0013322D02*
X0016646Y0013222D01*
X0032500Y0003933D02*
Y0003733D01*
X0032750Y0003683D02*
X0032500Y0003933D01*
X0033000D02*
X0032750Y0003683D01*
X0033000Y0003733D02*
Y0003933D01*
X0032750Y0003983D02*
X0033000Y0003733D01*
X0032500D02*
X0032750Y0003983D01*
X0032500Y0001767D02*
Y0001567D01*
X0032750Y0001517D02*
X0032500Y0001767D01*
X0033000D02*
X0032750Y0001517D01*
X0033000Y0001567D02*
Y0001767D01*
X0032750Y0001817D02*
X0033000Y0001567D01*
X0032500D02*
X0032750Y0001817D01*
X0016718Y0009492D02*
Y0009242D01*
X0016968Y0009492D02*
X0016718D01*
X0016968Y0008992D02*
Y0009492D01*
X0017218Y0008992D02*
X0016968D01*
X0017218Y0009242D02*
Y0008992D01*
X0016718Y0009242D02*
X0017218D01*
X0015734Y0009492D02*
Y0009242D01*
X0015984Y0009492D02*
X0015734D01*
X0015984Y0008992D02*
Y0009492D01*
X0016234Y0008992D02*
X0015984D01*
X0016234Y0009242D02*
Y0008992D01*
X0015734Y0009242D02*
X0016234D01*
X0014750Y0009492D02*
Y0009242D01*
X0015000Y0009492D02*
X0014750D01*
X0015000Y0008992D02*
Y0009492D01*
X0015250Y0008992D02*
X0015000D01*
X0015250Y0009242D02*
Y0008992D01*
X0014750Y0009242D02*
X0015250D01*
X0013766Y0009492D02*
Y0009242D01*
X0014016Y0009492D02*
X0013766D01*
X0014016Y0008992D02*
Y0009492D01*
X0014266Y0008992D02*
X0014016D01*
X0014266Y0009242D02*
Y0008992D01*
X0013766Y0009242D02*
X0014266D01*
X0012781Y0009492D02*
Y0009242D01*
X0013031Y0009492D02*
X0012781D01*
X0013031Y0008992D02*
Y0009492D01*
X0013281Y0008992D02*
X0013031D01*
X0013281Y0009242D02*
Y0008992D01*
X0012781Y0009242D02*
X0013281D01*
X0012781Y0008358D02*
Y0008158D01*
X0012931Y0008508D02*
X0012781Y0008358D01*
X0013131Y0008508D02*
X0012931D01*
X0013281Y0008358D02*
X0013131Y0008508D01*
X0013281Y0008158D02*
Y0008358D01*
X0013131Y0008008D02*
X0013281Y0008158D01*
X0012931Y0008008D02*
X0013131D01*
X0012781Y0008158D02*
X0012931Y0008008D01*
X0012981Y0008358D02*
Y0008408D01*
X0012931Y0008358D02*
X0012981D01*
X0012931Y0008408D02*
Y0008358D01*
X0012981Y0008408D02*
X0012931D01*
X0013081D02*
Y0008358D01*
X0013131Y0008408D02*
X0013081D01*
X0013131Y0008358D02*
Y0008408D01*
X0013081Y0008358D02*
X0013131D01*
X0012981Y0008108D02*
X0012881Y0008208D01*
X0013081Y0008108D02*
X0012981D01*
X0013181Y0008208D02*
X0013081Y0008108D01*
X0013274Y0007830D02*
Y0007630D01*
X0013424Y0007980D02*
X0013274Y0007830D01*
X0013624Y0007980D02*
X0013424D01*
X0013774Y0007830D02*
X0013624Y0007980D01*
X0013774Y0007630D02*
Y0007830D01*
X0013624Y0007480D02*
X0013774Y0007630D01*
X0013424Y0007480D02*
X0013624D01*
X0013274Y0007630D02*
X0013424Y0007480D01*
X0016718Y0008508D02*
Y0008258D01*
X0016968Y0008508D02*
X0016718D01*
X0016968Y0008008D02*
Y0008508D01*
X0017218Y0008008D02*
X0016968D01*
X0017218Y0008258D02*
Y0008008D01*
X0016718Y0008258D02*
X0017218D01*
X0015734Y0008508D02*
Y0008258D01*
X0015984Y0008508D02*
X0015734D01*
X0015984Y0008008D02*
Y0008508D01*
X0016234Y0008008D02*
X0015984D01*
X0016234Y0008258D02*
Y0008008D01*
X0015734Y0008258D02*
X0016234D01*
X0014750Y0008508D02*
Y0008258D01*
X0015000Y0008508D02*
X0014750D01*
X0015000Y0008008D02*
Y0008508D01*
X0015250Y0008008D02*
X0015000D01*
X0015250Y0008258D02*
Y0008008D01*
X0014750Y0008258D02*
X0015250D01*
X0013766Y0008508D02*
Y0008258D01*
X0014016Y0008508D02*
X0013766D01*
X0014016Y0008008D02*
Y0008508D01*
X0014266Y0008008D02*
X0014016D01*
X0014266Y0008258D02*
Y0008008D01*
X0013766Y0008258D02*
X0014266D01*
X0017211Y0003242D02*
Y0002992D01*
X0017461Y0003242D02*
X0017211D01*
X0017461Y0002742D02*
Y0003242D01*
X0017711Y0002742D02*
X0017461D01*
X0017711Y0002992D02*
Y0002742D01*
X0017211Y0002992D02*
X0017711D01*
X0016226Y0003242D02*
Y0002992D01*
X0016476Y0003242D02*
X0016226D01*
X0016476Y0002742D02*
Y0003242D01*
X0016726Y0002742D02*
X0016476D01*
X0016726Y0002992D02*
Y0002742D01*
X0016226Y0002992D02*
X0016726D01*
X0015242Y0003242D02*
Y0002992D01*
X0015492Y0003242D02*
X0015242D01*
X0015492Y0002742D02*
Y0003242D01*
X0015742Y0002742D02*
X0015492D01*
X0015742Y0002992D02*
Y0002742D01*
X0015242Y0002992D02*
X0015742D01*
X0014258Y0003242D02*
Y0002992D01*
X0014508Y0003242D02*
X0014258D01*
X0014508Y0002742D02*
Y0003242D01*
X0014758Y0002742D02*
X0014508D01*
X0014758Y0002992D02*
Y0002742D01*
X0014258Y0002992D02*
X0014758D01*
X0013274Y0003242D02*
Y0002992D01*
X0013524Y0003242D02*
X0013274D01*
X0013524Y0002742D02*
Y0003242D01*
X0013774Y0002742D02*
X0013524D01*
X0013774Y0002992D02*
Y0002742D01*
X0013274Y0002992D02*
X0013774D01*
X0012289Y0003242D02*
Y0002992D01*
X0012539Y0003242D02*
X0012289D01*
X0012539Y0002742D02*
Y0003242D01*
X0012789Y0002742D02*
X0012539D01*
X0012789Y0002992D02*
Y0002742D01*
X0012289Y0002992D02*
X0012789D01*
X0012289Y0002258D02*
Y0002008D01*
X0012539Y0002258D02*
X0012289D01*
X0012539Y0001758D02*
Y0002258D01*
X0012789Y0001758D02*
X0012539D01*
X0012789Y0002008D02*
Y0001758D01*
X0012289Y0002008D02*
X0012789D01*
X0014750Y0001580D02*
Y0001380D01*
X0014900Y0001730D02*
X0014750Y0001580D01*
X0015100Y0001730D02*
X0014900D01*
X0015250Y0001580D02*
X0015100Y0001730D01*
X0015250Y0001380D02*
Y0001580D01*
X0015100Y0001230D02*
X0015250Y0001380D01*
X0014900Y0001230D02*
X0015100D01*
X0014750Y0001380D02*
X0014900Y0001230D01*
X0017211Y0002258D02*
Y0002008D01*
X0017461Y0002258D02*
X0017211D01*
X0017461Y0001758D02*
Y0002258D01*
X0017711Y0001758D02*
X0017461D01*
X0017711Y0002008D02*
Y0001758D01*
X0017211Y0002008D02*
X0017711D01*
X0016226Y0002258D02*
Y0002008D01*
X0016476Y0002258D02*
X0016226D01*
X0016476Y0001758D02*
Y0002258D01*
X0016726Y0001758D02*
X0016476D01*
X0016726Y0002008D02*
Y0001758D01*
X0016226Y0002008D02*
X0016726D01*
X0015242Y0002258D02*
Y0002008D01*
X0015492Y0002258D02*
X0015242D01*
X0015492Y0001758D02*
Y0002258D01*
X0015742Y0001758D02*
X0015492D01*
X0015742Y0002008D02*
Y0001758D01*
X0015242Y0002008D02*
X0015742D01*
X0014258Y0002258D02*
Y0002008D01*
X0014508Y0002258D02*
X0014258D01*
X0014508Y0001758D02*
Y0002258D01*
X0014758Y0001758D02*
X0014508D01*
X0014758Y0002008D02*
Y0001758D01*
X0014258Y0002008D02*
X0014758D01*
X0013274Y0002258D02*
Y0002008D01*
X0013524Y0002258D02*
X0013274D01*
X0013524Y0001758D02*
Y0002258D01*
X0013774Y0001758D02*
X0013524D01*
X0013774Y0002008D02*
Y0001758D01*
X0013274Y0002008D02*
X0013774D01*
X0009272Y0011078D02*
Y0010878D01*
X0009422Y0011228D02*
X0009272Y0011078D01*
X0009622Y0011228D02*
X0009422D01*
X0009772Y0011078D02*
X0009622Y0011228D01*
X0009772Y0010878D02*
Y0011078D01*
X0009622Y0010728D02*
X0009772Y0010878D01*
X0009422Y0010728D02*
X0009622D01*
X0009272Y0010878D02*
X0009422Y0010728D01*
X0009272Y0014622D02*
Y0014422D01*
X0009422Y0014772D02*
X0009272Y0014622D01*
X0009622Y0014772D02*
X0009422D01*
X0009772Y0014622D02*
X0009622Y0014772D01*
X0009772Y0014422D02*
Y0014622D01*
X0009622Y0014272D02*
X0009772Y0014422D01*
X0009422Y0014272D02*
X0009622D01*
X0009272Y0014422D02*
X0009422Y0014272D01*
X0008500Y0013590D02*
Y0013340D01*
X0008750Y0013590D02*
X0008500D01*
X0008750Y0013090D02*
Y0013590D01*
X0009000Y0013090D02*
X0008750D01*
X0009000Y0013340D02*
Y0013090D01*
X0008500Y0013340D02*
X0009000D01*
X0008500Y0012409D02*
Y0012159D01*
X0008750Y0012409D02*
X0008500D01*
X0008750Y0011909D02*
Y0012409D01*
X0009000Y0011909D02*
X0008750D01*
X0009000Y0012159D02*
Y0011909D01*
X0008500Y0012159D02*
X0009000D01*
X0034516Y0008927D02*
Y0008727D01*
X0034766Y0008677D02*
X0034516Y0008927D01*
X0035016D02*
X0034766Y0008677D01*
X0035016Y0008727D02*
Y0008927D01*
X0034766Y0008977D02*
X0035016Y0008727D01*
X0034516D02*
X0034766Y0008977D01*
X0034516Y0007273D02*
Y0007073D01*
X0034766Y0007023D02*
X0034516Y0007273D01*
X0035016D02*
X0034766Y0007023D01*
X0035016Y0007073D02*
Y0007273D01*
X0034766Y0007323D02*
X0035016Y0007073D01*
X0034516D02*
X0034766Y0007323D01*
X0037000Y0005323D02*
X0036500D01*
X0036750Y0005573D02*
Y0005073D01*
X0036681Y0007273D02*
Y0007073D01*
X0036931Y0007023D02*
X0036681Y0007273D01*
X0037181D02*
X0036931Y0007023D01*
X0037181Y0007073D02*
Y0007273D01*
X0036931Y0007323D02*
X0037181Y0007073D01*
X0036681D02*
X0036931Y0007323D01*
X0036681Y0008927D02*
Y0008727D01*
X0036931Y0008677D02*
X0036681Y0008927D01*
X0037181D02*
X0036931Y0008677D01*
X0037181Y0008727D02*
Y0008927D01*
X0036931Y0008977D02*
X0037181Y0008727D01*
X0036681D02*
X0036931Y0008977D01*
X0037000Y0010677D02*
X0036500D01*
X0036750Y0010927D02*
Y0010427D01*
X0012143Y0011675D02*
X0011643Y0011175D01*
X0012143D02*
X0011643Y0011675D01*
X0011356D02*
X0010856Y0011175D01*
X0011356D02*
X0010856Y0011675D01*
X0012143Y0012463D02*
X0011643Y0011963D01*
X0012143D02*
X0011643Y0012463D01*
X0011356D02*
X0010856Y0011963D01*
X0011356D02*
X0010856Y0012463D01*
X0012143Y0013250D02*
X0011643Y0012750D01*
X0012143D02*
X0011643Y0013250D01*
X0011356D02*
X0010856Y0012750D01*
X0011356D02*
X0010856Y0013250D01*
X0012143Y0014037D02*
X0011643Y0013537D01*
X0012143D02*
X0011643Y0014037D01*
X0011356D02*
X0010856Y0013537D01*
X0011356D02*
X0010856Y0014037D01*
X0012143Y0014824D02*
X0011643Y0014324D01*
X0012143D02*
X0011643Y0014824D01*
X0011356D02*
X0010856Y0014324D01*
X0011356D02*
X0010856Y0014824D01*
X0034000Y0013750D02*
Y0013500D01*
X0034250Y0013750D02*
X0034000D01*
X0034250Y0013250D02*
Y0013750D01*
X0034500Y0013250D02*
X0034250D01*
X0034500Y0013500D02*
Y0013250D01*
X0034000Y0013500D02*
X0034500D01*
X0032500Y0013750D02*
Y0013500D01*
X0032750Y0013750D02*
X0032500D01*
X0032750Y0013250D02*
Y0013750D01*
X0033000Y0013250D02*
X0032750D01*
X0033000Y0013500D02*
Y0013250D01*
X0032500Y0013500D02*
X0033000D01*
X0027346Y0002100D02*
Y0001900D01*
X0027496Y0002250D02*
X0027346Y0002100D01*
X0027696Y0002250D02*
X0027496D01*
X0027846Y0002100D02*
X0027696Y0002250D01*
X0027846Y0001900D02*
Y0002100D01*
X0027696Y0001750D02*
X0027846Y0001900D01*
X0027496Y0001750D02*
X0027696D01*
X0027346Y0001900D02*
X0027496Y0001750D01*
X0027546Y0002100D02*
Y0002150D01*
X0027496Y0002100D02*
X0027546D01*
X0027496Y0002150D02*
Y0002100D01*
X0027546Y0002150D02*
X0027496D01*
X0027646D02*
Y0002100D01*
X0027696Y0002150D02*
X0027646D01*
X0027696Y0002100D02*
Y0002150D01*
X0027646Y0002100D02*
X0027696D01*
X0027546Y0001850D02*
X0027446Y0001950D01*
X0027646Y0001850D02*
X0027546D01*
X0027746Y0001950D02*
X0027646Y0001850D01*
X0026492Y0002250D02*
Y0002000D01*
X0026742Y0002250D02*
X0026492D01*
X0026742Y0001750D02*
Y0002250D01*
X0026992Y0001750D02*
X0026742D01*
X0026992Y0002000D02*
Y0001750D01*
X0026492Y0002000D02*
X0026992D01*
X0025508Y0002250D02*
Y0002000D01*
X0025758Y0002250D02*
X0025508D01*
X0025758Y0001750D02*
Y0002250D01*
X0026008Y0001750D02*
X0025758D01*
X0026008Y0002000D02*
Y0001750D01*
X0025508Y0002000D02*
X0026008D01*
X0024653Y0002100D02*
Y0001900D01*
X0024803Y0002250D02*
X0024653Y0002100D01*
X0025003Y0002250D02*
X0024803D01*
X0025153Y0002100D02*
X0025003Y0002250D01*
X0025153Y0001900D02*
Y0002100D01*
X0025003Y0001750D02*
X0025153Y0001900D01*
X0024803Y0001750D02*
X0025003D01*
X0024653Y0001900D02*
X0024803Y0001750D01*
X0024853Y0002100D02*
Y0002150D01*
X0024803Y0002100D02*
X0024853D01*
X0024803Y0002150D02*
Y0002100D01*
X0024853Y0002150D02*
X0024803D01*
X0024953D02*
Y0002100D01*
X0025003Y0002150D02*
X0024953D01*
X0025003Y0002100D02*
Y0002150D01*
X0024953Y0002100D02*
X0025003D01*
X0024853Y0001850D02*
X0024753Y0001950D01*
X0024953Y0001850D02*
X0024853D01*
X0025053Y0001950D02*
X0024953Y0001850D01*
X0026000Y0001572D02*
Y0001372D01*
X0026150Y0001722D02*
X0026000Y0001572D01*
X0026350Y0001722D02*
X0026150D01*
X0026500Y0001572D02*
X0026350Y0001722D01*
X0026500Y0001372D02*
Y0001572D01*
X0026350Y0001222D02*
X0026500Y0001372D01*
X0026150Y0001222D02*
X0026350D01*
X0026000Y0001372D02*
X0026150Y0001222D01*
X0030000Y0003933D02*
Y0003733D01*
X0030250Y0003683D02*
X0030000Y0003933D01*
X0030500D02*
X0030250Y0003683D01*
X0030500Y0003733D02*
Y0003933D01*
X0030250Y0003983D02*
X0030500Y0003733D01*
X0030000D02*
X0030250Y0003983D01*
X0030000Y0001767D02*
Y0001567D01*
X0030250Y0001517D02*
X0030000Y0001767D01*
X0030500D02*
X0030250Y0001517D01*
X0030500Y0001567D02*
Y0001767D01*
X0030250Y0001817D02*
X0030500Y0001567D01*
X0030000D02*
X0030250Y0001817D01*
X0006750Y0001400D02*
X0006500Y0001150D01*
X0007000D02*
X0006750Y0001400D01*
X0006500Y0001150D02*
X0007000D01*
X0005963Y0001400D02*
X0005713Y0001150D01*
X0006213D02*
X0005963Y0001400D01*
X0005713Y0001150D02*
X0006213D01*
X0005175Y0001400D02*
X0004925Y0001150D01*
X0005425D02*
X0005175Y0001400D01*
X0004925Y0001150D02*
X0005425D01*
X0004388Y0001400D02*
X0004138Y0001150D01*
X0004638D02*
X0004388Y0001400D01*
X0004138Y0001150D02*
X0004638D01*
X0021734Y0009492D02*
Y0009242D01*
X0021984Y0009492D02*
X0021734D01*
X0021984Y0008992D02*
Y0009492D01*
X0022234Y0008992D02*
X0021984D01*
X0022234Y0009242D02*
Y0008992D01*
X0021734Y0009242D02*
X0022234D01*
X0020750Y0009492D02*
Y0009242D01*
X0021000Y0009492D02*
X0020750D01*
X0021000Y0008992D02*
Y0009492D01*
X0021250Y0008992D02*
X0021000D01*
X0021250Y0009242D02*
Y0008992D01*
X0020750Y0009242D02*
X0021250D01*
X0019766Y0009492D02*
Y0009242D01*
X0020016Y0009492D02*
X0019766D01*
X0020016Y0008992D02*
Y0009492D01*
X0020266Y0008992D02*
X0020016D01*
X0020266Y0009242D02*
Y0008992D01*
X0019766Y0009242D02*
X0020266D01*
X0018911Y0008472D02*
Y0008272D01*
X0019061Y0008622D02*
X0018911Y0008472D01*
X0019261Y0008622D02*
X0019061D01*
X0019411Y0008472D02*
X0019261Y0008622D01*
X0019411Y0008272D02*
Y0008472D01*
X0019261Y0008122D02*
X0019411Y0008272D01*
X0019061Y0008122D02*
X0019261D01*
X0018911Y0008272D02*
X0019061Y0008122D01*
X0019111Y0008472D02*
Y0008522D01*
X0019061Y0008472D02*
X0019111D01*
X0019061Y0008522D02*
Y0008472D01*
X0019111Y0008522D02*
X0019061D01*
X0019211D02*
Y0008472D01*
X0019261Y0008522D02*
X0019211D01*
X0019261Y0008472D02*
Y0008522D01*
X0019211Y0008472D02*
X0019261D01*
X0019111Y0008222D02*
X0019011Y0008322D01*
X0019211Y0008222D02*
X0019111D01*
X0019311Y0008322D02*
X0019211Y0008222D01*
X0019766Y0008508D02*
Y0008258D01*
X0020016Y0008508D02*
X0019766D01*
X0020016Y0008008D02*
Y0008508D01*
X0020266Y0008008D02*
X0020016D01*
X0020266Y0008258D02*
Y0008008D01*
X0019766Y0008258D02*
X0020266D01*
X0020750Y0008508D02*
Y0008258D01*
X0021000Y0008508D02*
X0020750D01*
X0021000Y0008008D02*
Y0008508D01*
X0021250Y0008008D02*
X0021000D01*
X0021250Y0008258D02*
Y0008008D01*
X0020750Y0008258D02*
X0021250D01*
X0021734Y0008508D02*
Y0008258D01*
X0021984Y0008508D02*
X0021734D01*
X0021984Y0008008D02*
Y0008508D01*
X0022234Y0008008D02*
X0021984D01*
X0022234Y0008258D02*
Y0008008D01*
X0021734Y0008258D02*
X0022234D01*
X0022588Y0008472D02*
Y0008272D01*
X0022738Y0008622D02*
X0022588Y0008472D01*
X0022938Y0008622D02*
X0022738D01*
X0023088Y0008472D02*
X0022938Y0008622D01*
X0023088Y0008272D02*
Y0008472D01*
X0022938Y0008122D02*
X0023088Y0008272D01*
X0022738Y0008122D02*
X0022938D01*
X0022588Y0008272D02*
X0022738Y0008122D01*
X0022788Y0008472D02*
Y0008522D01*
X0022738Y0008472D02*
X0022788D01*
X0022738Y0008522D02*
Y0008472D01*
X0022788Y0008522D02*
X0022738D01*
X0022888D02*
Y0008472D01*
X0022938Y0008522D02*
X0022888D01*
X0022938Y0008472D02*
Y0008522D01*
X0022888Y0008472D02*
X0022938D01*
X0022788Y0008222D02*
X0022688Y0008322D01*
X0022888Y0008222D02*
X0022788D01*
X0022988Y0008322D02*
X0022888Y0008222D01*
X0022226Y0003242D02*
Y0002992D01*
X0022476Y0003242D02*
X0022226D01*
X0022476Y0002742D02*
Y0003242D01*
X0022726Y0002742D02*
X0022476D01*
X0022726Y0002992D02*
Y0002742D01*
X0022226Y0002992D02*
X0022726D01*
X0021242Y0003242D02*
Y0002992D01*
X0021492Y0003242D02*
X0021242D01*
X0021492Y0002742D02*
Y0003242D01*
X0021742Y0002742D02*
X0021492D01*
X0021742Y0002992D02*
Y0002742D01*
X0021242Y0002992D02*
X0021742D01*
X0020258Y0003242D02*
Y0002992D01*
X0020508Y0003242D02*
X0020258D01*
X0020508Y0002742D02*
Y0003242D01*
X0020758Y0002742D02*
X0020508D01*
X0020758Y0002992D02*
Y0002742D01*
X0020258Y0002992D02*
X0020758D01*
X0019274Y0003242D02*
Y0002992D01*
X0019524Y0003242D02*
X0019274D01*
X0019524Y0002742D02*
Y0003242D01*
X0019774Y0002742D02*
X0019524D01*
X0019774Y0002992D02*
Y0002742D01*
X0019274Y0002992D02*
X0019774D01*
X0019274Y0002258D02*
Y0002008D01*
X0019524Y0002258D02*
X0019274D01*
X0019524Y0001758D02*
Y0002258D01*
X0019774Y0001758D02*
X0019524D01*
X0019774Y0002008D02*
Y0001758D01*
X0019274Y0002008D02*
X0019774D01*
X0020750Y0001580D02*
Y0001380D01*
X0020900Y0001730D02*
X0020750Y0001580D01*
X0021100Y0001730D02*
X0020900D01*
X0021250Y0001580D02*
X0021100Y0001730D01*
X0021250Y0001380D02*
Y0001580D01*
X0021100Y0001230D02*
X0021250Y0001380D01*
X0020900Y0001230D02*
X0021100D01*
X0020750Y0001380D02*
X0020900Y0001230D01*
X0022226Y0002258D02*
Y0002008D01*
X0022476Y0002258D02*
X0022226D01*
X0022476Y0001758D02*
Y0002258D01*
X0022726Y0001758D02*
X0022476D01*
X0022726Y0002008D02*
Y0001758D01*
X0022226Y0002008D02*
X0022726D01*
X0021242Y0002258D02*
Y0002008D01*
X0021492Y0002258D02*
X0021242D01*
X0021492Y0001758D02*
Y0002258D01*
X0021742Y0001758D02*
X0021492D01*
X0021742Y0002008D02*
Y0001758D01*
X0021242Y0002008D02*
X0021742D01*
X0020258Y0002258D02*
Y0002008D01*
X0020508Y0002258D02*
X0020258D01*
X0020508Y0001758D02*
Y0002258D01*
X0020758Y0001758D02*
X0020508D01*
X0020758Y0002008D02*
Y0001758D01*
X0020258Y0002008D02*
X0020758D01*
X0037151Y0002218D02*
Y0001718D01*
X0037651Y0002218D02*
X0037151D01*
X0037651Y0001718D02*
Y0002218D01*
X0037151Y0001718D02*
X0037651D01*
Y0002218D02*
X0037151Y0001718D01*
X0037651D02*
X0037151Y0002218D01*
X0001718D02*
Y0001718D01*
X0002218Y0002218D02*
X0001718D01*
X0002218Y0001718D02*
Y0002218D01*
X0001718Y0001718D02*
X0002218D01*
Y0002218D02*
X0001718Y0001718D01*
X0002218D02*
X0001718Y0002218D01*
X0037151Y0014029D02*
Y0013529D01*
X0037651Y0014029D02*
X0037151D01*
X0037651Y0013529D02*
Y0014029D01*
X0037151Y0013529D02*
X0037651D01*
Y0014029D02*
X0037151Y0013529D01*
X0037651D02*
X0037151Y0014029D01*
X0001718D02*
Y0013529D01*
X0002218Y0014029D02*
X0001718D01*
X0002218Y0013529D02*
Y0014029D01*
X0001718Y0013529D02*
X0002218D01*
Y0014029D02*
X0001718Y0013529D01*
X0002218D02*
X0001718Y0014029D01*
G54D56*
G01X0000000Y0015748D02*
Y0000000D01*
X0039350D01*
Y0015748D01*
X0000000D01*
M02*
