*
G04 Mass Parameters ***
*
G04 Image ***
*
%IND:\UTENTI\00.LAVORI IN CORSO\METALTRONICA\22-313-0\22-313-0.TOP*%
%ICAS*%
%MOIN*%
%IPPOS*%
%ASAXBY*%
G74*%FSLAN2X34Y34*%
*
G04 Aperture Definitions ***
*
%ADD10C,0.0394*%
%ADD11R,0.0380X0.0320*%
%ADD12R,0.0886X0.0905*%
%ADD13R,0.1024X0.0510*%
%ADD14R,0.0197X0.0315*%
%ADD15R,0.0501X0.0404*%
%ADD16R,0.0527X0.0630*%
%ADD17R,0.1913X0.1496*%
%ADD18C,0.2756*%
%ADD19C,0.0787*%
%ADD20C,0.0512*%
%ADD21R,0.0787X0.0787*%
%ADD22O,0.0787X0.1181*%
%ADD23C,0.0669*%
%ADD24R,0.0669X0.0669*%
%ADD25C,0.0590*%
%ADD26R,0.0590X0.0590*%
%ADD27C,0.1200*%
%ADD28R,0.1200X0.1200*%
%ADD29C,0.0866*%
%ADD30C,0.1000*%
%ADD31R,0.1000X0.1000*%
%ADD32C,0.0610*%
%ADD33R,0.0610X0.0610*%
%ADD34C,0.1181*%
%ADD35C,0.0984*%
%ADD36R,0.0984X0.0984*%
%ADD37R,0.0630X0.0630*%
%ADD38C,0.0630*%
%ADD39C,0.1299*%
%ADD40C,0.0187*%
%ADD41R,0.0500X0.0400*%
%ADD42R,0.0354X0.0315*%
%ADD43R,0.0710X0.0400*%
%ADD44R,0.1080X0.0850*%
%ADD45R,0.0177X0.0394*%
%ADD46C,0.0800*%
%ADD47R,0.0236X0.0512*%
%ADD48C,0.0276*%
%ADD49C,0.0050*%
%ADD50C,0.0100*%
%ADD51C,0.0080*%
%ADD52C,0.0276*%
%ADD53C,0.0300*%
%ADD54C,0.0120*%
%ADD55C,0.0200*%
%ADD56C,0.0500*%
%ADD57C,0.0250*%
%ADD58C,0.1000*%
%ADD59C,0.0150*%
%ADD60C,0.0276*%
*
G04 Plot Data ***
*
G54D49*
G01X0022450Y0014735D02*
X0021750D01*
X0022450Y0014690D02*
X0021750D01*
X0022450Y0014645D02*
X0021750D01*
X0022450Y0014600D02*
X0021750D01*
X0022450Y0014555D02*
X0021750D01*
X0022450Y0014510D02*
X0021750D01*
X0022450Y0014465D02*
X0021750D01*
X0022450Y0014420D02*
X0021750D01*
X0022450Y0014375D02*
X0021750D01*
X0022450Y0014330D02*
X0021750D01*
X0022450Y0014285D02*
X0021750D01*
X0022450Y0014240D02*
X0021750D01*
X0022450Y0014195D02*
X0021750D01*
X0022450Y0014150D02*
X0021750D01*
X0022450Y0014105D02*
X0021750D01*
X0022450Y0014060D02*
X0021750D01*
X0022450Y0014015D02*
X0021750D01*
X0022450Y0013970D02*
X0021750D01*
X0022450Y0013925D02*
X0021750D01*
X0022450Y0013880D02*
X0021750D01*
X0022450Y0013835D02*
X0021750D01*
X0022450Y0013790D02*
X0021750D01*
X0022450Y0013745D02*
X0021750D01*
X0022450Y0013700D02*
X0021750D01*
X0022450Y0013655D02*
X0021750D01*
X0022450Y0013610D02*
X0021750D01*
X0022450Y0013565D02*
X0021750D01*
X0022450Y0013520D02*
X0021750D01*
X0022450Y0013475D02*
X0021750D01*
X0022450Y0013430D02*
X0021750D01*
X0022450Y0013385D02*
X0021750D01*
X0022450Y0013340D02*
X0021750D01*
X0021795Y0015250D02*
Y0013250D01*
X0022450D02*
X0021750D01*
Y0015250D02*
Y0013250D01*
X0022450Y0015250D02*
X0021750D01*
X0022425D02*
Y0013250D01*
X0022380Y0015250D02*
Y0013250D01*
X0022335Y0015250D02*
Y0013250D01*
X0022290Y0015250D02*
Y0013250D01*
X0022245Y0015250D02*
Y0013250D01*
X0022200Y0015250D02*
Y0013250D01*
X0022155Y0015250D02*
Y0013250D01*
X0022110Y0015250D02*
Y0013250D01*
X0022065Y0015250D02*
Y0013250D01*
X0022020Y0015250D02*
Y0013250D01*
X0021975Y0015250D02*
Y0013250D01*
X0021930Y0015250D02*
Y0013250D01*
X0021885Y0015250D02*
Y0013250D01*
X0021840Y0015250D02*
Y0013250D01*
X0022450Y0015230D02*
X0021750D01*
X0022450Y0015185D02*
X0021750D01*
X0022450Y0015140D02*
X0021750D01*
X0022450Y0015095D02*
X0021750D01*
X0022450Y0015050D02*
X0021750D01*
X0022450Y0015005D02*
X0021750D01*
X0022450Y0014960D02*
X0021750D01*
X0022450Y0014915D02*
X0021750D01*
X0022450Y0014870D02*
X0021750D01*
X0022450Y0014825D02*
X0021750D01*
X0022450Y0014780D02*
X0021750D01*
X0022450Y0013295D02*
X0021750D01*
X0022450Y0015250D02*
Y0013250D01*
X0023750Y0014735D02*
X0023050D01*
X0023750Y0014690D02*
X0023050D01*
X0023750Y0014645D02*
X0023050D01*
X0023750Y0014600D02*
X0023050D01*
X0023750Y0014555D02*
X0023050D01*
X0023750Y0014510D02*
X0023050D01*
X0023750Y0014465D02*
X0023050D01*
X0023750Y0014420D02*
X0023050D01*
X0023750Y0014375D02*
X0023050D01*
X0023750Y0014330D02*
X0023050D01*
X0023750Y0014285D02*
X0023050D01*
X0023750Y0014240D02*
X0023050D01*
X0023750Y0014195D02*
X0023050D01*
X0023750Y0014150D02*
X0023050D01*
X0023750Y0014105D02*
X0023050D01*
X0023750Y0014060D02*
X0023050D01*
X0023750Y0014015D02*
X0023050D01*
X0023750Y0013970D02*
X0023050D01*
X0023750Y0013925D02*
X0023050D01*
X0023750Y0013880D02*
X0023050D01*
X0023750Y0013835D02*
X0023050D01*
X0023750Y0013790D02*
X0023050D01*
X0023750Y0013745D02*
X0023050D01*
X0023750Y0013700D02*
X0023050D01*
X0023750Y0013655D02*
X0023050D01*
X0023750Y0013610D02*
X0023050D01*
X0023750Y0013565D02*
X0023050D01*
X0023750Y0013520D02*
X0023050D01*
X0023750Y0013475D02*
X0023050D01*
X0023750Y0013430D02*
X0023050D01*
X0023750Y0013385D02*
X0023050D01*
X0023750Y0013340D02*
X0023050D01*
X0023095Y0015250D02*
Y0013250D01*
X0023050Y0015250D02*
Y0013250D01*
X0023750D02*
X0023050D01*
X0023750Y0015250D02*
Y0013250D01*
X0023725Y0015250D02*
Y0013250D01*
X0023680Y0015250D02*
Y0013250D01*
X0023635Y0015250D02*
Y0013250D01*
X0023590Y0015250D02*
Y0013250D01*
X0023545Y0015250D02*
Y0013250D01*
X0023500Y0015250D02*
Y0013250D01*
X0023455Y0015250D02*
Y0013250D01*
X0023410Y0015250D02*
Y0013250D01*
X0023365Y0015250D02*
Y0013250D01*
X0023320Y0015250D02*
Y0013250D01*
X0023275Y0015250D02*
Y0013250D01*
X0023230Y0015250D02*
Y0013250D01*
X0023185Y0015250D02*
Y0013250D01*
X0023140Y0015250D02*
Y0013250D01*
X0023750Y0015230D02*
X0023050D01*
X0023750Y0015185D02*
X0023050D01*
X0023750Y0015140D02*
X0023050D01*
X0023750Y0015095D02*
X0023050D01*
X0023750Y0015050D02*
X0023050D01*
X0023750Y0015005D02*
X0023050D01*
X0023750Y0014960D02*
X0023050D01*
X0023750Y0014915D02*
X0023050D01*
X0023750Y0014870D02*
X0023050D01*
X0023750Y0014825D02*
X0023050D01*
X0023750Y0014780D02*
X0023050D01*
X0023750Y0013295D02*
X0023050D01*
X0023750Y0015250D02*
X0023050D01*
G54D50*
G01X0022036Y0002360D02*
X0021932D01*
X0019025Y0004232D02*
X0019106Y0004151D01*
X0008780Y0002360D02*
X0008010D01*
X0032382Y0014060D02*
X0031242D01*
X0024240Y0008390D02*
X0023402D01*
X0006020Y0000788D02*
Y0000650D01*
X0012040Y0008528D02*
Y0008472D01*
X0010880Y0008528D02*
Y0008472D01*
X0010610Y0008528D02*
Y0008472D01*
X0011150Y0010953D02*
Y0010660D01*
X0004790Y0007940D02*
X0002807D01*
X0010520Y0001470D02*
Y0001310D01*
X0010250Y0008528D02*
Y0008472D01*
X0013040Y0013700D02*
Y0010437D01*
X0013536Y0008762D02*
Y0008554D01*
X0011330Y0008528D02*
Y0008472D01*
X0009705Y0007610D02*
X0009640D01*
X0010970Y0001470D02*
Y0001310D01*
X0012040Y0008528D02*
Y0008472D01*
X0009620Y0010564D02*
Y0009867D01*
X0011780Y0001545D02*
Y0001310D01*
X0004790Y0007490D02*
X0003257D01*
X0010671Y0008528D02*
X0010579D01*
X0032110Y0013700D02*
X0031671D01*
Y0013772D02*
Y0013028D01*
X0030950D02*
Y0012972D01*
X0031017Y0011030D02*
X0030482D01*
X0025100Y0012228D02*
Y0012110D01*
X0023750Y0011205D02*
Y0011158D01*
X0025540Y0012110D02*
X0025390D01*
X0025079Y0012390D02*
Y0012228D01*
X0031490Y0014460D02*
Y0013772D01*
X0030921Y0013028D02*
X0030829D01*
X0013850Y0010653D02*
Y0010010D01*
X0026710Y0012228D02*
Y0012110D01*
X0027040D02*
X0026890D01*
X0005431Y0007040D02*
X0005210D01*
X0027460Y0012228D02*
Y0012110D01*
X0028960Y0012228D02*
Y0012110D01*
X0027671Y0012228D02*
X0027579D01*
X0026921D02*
X0026829D01*
X0029290Y0012110D02*
X0029140D01*
X0007880Y0005120D02*
Y0004677D01*
X0029171Y0012228D02*
X0029079D01*
X0028520Y0010040D02*
Y0009460D01*
X0028860Y0008610D02*
X0028363D01*
X0008780Y0001730D02*
X0008017D01*
X0015475Y0004070D02*
X0015277D01*
X0004835Y0008480D02*
X0002460D01*
X0014120Y0012655D02*
Y0011240D01*
X0014390Y0010700D02*
Y0010140D01*
X0016278Y0012710D02*
X0015960D01*
Y0012802D02*
Y0011360D01*
X0016568Y0010190D02*
X0016110D01*
X0016568Y0011540D02*
X0015960D01*
X0018610Y0009360D02*
X0017890D01*
Y0008800D02*
Y0008700D01*
X0024640Y0011630D02*
X0024237D01*
X0025360Y0012110D02*
X0024640D01*
X0018260Y0006710D02*
Y0006392D01*
X0024640Y0012110D02*
Y0011550D01*
X0016568Y0012325D02*
Y0011475D01*
X0017932D02*
X0016568D01*
X0017932Y0012325D02*
Y0011475D01*
Y0012325D02*
X0016568D01*
Y0011025D02*
Y0010175D01*
X0017932D02*
X0016568D01*
X0017932Y0011025D02*
X0016568D01*
X0021387Y0011158D02*
Y0009913D01*
X0022613D02*
X0021387D01*
X0022613Y0011158D02*
Y0009913D01*
Y0011158D02*
X0021387D01*
X0019664Y0014161D02*
X0021095Y0012730D01*
X0022613Y0011842D02*
X0021387D01*
X0022613Y0013087D02*
Y0011842D01*
X0022887Y0011158D02*
Y0009913D01*
X0025066Y0010590D02*
X0024687D01*
X0024380Y0012677D02*
Y0011507D01*
X0022887Y0013087D02*
Y0011842D01*
X0024113D02*
X0022887D01*
X0024390Y0012687D02*
Y0012390D01*
X0025525Y0013028D02*
X0025110D01*
X0018205Y0006050D02*
X0016847D01*
X0030509Y0007883D02*
X0030453D01*
X0030360Y0007200D02*
Y0006640D01*
X0030390Y0007320D02*
X0030360D01*
X0028890Y0008240D02*
X0028880D01*
X0028890Y0009610D02*
Y0009050D01*
X0029513Y0008360D02*
X0028890D01*
Y0009050D02*
Y0008950D01*
X0002388Y0003831D02*
Y0003458D01*
X0016568Y0011990D02*
X0015960D01*
X0021643Y0013087D02*
X0021387D01*
X0032173Y0013160D02*
X0031671D01*
X0029820Y0006640D02*
Y0006300D01*
X0032120Y0014460D02*
Y0013728D01*
X0032080Y0013520D02*
X0031671D01*
X0030390Y0007310D02*
X0030360D01*
X0031671Y0013028D02*
X0030921D01*
X0028398Y0008645D02*
X0028363Y0008610D01*
X0005778Y0007670D02*
X0005210D01*
X0027790Y0012228D02*
Y0012110D01*
X0027610Y0011450D02*
Y0010890D01*
X0027510Y0009953D02*
Y0009844D01*
X0022990Y0002270D02*
X0022975D01*
X0025110Y0013028D02*
Y0012972D01*
X0024640Y0011900D02*
X0024113D01*
X0025079Y0012390D02*
X0024390D01*
X0024348Y0009651D02*
X0023850Y0009153D01*
X0022990Y0002540D02*
X0022813D01*
X0002962Y0009110D02*
X0002735D01*
X0018250Y0010305D02*
X0017932D01*
X0029610Y0008950D02*
Y0008440D01*
X0021500Y0009913D02*
Y0009384D01*
X0015475Y0004160D02*
X0015360D01*
X0019250Y0005290D02*
Y0004710D01*
X0017890Y0009360D02*
Y0008800D01*
X0010632Y0011450D02*
X0008482D01*
X0018667Y0008840D02*
X0018610D01*
X0016640Y0011475D02*
Y0011025D01*
X0018610Y0008800D02*
Y0008700D01*
X0015200Y0001104D02*
Y0001060D01*
X0016910Y0001157D02*
Y0001060D01*
X0016820Y0001247D02*
Y0001060D01*
X0016730Y0001337D02*
Y0001060D01*
X0016550Y0001449D02*
Y0001060D01*
X0016460Y0001444D02*
Y0001060D01*
X0016110Y0010800D02*
Y0010700D01*
X0016370Y0001454D02*
Y0001060D01*
X0016280Y0001479D02*
Y0001060D01*
X0016190Y0001522D02*
Y0001060D01*
X0016100Y0001588D02*
Y0001060D01*
X0016010Y0001691D02*
Y0001060D01*
X0015920Y0001641D02*
Y0001060D01*
X0015830Y0001556D02*
Y0001060D01*
X0015650Y0001466D02*
Y0001060D01*
X0015380Y0001288D02*
Y0001060D01*
X0015090Y0010140D02*
X0014390D01*
X0017905Y0002645D02*
Y0002522D01*
X0015470Y0001444D02*
Y0001060D01*
X0021387Y0012270D02*
Y0011842D01*
X0011870Y0001545D02*
Y0001310D01*
X0011060Y0001470D02*
Y0001310D01*
X0013490Y0001445D02*
Y0001310D01*
X0013400Y0001458D02*
Y0001310D01*
X0013103Y0001632D02*
Y0001444D01*
X0013220Y0001533D02*
Y0001310D01*
X0013130Y0001604D02*
Y0001310D01*
X0013040Y0001444D02*
Y0001310D01*
X0012950Y0001444D02*
Y0001310D01*
X0012860Y0001444D02*
Y0001310D01*
X0012770Y0001444D02*
Y0001310D01*
X0012680Y0001444D02*
Y0001310D01*
X0005210Y0009016D02*
Y0008857D01*
X0011421Y0008472D02*
X0011329D01*
X0012500Y0001444D02*
Y0001310D01*
X0012410Y0001444D02*
Y0001310D01*
X0012140Y0001444D02*
Y0001310D01*
X0011990Y0005780D02*
X0011510D01*
X0011150Y0001470D02*
Y0001310D01*
X0010970Y0008528D02*
Y0008472D01*
X0012703Y0010100D02*
X0012406D01*
X0010700Y0001470D02*
Y0001310D01*
X0011960Y0001545D02*
Y0001310D01*
X0011420Y0001470D02*
Y0001310D01*
X0013665Y0001462D02*
X0013513Y0001310D01*
X0009829Y0008096D02*
X0009791Y0008058D01*
X0011600Y0001545D02*
Y0001310D01*
X0010880Y0001470D02*
Y0001310D01*
X0011421Y0008528D02*
X0011329D01*
X0011420D02*
Y0008472D01*
X0011390Y0006770D02*
X0010795D01*
X0009800Y0010656D02*
Y0009960D01*
X0009620Y0001220D02*
Y0001060D01*
X0009790Y0002390D02*
X0009640D01*
X0009890Y0004700D02*
X0009620D01*
X0009980Y0001173D02*
Y0001060D01*
X0007590Y0001910D02*
X0006387D01*
X0009260Y0011919D02*
Y0011314D01*
X0009440Y0001280D02*
Y0001220D01*
X0009350Y0001280D02*
Y0001220D01*
X0009260Y0001280D02*
Y0001220D01*
X0009170Y0001280D02*
Y0001220D01*
X0009323Y0005730D02*
X0008865D01*
X0007880Y0001100D02*
X0007215D01*
X0008540Y0000880D02*
Y0000650D01*
X0008450Y0000880D02*
Y0000650D01*
X0008720Y0003123D02*
Y0000650D01*
X0008270Y0000880D02*
Y0000650D01*
X0008538Y0010528D02*
X0008520D01*
X0007910Y0010608D02*
Y0006870D01*
X0008780Y0001910D02*
X0008010D01*
Y0002630D02*
Y0001737D01*
X0008780Y0002450D02*
X0008010D01*
X0007730Y0001423D02*
Y0000650D01*
X0007190Y0000785D02*
Y0000650D01*
X0007100Y0000785D02*
Y0000650D01*
X0008360Y0000880D02*
Y0000650D01*
X0006920Y0000785D02*
Y0000650D01*
X0007100Y0009850D02*
Y0001715D01*
X0006740Y0000785D02*
Y0000650D01*
X0006650Y0000785D02*
Y0000650D01*
X0006560Y0000785D02*
Y0000650D01*
X0006285Y0000915D02*
Y0000785D01*
X0007820Y0001333D02*
Y0000650D01*
X0004490Y0000796D02*
Y0000650D01*
X0005030Y0000808D02*
Y0000650D01*
X0005930Y0000786D02*
Y0000650D01*
X0005840Y0000801D02*
Y0000650D01*
X0005750Y0000836D02*
Y0000650D01*
X0016568Y0011900D02*
X0015960D01*
X0004580Y0000826D02*
Y0000650D01*
X0005480Y0000899D02*
Y0000650D01*
X0005390Y0000837D02*
Y0000650D01*
X0005300Y0000802D02*
Y0000650D01*
X0005210Y0000786D02*
Y0000650D01*
X0006110Y0000809D02*
Y0000650D01*
X0005660Y0000897D02*
Y0000650D01*
X0004940Y0000849D02*
Y0000650D01*
X0004032Y0001550D02*
X0003458D01*
X0004760Y0000971D02*
Y0000650D01*
X0004670Y0000880D02*
Y0000650D01*
X0005120Y0000788D02*
Y0000650D01*
X0004850Y0000918D02*
Y0000650D01*
X0004400Y0000785D02*
Y0000650D01*
X0004310Y0000791D02*
Y0000650D01*
X0029742Y0009035D02*
Y0008907D01*
X0004220Y0000816D02*
Y0000650D01*
X0003436Y0002810D02*
X0003267D01*
X0004130Y0000863D02*
Y0000650D01*
X0003950Y0001093D02*
Y0000650D01*
X0003860Y0002650D02*
Y0000650D01*
X0003770Y0002634D02*
Y0000650D01*
X0003680Y0002640D02*
Y0000650D01*
X0008810Y0001280D02*
Y0001220D01*
X0003770Y0006133D02*
Y0003366D01*
X0003500Y0001746D02*
Y0000650D01*
X0003320Y0001214D02*
Y0000650D01*
X0003230Y0001072D02*
Y0000650D01*
X0003140Y0000957D02*
Y0000650D01*
X0003050Y0000861D02*
Y0000650D01*
X0002960Y0000780D02*
Y0000650D01*
X0003140Y0006763D02*
Y0002979D01*
X0003050Y0006853D02*
Y0003075D01*
X0016568Y0012260D02*
X0015960D01*
X0002870Y0007033D02*
Y0003226D01*
X0004965Y0003800D02*
X0002388D01*
X0003410Y0001405D02*
Y0000650D01*
X0008780D02*
X0002779D01*
X0003410Y0002863D02*
Y0002531D01*
X0032236Y0013070D02*
X0031671D01*
X0028890Y0008720D02*
X0029250D01*
X0023480Y0011205D02*
Y0011158D01*
X0033580Y0014170D02*
Y0013527D01*
X0011419Y0011068D02*
Y0010951D01*
X0011960D02*
Y0010660D01*
X0008630Y0000880D02*
Y0000650D01*
X0015110Y0001069D02*
Y0001060D01*
X0009530Y0001280D02*
Y0001220D01*
X0015740Y0001501D02*
Y0001060D01*
X0003590Y0006313D02*
Y0003330D01*
X0003180Y0009020D02*
X0002735D01*
X0031110Y0007860D02*
Y0007300D01*
X0019455Y0003890D02*
X0019195D01*
X0011390Y0007220D02*
X0010769D01*
X0002766Y0009470D02*
X0002735D01*
X0002780Y0009380D02*
X0002735D01*
Y0009015D02*
X0002460D01*
X0005373Y0009020D02*
X0005319D01*
X0005283Y0008930D02*
X0002460D01*
X0004790Y0008030D02*
X0002717D01*
X0009829Y0008390D02*
X0005337D01*
X0030360Y0007300D02*
Y0007200D01*
X0005898Y0008951D02*
X0005210Y0008263D01*
X0002330Y0006421D02*
Y0004045D01*
X0002503Y0007400D02*
X0002465D01*
X0002593Y0007310D02*
X0002508D01*
X0002683Y0007220D02*
X0002539D01*
X0002773Y0007130D02*
X0002559D01*
X0002953Y0006950D02*
X0002568D01*
X0003043Y0006860D02*
X0002557D01*
X0003133Y0006770D02*
X0002536D01*
X0003223Y0006680D02*
X0002504D01*
X0003403Y0006500D02*
X0002399D01*
X0022040Y0005280D02*
Y0005220D01*
X0004760Y0009850D02*
Y0005987D01*
X0003763Y0006140D02*
X0002150D01*
X0020420Y0004880D02*
Y0003549D01*
X0008000Y0000880D02*
Y0000650D01*
X0004123Y0005780D02*
X0002150D01*
X0004213Y0005690D02*
X0002150D01*
X0004965Y0004880D02*
X0002150D01*
X0008090Y0000880D02*
Y0000650D01*
X0021410Y0004480D02*
Y0003988D01*
X0004965Y0004790D02*
X0002150D01*
X0004753Y0005150D02*
X0002150D01*
X0004303Y0005600D02*
X0002150D01*
X0004393Y0005510D02*
X0002150D01*
X0004843Y0005060D02*
X0002150D01*
X0008990Y0001280D02*
Y0001220D01*
X0004965Y0003350D02*
X0003859D01*
X0022140Y0004450D02*
Y0004430D01*
X0004965Y0003260D02*
X0004008D01*
X0004965Y0003620D02*
X0002388D01*
X0010520Y0013700D02*
Y0010660D01*
X0004965Y0004520D02*
X0002150D01*
X0005570Y0001001D02*
Y0000650D01*
X0003641Y0003350D02*
X0002665D01*
X0003491Y0003260D02*
X0002821D01*
X0003425Y0003170D02*
X0002943D01*
X0003383Y0002990D02*
X0003131D01*
X0003397Y0002900D02*
X0003204D01*
X0003513Y0002720D02*
X0003321D01*
X0004965Y0004430D02*
X0002150D01*
Y0006285D02*
Y0004243D01*
X0009620Y0005433D02*
X0009690Y0005363D01*
X0004965Y0002360D02*
X0003465D01*
X0011525Y0002210D02*
Y0002135D01*
X0004965Y0002090D02*
X0003511D01*
X0016568Y0011810D02*
X0015960D01*
X0016910Y0002632D02*
Y0002368D01*
X0006380Y0000785D02*
Y0000650D01*
X0004134Y0001640D02*
X0003481D01*
X0004040Y0000941D02*
Y0000650D01*
X0003938Y0001370D02*
X0003395D01*
X0003923Y0001280D02*
X0003354D01*
X0003926Y0001190D02*
X0003306D01*
X0002510Y0006694D02*
Y0003418D01*
X0010360Y0002950D02*
Y0002390D01*
X0009640Y0002950D02*
Y0002810D01*
X0018110Y0006140D02*
X0017390D01*
X0010070Y0001083D02*
Y0001060D01*
X0013090Y0005600D02*
X0011510D01*
X0009640Y0006950D02*
Y0006710D01*
X0010430Y0007728D02*
Y0007554D01*
X0009640Y0007050D02*
Y0006950D01*
X0025390Y0011515D02*
X0025360D01*
X0025460Y0012228D02*
Y0012110D01*
X0025370Y0012228D02*
Y0011515D01*
X0025390Y0011550D02*
Y0011515D01*
X0033807Y0014240D02*
X0031307D01*
X0030390Y0010460D02*
X0030360D01*
X0032300Y0013003D02*
Y0012834D01*
X0031110Y0010860D02*
X0030390D01*
X0031140Y0009920D02*
X0031110D01*
X0030390Y0010300D02*
Y0010200D01*
Y0010860D02*
Y0010300D01*
X0031140Y0007400D02*
X0031110D01*
X0031140Y0008360D02*
Y0007800D01*
Y0007700D01*
Y0007490D02*
X0031110D01*
Y0007200D02*
Y0006807D01*
X0030390Y0007300D02*
Y0007200D01*
X0028430Y0010040D02*
Y0009460D01*
X0030943Y0006640D02*
X0030763Y0006460D01*
X0028775Y0009460D02*
Y0008720D01*
X0027725Y0010780D02*
Y0010040D01*
X0028775D02*
X0027725D01*
X0028775Y0010780D02*
Y0010040D01*
X0028013Y0010890D02*
X0028042Y0010860D01*
X0030021Y0006500D02*
X0029820D01*
X0030410Y0010957D02*
Y0010860D01*
X0028931Y0010280D02*
X0028775D01*
X0028953Y0010370D02*
X0028775D01*
X0028930Y0009610D02*
X0028890D01*
X0030360Y0010860D02*
X0030320D01*
X0031140D02*
Y0010300D01*
X0030482Y0011030D02*
X0030320Y0010867D01*
X0031140Y0010200D02*
Y0009907D01*
Y0010300D02*
Y0010200D01*
X0028430Y0008685D02*
Y0008610D01*
X0028775Y0008720D02*
X0028446D01*
X0027154Y0007799D02*
X0027343Y0007610D01*
X0027193Y0007760D02*
X0026907D01*
X0026309Y0007850D02*
X0025760D01*
X0012770Y0005640D02*
Y0004777D01*
X0026140Y0007610D02*
Y0007210D01*
X0011780Y0005510D02*
X0011510D01*
X0026890Y0011630D02*
X0026860D01*
X0025640Y0009953D02*
X0025066D01*
X0026860Y0011450D02*
Y0011010D01*
X0029140Y0012110D02*
Y0011550D01*
Y0011540D02*
X0029110D01*
X0026860Y0012110D02*
Y0011550D01*
X0029140D02*
Y0011450D01*
X0026990Y0012228D02*
Y0012110D01*
X0011780Y0005330D02*
X0011510D01*
X0011780Y0005420D02*
X0011510D01*
X0026890Y0011550D02*
Y0011450D01*
Y0012110D02*
Y0011550D01*
X0029140Y0010910D02*
X0029110D01*
X0027710Y0012228D02*
Y0012110D01*
X0029110Y0010890D02*
X0028655D01*
X0027640Y0011450D02*
Y0010890D01*
X0027790Y0012228D02*
X0027671D01*
X0027640Y0011550D02*
Y0011450D01*
Y0012110D02*
Y0011550D01*
X0021967Y0004480D02*
X0022017Y0004430D01*
X0027790Y0012170D02*
X0027460D01*
X0003680Y0009276D02*
Y0007067D01*
X0004400Y0009039D02*
Y0006347D01*
X0021950Y0011842D02*
Y0011795D01*
X0003590Y0009154D02*
Y0007157D01*
X0019610Y0004776D02*
Y0004710D01*
X0020275Y0006030D02*
Y0005290D01*
Y0006030D02*
X0019225D01*
Y0004710D02*
Y0003970D01*
X0019455Y0003800D02*
X0019195D01*
X0020275Y0004710D02*
Y0003970D01*
Y0004710D02*
X0019225D01*
X0017900Y0005365D02*
Y0004467D01*
X0019225Y0004160D02*
X0019097D01*
X0019025Y0004710D02*
X0017975D01*
X0017775Y0005365D02*
Y0005290D01*
X0019025D02*
X0017975D01*
X0019225Y0005365D02*
Y0005290D01*
X0020498Y0006410D02*
X0018725D01*
X0015560Y0006440D02*
Y0006030D01*
X0016525Y0005365D02*
Y0005290D01*
X0022221Y0005330D02*
X0022120D01*
X0022855Y0014240D02*
X0022645D01*
X0022140Y0005110D02*
Y0004550D01*
Y0004450D01*
X0012620Y0005520D02*
X0011780D01*
X0009800Y0004803D02*
Y0004560D01*
X0024020Y0009323D02*
Y0007822D01*
X0009890Y0004713D02*
Y0004560D01*
X0014390Y0012753D02*
Y0011240D01*
X0014620Y0004780D02*
X0013780D01*
X0014620Y0005520D02*
Y0004780D01*
Y0003980D02*
X0013780D01*
X0014640Y0004260D02*
Y0004140D01*
X0014620Y0004720D02*
X0013780D01*
X0009620Y0003030D02*
X0008780D01*
X0009620Y0003770D02*
Y0003030D01*
X0008780Y0002970D02*
Y0002230D01*
X0009620D02*
X0008780D01*
X0010360Y0002390D02*
X0010210D01*
X0009620Y0002970D02*
X0008780D01*
Y0003183D02*
Y0003030D01*
X0008720Y0003123D02*
Y0002630D01*
X0008780Y0002020D02*
Y0001280D01*
X0009620D02*
X0008780D01*
X0009620Y0002020D02*
Y0001280D01*
Y0002020D02*
X0008780D01*
X0006830Y0000785D02*
Y0000650D01*
X0009851Y0001301D02*
X0010093Y0001060D01*
X0009620Y0001220D02*
X0008780D01*
X0006290Y0000920D02*
Y0000650D01*
X0008720Y0000880D02*
X0007880D01*
X0008720Y0001620D02*
Y0000880D01*
X0007880Y0001273D02*
Y0000880D01*
X0009620Y0005433D02*
Y0004780D01*
Y0003770D02*
X0008960D01*
X0009620Y0004140D02*
Y0002810D01*
Y0004780D02*
X0008960D01*
X0007880Y0004677D02*
X0007653Y0004450D01*
X0009620Y0004720D02*
X0008960D01*
X0008780Y0007270D02*
Y0006710D01*
X0009620Y0007270D02*
X0008780D01*
X0009620D02*
Y0006710D01*
X0007880Y0006870D02*
Y0006130D01*
X0008090Y0005120D02*
X0007880D01*
X0008040Y0007472D02*
X0007962D01*
X0026450Y0010590D02*
Y0010510D01*
X0026890Y0011450D02*
Y0011010D01*
X0027510Y0010636D02*
Y0010047D01*
X0026900Y0007682D02*
Y0007610D01*
X0028775Y0009460D02*
X0027894D01*
X0028890Y0009470D02*
X0027897D01*
X0025640Y0010047D02*
X0025066D01*
X0025760Y0010590D02*
Y0010307D01*
X0025066Y0009953D02*
Y0009299D01*
X0025760D02*
X0025066D01*
X0026090Y0010590D02*
Y0010510D01*
X0025066Y0010590D02*
Y0010047D01*
X0026127Y0009200D02*
X0024947D01*
X0024470Y0012390D02*
Y0011499D01*
X0024934Y0010327D02*
Y0009673D01*
X0027343Y0007610D02*
X0026890D01*
X0027283Y0007670D02*
X0026897D01*
X0026127Y0009650D02*
X0026034D01*
X0020780Y0015300D02*
Y0013045D01*
X0020870Y0015300D02*
Y0012955D01*
X0025760Y0009201D02*
X0025066D01*
X0021280Y0005690D02*
X0021010D01*
X0025760Y0007799D02*
X0025066D01*
X0025910Y0009513D02*
Y0009084D01*
X0024240Y0008827D02*
Y0008173D01*
X0024934D02*
X0024240D01*
X0020960Y0015300D02*
Y0012865D01*
X0025010Y0010590D02*
Y0009137D01*
X0025280Y0007770D02*
Y0007210D01*
X0026120Y0007770D02*
X0025280D01*
X0023660Y0009090D02*
Y0007860D01*
X0024380Y0006873D02*
Y0006710D01*
X0024120Y0007133D02*
Y0006710D01*
X0023280Y0007270D02*
Y0006710D01*
X0025220Y0007370D02*
X0024477D01*
X0022310Y0007543D02*
Y0007237D01*
X0021280Y0006020D02*
Y0005280D01*
X0022120D02*
X0021280D01*
X0021860Y0006187D02*
Y0006020D01*
X0021280Y0005220D02*
Y0004480D01*
X0021521Y0004340D02*
X0020275D01*
X0022120Y0005220D02*
Y0004480D01*
Y0005220D02*
X0021280D01*
X0020380Y0005620D02*
Y0004880D01*
X0021220D02*
X0020380D01*
X0021220Y0005620D02*
Y0004880D01*
X0022855Y0014510D02*
X0022645D01*
X0022855Y0014960D02*
X0022645D01*
X0022855Y0015140D02*
X0022645D01*
X0022855Y0013970D02*
X0022645D01*
X0008090Y0005690D02*
X0005307D01*
X0005960Y0009850D02*
Y0009100D01*
X0002735Y0009850D02*
Y0009015D01*
X0004850Y0009226D02*
Y0008497D01*
X0009425Y0009110D02*
X0005960D01*
X0016460Y0015300D02*
Y0014115D01*
X0016190Y0014009D02*
Y0013959D01*
X0016048Y0013700D02*
X0015985D01*
X0017160Y0013569D02*
Y0013175D01*
X0014540Y0011810D02*
X0012368D01*
X0016176Y0012800D02*
X0015960D01*
X0024377Y0009290D02*
X0023987D01*
X0013340Y0013569D02*
Y0013175D01*
X0017000Y0015300D02*
Y0013962D01*
X0015381Y0013610D02*
X0015262D01*
X0018466Y0012800D02*
X0017017D01*
X0013546Y0008570D02*
X0013536D01*
X0016280Y0012709D02*
Y0009722D01*
X0017890Y0008468D02*
X0017491D01*
X0014390Y0008820D02*
Y0008679D01*
X0014300Y0008755D02*
Y0008744D01*
X0004790Y0007310D02*
X0003437D01*
X0013220Y0013700D02*
Y0010617D01*
X0013310Y0010113D02*
Y0009817D01*
X0014300Y0010820D02*
Y0010010D01*
X0014531Y0008570D02*
X0014485D01*
X0015448Y0009701D02*
X0015400Y0009653D01*
X0011976Y0001545D02*
X0011525D01*
X0013194Y0001550D02*
X0013103D01*
X0013173Y0003530D02*
X0012707D01*
X0016877Y0001190D02*
X0015311D01*
X0012880Y0005120D02*
Y0004667D01*
X0017021Y0002360D02*
X0016916D01*
X0015110Y0002577D02*
Y0002422D01*
X0016280Y0003603D02*
Y0003520D01*
X0017900Y0002639D02*
Y0002517D01*
X0014210Y0002513D02*
Y0002486D01*
X0011525Y0001545D02*
Y0001470D01*
X0013103Y0001444D02*
X0011976D01*
X0012140Y0003448D02*
Y0003390D01*
X0014840Y0002537D02*
Y0002463D01*
X0004965Y0002990D02*
X0004116D01*
X0012164Y0002571D02*
X0011976D01*
X0014120Y0002583D02*
Y0002417D01*
X0008197Y0012330D02*
X0008209Y0012318D01*
X0021555Y0015230D02*
X0015350D01*
X0011420Y0013431D02*
Y0013356D01*
X0010700Y0012754D02*
Y0012458D01*
X0011510Y0013507D02*
Y0013280D01*
X0015262Y0013700D02*
Y0013414D01*
X0010700Y0011967D02*
Y0011671D01*
X0011510Y0012720D02*
Y0012492D01*
X0012368Y0010951D02*
X0011419D01*
X0012368Y0011900D02*
Y0010951D01*
X0033850Y0014197D02*
Y0014170D01*
X0022990Y0002360D02*
X0022916D01*
X0033587Y0014460D02*
X0033850Y0014197D01*
X0016568Y0011720D02*
X0015960D01*
X0003590Y0002670D02*
Y0000650D01*
X0005463Y0006770D02*
X0005210D01*
X0004060Y0000920D02*
X0003107D01*
X0007215Y0000785D02*
X0006285D01*
X0007215Y0001715D02*
Y0000785D01*
X0024377Y0009560D02*
X0024257D01*
X0022580Y0009913D02*
Y0009427D01*
X0022089Y0007764D02*
X0022349Y0007503D01*
X0023402Y0008569D02*
Y0008175D01*
X0022760Y0007440D02*
Y0006870D01*
X0025066Y0010370D02*
X0024467D01*
X0021367Y0006680D02*
X0018110D01*
X0018610Y0008700D02*
Y0008686D01*
X0013400Y0004140D02*
Y0003897D01*
X0022273Y0007580D02*
X0021967D01*
X0016568Y0010640D02*
X0016110D01*
Y0011360D02*
Y0010800D01*
X0022760Y0011205D02*
Y0009510D01*
X0020240Y0003970D02*
Y0003488D01*
X0021050Y0002642D02*
Y0002357D01*
X0022140Y0004430D02*
X0022017D01*
X0022310Y0009913D02*
Y0009627D01*
X0019195Y0003940D02*
Y0003450D01*
X0018434Y0013070D02*
X0017150D01*
X0018453Y0013160D02*
X0017160D01*
X0018488Y0013250D02*
X0017160D01*
X0017180Y0015300D02*
Y0012325D01*
X0015380Y0013890D02*
Y0013609D01*
X0015470Y0013817D02*
Y0013683D01*
X0015560Y0013771D02*
Y0013728D01*
X0015920Y0013770D02*
Y0013730D01*
X0016010Y0013814D02*
Y0013685D01*
X0010340Y0013700D02*
Y0010651D01*
X0013341Y0013610D02*
X0012334D01*
X0007590Y0003800D02*
X0005860D01*
X0007590Y0002540D02*
X0005860D01*
X0004965Y0004938D02*
Y0001665D01*
X0007640Y0001514D02*
Y0000650D01*
X0007590Y0002900D02*
X0005860D01*
X0006470Y0006211D02*
Y0001827D01*
X0003050Y0009058D02*
Y0007697D01*
X0004965Y0002630D02*
X0003367D01*
X0003950Y0002693D02*
Y0001407D01*
X0008090Y0005510D02*
X0005487D01*
X0008090Y0005600D02*
X0005397D01*
X0004965Y0004700D02*
X0002150D01*
X0016568Y0012080D02*
X0015960D01*
X0016568Y0012170D02*
X0015960D01*
X0004790Y0008120D02*
X0002627D01*
X0002869Y0009200D02*
X0002735D01*
X0009890Y0001263D02*
Y0001060D01*
X0010644Y0012890D02*
X0009314D01*
X0007010Y0000785D02*
Y0000650D01*
X0010632Y0012980D02*
X0009314D01*
X0010637Y0013070D02*
X0009314D01*
X0010659Y0013160D02*
X0009314D01*
X0010703Y0013250D02*
X0009314D01*
X0010775Y0013340D02*
X0009314D01*
X0010793Y0013430D02*
X0009314D01*
X0012045Y0002720D02*
X0010360D01*
X0011976Y0002450D02*
X0010360D01*
X0010430Y0002985D02*
Y0001317D01*
X0010475Y0002985D02*
X0010360D01*
X0010475Y0002900D02*
X0010360D01*
X0011976Y0002540D02*
X0010360D01*
X0008780Y0002720D02*
X0008720D01*
X0009170Y0002230D02*
Y0002020D01*
X0008780Y0003080D02*
X0008720D01*
X0009640Y0002390D02*
X0009620D01*
X0012107Y0002630D02*
X0010360D01*
X0009640Y0002810D02*
X0009620D01*
X0011420Y0006390D02*
Y0006177D01*
X0012040Y0007610D02*
X0011390D01*
X0011540Y0006390D02*
X0011390D01*
X0021387Y0012890D02*
X0020935D01*
X0018080Y0006140D02*
Y0006030D01*
X0013621Y0008660D02*
X0013536D01*
X0014605D02*
X0014410D01*
X0014210Y0003980D02*
Y0003470D01*
X0009696Y0003800D02*
X0008960D01*
X0009620Y0002970D02*
Y0002810D01*
X0018110Y0006710D02*
Y0006700D01*
X0020590Y0005620D02*
X0020380D01*
X0018170Y0006710D02*
Y0006030D01*
X0009620Y0003980D02*
X0008960D01*
X0022855Y0014420D02*
X0022645D01*
X0018436Y0013700D02*
X0017144D01*
X0021555Y0013250D02*
X0020575D01*
X0022887Y0012710D02*
X0022613D01*
X0020590Y0006125D02*
Y0005620D01*
X0021555Y0013700D02*
X0020125D01*
X0032750Y0012830D02*
Y0012697D01*
X0022855Y0014780D02*
X0022645D01*
X0022855Y0013610D02*
X0022645D01*
X0022855Y0014600D02*
X0022645D01*
X0022855Y0014690D02*
X0022645D01*
X0021555Y0013790D02*
X0020035D01*
X0021693Y0004160D02*
X0020275D01*
X0021280Y0004970D02*
X0021220D01*
X0022140Y0005060D02*
X0022120D01*
X0021603Y0004250D02*
X0020275D01*
X0021860Y0004022D02*
Y0003419D01*
X0021551Y0004301D02*
X0021779Y0004073D01*
X0022140Y0004010D02*
X0021930D01*
X0022140Y0004610D02*
X0022120D01*
X0022140Y0004430D02*
X0022017D01*
X0022040Y0004480D02*
Y0004430D01*
X0022177Y0005870D02*
X0022120D01*
X0021490Y0004480D02*
Y0004450D01*
X0029140Y0011630D02*
X0029110D01*
X0021555Y0014690D02*
X0015974D01*
X0003500Y0009084D02*
Y0007247D01*
X0022855Y0013880D02*
X0022645D01*
X0004663Y0005240D02*
X0002150D01*
X0022670Y0015300D02*
Y0011795D01*
X0020517Y0006230D02*
X0018806D01*
X0018128Y0010895D02*
X0017932D01*
X0020403Y0011630D02*
X0019433D01*
X0024290Y0012587D02*
Y0011577D01*
X0023990Y0009913D02*
X0022887D01*
X0024934Y0010327D02*
X0024424D01*
X0025066Y0010190D02*
X0024934D01*
X0029187Y0010640D02*
X0028775D01*
X0024650Y0010553D02*
Y0010327D01*
X0023750Y0011842D02*
Y0011795D01*
X0014540Y0011630D02*
X0012368D01*
X0023030Y0011205D02*
Y0011158D01*
X0023120Y0011205D02*
Y0011158D01*
X0023210Y0011205D02*
Y0011158D01*
X0023300Y0011205D02*
Y0011158D01*
X0023390Y0011205D02*
Y0011158D01*
X0004790Y0006140D02*
X0004607D01*
X0027790Y0012110D02*
X0027640D01*
X0014640Y0004260D02*
X0014620D01*
X0015475Y0004610D02*
X0015360D01*
X0014300Y0012753D02*
Y0011240D01*
X0013780Y0004560D02*
X0013720D01*
X0013850Y0003980D02*
Y0003451D01*
X0018350Y0015300D02*
Y0011117D01*
X0015920Y0003963D02*
Y0003359D01*
X0015475Y0004700D02*
X0015360D01*
X0025760Y0007916D02*
Y0007799D01*
X0004310Y0009019D02*
Y0006437D01*
X0005441Y0007130D02*
X0005210D01*
X0003950Y0005953D02*
Y0003307D01*
X0010579Y0008528D02*
X0009829D01*
X0004790Y0007850D02*
X0002897D01*
X0005480Y0006720D02*
Y0005517D01*
X0011690Y0006063D02*
Y0005120D01*
X0012230Y0005640D02*
Y0005520D01*
X0012140Y0005760D02*
X0012080D01*
X0010520Y0007728D02*
Y0007497D01*
X0011552Y0006230D02*
X0011367D01*
X0011960Y0005797D02*
Y0005520D01*
X0011601Y0006151D02*
X0011929Y0005823D01*
X0011540Y0006320D02*
X0011299D01*
X0011600Y0006153D02*
Y0005120D01*
X0011540Y0006390D02*
Y0006300D01*
X0002960Y0006943D02*
Y0003156D01*
X0011329Y0008528D02*
X0010671D01*
X0004790Y0007760D02*
X0002987D01*
X0005480Y0008533D02*
Y0007280D01*
X0004790Y0006500D02*
X0004247D01*
X0008090Y0006050D02*
X0005210D01*
X0012973Y0010370D02*
X0012497D01*
X0010430Y0013700D02*
Y0010660D01*
X0013412Y0009920D02*
X0013117D01*
X0004790Y0007580D02*
X0003167D01*
X0011690Y0010951D02*
Y0010660D01*
X0004790Y0006590D02*
X0004157D01*
X0005120Y0009033D02*
Y0008767D01*
X0005390Y0008443D02*
Y0005607D01*
X0012050Y0010951D02*
Y0010718D01*
X0013670Y0012662D02*
Y0011067D01*
X0007590Y0004250D02*
X0005860D01*
X0012410Y0010225D02*
Y0010096D01*
X0007962Y0008300D02*
X0005247D01*
X0011421Y0007728D02*
X0011329D01*
X0011600Y0002983D02*
Y0002135D01*
X0007590Y0003620D02*
X0005860D01*
X0011150Y0007728D02*
Y0006518D01*
X0007590Y0003710D02*
X0005860D01*
X0010970Y0007728D02*
Y0006556D01*
X0011060Y0007728D02*
Y0006552D01*
X0011390Y0006410D02*
X0011263D01*
X0010821Y0006500D02*
X0010795D01*
X0010880Y0007728D02*
Y0006533D01*
X0012140Y0005760D02*
Y0005520D01*
X0011780Y0005150D02*
X0011510D01*
X0006200Y0000850D02*
Y0000650D01*
X0011305Y0006292D02*
X0011446Y0006150D01*
X0010795Y0007100D02*
Y0006479D01*
X0011510Y0006000D02*
Y0005120D01*
X0027530Y0010672D02*
Y0009849D01*
X0026900Y0012228D02*
Y0012110D01*
X0025390Y0012080D02*
X0025360D01*
X0026720Y0012228D02*
Y0012110D01*
X0025390Y0011990D02*
X0025360D01*
X0020690Y0015300D02*
Y0013135D01*
X0007880Y0001010D02*
X0007215D01*
X0022120Y0005927D02*
X0022543Y0005505D01*
X0030500Y0006640D02*
Y0006460D01*
X0030893Y0006590D02*
X0029820D01*
X0032492Y0012440D02*
X0032363D01*
X0031200Y0008570D02*
X0031026D01*
X0008397Y0011720D02*
X0008212D01*
X0007962Y0010528D02*
Y0009677D01*
X0008538D02*
X0007962D01*
X0008538Y0010528D02*
Y0009677D01*
X0008249Y0011900D02*
X0008032D01*
X0009538Y0008323D02*
X0008962D01*
Y0007472D01*
X0009538D02*
X0008962D01*
X0009538Y0008323D02*
Y0007472D01*
X0008538Y0008323D02*
X0007962D01*
Y0007472D01*
X0008780Y0007130D02*
X0008460D01*
X0008538Y0008323D02*
Y0007472D01*
X0018170Y0015300D02*
Y0010937D01*
X0008000Y0007472D02*
Y0006870D01*
X0019520Y0012766D02*
Y0012295D01*
X0020825Y0012350D02*
X0019450D01*
X0019564Y0013611D02*
X0020837Y0012337D01*
X0018436Y0014564D02*
Y0013436D01*
X0019564Y0014564D02*
X0018436D01*
X0025066Y0009560D02*
X0024797D01*
X0020555Y0012620D02*
X0019425D01*
X0020285Y0012890D02*
X0019559D01*
X0020195Y0012980D02*
X0019569D01*
X0032582Y0012530D02*
X0032399D01*
X0025066Y0009650D02*
X0024797D01*
X0028890Y0009560D02*
X0027907D01*
X0020465Y0012710D02*
X0019491D01*
X0031026Y0008617D02*
Y0007883D01*
X0009260Y0007472D02*
Y0007270D01*
X0030770Y0007883D02*
X0030514D01*
X0030590D02*
Y0007860D01*
X0020510Y0012665D02*
Y0012289D01*
X0032402Y0012350D02*
X0032279D01*
X0020375Y0012800D02*
X0019534D01*
X0031026Y0007883D02*
X0030770D01*
X0019430Y0012626D02*
Y0012374D01*
X0033587Y0014460D02*
X0031225D01*
X0014210Y0012702D02*
Y0011240D01*
X0004580Y0009144D02*
Y0006167D01*
X0011390Y0006950D02*
Y0006390D01*
X0006020Y0006213D02*
Y0002277D01*
X0011390Y0007050D02*
Y0006950D01*
Y0007610D02*
Y0007050D01*
X0007590Y0003350D02*
X0005860D01*
X0012140Y0005760D02*
Y0005640D01*
X0012040Y0007728D02*
Y0007610D01*
X0012860Y0005640D02*
X0012140D01*
X0004490Y0009078D02*
Y0006257D01*
X0012230Y0010951D02*
Y0010756D01*
X0013580Y0012713D02*
Y0010977D01*
X0011600Y0007728D02*
Y0007610D01*
X0010970Y0010971D02*
Y0010660D01*
X0011690Y0007728D02*
Y0007610D01*
X0017360Y0006540D02*
Y0006140D01*
X0007550Y0012330D02*
Y0012070D01*
X0016725Y0004160D02*
X0016557D01*
X0017775Y0004710D02*
X0016725D01*
X0016910Y0006113D02*
Y0006030D01*
X0017775Y0005290D02*
X0016725D01*
X0017810Y0005365D02*
Y0004557D01*
X0031290Y0007040D02*
X0031110D01*
X0012680Y0013700D02*
Y0010077D01*
X0025760Y0009201D02*
Y0009084D01*
X0009890Y0010765D02*
Y0010360D01*
X0010790Y0011071D02*
Y0010660D01*
X0015650Y0004735D02*
Y0004710D01*
X0015475D02*
Y0003970D01*
X0016725Y0004710D02*
Y0003995D01*
X0015913Y0003970D02*
X0015475D01*
X0015360Y0005360D02*
X0014640D01*
X0015360Y0004700D02*
Y0004140D01*
X0014640Y0005360D02*
Y0004800D01*
X0015844Y0004735D02*
X0015360D01*
X0014750Y0005953D02*
Y0005360D01*
X0016525Y0004192D02*
X0016722Y0003995D01*
X0015650Y0003970D02*
Y0003696D01*
X0014640Y0004800D02*
Y0004700D01*
X0004040Y0009063D02*
Y0006707D01*
X0016370Y0005290D02*
Y0004710D01*
X0022850Y0015300D02*
Y0011795D01*
X0009890Y0004713D02*
Y0004560D01*
X0010475Y0002210D02*
Y0001470D01*
X0011525D02*
X0010475D01*
X0011525Y0002210D02*
X0010475D01*
X0011525Y0002790D02*
X0010475D01*
X0012004Y0003170D02*
X0011787D01*
X0012500Y0003980D02*
Y0003818D01*
X0009980Y0004140D02*
Y0004057D01*
X0009640Y0003610D02*
Y0003050D01*
X0005970Y0006230D02*
X0005210D01*
X0004923Y0008570D02*
X0002460D01*
X0004790Y0008350D02*
Y0005957D01*
X0011690Y0001545D02*
Y0001310D01*
X0005793Y0006320D02*
X0005210D01*
X0005601Y0006500D02*
X0005210D01*
X0008090Y0005870D02*
X0005210D01*
X0004965Y0001730D02*
X0003497D01*
X0005030Y0009068D02*
Y0008677D01*
X0002690Y0009015D02*
Y0008057D01*
X0007590Y0002990D02*
X0005860D01*
X0007590Y0003080D02*
X0005860D01*
X0005432Y0006950D02*
X0005210D01*
X0002780Y0009380D02*
Y0007967D01*
X0003583Y0006320D02*
X0002207D01*
X0003947Y0001100D02*
X0003249D01*
X0008780Y0000920D02*
X0008720D01*
X0007880Y0001190D02*
X0007215D01*
X0003989Y0001010D02*
X0003183D01*
X0004965Y0004160D02*
X0002233D01*
X0007590Y0003170D02*
X0005860D01*
X0007590Y0003440D02*
X0005860D01*
X0005660Y0006431D02*
Y0005337D01*
X0008780Y0001820D02*
X0008010D01*
X0005461Y0007220D02*
X0005210D01*
Y0005787D02*
X0005796Y0005200D01*
X0011510Y0010951D02*
Y0010660D01*
X0009790Y0002090D02*
X0008010D01*
X0019610Y0015300D02*
Y0014202D01*
X0024443Y0009110D02*
X0023789D01*
X0008192Y0012080D02*
X0007400D01*
X0025066Y0008210D02*
X0024934D01*
X0030390Y0010820D02*
X0030360D01*
X0018440Y0012894D02*
Y0012106D01*
X0031140Y0010280D02*
X0031110D01*
X0018710Y0012509D02*
Y0012491D01*
X0019340Y0012542D02*
Y0012457D01*
X0024797Y0009350D02*
X0025063Y0009084D01*
X0030390Y0010180D02*
X0030360D01*
X0019835Y0013340D02*
X0019457D01*
X0031290Y0007140D02*
Y0006987D01*
X0030770Y0006640D02*
Y0006467D01*
X0030390Y0006770D02*
X0030360D01*
X0030410Y0006640D02*
Y0006475D01*
X0030860Y0006640D02*
Y0006557D01*
X0030590Y0006640D02*
Y0006460D01*
X0031220Y0007140D02*
Y0006917D01*
X0028880Y0006535D02*
Y0006300D01*
X0027620Y0012228D02*
Y0009857D01*
X0027260Y0010047D02*
Y0009987D01*
X0030140Y0006640D02*
Y0006552D01*
X0025640Y0010010D02*
X0024934D01*
X0028930Y0009650D02*
X0027891D01*
X0025760Y0009419D02*
Y0009299D01*
X0009890Y0009960D02*
X0009800D01*
X0010049Y0010360D02*
X0009890D01*
X0011060Y0010953D02*
Y0010660D01*
X0029960Y0006640D02*
Y0006442D01*
X0013130Y0013700D02*
Y0010527D01*
X0028930Y0009920D02*
X0027510D01*
X0013781Y0011178D02*
X0012460Y0009857D01*
X0010160Y0013700D02*
Y0010507D01*
X0013243Y0010640D02*
X0012442D01*
X0016640Y0005365D02*
Y0004077D01*
X0010052Y0010370D02*
X0009538D01*
X0011703Y0006050D02*
X0011504D01*
X0013850Y0012614D02*
Y0011224D01*
X0010700Y0011180D02*
Y0010660D01*
X0027980Y0010040D02*
Y0009460D01*
X0028890Y0009380D02*
X0028775D01*
X0030050Y0006640D02*
Y0006518D01*
X0028160Y0010040D02*
Y0009460D01*
X0013310Y0013700D02*
Y0010707D01*
X0027890Y0010040D02*
Y0009653D01*
X0028340Y0010040D02*
Y0009460D01*
X0027040Y0012170D02*
X0026710D01*
X0010475Y0002090D02*
X0010210D01*
X0027640Y0011630D02*
X0027610D01*
X0027530Y0012228D02*
Y0012110D01*
X0027640Y0011900D02*
X0027610D01*
X0029330Y0010890D02*
Y0010780D01*
X0027640Y0011990D02*
X0027610D01*
X0027640Y0012080D02*
X0027610D01*
X0027640Y0011720D02*
X0027610D01*
X0027640Y0011810D02*
X0027610D01*
X0028013Y0010890D02*
X0028042Y0010860D01*
X0020870Y0012310D02*
Y0011997D01*
X0021770Y0011842D02*
Y0011795D01*
X0003410Y0009042D02*
Y0007337D01*
X0021555Y0013610D02*
X0020215D01*
X0030310Y0013028D02*
Y0012972D01*
X0032128Y0013250D02*
X0031671D01*
X0032272Y0013970D02*
X0031230D01*
X0032146Y0013790D02*
X0031230D01*
X0031400Y0014460D02*
Y0013772D01*
X0004965Y0003710D02*
X0002388D01*
X0019225Y0004610D02*
X0019025D01*
X0021280D02*
X0020275D01*
X0020339Y0003530D02*
X0020045D01*
X0019225Y0004430D02*
X0019025D01*
X0031230Y0014045D02*
Y0013772D01*
X0019455Y0003970D02*
Y0003551D01*
X0004965Y0003890D02*
X0002384D01*
X0021155Y0002540D02*
X0020844D01*
X0020072Y0003350D02*
X0020045D01*
X0031110Y0007300D02*
Y0007200D01*
X0021256Y0003890D02*
X0020045D01*
X0025390Y0011810D02*
X0025360D01*
X0031140Y0007670D02*
X0031110D01*
X0021770Y0004083D02*
Y0003824D01*
X0021387Y0012260D02*
X0020589D01*
X0021555Y0014330D02*
X0019564D01*
X0030390Y0007220D02*
X0030360D01*
Y0007320D02*
Y0007300D01*
X0031140Y0007580D02*
X0031110D01*
X0018683Y0011450D02*
X0015960D01*
X0008520Y0010648D02*
Y0010528D01*
X0007400Y0012330D02*
Y0012070D01*
X0007750D02*
X0007400D01*
X0009980Y0013700D02*
Y0010360D01*
X0007962Y0010460D02*
X0007400D01*
X0009890Y0010190D02*
X0009538D01*
X0010310Y0010640D02*
X0009780D01*
X0008528D02*
X0008520D01*
X0009337Y0010595D02*
X0009404Y0010528D01*
X0007400Y0011118D02*
X0007980Y0010538D01*
X0009890Y0010280D02*
X0009538D01*
X0008810Y0011599D02*
Y0011122D01*
X0008900Y0011616D02*
Y0011032D01*
X0025066Y0008290D02*
X0024934D01*
X0025370Y0007799D02*
Y0007770D01*
X0020510Y0015300D02*
Y0013315D01*
X0022220Y0003890D02*
Y0003494D01*
X0033627Y0014420D02*
X0031256D01*
X0021555Y0013970D02*
X0019855D01*
X0022400Y0003753D02*
Y0003550D01*
X0025360Y0011550D02*
Y0011515D01*
X0021680Y0004173D02*
Y0003935D01*
X0021142Y0002450D02*
X0020857D01*
X0025066Y0009110D02*
X0025037D01*
X0021860Y0009913D02*
Y0009731D01*
X0021950Y0009913D02*
Y0009745D01*
X0022040Y0009913D02*
Y0009743D01*
X0022990Y0002760D02*
Y0002240D01*
X0025280Y0007799D02*
Y0007210D01*
X0014840Y0003914D02*
Y0003447D01*
X0012860Y0006040D02*
Y0004687D01*
X0009640Y0007040D02*
X0009620D01*
X0020673Y0011360D02*
X0019295D01*
X0008810Y0003030D02*
Y0002970D01*
X0013720Y0005120D02*
Y0004560D01*
X0014171Y0002540D02*
X0013860D01*
X0014075Y0002630D02*
X0013956D01*
X0014072Y0003350D02*
X0013959D01*
X0013220Y0003483D02*
Y0003467D01*
X0014165Y0003440D02*
X0013866D01*
X0012770Y0003933D02*
Y0003506D01*
X0014030Y0003980D02*
Y0003291D01*
X0011733Y0004880D02*
X0011720D01*
X0012410Y0005640D02*
Y0005520D01*
X0015210Y0004137D02*
X0015639Y0003707D01*
X0025370Y0009299D02*
Y0009201D01*
X0025910Y0007916D02*
Y0007770D01*
X0025066Y0009920D02*
X0024934D01*
X0025460Y0010047D02*
Y0009953D01*
X0025066Y0010550D02*
X0024647D01*
X0021280Y0005780D02*
X0021010D01*
X0025066Y0010100D02*
X0024934D01*
X0026127Y0009084D02*
X0025760D01*
X0026127Y0009110D02*
X0025760D01*
X0025370Y0010047D02*
Y0009953D01*
X0027725Y0010550D02*
X0027510D01*
X0025901Y0010448D02*
X0025760Y0010307D01*
X0026650Y0010510D02*
X0026050D01*
X0030230Y0006640D02*
Y0006556D01*
X0027350Y0010047D02*
Y0009953D01*
X0027440Y0010047D02*
Y0009953D01*
X0026630Y0010590D02*
Y0010510D01*
X0029680Y0010860D02*
X0029640D01*
X0016640Y0015300D02*
Y0014130D01*
X0015290Y0013700D02*
Y0013482D01*
X0016110Y0012890D02*
X0016088D01*
X0018436Y0013610D02*
X0017158D01*
X0018436Y0014150D02*
X0016238D01*
X0014480Y0012753D02*
Y0011360D01*
X0014540D02*
X0014390D01*
X0004965Y0003440D02*
X0002447D01*
X0008180Y0012330D02*
Y0011752D01*
X0017905Y0002540D02*
X0017797D01*
X0004965Y0003170D02*
X0004075D01*
X0015830Y0003970D02*
Y0003443D01*
X0017124Y0002540D02*
X0016813D01*
X0016725Y0004520D02*
X0016525D01*
X0016725Y0004610D02*
X0016525D01*
X0016190Y0003693D02*
Y0003477D01*
X0019455Y0005240D02*
X0016295D01*
X0017890Y0009200D02*
X0017530D01*
X0017890Y0009110D02*
X0017516D01*
X0017890Y0009020D02*
X0017486D01*
X0008780Y0001010D02*
X0008720D01*
X0014068Y0002360D02*
X0013963D01*
X0014158Y0002450D02*
X0013873D01*
X0009790Y0001550D02*
X0009620D01*
X0013780Y0004140D02*
Y0003980D01*
X0011976Y0001550D02*
X0011525D01*
X0015920Y0002625D02*
Y0002374D01*
X0005570Y0006543D02*
Y0005427D01*
X0002870Y0009198D02*
Y0007877D01*
X0004188Y0000830D02*
X0003017D01*
X0004976D02*
X0004587D01*
X0004848Y0000920D02*
X0004715D01*
X0002420Y0007483D02*
Y0007471D01*
X0003493Y0006410D02*
X0002318D01*
X0002384Y0007519D02*
X0004965Y0004938D01*
X0003673Y0006230D02*
X0002150D01*
X0004965Y0001820D02*
X0003509D01*
X0007880Y0004970D02*
X0005860D01*
X0008090Y0005960D02*
X0005210D01*
X0002960Y0009111D02*
Y0007787D01*
X0002460Y0008287D02*
X0004790Y0005957D01*
X0007880Y0004790D02*
X0005860D01*
X0007880Y0006140D02*
X0005210D01*
X0008090Y0005150D02*
X0005834D01*
X0002510Y0007393D02*
Y0007306D01*
X0026140Y0007210D02*
X0026120D01*
X0008990Y0011649D02*
Y0010942D01*
X0009126Y0010820D02*
X0009112D01*
X0007962Y0010370D02*
X0007400D01*
X0007608Y0010910D02*
X0007400D01*
X0008962Y0010190D02*
X0008538D01*
X0008708Y0010460D02*
X0008538D01*
X0008720Y0011596D02*
Y0011212D01*
X0007878Y0010640D02*
X0007400D01*
X0008888Y0010280D02*
X0008538D01*
X0026890Y0007610D02*
Y0007210D01*
X0008000Y0012330D02*
Y0011932D01*
X0007550Y0010968D02*
Y0000650D01*
X0008090Y0012330D02*
Y0011842D01*
X0008270Y0011864D02*
Y0011662D01*
X0022299Y0003890D02*
X0022140D01*
X0023990Y0009887D02*
X0023613Y0009510D01*
X0024240Y0008300D02*
X0023402D01*
X0024650Y0008903D02*
Y0008827D01*
X0019225Y0003980D02*
X0019192D01*
X0019355Y0003530D02*
X0019195D01*
X0020275Y0003970D02*
X0020045D01*
X0022040Y0004010D02*
Y0003349D01*
X0018080Y0005290D02*
Y0004710D01*
X0019455Y0003620D02*
X0019195D01*
X0019564Y0014564D02*
Y0014221D01*
X0033830Y0014217D02*
Y0014170D01*
X0008780Y0001100D02*
X0008720D01*
X0013580Y0001447D02*
Y0001377D01*
X0021950Y0002663D02*
Y0002336D01*
X0024048Y0007798D02*
X0024477Y0007370D01*
X0023280Y0006770D02*
X0023220D01*
X0023280Y0006860D02*
X0023220D01*
X0023700Y0009090D02*
X0023052D01*
X0023220Y0006870D02*
Y0006710D01*
X0020275Y0005290D02*
X0020045D01*
X0009710Y0002390D02*
Y0001060D01*
X0009766Y0008030D02*
X0009538D01*
X0008000Y0006130D02*
Y0005120D01*
X0017975Y0004710D02*
Y0004392D01*
X0005860Y0005050D02*
Y0002437D01*
X0025820Y0009438D02*
Y0009084D01*
X0010610Y0007728D02*
Y0007407D01*
X0011420Y0007728D02*
Y0007610D01*
X0014480Y0008922D02*
Y0008577D01*
X0012620Y0004083D02*
Y0003980D01*
X0021680Y0011842D02*
Y0011795D01*
X0018440Y0011894D02*
Y0011207D01*
X0009350Y0013700D02*
Y0011368D01*
X0005535Y0007400D02*
X0005210D01*
X0008090Y0005780D02*
X0005217D01*
X0010676Y0012800D02*
X0009314D01*
X0007190Y0009850D02*
Y0001715D01*
X0010734Y0011720D02*
X0009103D01*
X0010828Y0011810D02*
X0009192D01*
X0010749Y0011900D02*
X0009250D01*
X0010687Y0011990D02*
X0009287D01*
X0008514Y0012777D02*
X0008591Y0012700D01*
X0007280Y0009850D02*
Y0000650D01*
X0008360Y0009677D02*
Y0008323D01*
X0008450Y0009677D02*
Y0008323D01*
X0029806Y0008660D02*
X0029610D01*
X0019790Y0013385D02*
Y0012295D01*
X0029780Y0008907D02*
Y0008617D01*
X0009677Y0009920D02*
X0009538D01*
X0020780Y0011259D02*
Y0009696D01*
X0020105Y0013070D02*
X0019566D01*
X0027725Y0010280D02*
X0027510D01*
X0011780Y0005240D02*
X0011510D01*
X0011720Y0005120D02*
X0011510D01*
X0029060Y0006445D02*
Y0006300D01*
X0028921Y0006500D02*
X0028860D01*
X0029937Y0006410D02*
X0029820D01*
X0028013Y0010890D02*
X0027640D01*
X0007880Y0006320D02*
X0006707D01*
X0024380Y0006710D02*
X0024120D01*
X0007962Y0007940D02*
X0005210D01*
X0029240Y0008390D02*
Y0008360D01*
X0031110Y0010200D02*
Y0009877D01*
X0028880Y0010890D02*
Y0008240D01*
X0031017Y0011030D02*
X0031180Y0010867D01*
X0028890Y0008360D02*
Y0008240D01*
X0017932Y0011025D02*
Y0010895D01*
X0009710Y0004140D02*
Y0003853D01*
Y0003647D02*
Y0003610D01*
X0022183Y0007670D02*
X0021877D01*
X0014640Y0004160D02*
X0014620D01*
X0024290Y0008173D02*
Y0007557D01*
X0025280Y0007580D02*
X0024267D01*
X0025280Y0007400D02*
X0024447D01*
X0024303Y0006950D02*
X0024120D01*
X0010160Y0004140D02*
Y0004013D01*
X0012813Y0003890D02*
X0012474D01*
X0012620Y0005520D02*
Y0004922D01*
X0012880Y0004700D02*
X0012847D01*
X0012880Y0004790D02*
X0012757D01*
X0010360Y0007610D02*
Y0007572D01*
X0016568Y0010820D02*
X0016110D01*
X0016568Y0010910D02*
X0016110D01*
X0016568Y0011000D02*
X0016110D01*
X0018503Y0011270D02*
X0016110D01*
X0022140Y0003980D02*
X0021600D01*
X0021387Y0010370D02*
X0018435D01*
X0020330Y0011703D02*
Y0009637D01*
X0016110Y0010140D02*
X0015510D01*
Y0009850D01*
X0015709Y0008750D02*
X0015275D01*
X0015470Y0009727D02*
Y0009553D01*
X0021387Y0009920D02*
X0015510D01*
X0002828Y0009740D02*
X0002735D01*
X0013740Y0008750D02*
X0013536D01*
X0015589Y0008840D02*
X0015395D01*
X0021387Y0010010D02*
X0015510D01*
X0015090Y0010100D02*
X0013297D01*
X0013322Y0009830D02*
X0013027D01*
X0013760Y0010563D02*
Y0010010D01*
X0013130Y0009933D02*
Y0009797D01*
X0023280Y0007130D02*
X0022417D01*
X0025066Y0007940D02*
X0023350D01*
X0023480Y0009090D02*
Y0007860D01*
X0024240Y0008570D02*
X0023402D01*
X0024240Y0008660D02*
X0023394D01*
X0024213Y0007040D02*
X0024120D01*
X0023210Y0007440D02*
Y0006870D01*
X0022400Y0007465D02*
Y0007147D01*
X0023570Y0009090D02*
Y0007860D01*
X0021320Y0005280D02*
Y0005220D01*
X0025066Y0008120D02*
X0023399D01*
X0020600Y0015300D02*
Y0013225D01*
X0007215Y0001715D02*
X0006582D01*
X0025460Y0007799D02*
Y0007770D01*
X0023840Y0009143D02*
Y0007860D01*
X0023900D02*
X0023305D01*
X0025280Y0007760D02*
X0024087D01*
X0024110Y0009413D02*
Y0007737D01*
X0025280Y0007220D02*
X0025220D01*
X0022364Y0007490D02*
X0022057D01*
X0022093Y0007760D02*
X0022068D01*
X0023280Y0006710D02*
X0023220D01*
X0024120Y0007133D02*
X0024380Y0006873D01*
X0025280Y0007310D02*
X0025220D01*
X0024560Y0008173D02*
Y0007370D01*
X0023813Y0007440D02*
X0022500D01*
X0025280Y0007670D02*
X0024177D01*
X0013157Y0004140D02*
X0013670Y0003627D01*
X0009795Y0003980D02*
X0008960D01*
X0013040Y0003663D02*
Y0003281D01*
X0011780Y0005973D02*
Y0004922D01*
X0012680Y0004023D02*
Y0003538D01*
X0025280Y0007490D02*
X0024357D01*
X0012620Y0003980D02*
X0012404D01*
X0014339Y0003530D02*
X0013727D01*
X0004670Y0009257D02*
Y0006077D01*
X0011751Y0004898D02*
X0011720Y0004867D01*
X0009620Y0004140D02*
Y0003980D01*
X0012680Y0005640D02*
Y0004867D01*
X0009710Y0004910D02*
Y0004560D01*
X0012633Y0004070D02*
X0012620D01*
X0009890Y0004610D02*
X0009620D01*
X0012320Y0005640D02*
Y0005520D01*
X0009620Y0004720D02*
Y0004560D01*
X0014480Y0003980D02*
Y0003555D01*
X0014030Y0004780D02*
Y0004720D01*
X0012648Y0004898D02*
X0012880Y0004667D01*
X0011960Y0003343D02*
Y0002135D01*
X0011510Y0001470D02*
Y0001310D01*
X0011330Y0001470D02*
Y0001310D01*
X0011240Y0001470D02*
Y0001310D01*
X0013850Y0002532D02*
Y0002467D01*
X0013940Y0002612D02*
Y0002387D01*
X0010210Y0002390D02*
Y0001537D01*
X0013513Y0001310D02*
X0010437D01*
X0009806Y0001370D02*
X0009620D01*
X0011976Y0002270D02*
X0010210D01*
X0013780Y0004720D02*
Y0004560D01*
X0010475Y0002990D02*
X0010360D01*
X0009705Y0003610D02*
X0009640D01*
X0009873Y0001280D02*
X0008720D01*
X0010360Y0002985D02*
Y0002950D01*
X0007880Y0006230D02*
X0006530D01*
X0008720Y0006870D02*
Y0006710D01*
X0007962Y0007490D02*
X0006906D01*
X0008962Y0007580D02*
X0008538D01*
X0008990Y0007472D02*
Y0007270D01*
X0008460Y0007472D02*
Y0006870D01*
X0008040Y0007040D02*
X0007068D01*
X0008780Y0006860D02*
X0008720D01*
X0008540Y0010628D02*
Y0006870D01*
X0008720D02*
X0008460D01*
X0011976Y0001460D02*
X0010287D01*
X0010475Y0001910D02*
X0010210D01*
X0010475Y0002000D02*
X0010210D01*
X0027640Y0011180D02*
X0027610D01*
X0027640Y0011270D02*
X0027610D01*
X0011976Y0002360D02*
X0010210D01*
X0003770Y0009430D02*
Y0006977D01*
X0026810Y0010590D02*
Y0010437D01*
X0033482Y0013430D02*
X0033416D01*
X0027610Y0010890D02*
X0027544D01*
X0020960Y0012273D02*
Y0011907D01*
X0018275Y0006410D02*
X0018110D01*
X0021457Y0006590D02*
X0020992D01*
X0004573Y0005330D02*
X0002150D01*
X0020510Y0006247D02*
Y0005620D01*
X0021280Y0005060D02*
X0021220D01*
X0021280Y0005150D02*
X0021220D01*
X0020590Y0005690D02*
X0020275D01*
X0021050Y0006710D02*
Y0006529D01*
X0021220Y0005620D02*
X0021010D01*
X0026127Y0009673D02*
Y0009084D01*
X0025100Y0009299D02*
Y0009201D01*
X0025190Y0009299D02*
Y0009201D01*
X0026127Y0009673D02*
X0026045D01*
X0021410Y0015300D02*
Y0013087D01*
X0013441Y0009948D02*
X0013253Y0009760D01*
X0012040Y0008472D02*
X0011421D01*
X0004790Y0006950D02*
X0003797D01*
X0013400Y0012921D02*
Y0010797D01*
X0013490Y0012792D02*
Y0010887D01*
X0004790Y0007130D02*
X0003617D01*
X0004790Y0007220D02*
X0003527D01*
X0012040Y0008528D02*
X0011421D01*
X0014210Y0010820D02*
Y0010010D01*
X0013783Y0011180D02*
X0012368D01*
X0014030Y0012626D02*
Y0011240D01*
X0012460Y0009960D02*
Y0009857D01*
X0004790Y0007400D02*
X0003347D01*
X0013220Y0010023D02*
Y0009773D01*
X0004790Y0007040D02*
X0003707D01*
X0013603Y0011000D02*
X0012368D01*
X0014390Y0011240D02*
X0013930D01*
X0013760Y0005390D02*
Y0004560D01*
X0013090Y0005600D02*
Y0005120D01*
X0013780Y0004610D02*
X0013720D01*
X0014480Y0004780D02*
Y0004720D01*
X0015767Y0006320D02*
X0015117D01*
X0013670Y0005390D02*
Y0005120D01*
X0013940Y0004780D02*
Y0004720D01*
X0014390Y0010190D02*
X0013387D01*
X0013090Y0005420D02*
X0012620D01*
X0014480Y0005683D02*
Y0005520D01*
X0015744Y0006230D02*
X0015027D01*
X0012793Y0010190D02*
X0012364D01*
X0012860Y0006040D02*
Y0005640D01*
X0032570Y0012854D02*
Y0012517D01*
X0020607Y0006590D02*
X0018110D01*
X0009790Y0001640D02*
X0009620D01*
X0018217Y0006320D02*
X0018110D01*
X0020960Y0006710D02*
Y0006613D01*
X0018110Y0006700D02*
Y0006140D01*
X0025280Y0007210D02*
X0025220D01*
X0022490Y0005557D02*
Y0005507D01*
X0014863Y0003890D02*
X0013407D01*
X0019453Y0004970D02*
X0016306D01*
X0015793Y0006030D02*
X0015475D01*
X0015781Y0006050D02*
X0014847D01*
X0015475Y0005690D02*
X0014487D01*
X0014620Y0005520D02*
X0014317D01*
X0015475Y0005600D02*
X0014397D01*
X0026860Y0011550D02*
Y0011450D01*
X0004965Y0003080D02*
X0004108D01*
X0016139Y0002540D02*
X0015829D01*
X0016044Y0002630D02*
X0015924D01*
X0015200Y0003553D02*
Y0003474D01*
X0014640Y0005150D02*
X0014620D01*
X0015020Y0003733D02*
Y0003300D01*
X0015702Y0003558D02*
Y0003515D01*
X0014851Y0003901D02*
X0015251Y0003501D01*
X0016041Y0003350D02*
X0015927D01*
X0016263Y0003620D02*
X0015692D01*
X0014750Y0004140D02*
Y0003501D01*
X0014790Y0004140D02*
X0014640D01*
X0015475Y0004520D02*
X0015360D01*
X0014930Y0003823D02*
Y0003365D01*
X0016173Y0003710D02*
X0015636D01*
X0014790Y0004140D02*
Y0004050D01*
X0028860Y0008610D02*
Y0008239D01*
X0014790Y0004070D02*
X0014620D01*
X0015360Y0004140D02*
X0015210D01*
X0026090Y0009673D02*
Y0009084D01*
X0029742Y0008617D02*
Y0008460D01*
X0028890Y0008480D02*
X0028860D01*
X0028890Y0008570D02*
X0028860D01*
X0024934Y0009673D02*
X0024797D01*
X0012860Y0003843D02*
Y0003455D01*
X0016725Y0004700D02*
X0016525D01*
X0009692Y0004970D02*
X0009620D01*
X0008780Y0006710D02*
X0008720D01*
X0014640Y0005240D02*
X0014620D01*
X0009633Y0005420D02*
X0009620D01*
X0015475Y0004340D02*
X0015360D01*
X0019455Y0005150D02*
X0016295D01*
X0015360Y0005360D02*
Y0005325D01*
X0016295Y0005290D02*
Y0005087D01*
X0009751Y0004851D02*
X0009890Y0004713D01*
X0015560Y0004735D02*
Y0004710D01*
X0030390Y0010280D02*
X0030360D01*
X0029510Y0010890D02*
Y0010849D01*
X0019340Y0015300D02*
Y0014564D01*
X0018530Y0012677D02*
Y0012322D01*
X0018620Y0012575D02*
Y0012425D01*
X0030390Y0010730D02*
X0030360D01*
X0024934Y0008290D02*
Y0008173D01*
X0016725Y0004430D02*
X0016525D01*
X0017975Y0004520D02*
X0017847D01*
X0017975Y0004430D02*
X0017937D01*
X0017630Y0005290D02*
Y0004710D01*
X0008360Y0011752D02*
Y0011572D01*
X0017720Y0005290D02*
Y0004710D01*
X0016820Y0005290D02*
Y0004710D01*
X0007400Y0011118D02*
Y0009850D01*
X0015290Y0001169D02*
Y0001060D01*
X0017111Y0002450D02*
X0016826D01*
X0016967Y0001100D02*
X0015191D01*
X0017007Y0001060D02*
X0015067D01*
X0016607Y0001459D02*
X0017007Y0001060D01*
X0015515Y0008570D02*
X0015469D01*
X0015589Y0008660D02*
X0015395D01*
X0016937Y0006140D02*
X0016850Y0006053D01*
X0017390Y0006533D02*
Y0006140D01*
X0015475Y0005420D02*
X0014620D01*
X0017360Y0006140D02*
X0016937D01*
X0004790Y0007670D02*
X0003077D01*
X0011780Y0007728D02*
Y0007610D01*
X0016725Y0005365D02*
Y0005290D01*
X0011870Y0007728D02*
Y0007610D01*
X0011960Y0007728D02*
Y0007610D01*
X0014390Y0010820D02*
X0014017D01*
X0017810Y0010175D02*
Y0008468D01*
X0018350Y0006710D02*
Y0006468D01*
X0016568Y0010280D02*
X0016110D01*
X0016568Y0010370D02*
X0016110D01*
X0016568Y0010460D02*
X0016110D01*
X0008962Y0007490D02*
X0008538D01*
X0017890Y0008660D02*
X0017363D01*
X0017720Y0010175D02*
Y0008468D01*
X0016568Y0010550D02*
X0016110D01*
X0022887Y0011990D02*
X0022613D01*
X0022887Y0012080D02*
X0022613D01*
X0022887Y0012170D02*
X0022613D01*
X0022887Y0012260D02*
X0022613D01*
X0022887Y0012350D02*
X0022613D01*
X0022855Y0015050D02*
X0022645D01*
X0019745Y0013430D02*
X0019374D01*
X0022887Y0012440D02*
X0022613D01*
X0021387Y0012270D02*
X0021000D01*
X0022887Y0012530D02*
X0022613D01*
X0022887Y0012620D02*
X0022613D01*
X0018436Y0013790D02*
X0017115D01*
X0029290Y0012228D02*
X0029171D01*
X0019790Y0015300D02*
Y0014035D01*
X0017810Y0006140D02*
Y0005955D01*
X0019564Y0013611D02*
Y0013436D01*
X0014620Y0004260D02*
Y0003980D01*
X0019655Y0013520D02*
X0019564D01*
X0019700Y0015300D02*
Y0014125D01*
X0021555Y0014060D02*
X0019765D01*
X0021555Y0014240D02*
X0019564D01*
X0010226Y0004140D02*
X0009620D01*
X0021555Y0013340D02*
X0020485D01*
X0022139Y0002540D02*
X0021829D01*
X0022044Y0002630D02*
X0021924D01*
X0021320Y0004480D02*
Y0003947D01*
X0022443Y0003710D02*
X0021799D01*
X0022308Y0003530D02*
X0021753D01*
X0021387Y0012800D02*
X0021025D01*
X0006380Y0006191D02*
Y0001917D01*
X0004790Y0008210D02*
X0002537D01*
X0005388Y0009035D02*
X0004853Y0008500D01*
X0004940Y0009127D02*
Y0008587D01*
X0009829Y0008570D02*
X0005517D01*
X0009381Y0008750D02*
X0005697D01*
X0009440Y0009560D02*
X0005960D01*
X0021387Y0012980D02*
X0020845D01*
X0005210Y0008263D02*
Y0005787D01*
X0022299Y0003890D02*
X0021727D01*
X0002690Y0007213D02*
Y0003337D01*
X0002600Y0009015D02*
Y0008147D01*
X0026341Y0007916D02*
X0025760D01*
X0026890Y0007220D02*
X0026860D01*
X0026890Y0007310D02*
X0026860D01*
X0026270Y0007916D02*
Y0007610D01*
X0027154Y0007799D02*
X0026904D01*
X0026291Y0007670D02*
X0026120D01*
X0026180Y0007916D02*
Y0007610D01*
X0026890Y0007400D02*
X0026860D01*
X0026890Y0007490D02*
X0026860D01*
X0026290Y0007650D02*
Y0007610D01*
X0008629Y0012710D02*
X0008581D01*
X0012072Y0010730D02*
X0009867D01*
X0018800Y0015300D02*
Y0014564D01*
X0018890Y0015300D02*
Y0014564D01*
X0018980Y0015300D02*
Y0014564D01*
X0019160Y0015300D02*
Y0014564D01*
X0019250Y0015300D02*
Y0014564D01*
X0031226Y0008360D02*
X0031140D01*
X0021555Y0014420D02*
X0019564D01*
X0031040Y0008690D02*
Y0007860D01*
X0019880Y0015300D02*
Y0013945D01*
X0021555Y0014510D02*
X0019564D01*
X0024386Y0009200D02*
X0023897D01*
X0032327Y0012980D02*
X0030310D01*
X0029140Y0011450D02*
X0029110D01*
X0004220Y0009016D02*
Y0006527D01*
X0004130Y0009030D02*
Y0006617D01*
X0029140Y0011900D02*
X0029110D01*
X0014620Y0004720D02*
Y0004680D01*
X0033650Y0014397D02*
Y0014170D01*
X0004933Y0004970D02*
X0002150D01*
X0004965Y0004610D02*
X0002150D01*
X0008780Y0002630D02*
X0008010D01*
X0007723Y0004520D02*
X0005860D01*
X0009260Y0004780D02*
Y0004720D01*
X0007910Y0006130D02*
Y0005120D01*
X0007880Y0000920D02*
X0007215D01*
X0008810Y0002230D02*
Y0002020D01*
X0007590Y0004300D02*
Y0001650D01*
X0008780Y0001640D02*
X0008107D01*
X0007873Y0001280D02*
X0007215D01*
X0009963Y0001190D02*
X0009620D01*
X0008780D02*
X0008720D01*
X0008010Y0001737D02*
X0008127Y0001620D01*
X0009790Y0002180D02*
X0008010D01*
X0008780Y0002270D02*
X0008010D01*
X0007820Y0010698D02*
Y0004617D01*
X0007651Y0001501D02*
X0007880Y0001273D01*
X0008780Y0000740D02*
X0002910D01*
X0009790Y0002270D02*
X0009620D01*
X0008780Y0001460D02*
X0008720D01*
X0008780Y0001550D02*
X0008720D01*
X0004965Y0001910D02*
X0003515D01*
X0026292Y0007760D02*
X0026120D01*
X0021727Y0006320D02*
X0021106D01*
X0008780Y0002000D02*
X0008010D01*
X0007615Y0001550D02*
X0007215D01*
X0007590Y0001820D02*
X0006477D01*
X0030803Y0006500D02*
X0030379D01*
X0008780Y0001220D02*
Y0000650D01*
X0026127Y0009560D02*
X0025957D01*
X0023613Y0009510D02*
X0022750D01*
X0024470Y0009083D02*
Y0008827D01*
X0024240Y0008750D02*
X0023372D01*
X0024713Y0008840D02*
X0023332D01*
X0018710Y0015300D02*
Y0014564D01*
X0021817Y0006230D02*
X0021083D01*
X0024560Y0008993D02*
Y0008827D01*
X0019070Y0015300D02*
Y0014564D01*
X0024438Y0009115D02*
X0024726Y0008827D01*
X0020060Y0015300D02*
Y0013765D01*
X0023933Y0009830D02*
X0015509D01*
X0025066D02*
X0024934D01*
X0023753Y0009650D02*
X0022281D01*
X0024377Y0009673D02*
Y0009263D01*
X0019520Y0015300D02*
Y0014564D01*
X0021555Y0013520D02*
X0020305D01*
X0024797Y0009673D02*
Y0009350D01*
X0031110Y0010860D02*
Y0010300D01*
X0031140Y0010010D02*
X0031110D01*
X0020450Y0012295D02*
X0019488D01*
X0019925Y0013250D02*
X0019512D01*
X0019564Y0013436D02*
X0019367D01*
X0027710Y0010890D02*
Y0009837D01*
X0031140Y0010100D02*
X0031110D01*
X0019970Y0015300D02*
Y0013855D01*
X0031140Y0009907D02*
X0031110Y0009877D01*
X0031140Y0010190D02*
X0031110D01*
X0024377Y0009673D02*
X0024367D01*
X0014640Y0004700D02*
Y0004680D01*
X0026120Y0007770D02*
Y0007210D01*
X0023390Y0008059D02*
Y0007860D01*
X0029180Y0006320D02*
X0028860D01*
X0028875Y0006540D02*
X0028860D01*
X0029150Y0006446D02*
Y0006300D01*
X0015311Y0013520D02*
X0015262D01*
X0003320Y0009020D02*
Y0007427D01*
X0003230Y0009015D02*
Y0007517D01*
X0005540Y0006590D02*
X0005210D01*
X0015390Y0013880D02*
X0015350D01*
X0015517Y0013790D02*
X0015350D01*
X0026860Y0007585D02*
Y0007210D01*
X0026890Y0007580D02*
X0026860D01*
X0028860Y0006540D02*
Y0006300D01*
X0027260Y0007693D02*
Y0007610D01*
X0007962Y0007850D02*
X0005210D01*
X0008720Y0010448D02*
Y0006710D01*
X0024560Y0010463D02*
Y0010327D01*
X0008212Y0011990D02*
X0007942D01*
X0020780Y0006710D02*
Y0006657D01*
X0003320Y0006583D02*
Y0002722D01*
X0003410Y0006493D02*
Y0003137D01*
X0003500Y0006403D02*
Y0003268D01*
X0003313Y0006590D02*
X0002459D01*
X0003680Y0006223D02*
Y0003360D01*
X0028044Y0010820D02*
X0027557D01*
X0027640Y0010910D02*
X0027610D01*
X0008538Y0007472D02*
X0008460D01*
X0027640Y0011000D02*
X0027610D01*
X0027640Y0011090D02*
X0027610D01*
X0024560Y0012390D02*
Y0011495D01*
X0024470Y0010373D02*
Y0010327D01*
X0025550Y0010047D02*
Y0009953D01*
X0027725Y0010730D02*
X0027549D01*
X0008780Y0007220D02*
X0008460D01*
X0021280Y0004790D02*
X0019914D01*
X0018800Y0006710D02*
Y0006268D01*
X0024640Y0011495D02*
X0024487D01*
X0023843Y0009740D02*
X0022066D01*
X0022490Y0011842D02*
Y0011795D01*
X0022887Y0012800D02*
X0022613D01*
X0023120Y0009090D02*
Y0009057D01*
Y0009913D02*
Y0009510D01*
X0023210Y0009913D02*
Y0009510D01*
X0023300Y0009913D02*
Y0009510D01*
X0025820Y0010590D02*
Y0010367D01*
X0023750Y0009913D02*
Y0009647D01*
X0024377Y0009650D02*
X0024347D01*
X0023930Y0009913D02*
Y0009827D01*
X0019004Y0009110D02*
X0018610D01*
X0024377Y0009470D02*
X0024167D01*
X0023030Y0009913D02*
Y0009510D01*
X0023390Y0009913D02*
Y0009510D01*
X0023570Y0009913D02*
Y0009510D01*
X0018729Y0008930D02*
X0018610D01*
X0023280Y0006950D02*
X0022597D01*
X0006560Y0006241D02*
Y0001737D01*
X0022601Y0009448D02*
X0022481Y0009328D01*
X0024240Y0008480D02*
X0023402D01*
X0018194Y0006230D02*
X0018110D01*
X0021230Y0003531D02*
Y0003491D01*
X0018824Y0009020D02*
X0018610D01*
X0019700Y0008848D02*
Y0008762D01*
X0020575Y0006140D02*
X0018802D01*
X0022855Y0014870D02*
X0022645D01*
X0007590Y0001730D02*
X0006567D01*
X0020060Y0013115D02*
Y0012295D01*
X0031310Y0014460D02*
Y0013772D01*
X0032198Y0013880D02*
X0031230D01*
X0030950Y0011030D02*
Y0010860D01*
X0032167Y0012080D02*
X0032156D01*
X0022855Y0014330D02*
X0022645D01*
X0031130Y0008690D02*
Y0006827D01*
X0031213Y0008390D02*
X0031026D01*
X0019430Y0015300D02*
Y0014564D01*
X0031026Y0008617D02*
X0030963D01*
X0031037Y0008690D02*
X0030963Y0008617D01*
X0031220Y0008372D02*
Y0008360D01*
X0033572Y0013520D02*
X0033420D01*
X0031140Y0007940D02*
X0031026D01*
X0032210Y0012313D02*
Y0012146D01*
X0022855Y0014150D02*
X0022645D01*
X0029835Y0008907D02*
X0029742D01*
X0019520Y0011705D02*
Y0009337D01*
X0019700Y0011705D02*
Y0009636D01*
X0008090Y0009677D02*
Y0008323D01*
X0008180Y0009677D02*
Y0008323D01*
X0031258Y0008690D02*
X0031037D01*
X0020645Y0012530D02*
X0019322D01*
X0031140Y0008030D02*
X0031026D01*
X0031140Y0008300D02*
X0031026D01*
X0032899Y0012847D02*
X0032279Y0012227D01*
X0017390Y0006500D02*
X0017360D01*
X0017390Y0006410D02*
X0017360D01*
X0031940Y0014460D02*
Y0012863D01*
X0017975Y0006030D02*
Y0005955D01*
X0017390Y0006230D02*
X0017360D01*
X0017390Y0006320D02*
X0017360D01*
X0004790Y0006860D02*
X0003887D01*
X0015740Y0004735D02*
Y0004710D01*
X0017775Y0006030D02*
Y0005955D01*
X0032480Y0012887D02*
Y0012427D01*
X0011329Y0007728D02*
X0010671D01*
X0016110Y0011360D02*
X0015960D01*
X0010528Y0007488D02*
X0010706Y0007311D01*
X0011420Y0011069D02*
Y0010660D01*
X0004790Y0006770D02*
X0003977D01*
X0004790Y0006230D02*
X0004517D01*
X0005840Y0006290D02*
Y0005139D01*
X0013760Y0012630D02*
Y0011157D01*
X0010203Y0010550D02*
X0009382D01*
X0013423Y0010820D02*
X0009917D01*
X0004790Y0006320D02*
X0004427D01*
X0004790Y0006410D02*
X0004337D01*
X0015748Y0006140D02*
X0014937D01*
X0032840Y0012836D02*
Y0012787D01*
X0011390Y0006860D02*
X0010795D01*
X0012334Y0010173D02*
X0012396Y0010110D01*
X0009080Y0004780D02*
Y0004720D01*
X0008860Y0005725D02*
Y0005520D01*
X0003140Y0009027D02*
Y0007607D01*
X0008960Y0004780D02*
Y0004720D01*
X0009453Y0005600D02*
X0008860D01*
X0007635Y0004430D02*
X0005860D01*
X0008900Y0005730D02*
Y0005520D01*
X0009350Y0005703D02*
Y0005520D01*
X0004965Y0002900D02*
X0004103D01*
X0009080Y0003030D02*
Y0002970D01*
X0004965Y0004340D02*
X0002150D01*
X0008780Y0002810D02*
X0008720D01*
X0008780Y0002900D02*
X0008720D01*
X0008780Y0003183D02*
X0008720Y0003123D01*
X0008990Y0003980D02*
Y0003770D01*
Y0003030D02*
Y0002970D01*
X0022267Y0005780D02*
X0022120D01*
X0012590Y0005640D02*
Y0005520D01*
X0012890Y0005690D02*
X0012860D01*
X0012890Y0005780D02*
X0012860D01*
X0012890Y0005870D02*
X0012860D01*
X0011390Y0007130D02*
X0010793D01*
X0012590Y0013700D02*
Y0009987D01*
X0011510Y0007728D02*
Y0007610D01*
X0012890Y0005960D02*
X0012860D01*
X0017890Y0008570D02*
X0017437D01*
X0028970Y0008390D02*
Y0008360D01*
X0029742Y0008480D02*
X0029610D01*
X0031140Y0008120D02*
X0031026D01*
X0029543Y0008390D02*
X0029513Y0008360D01*
X0029060Y0008390D02*
Y0008360D01*
X0029150Y0008390D02*
Y0008360D01*
X0029806Y0008840D02*
X0029610D01*
X0008270Y0009677D02*
Y0008323D01*
X0030390Y0010370D02*
X0030360D01*
X0029742Y0008460D02*
X0029700D01*
X0025998Y0009601D02*
X0025876Y0009479D01*
X0026000Y0009603D02*
Y0009084D01*
X0016730Y0005365D02*
Y0003995D01*
X0030680Y0006640D02*
Y0006460D01*
X0009800Y0001386D02*
Y0001060D01*
X0009440Y0009677D02*
Y0009600D01*
X0009890Y0010010D02*
X0009538D01*
X0012500Y0010382D02*
Y0009897D01*
X0007962Y0010280D02*
X0007400D01*
X0008990Y0009677D02*
Y0008323D01*
X0009446Y0009650D02*
X0005960D01*
X0009890Y0010360D02*
Y0009960D01*
X0009350Y0008832D02*
Y0008323D01*
X0005103Y0008750D02*
X0002460D01*
X0009440Y0009600D02*
Y0009125D01*
X0009651Y0009898D02*
X0009538Y0009785D01*
X0009350Y0009677D02*
Y0008968D01*
X0031193Y0008480D02*
X0031026D01*
X0031140Y0007850D02*
X0031110D01*
X0009829Y0008650D02*
Y0008528D01*
X0032210Y0013103D02*
Y0012887D01*
X0031220Y0008690D02*
Y0008627D01*
X0019520Y0013436D02*
Y0013233D01*
X0019790Y0011705D02*
Y0009693D01*
X0023828Y0011205D02*
X0020950D01*
X0029792Y0008750D02*
X0029610D01*
X0029543Y0008390D02*
X0028860D01*
X0015475Y0005325D02*
X0015360D01*
X0017975Y0005955D02*
X0017775D01*
X0019225Y0006030D02*
Y0005955D01*
X0022140Y0004970D02*
X0022120D01*
X0022140Y0004520D02*
X0022120D01*
X0022196Y0005150D02*
X0022120D01*
X0011976Y0002990D02*
X0011607D01*
X0010475Y0002810D02*
X0010360D01*
X0009640Y0002990D02*
X0008720D01*
X0015897Y0004710D02*
X0015475D01*
X0011690Y0003073D02*
Y0002135D01*
X0019455Y0005290D02*
X0019225D01*
X0016725Y0005365D02*
X0016525D01*
X0010475Y0002985D02*
Y0002790D01*
X0021637Y0006410D02*
X0021102D01*
X0015380Y0006440D02*
Y0005325D01*
X0003950Y0009119D02*
Y0006797D01*
X0016725Y0004250D02*
X0016525D01*
X0015380Y0004735D02*
Y0003967D01*
X0015475Y0005330D02*
X0015360D01*
X0014640Y0004790D02*
X0014620D01*
X0009705Y0007670D02*
X0009538D01*
X0008040Y0007400D02*
X0006965D01*
X0009705Y0007850D02*
X0009538D01*
X0010671Y0007728D02*
X0010579D01*
X0010671Y0008472D02*
X0010579D01*
X0012040Y0008480D02*
X0005427D01*
X0005013Y0008660D02*
X0002460D01*
X0010160Y0008528D02*
Y0008472D01*
X0005750Y0006351D02*
Y0005247D01*
X0018170Y0010305D02*
Y0009360D01*
X0023853Y0011180D02*
X0019241D01*
X0021387Y0010190D02*
X0017932D01*
X0021387Y0010280D02*
X0017932D01*
X0020583Y0011450D02*
X0019295D01*
X0018663Y0011540D02*
X0017932D01*
X0018080Y0010305D02*
Y0009360D01*
X0018413Y0011180D02*
X0016110D01*
X0018705Y0011472D02*
X0018128Y0010895D01*
X0010360Y0007610D02*
X0010295D01*
X0018503Y0011720D02*
X0017932D01*
X0021387Y0011900D02*
X0020967D01*
X0020765Y0011270D02*
X0019284D01*
X0018705Y0011512D02*
Y0011472D01*
X0021387Y0011090D02*
X0019157D01*
X0009829Y0008472D02*
Y0008096D01*
X0009705Y0007850D02*
Y0007610D01*
X0011390Y0007580D02*
X0010360D01*
X0021387Y0010460D02*
X0018527D01*
X0021387Y0010550D02*
X0018617D01*
X0021387Y0010640D02*
X0018707D01*
X0021387Y0010730D02*
X0018797D01*
X0011390Y0007490D02*
X0010527D01*
X0010700Y0007728D02*
Y0007317D01*
X0018620Y0011575D02*
Y0011387D01*
X0011390Y0006680D02*
X0010795D01*
X0011390Y0006950D02*
X0010795D01*
X0011390Y0007400D02*
X0010617D01*
X0009640Y0007610D02*
Y0007050D01*
X0015475Y0004250D02*
X0015360D01*
X0021387Y0010820D02*
X0018887D01*
X0021387Y0010910D02*
X0018977D01*
X0017990Y0010305D02*
Y0009360D01*
X0009890Y0004560D02*
X0009620D01*
X0011390Y0007310D02*
X0010707D01*
X0018530Y0011677D02*
Y0011297D01*
X0019455Y0005290D02*
Y0005137D01*
X0019225Y0005960D02*
X0019025D01*
X0019520Y0004845D02*
Y0004710D01*
X0021590Y0006457D02*
Y0006020D01*
X0019880Y0006710D02*
Y0006030D01*
X0020045Y0005290D02*
Y0005137D01*
X0018260Y0015300D02*
Y0011027D01*
X0022285Y0005420D02*
X0022120D01*
X0021280Y0004880D02*
X0020006D01*
X0020380Y0004970D02*
X0020047D01*
X0020380Y0005060D02*
X0020057D01*
X0022220Y0005827D02*
Y0005327D01*
X0010790Y0001470D02*
Y0001310D01*
X0007590Y0003980D02*
X0005860D01*
X0009695Y0003710D02*
X0009620D01*
X0009705Y0003620D02*
X0009620D01*
X0009690Y0005363D02*
Y0005000D01*
X0014640Y0004880D02*
X0014620D01*
X0021387Y0011000D02*
X0019067D01*
X0009690Y0005150D02*
X0009620D01*
X0015290Y0006440D02*
Y0005360D01*
X0016010Y0003873D02*
Y0003308D01*
X0014840Y0006043D02*
Y0005360D01*
X0015020Y0006223D02*
Y0005360D01*
X0018530Y0006710D02*
Y0006506D01*
X0018205Y0006112D02*
Y0006030D01*
X0018710Y0006710D02*
Y0006425D01*
X0018432Y0006500D02*
X0018110D01*
X0020531D02*
X0018568D01*
X0018620Y0006710D02*
Y0006483D01*
X0018795Y0006112D02*
Y0006030D01*
X0020590Y0006050D02*
X0018795D01*
X0015475Y0005960D02*
X0014757D01*
X0022533Y0009380D02*
X0022470D01*
X0019513Y0009200D02*
X0018610D01*
X0023840Y0011193D02*
Y0011158D01*
X0008000Y0009677D02*
Y0008323D01*
X0019513Y0009290D02*
X0018610D01*
X0013490Y0004140D02*
Y0003807D01*
X0022940Y0011842D02*
Y0011795D01*
X0023390Y0011842D02*
Y0011795D01*
X0023840Y0011842D02*
Y0011795D01*
X0014030Y0010820D02*
Y0010010D01*
X0022040Y0011842D02*
Y0011795D01*
X0023875Y0011158D02*
X0022887D01*
X0023828Y0011205D02*
X0023875Y0011158D01*
X0023120Y0011842D02*
Y0011795D01*
X0023030Y0011842D02*
Y0011795D01*
X0023930Y0011842D02*
Y0011795D01*
X0024640Y0011550D02*
Y0011495D01*
Y0011720D02*
X0024146D01*
X0020493Y0011540D02*
X0019336D01*
X0024158Y0011708D02*
X0024362Y0011505D01*
X0020328Y0011705D02*
X0019488D01*
X0024640Y0011810D02*
X0021057D01*
X0019610Y0013565D02*
Y0012295D01*
X0019700Y0013475D02*
Y0012295D01*
X0021410Y0011842D02*
Y0011795D01*
X0020328Y0011705D02*
X0020739Y0011294D01*
X0021500Y0011842D02*
Y0011795D01*
X0021590Y0011842D02*
Y0011795D01*
X0021140Y0012270D02*
Y0011795D01*
X0023950D02*
X0021072D01*
X0021387Y0012080D02*
X0020787D01*
X0021387Y0012170D02*
X0020697D01*
X0021387Y0011990D02*
X0020877D01*
X0010610Y0001470D02*
Y0001310D01*
X0030590Y0013028D02*
Y0012972D01*
X0030680Y0013028D02*
Y0012972D01*
X0030770Y0013028D02*
Y0012972D01*
X0020150Y0013025D02*
Y0012295D01*
X0032099Y0013340D02*
X0031671D01*
X0020420Y0012755D02*
Y0012295D01*
X0020690Y0012485D02*
Y0012177D01*
X0019880Y0013295D02*
Y0012295D01*
X0019970Y0013205D02*
Y0012295D01*
X0022130Y0011842D02*
Y0011795D01*
X0017900Y0010175D02*
Y0009360D01*
X0022220Y0011842D02*
Y0011795D01*
X0024640Y0011495D02*
X0024487D01*
X0022310Y0011842D02*
Y0011795D01*
X0023210Y0011842D02*
Y0011795D01*
X0023480Y0011842D02*
Y0011795D01*
X0018260Y0010305D02*
Y0009360D01*
X0022400Y0011842D02*
Y0011795D01*
X0018350Y0010322D02*
Y0009360D01*
X0018440Y0010374D02*
Y0009360D01*
X0010295Y0007728D02*
Y0007610D01*
X0018710Y0010643D02*
Y0008906D01*
X0018980Y0010913D02*
Y0009102D01*
X0015470Y0006440D02*
Y0005325D01*
X0016280Y0004872D02*
Y0004710D01*
X0015475Y0005325D02*
X0015360D01*
X0014640Y0004700D02*
X0014620D01*
X0015360Y0004735D02*
Y0004700D01*
X0015475Y0004430D02*
X0015360D01*
X0016190Y0004758D02*
Y0004710D01*
X0022580Y0011842D02*
Y0011795D01*
X0019585Y0004790D02*
X0016225D01*
X0015470Y0004735D02*
Y0003877D01*
X0024020Y0011842D02*
Y0011786D01*
X0022760Y0015300D02*
Y0011795D01*
X0012620Y0004083D02*
X0013230Y0003473D01*
X0012197Y0003440D02*
X0012057D01*
X0013083Y0003620D02*
X0012479D01*
X0012993Y0003710D02*
X0012505D01*
X0016525Y0004710D02*
X0016103D01*
X0012500Y0003682D02*
Y0003554D01*
X0012006Y0002810D02*
X0011525D01*
X0012043Y0003260D02*
X0011877D01*
X0012112Y0003455D02*
X0012072D01*
X0012723Y0003980D02*
X0012404D01*
X0012903Y0003800D02*
X0012503D01*
X0009726Y0003890D02*
X0008960D01*
X0011983Y0002900D02*
X0011525D01*
X0012104Y0003350D02*
X0011967D01*
X0011982Y0003080D02*
X0011697D01*
X0009690Y0005060D02*
X0009620D01*
X0022537Y0005510D02*
X0022120D01*
X0018530Y0015300D02*
Y0014564D01*
X0008720Y0002630D02*
X0008010D01*
X0020690Y0006710D02*
Y0006637D01*
X0021500Y0005280D02*
Y0005220D01*
X0020380Y0005240D02*
X0020045D01*
X0022580Y0003573D02*
Y0003546D01*
X0023983Y0007270D02*
X0023280D01*
X0026290Y0007610D02*
X0026140D01*
X0015775Y0006440D02*
X0015237D01*
X0014390Y0010370D02*
X0013567D01*
X0014390Y0010460D02*
X0013657D01*
X0014390Y0010550D02*
X0013747D01*
X0014390Y0010640D02*
X0013837D01*
X0014390Y0010730D02*
X0013927D01*
X0015090Y0010010D02*
X0013589D01*
X0002863Y0007040D02*
X0002568D01*
X0029690Y0009035D02*
Y0008460D01*
X0028970Y0006471D02*
Y0006300D01*
X0029900Y0006320D02*
X0029820D01*
X0029180Y0006410D02*
X0028860D01*
X0029640Y0010850D02*
X0029530D01*
X0032473Y0012890D02*
X0032203D01*
X0032120Y0012293D02*
Y0012197D01*
X0031040Y0013028D02*
Y0012972D01*
X0031130Y0013028D02*
Y0012972D01*
X0021140Y0015300D02*
Y0012730D01*
X0031997Y0012890D02*
X0031671D01*
X0031310Y0013028D02*
Y0012972D01*
X0031400Y0013028D02*
Y0012972D01*
X0031895Y0012830D02*
X0031671D01*
X0027510Y0009953D02*
X0027293D01*
X0030590Y0011030D02*
Y0010860D01*
X0032672Y0012620D02*
X0032407D01*
X0015475Y0005870D02*
X0014667D01*
X0029180Y0006453D02*
Y0006300D01*
X0031047Y0011000D02*
X0030452D01*
X0031040Y0011007D02*
Y0010860D01*
X0030860Y0011030D02*
Y0010860D01*
X0030770Y0011030D02*
Y0010860D01*
X0031180D02*
X0031140D01*
X0031137Y0010910D02*
X0030362D01*
X0029140Y0011270D02*
X0029110D01*
X0031130Y0010917D02*
Y0009897D01*
X0008040Y0006870D02*
X0007880D01*
X0027725Y0010190D02*
X0027510D01*
X0030390Y0010640D02*
X0030360D01*
X0024640Y0012080D02*
X0024113D01*
X0018462Y0011810D02*
X0017932D01*
X0027040Y0012228D02*
X0026921D01*
X0024390Y0012530D02*
X0024232D01*
X0024390Y0012620D02*
X0024322D01*
X0009170Y0011783D02*
Y0011218D01*
X0023570Y0011205D02*
Y0011158D01*
X0032312Y0012260D02*
X0032075D01*
X0032300Y0012366D02*
Y0012247D01*
X0032089Y0013610D02*
X0031671D01*
X0030829Y0012972D02*
X0030310D01*
X0032120Y0013272D02*
Y0012907D01*
X0030921Y0012972D02*
X0030829D01*
X0025581D02*
X0025110D01*
X0025550Y0013003D02*
Y0012972D01*
X0023660Y0011205D02*
Y0011158D01*
X0033470Y0014460D02*
Y0013417D01*
X0033560Y0014460D02*
Y0013507D01*
X0033740Y0014307D02*
Y0014170D01*
X0024390Y0012687D02*
X0024113Y0012410D01*
X0024390Y0012440D02*
X0024142D01*
X0022877Y0013160D02*
X0022623D01*
X0022855Y0013250D02*
X0022645D01*
X0024640Y0011540D02*
X0024327D01*
X0028930Y0010010D02*
X0027237D01*
X0029420Y0010890D02*
Y0010830D01*
X0029060Y0010890D02*
Y0010512D01*
X0005193Y0008840D02*
X0002460D01*
X0028930Y0010250D02*
Y0009610D01*
X0029600Y0010890D02*
Y0010850D01*
X0029680Y0010890D02*
Y0010860D01*
X0030390Y0010550D02*
X0030360D01*
X0029304Y0010756D02*
X0029025Y0010477D01*
X0033717Y0014330D02*
X0031297D01*
X0027725Y0010370D02*
X0027510D01*
X0030360Y0010300D02*
Y0010200D01*
X0030680Y0007883D02*
Y0007860D01*
X0028930Y0010190D02*
X0028775D01*
X0020735Y0012440D02*
X0019362D01*
X0029742Y0009020D02*
X0029610D01*
X0029395Y0010820D02*
X0028656D01*
X0029640Y0010860D02*
Y0010850D01*
X0029742Y0009035D02*
X0029610D01*
X0020420Y0015300D02*
Y0013405D01*
X0018530Y0013436D02*
Y0013322D01*
X0018620Y0013436D02*
Y0013425D01*
X0019430Y0013436D02*
Y0013374D01*
X0025066Y0009470D02*
X0024797D01*
X0029610Y0009035D02*
Y0008950D01*
X0015807Y0006410D02*
X0015207D01*
X0013040Y0005640D02*
Y0005120D01*
X0013780Y0005150D02*
X0013510D01*
X0013780Y0005240D02*
X0013510D01*
X0013780Y0005390D02*
Y0004780D01*
X0008090Y0005330D02*
X0005667D01*
X0025079Y0012350D02*
X0024113D01*
X0032030Y0014460D02*
Y0012899D01*
X0021555Y0014600D02*
X0016098D01*
X0025525Y0013028D02*
X0025581Y0012972D01*
X0025280Y0013028D02*
Y0012972D01*
X0025390Y0011900D02*
X0025360D01*
X0025390Y0011540D02*
X0025360D01*
X0012040Y0007670D02*
X0010295D01*
X0025370Y0013028D02*
Y0012972D01*
X0025555Y0012228D02*
X0025079D01*
X0021547Y0006500D02*
X0021068D01*
X0002894Y0009830D02*
X0002735D01*
X0002420Y0006528D02*
Y0003448D01*
X0004580Y0005323D02*
Y0001673D01*
X0004965Y0004070D02*
X0002314D01*
X0003392Y0003080D02*
X0003045D01*
X0003230Y0006673D02*
Y0002865D01*
X0007590Y0002090D02*
X0006207D01*
X0033850Y0014170D02*
X0033580D01*
X0019340Y0003970D02*
Y0003525D01*
X0019025Y0004710D02*
Y0004232D01*
X0021150Y0003440D02*
X0020850D01*
X0021056Y0003350D02*
X0020943D01*
X0021060Y0002630D02*
X0020940D01*
X0030390Y0006680D02*
X0030360D01*
X0021140Y0004880D02*
Y0003432D01*
X0021050Y0004880D02*
Y0003342D01*
X0020960Y0004880D02*
Y0003328D01*
X0020870Y0004880D02*
Y0003424D01*
X0020780Y0004880D02*
Y0003485D01*
X0020600Y0004880D02*
Y0003548D01*
X0020510Y0004880D02*
Y0003555D01*
X0020420Y0006710D02*
Y0005620D01*
X0020045Y0003970D02*
Y0003314D01*
X0031671Y0013772D02*
X0031230D01*
X0022134Y0003440D02*
X0021834D01*
X0022041Y0003350D02*
X0021927D01*
X0004794Y0008390D02*
X0002460D01*
X0023300Y0007440D02*
Y0007270D01*
X0022206Y0005110D02*
X0022140D01*
X0022130Y0004010D02*
Y0003437D01*
X0021490Y0004480D02*
X0021280D01*
X0022140Y0004010D02*
Y0003890D01*
X0021950Y0004010D02*
Y0003320D01*
X0021770Y0003560D02*
Y0003482D01*
X0021185Y0003710D02*
X0020045D01*
X0021500Y0006547D02*
Y0006020D01*
X0021230Y0003530D02*
X0020676D01*
X0022351Y0003801D02*
X0022614Y0003538D01*
X0023663Y0009560D02*
X0022376D01*
X0022990Y0002720D02*
X0022970D01*
X0022990Y0002630D02*
X0022908D01*
X0014640Y0004250D02*
X0014620D01*
X0022490Y0003663D02*
Y0003555D01*
X0022310Y0003860D02*
Y0003530D01*
X0003500Y0002732D02*
Y0002190D01*
X0011329Y0008472D02*
X0010671D01*
X0011960Y0008528D02*
Y0008472D01*
X0011870Y0008528D02*
Y0008472D01*
X0011780Y0008528D02*
Y0008472D01*
X0011690Y0008528D02*
Y0008472D01*
X0011600Y0008528D02*
Y0008472D01*
X0011510Y0008528D02*
Y0008472D01*
X0013153Y0010550D02*
X0012491D01*
X0012590Y0001444D02*
Y0001310D01*
X0004790Y0006680D02*
X0004067D01*
X0012523Y0009920D02*
X0012460D01*
X0011975Y0010660D02*
X0010400D01*
X0012320Y0010951D02*
Y0010733D01*
X0012140Y0010951D02*
Y0010752D01*
X0011240Y0008528D02*
Y0008472D01*
X0011150Y0008528D02*
Y0008472D01*
X0011060Y0008528D02*
Y0008472D01*
X0011780Y0010951D02*
Y0010660D01*
X0010579Y0008472D02*
X0009829D01*
X0013063Y0010460D02*
X0012507D01*
X0009538Y0010528D02*
Y0009785D01*
X0010520Y0008528D02*
Y0008472D01*
X0010430Y0008528D02*
Y0008472D01*
X0010340Y0008528D02*
Y0008472D01*
X0010070Y0008528D02*
Y0008472D01*
X0009980Y0008528D02*
Y0008472D01*
X0009890Y0008528D02*
Y0008472D01*
X0010790Y0008528D02*
Y0008472D01*
X0009710Y0010596D02*
Y0009940D01*
X0030763Y0006460D02*
X0030425D01*
X0010113Y0010460D02*
X0009538D01*
X0011600Y0010951D02*
Y0010660D01*
X0012500Y0013700D02*
Y0010518D01*
X0012050Y0001444D02*
Y0001310D01*
X0031580Y0014460D02*
Y0013772D01*
Y0013028D02*
Y0012972D01*
X0031490Y0013028D02*
Y0012972D01*
X0025460Y0013028D02*
Y0012972D01*
X0025541Y0012170D02*
X0024113D01*
X0013490Y0010293D02*
Y0009985D01*
X0031220Y0013028D02*
Y0012972D01*
X0030860Y0013028D02*
Y0012972D01*
X0021050Y0012270D02*
Y0011817D01*
X0003860Y0009212D02*
Y0006887D01*
X0021230Y0012270D02*
Y0011795D01*
X0031671Y0012972D02*
X0030921D01*
X0025190Y0013028D02*
Y0012972D01*
X0020600Y0012575D02*
Y0012254D01*
X0030320Y0013028D02*
Y0012972D01*
X0030410Y0013028D02*
Y0012972D01*
X0018436Y0014060D02*
X0016872D01*
X0020494Y0006320D02*
X0018783D01*
X0021320Y0012270D02*
Y0011795D01*
X0020240Y0012935D02*
Y0012295D01*
X0007590Y0002720D02*
X0005860D01*
X0030829Y0013028D02*
X0030310D01*
X0030320Y0006640D02*
Y0006533D01*
X0028070Y0010040D02*
Y0009460D01*
X0015090Y0010010D02*
X0013207D01*
X0021387Y0010100D02*
X0015510D01*
X0014540Y0011360D02*
X0012368D01*
X0016110Y0010700D02*
Y0010140D01*
X0019530Y0009380D02*
X0017515D01*
X0018436Y0013880D02*
X0017066D01*
X0016100Y0012902D02*
Y0011360D01*
X0016010Y0012830D02*
Y0011360D01*
X0014540Y0011450D02*
X0012368D01*
X0023570Y0011842D02*
Y0011795D01*
X0018800Y0010733D02*
Y0009001D01*
X0018610Y0009360D02*
Y0008800D01*
X0018627Y0008750D02*
X0018610D01*
X0019859Y0008762D02*
X0019691D01*
X0025360Y0012110D02*
Y0011550D01*
X0027610D02*
Y0011450D01*
X0025390Y0012110D02*
Y0011550D01*
X0025280Y0012228D02*
Y0012110D01*
X0025190Y0012228D02*
Y0012110D01*
X0025010Y0012390D02*
Y0012110D01*
X0024920Y0012390D02*
Y0012110D01*
X0024830Y0012390D02*
Y0012110D01*
X0024740Y0012390D02*
Y0012110D01*
X0024650Y0012390D02*
Y0012110D01*
X0028250Y0010040D02*
Y0009460D01*
X0014540Y0012530D02*
X0012246D01*
X0018493Y0012260D02*
X0017932D01*
X0018456Y0012170D02*
X0017932D01*
X0018435Y0012080D02*
X0017932D01*
X0018430Y0011990D02*
X0017932D01*
X0018439Y0011900D02*
X0017932D01*
X0018530Y0010463D02*
Y0009360D01*
X0017900Y0015300D02*
Y0012325D01*
X0017810Y0015300D02*
Y0012325D01*
X0017720Y0015300D02*
Y0012325D01*
X0017630Y0015300D02*
Y0012325D01*
X0017540Y0015300D02*
Y0012325D01*
X0017450Y0015300D02*
Y0012325D01*
X0017360Y0015300D02*
Y0012325D01*
X0017270Y0015300D02*
Y0012325D01*
X0017090Y0012903D02*
Y0012325D01*
X0017000Y0012782D02*
Y0012325D01*
X0016910Y0012707D02*
Y0012325D01*
X0016820Y0012658D02*
Y0012325D01*
X0016730Y0012628D02*
Y0012325D01*
X0017900Y0011475D02*
Y0011025D01*
X0017810Y0011475D02*
Y0011025D01*
X0017720Y0011475D02*
Y0011025D01*
X0017630Y0011475D02*
Y0011025D01*
X0017540Y0011475D02*
Y0011025D01*
X0017450Y0011475D02*
Y0011025D01*
X0017360Y0011475D02*
Y0011025D01*
X0017270Y0011475D02*
Y0011025D01*
X0017180Y0011475D02*
Y0011025D01*
X0017090Y0011475D02*
Y0011025D01*
X0017000Y0011475D02*
Y0011025D01*
X0016910Y0011475D02*
Y0011025D01*
X0016820Y0011475D02*
Y0011025D01*
X0016730Y0011475D02*
Y0011025D01*
X0018593Y0011360D02*
X0015960D01*
X0018233Y0011000D02*
X0017932D01*
X0018143Y0010910D02*
X0017932D01*
X0022670Y0011205D02*
Y0009494D01*
X0022580Y0011205D02*
Y0011158D01*
X0022490Y0011205D02*
Y0011158D01*
X0022400Y0011205D02*
Y0011158D01*
X0022310Y0011205D02*
Y0011158D01*
X0022220Y0011205D02*
Y0011158D01*
X0022130Y0011205D02*
Y0011158D01*
X0023300Y0011842D02*
Y0011795D01*
X0021950Y0011205D02*
Y0011158D01*
X0021860Y0011205D02*
Y0011158D01*
X0021770Y0011205D02*
Y0011158D01*
X0021680Y0011205D02*
Y0011158D01*
X0021590Y0011205D02*
Y0011158D01*
X0021500Y0011205D02*
Y0011158D01*
X0022887Y0011090D02*
X0022613D01*
X0022887Y0011000D02*
X0022613D01*
X0022887Y0010910D02*
X0022613D01*
X0022887Y0010820D02*
X0022613D01*
X0022887Y0010730D02*
X0022613D01*
X0022887Y0010640D02*
X0022613D01*
X0022887Y0010550D02*
X0022613D01*
X0022887Y0010460D02*
X0022613D01*
X0022887Y0010370D02*
X0022613D01*
X0022887Y0010280D02*
X0022613D01*
X0022887Y0010190D02*
X0022613D01*
X0022887Y0010100D02*
X0022613D01*
X0022887Y0010010D02*
X0022613D01*
X0022887Y0009920D02*
X0022613D01*
X0022855Y0015230D02*
X0022645D01*
X0022580Y0013104D02*
Y0013087D01*
X0022861Y0015300D02*
X0022638D01*
X0022855Y0014060D02*
X0022645D01*
X0020015Y0013160D02*
X0019547D01*
X0022855Y0013340D02*
X0022645D01*
X0021577Y0013160D02*
X0020665D01*
X0021555Y0013430D02*
X0020395D01*
X0021230Y0015300D02*
Y0012730D01*
X0021500Y0015300D02*
Y0013087D01*
X0022887Y0013070D02*
X0022613D01*
X0022887Y0012980D02*
X0022613D01*
X0022887Y0012890D02*
X0022613D01*
X0022040Y0011205D02*
Y0011158D01*
X0024110Y0012407D02*
Y0011748D01*
X0019025Y0006030D02*
X0018795D01*
X0024113Y0012410D02*
Y0011842D01*
X0025079Y0012260D02*
X0024113D01*
X0025573Y0012980D02*
X0025110D01*
X0021387Y0013087D02*
Y0012730D01*
X0031760Y0014460D02*
Y0012830D01*
X0030390Y0007130D02*
X0030360D01*
X0030390Y0007040D02*
X0030360D01*
X0030390Y0006950D02*
X0030360D01*
X0030390Y0006860D02*
X0030360D01*
X0028890Y0008950D02*
Y0008390D01*
X0002769Y0009560D02*
X0002735D01*
X0029543Y0008390D02*
X0028890D01*
X0031110Y0007860D02*
X0030442D01*
X0028930Y0009830D02*
X0027727D01*
X0029110Y0011550D02*
Y0011450D01*
X0029150Y0010890D02*
Y0010602D01*
X0029823Y0008617D02*
X0029742D01*
Y0008570D02*
X0029610D01*
X0004400Y0005503D02*
Y0001715D01*
X0004310Y0005593D02*
Y0001708D01*
X0004220Y0005683D02*
Y0001684D01*
X0004130Y0005773D02*
Y0001637D01*
X0004040Y0005863D02*
Y0003224D01*
X0007968Y0010550D02*
X0007400D01*
X0003860Y0006043D02*
Y0003350D01*
X0004965Y0003530D02*
X0002388D01*
X0016343Y0001460D02*
X0015625D01*
X0014802Y0003980D02*
X0013317D01*
X0012320Y0001444D02*
Y0001310D01*
X0012230Y0001444D02*
Y0001310D01*
X0010251Y0010598D02*
X0010103Y0010450D01*
X0009250Y0008323D02*
Y0007898D01*
Y0007472D02*
Y0007898D01*
X0008962D02*
X0009250D01*
X0009538D02*
X0009250D01*
X0018890Y0010823D02*
Y0009063D01*
X0018597Y0012597D02*
X0019000Y0013000D01*
X0018620Y0015300D02*
Y0014564D01*
X0019403Y0012597D02*
X0019000Y0013000D01*
X0030514Y0007883D02*
X0030509D01*
X0022533Y0003620D02*
X0021791D01*
X0031237Y0008660D02*
X0031007D01*
X0011750Y0007610D02*
Y0007280D01*
X0011390Y0007040D02*
X0010795D01*
X0011390Y0007280D02*
X0011750D01*
X0002510Y0009015D02*
Y0008237D01*
X0030750Y0010860D02*
Y0010530D01*
X0021050Y0015300D02*
Y0012775D01*
X0030750Y0006640D02*
Y0006970D01*
X0030500Y0007883D02*
Y0007860D01*
X0031110Y0006970D02*
X0030750D01*
X0030390D02*
X0030750D01*
X0028775Y0010410D02*
X0028250D01*
X0027725D02*
X0028250D01*
Y0010040D02*
Y0010410D01*
X0028860Y0006470D02*
X0028500D01*
X0027250Y0007610D02*
Y0007280D01*
X0026000Y0010590D02*
Y0010504D01*
X0027579Y0012228D02*
X0027460D01*
X0028930Y0010100D02*
X0028775D01*
X0029140Y0011220D02*
X0029500D01*
X0028750Y0010890D02*
Y0011220D01*
X0029110D02*
X0028750D01*
X0011780Y0005150D02*
X0012200D01*
X0012620D02*
X0012200D01*
Y0005520D02*
Y0005150D01*
X0013780D02*
X0014200D01*
X0015844Y0004735D02*
X0015360D01*
X0014200Y0004780D02*
Y0005150D01*
X0009640Y0003080D02*
X0009620D01*
X0009200Y0003030D02*
Y0003400D01*
Y0003770D02*
Y0003400D01*
X0008780Y0001650D02*
X0009200D01*
X0009620D02*
X0009200D01*
Y0001280D02*
Y0001650D01*
Y0002020D02*
Y0001650D01*
X0009620Y0005150D02*
X0009200D01*
Y0004780D02*
Y0005150D01*
Y0005520D02*
Y0005150D01*
X0008780Y0006900D02*
X0009200D01*
Y0007270D02*
Y0006900D01*
X0027510Y0010374D02*
X0027163D01*
X0027725Y0010640D02*
X0027513D01*
X0025066Y0010374D02*
X0025413D01*
X0025760D02*
X0025413D01*
Y0010047D02*
Y0010374D01*
X0025910Y0010590D02*
Y0010456D01*
X0025280Y0007400D02*
X0025700D01*
X0026990Y0007799D02*
Y0007610D01*
X0023280Y0006900D02*
X0023700D01*
X0024120D02*
X0023700D01*
Y0007270D02*
Y0006900D01*
X0021280Y0005650D02*
X0021700D01*
X0022120D02*
X0021700D01*
Y0005280D02*
Y0005650D01*
Y0006020D02*
Y0005650D01*
X0003593Y0009157D02*
X0003250Y0009500D01*
X0004850Y0009850D02*
Y0009774D01*
X0002907Y0009157D02*
X0003250Y0009500D01*
X0005300Y0009017D02*
Y0008947D01*
X0009583Y0009830D02*
X0009538D01*
X0004907Y0009157D02*
X0005250Y0009500D01*
X0016078Y0013790D02*
X0015966D01*
X0016099Y0014599D02*
X0015742Y0014242D01*
X0014414Y0008843D02*
X0014016Y0009242D01*
X0015090Y0010140D02*
Y0010010D01*
X0015595Y0009650D02*
X0015397D01*
X0013617Y0008843D02*
X0014016Y0009242D01*
X0015398Y0008843D02*
X0015000Y0009242D01*
X0015398Y0009640D02*
X0015000Y0009242D01*
X0014601Y0008843D02*
X0015000Y0009242D01*
X0016383Y0008843D02*
X0015984Y0009242D01*
X0015586Y0009640D02*
X0015984Y0009242D01*
X0016383Y0009640D02*
X0015984Y0009242D01*
X0015586Y0008843D02*
X0015984Y0009242D01*
X0017367Y0008843D02*
X0016968Y0009242D01*
X0016570Y0009640D02*
X0016968Y0009242D01*
X0017367Y0009640D02*
X0016968Y0009242D01*
X0016570Y0008843D02*
X0016968Y0009242D01*
X0013573Y0001370D02*
X0010377D01*
X0013390Y0001460D02*
X0013103D01*
X0013922Y0002406D02*
X0013524Y0002008D01*
X0017890Y0009290D02*
X0017530D01*
X0015890Y0001609D02*
X0015492Y0002008D01*
X0015093Y0002406D02*
X0015492Y0002008D01*
X0015890Y0002406D02*
X0015492Y0002008D01*
X0012141Y0003390D02*
X0012539Y0002992D01*
X0012938Y0003390D02*
X0012539Y0002992D01*
X0014906Y0002593D02*
X0014508Y0002992D01*
X0014109Y0003390D02*
X0014508Y0002992D01*
X0014906Y0003390D02*
X0014508Y0002992D01*
X0014109Y0002593D02*
X0014508Y0002992D01*
X0016875Y0002593D02*
X0016476Y0002992D01*
X0016078Y0003390D02*
X0016476Y0002992D01*
X0016078Y0002593D02*
X0016476Y0002992D01*
X0017859Y0002593D02*
X0017461Y0002992D01*
X0017062Y0002593D02*
X0017461Y0002992D01*
X0010771Y0012664D02*
X0011106Y0013000D01*
X0011442Y0013335D02*
X0011106Y0013000D01*
X0011442Y0012664D02*
X0011106Y0013000D01*
X0010771Y0013335D02*
X0011106Y0013000D01*
X0011558Y0012664D02*
X0011893Y0013000D01*
X0012229Y0013335D02*
X0011893Y0013000D01*
X0012229Y0012664D02*
X0011893Y0013000D01*
X0011558Y0013335D02*
X0011893Y0013000D01*
X0010771Y0011877D02*
X0011106Y0012213D01*
X0011442Y0012548D02*
X0011106Y0012213D01*
X0010771Y0012548D02*
X0011106Y0012213D01*
X0014540Y0011900D02*
X0012250D01*
X0012229Y0012548D02*
X0011893Y0012213D01*
X0014540Y0011990D02*
X0012312D01*
X0011558Y0012548D02*
X0011893Y0012213D01*
X0031895Y0012830D02*
X0031671D01*
X0032276Y0013974D02*
X0032750Y0013500D01*
X0033224Y0013974D02*
X0032750Y0013500D01*
X0032276Y0013026D02*
X0032750Y0013500D01*
X0004059Y0001579D02*
X0004388Y0001250D01*
X0004716Y0000921D02*
X0004388Y0001250D01*
X0004059Y0000921D02*
X0004388Y0001250D01*
X0004716Y0001579D02*
X0004388Y0001250D01*
X0006470Y0000785D02*
Y0000650D01*
X0021627Y0009599D02*
X0021984Y0009242D01*
X0022341Y0009599D02*
X0021984Y0009242D01*
X0003973Y0001460D02*
X0003430D01*
X0024290Y0009593D02*
Y0008827D01*
X0020906Y0002406D02*
X0020508Y0002008D01*
X0023990Y0009913D02*
Y0009887D01*
X0022078Y0002406D02*
X0022476Y0002008D01*
X0022875Y0002406D02*
X0022476Y0002008D01*
X0020906Y0002593D02*
X0020508Y0002992D01*
X0020109Y0003390D02*
X0020508Y0002992D01*
X0020906Y0003390D02*
X0020508Y0002992D01*
X0022875Y0002593D02*
X0022476Y0002992D01*
X0022078Y0003390D02*
X0022476Y0002992D01*
X0019455Y0003710D02*
X0019195D01*
X0022078Y0002593D02*
X0022476Y0002992D01*
X0002870Y0000710D02*
Y0000650D01*
X0025500Y0012228D02*
Y0012600D01*
Y0012972D02*
Y0012600D01*
X0030500Y0012972D02*
Y0012600D01*
X0014750Y0010140D02*
Y0010470D01*
X0014390D02*
X0014750D01*
X0015750Y0010140D02*
Y0010470D01*
X0016568Y0010730D02*
X0016110D01*
Y0010470D02*
X0015750D01*
X0018250Y0009360D02*
Y0009030D01*
X0017890D02*
X0018250D01*
X0018610D02*
X0018250D01*
X0025000Y0012110D02*
Y0011780D01*
X0024640D02*
X0025000D01*
X0025390Y0011720D02*
X0025360D01*
X0016568Y0011900D02*
X0017250D01*
X0017932D02*
X0017250D01*
Y0011475D02*
Y0011900D01*
Y0012325D02*
Y0011900D01*
X0022613Y0010535D02*
X0022000D01*
X0021387D02*
X0022000D01*
X0021410Y0011205D02*
Y0011158D01*
X0022000Y0009913D02*
Y0010535D01*
X0022887D02*
X0023500D01*
X0022940Y0011205D02*
Y0011158D01*
X0023500Y0009913D02*
Y0010535D01*
X0024750Y0012390D02*
Y0012720D01*
X0030000Y0006640D02*
Y0006970D01*
X0030360D02*
X0030000D01*
X0028890Y0008300D02*
X0028860D01*
X0029742Y0008930D02*
X0029610D01*
Y0008720D02*
X0029250D01*
X0015475Y0005780D02*
X0014577D01*
X0007942Y0011990D02*
X0009138Y0010794D01*
X0022645Y0015250D02*
Y0013250D01*
X0021555Y0015250D02*
Y0013250D01*
X0022887Y0011900D02*
X0022613D01*
X0020150Y0015300D02*
Y0013675D01*
X0022855Y0015250D02*
Y0013250D01*
X0024640Y0011990D02*
X0024113D01*
X0022613Y0013087D02*
X0022557D01*
X0030500Y0013028D02*
Y0012972D01*
X0032084Y0013430D02*
X0031671D01*
X0014390Y0010280D02*
X0013477D01*
X0029110Y0012110D02*
Y0011550D01*
X0022943Y0013087D02*
X0022887D01*
X0017890Y0008700D02*
Y0008468D01*
X0009800Y0008631D02*
Y0008067D01*
X0010700Y0008528D02*
Y0008472D01*
X0011976Y0002135D02*
X0011525D01*
X0011870Y0010951D02*
Y0010660D01*
X0002460Y0009015D02*
Y0008287D01*
X0007590Y0002810D02*
X0005860D01*
X0010210Y0001537D02*
X0010437Y0001310D01*
X0012040Y0007728D02*
Y0007610D01*
X0011240Y0010970D02*
Y0010660D01*
X0019225Y0005955D02*
X0019025D01*
X0019700Y0006710D02*
Y0006030D01*
Y0004746D02*
Y0004710D01*
X0016725Y0005330D02*
X0016525D01*
X0017975D02*
X0017775D01*
X0023943Y0007310D02*
X0022237D01*
X0019225Y0005365D02*
X0019025D01*
X0018440Y0006710D02*
Y0006502D01*
X0013536Y0008762D02*
X0013327D01*
X0013546Y0008930D02*
X0013501D01*
X0013620Y0008840D02*
X0013426D01*
X0013340Y0013520D02*
X0012286D01*
X0014390Y0010820D02*
Y0010010D01*
X0014540Y0011720D02*
X0012368D01*
X0014390Y0010820D02*
Y0010800D01*
X0013400Y0010203D02*
Y0009907D01*
X0013040Y0009843D02*
Y0009805D01*
X0002789Y0009650D02*
X0002735D01*
X0013670Y0010473D02*
Y0010010D01*
X0014480Y0010140D02*
Y0010010D01*
X0014530Y0008930D02*
X0014485D01*
X0014605Y0008840D02*
X0014411D01*
X0014725Y0008750D02*
X0014291D01*
X0016568Y0011630D02*
X0015960D01*
X0013340Y0013430D02*
X0012206D01*
X0014120Y0010820D02*
Y0010010D01*
X0015020Y0010140D02*
Y0010010D01*
X0014930Y0010140D02*
Y0010010D01*
X0014840Y0010140D02*
Y0010010D01*
X0014750Y0010140D02*
Y0010010D01*
X0014660Y0010140D02*
Y0010010D01*
X0014300Y0003980D02*
Y0003516D01*
X0014570Y0010140D02*
Y0010010D01*
X0015519Y0009560D02*
X0015465D01*
X0015515Y0008930D02*
X0015469D01*
X0016550Y0012613D02*
Y0009620D01*
X0016370Y0012659D02*
Y0009653D01*
X0016100Y0010140D02*
Y0009794D01*
X0016010Y0010140D02*
Y0009805D01*
X0015920Y0010140D02*
Y0009802D01*
X0015830Y0010140D02*
Y0009784D01*
X0015740Y0010140D02*
Y0009750D01*
X0015650Y0010140D02*
Y0009696D01*
X0015560Y0010140D02*
Y0009613D01*
X0016704Y0009740D02*
X0016248D01*
X0016579Y0009650D02*
X0016373D01*
X0016503Y0009560D02*
X0016450D01*
X0016499Y0008930D02*
X0016454D01*
X0016573Y0008840D02*
X0016379D01*
X0016693Y0008750D02*
X0016259D01*
X0017450Y0010175D02*
Y0009535D01*
X0017360Y0010175D02*
Y0009647D01*
X0017270Y0010175D02*
Y0009718D01*
X0017180Y0010175D02*
Y0009764D01*
X0017090Y0010175D02*
Y0009792D01*
X0017000Y0010175D02*
Y0009805D01*
X0016910Y0010175D02*
Y0009802D01*
X0016820Y0010175D02*
Y0009786D01*
X0016730Y0010175D02*
Y0009753D01*
X0016640Y0010175D02*
Y0009700D01*
X0016190Y0012785D02*
Y0009767D01*
X0019934Y0009740D02*
X0017232D01*
X0019718Y0009650D02*
X0017357D01*
X0019624Y0009560D02*
X0017434D01*
X0019565Y0009470D02*
X0017484D01*
X0015830Y0002541D02*
Y0002459D01*
X0016820Y0002545D02*
Y0002454D01*
X0016190Y0002506D02*
Y0002493D01*
X0016100Y0002572D02*
Y0002427D01*
X0016010Y0002675D02*
Y0002324D01*
X0019225Y0004070D02*
X0019165D01*
X0017905Y0002630D02*
X0017893D01*
X0017833Y0002450D02*
X0017810D01*
X0017905Y0002522D02*
X0017822Y0002440D01*
X0017810Y0002549D02*
Y0002450D01*
X0017090Y0002567D02*
Y0002432D01*
X0017000Y0002667D02*
Y0002332D01*
X0017890Y0008750D02*
X0017243D01*
X0017890Y0008840D02*
X0017363D01*
X0017890Y0008930D02*
X0017438D01*
X0016036Y0002360D02*
X0015932D01*
X0014030Y0002693D02*
Y0002307D01*
X0016697Y0001370D02*
X0015411D01*
X0016787Y0001280D02*
X0015375D01*
X0016049Y0001640D02*
X0015919D01*
X0013310Y0001486D02*
Y0001310D01*
X0015052Y0002360D02*
X0014947D01*
X0014930Y0002619D02*
Y0002381D01*
X0016127Y0002450D02*
X0015841D01*
X0015560Y0001448D02*
Y0001060D01*
X0012140Y0002594D02*
Y0002571D01*
X0012050Y0002712D02*
Y0002571D01*
X0010200Y0004070D02*
X0009620D01*
X0013181Y0003440D02*
X0012881D01*
X0013088Y0003350D02*
X0012975D01*
X0004965Y0002810D02*
X0004063D01*
X0012072Y0003455D02*
X0011571Y0002954D01*
X0007590Y0002180D02*
X0006117D01*
X0012040Y0007728D02*
X0011421D01*
X0013220Y0004140D02*
Y0004077D01*
X0019442Y0005060D02*
X0016302D01*
X0013310Y0004140D02*
Y0003987D01*
X0015142Y0002450D02*
X0014857D01*
X0013580Y0008884D02*
Y0008615D01*
X0013780Y0004070D02*
X0013227D01*
X0013940Y0003980D02*
Y0003372D01*
X0015043Y0003710D02*
X0013587D01*
X0011780Y0003163D02*
Y0002135D01*
X0013780Y0004140D02*
X0013157D01*
X0013670D02*
Y0003627D01*
X0012950Y0003753D02*
Y0003378D01*
X0013760Y0004140D02*
Y0003504D01*
X0015150Y0003440D02*
X0014850D01*
X0015056Y0003350D02*
X0014943D01*
X0015060Y0002630D02*
X0014940D01*
X0015155Y0002540D02*
X0014844D01*
X0015993Y0003890D02*
X0015457D01*
X0015560Y0003970D02*
Y0003787D01*
X0015475Y0003980D02*
X0015367D01*
X0014930Y0006133D02*
Y0005360D01*
X0022120Y0004480D02*
X0021967D01*
X0014640Y0004680D02*
X0014620D01*
X0014570Y0003980D02*
Y0003552D01*
X0014390Y0003980D02*
Y0003543D01*
X0015020Y0002684D02*
Y0002316D01*
X0012590Y0003980D02*
Y0003553D01*
X0015290Y0004140D02*
Y0004057D01*
X0016134Y0003440D02*
X0015834D01*
X0015740Y0003970D02*
Y0003498D01*
X0015110Y0003643D02*
Y0003406D01*
X0015740Y0006440D02*
Y0006030D01*
X0016308Y0003530D02*
X0015702D01*
X0015830Y0004735D02*
Y0004710D01*
X0015223Y0003530D02*
X0014676D01*
X0014953Y0003800D02*
X0013497D01*
X0017028Y0002630D02*
X0016908D01*
X0016147Y0001550D02*
X0015821D01*
X0017383Y0006540D02*
X0017360D01*
Y0006030D01*
X0007590Y0004070D02*
X0005860D01*
X0015913Y0003970D02*
X0016343Y0003540D01*
X0005496Y0006680D02*
X0005210D01*
X0015200Y0002510D02*
Y0002490D01*
X0026180Y0010590D02*
Y0010510D01*
X0016525Y0004710D02*
Y0004192D01*
X0016083Y0003800D02*
X0015547D01*
X0010730Y0012710D02*
X0008870D01*
X0010822Y0012620D02*
X0009075D01*
X0010753Y0012530D02*
X0009174D01*
X0010689Y0012440D02*
X0009239D01*
X0010652Y0012350D02*
X0009280D01*
X0010634Y0012260D02*
X0009304D01*
X0010633Y0012170D02*
X0009313D01*
X0010650Y0012080D02*
X0009308D01*
X0009080Y0012777D02*
Y0012616D01*
X0008990Y0012777D02*
Y0012669D01*
X0008900Y0012777D02*
Y0012703D01*
X0008810Y0012777D02*
Y0012720D01*
X0008720Y0012777D02*
Y0012722D01*
X0008630Y0012777D02*
Y0012710D01*
X0008540Y0012777D02*
Y0012751D01*
X0010678Y0011630D02*
X0008944D01*
X0009260Y0012777D02*
Y0012399D01*
X0009170Y0012777D02*
Y0012535D01*
X0010666Y0013610D02*
X0009314D01*
X0010714Y0013520D02*
X0009314D01*
X0010640Y0013700D02*
X0009314D01*
X0022855Y0013790D02*
X0022645D01*
X0010250Y0013700D02*
Y0010597D01*
X0021561Y0015300D02*
X0015350D01*
X0009890Y0013700D02*
Y0011192D01*
X0009800Y0013700D02*
Y0011300D01*
X0009710Y0013700D02*
Y0011360D01*
X0009620Y0013700D02*
Y0011392D01*
X0009530Y0013700D02*
Y0011404D01*
X0009440Y0013700D02*
Y0011396D01*
X0010636Y0011360D02*
X0009710D01*
X0010658Y0011270D02*
X0009832D01*
X0010700Y0011180D02*
X0009896D01*
X0010770Y0011090D02*
X0009932D01*
X0010895Y0011000D02*
X0009947D01*
X0029870Y0006640D02*
Y0006300D01*
X0020330Y0012845D02*
Y0012295D01*
X0005671Y0007580D02*
X0005210D01*
X0014540Y0012753D02*
Y0011360D01*
X0015499Y0013700D02*
X0015350D01*
X0013355D02*
X0012360D01*
X0021555Y0015050D02*
X0015350D01*
X0011562Y0013340D02*
X0011437D01*
X0011517Y0012710D02*
X0011482D01*
X0021555Y0015140D02*
X0015350D01*
X0010790Y0013433D02*
Y0013354D01*
X0011580Y0013430D02*
X0011419D01*
X0013940Y0010743D02*
Y0010010D01*
X0013340Y0013340D02*
X0012224D01*
X0013340Y0013250D02*
X0012297D01*
X0013340Y0013160D02*
X0012340D01*
X0013349Y0013070D02*
X0012363D01*
X0013374Y0012980D02*
X0012367D01*
X0013417Y0012890D02*
X0012355D01*
X0013483Y0012800D02*
X0012324D01*
X0011609Y0012620D02*
X0011391D01*
X0013807D02*
X0012178D01*
X0012320Y0013579D02*
Y0013208D01*
X0011600Y0013414D02*
Y0013373D01*
X0005300Y0008353D02*
Y0005697D01*
X0011540Y0012530D02*
X0011459D01*
X0010790Y0012646D02*
Y0012566D01*
X0010700Y0013541D02*
Y0013245D01*
X0018626Y0013430D02*
X0017160D01*
X0027510Y0010047D02*
X0027200D01*
X0014540Y0012620D02*
X0014000D01*
X0014540Y0012440D02*
X0012310D01*
X0014540Y0012350D02*
X0012348D01*
X0014540Y0012260D02*
X0012365D01*
X0014540Y0012170D02*
X0012366D01*
X0014540Y0012080D02*
X0012349D01*
X0013585Y0012710D02*
X0012269D01*
X0011600Y0012627D02*
Y0012586D01*
X0012368Y0011900D02*
X0012250D01*
X0011420Y0012644D02*
Y0012569D01*
X0013580Y0010383D02*
Y0010010D01*
X0014017Y0010820D02*
X0013002Y0009805D01*
X0010790Y0011859D02*
Y0011779D01*
X0011419Y0011000D02*
X0011317D01*
X0012320Y0012005D02*
Y0011900D01*
Y0012792D02*
Y0012421D01*
X0012230Y0012665D02*
Y0012547D01*
Y0013452D02*
Y0013334D01*
X0014540Y0012753D02*
X0014276D01*
X0014540Y0012710D02*
X0014221D01*
X0018566Y0011630D02*
X0017932D01*
X0014540Y0011540D02*
X0012368D01*
X0014390Y0011270D02*
X0012368D01*
X0013513Y0010910D02*
X0009942D01*
X0012883Y0010280D02*
X0012456D01*
X0013333Y0010730D02*
X0012327D01*
X0033580Y0014150D02*
X0032912D01*
X0033580Y0014060D02*
X0033118D01*
X0033580Y0013970D02*
X0033227D01*
X0033580Y0013880D02*
X0033302D01*
X0033580Y0013790D02*
X0033354D01*
X0033580Y0013700D02*
X0033389D01*
X0033580Y0013610D02*
X0033411D01*
X0033380Y0014460D02*
Y0013728D01*
X0033290Y0014460D02*
Y0013896D01*
X0033200Y0014460D02*
Y0013996D01*
X0033110Y0014460D02*
Y0014065D01*
X0033020Y0014460D02*
Y0014113D01*
X0032930Y0014460D02*
Y0014145D01*
X0032840Y0014460D02*
Y0014164D01*
X0032750Y0014460D02*
Y0014170D01*
X0032660Y0014460D02*
Y0014164D01*
X0032570Y0014460D02*
Y0014145D01*
X0032480Y0014460D02*
Y0014113D01*
X0032390Y0014460D02*
Y0014065D01*
X0032300Y0014460D02*
Y0013996D01*
X0032210Y0014460D02*
Y0013896D01*
X0033580Y0013527D02*
X0033403Y0013350D01*
X0027040Y0012228D02*
Y0012110D01*
X0015350Y0013924D02*
Y0013700D01*
X0029180Y0006300D02*
X0028860D01*
X0025220Y0007370D02*
Y0007210D01*
X0004922Y0001640D02*
X0004641D01*
X0004820Y0001550D02*
X0004743D01*
X0004940Y0004963D02*
Y0001651D01*
X0002914Y0009850D02*
X0002735D01*
X0004850Y0005053D02*
Y0001582D01*
X0004760Y0005143D02*
Y0001528D01*
X0004670Y0005233D02*
Y0001619D01*
X0004490Y0005413D02*
Y0001703D01*
X0004040Y0002775D02*
Y0001559D01*
X0005860Y0002437D02*
X0006582Y0001715D01*
X0005570Y0008623D02*
Y0007457D01*
X0007698Y0010820D02*
X0007400D01*
X0005443Y0006860D02*
X0005210D01*
X0007590Y0003260D02*
X0005860D01*
X0004965Y0002180D02*
X0003501D01*
X0004965Y0002540D02*
X0003406D01*
X0009620Y0005433D02*
Y0004560D01*
X0005635Y0000920D02*
X0005503D01*
X0005763Y0000830D02*
X0005375D01*
X0011976Y0002571D02*
Y0002135D01*
X0006290Y0006181D02*
Y0002007D01*
X0007590Y0002450D02*
X0005860D01*
X0006110Y0006193D02*
Y0002187D01*
X0007590Y0002360D02*
X0005937D01*
X0006200Y0006182D02*
Y0002097D01*
X0006285Y0000830D02*
X0006162D01*
X0004965Y0002000D02*
X0003516D01*
X0008780Y0001370D02*
X0008720D01*
X0008900Y0001280D02*
Y0001220D01*
X0007590Y0001640D02*
X0007215D01*
X0007693Y0001460D02*
X0007215D01*
X0007783Y0001370D02*
X0007215D01*
X0007910Y0000880D02*
Y0000650D01*
X0007460Y0011058D02*
Y0000650D01*
X0002813Y0009290D02*
X0002735D01*
X0007010Y0006694D02*
Y0001715D01*
X0006920Y0006528D02*
Y0001715D01*
X0006830Y0006421D02*
Y0001715D01*
X0006740Y0006343D02*
Y0001715D01*
X0006650Y0006285D02*
Y0001715D01*
X0021320Y0015300D02*
Y0012730D01*
X0023480Y0009913D02*
Y0009510D01*
X0024830Y0009673D02*
Y0009317D01*
X0024533Y0009020D02*
X0023176D01*
X0024240Y0008210D02*
X0023402D01*
X0023660Y0009913D02*
Y0009557D01*
X0023390Y0009090D02*
Y0008684D01*
X0023300Y0009090D02*
Y0008892D01*
X0023210Y0009090D02*
Y0008992D01*
X0022940Y0009913D02*
Y0009510D01*
X0023840Y0009913D02*
Y0009737D01*
X0024377Y0009380D02*
X0024077D01*
X0022627Y0009470D02*
X0022434D01*
X0020658Y0012208D02*
X0021072Y0011795D01*
X0019790Y0008790D02*
Y0008762D01*
X0019528Y0009110D02*
X0019318D01*
X0019562Y0009020D02*
X0019499D01*
X0019619Y0008930D02*
X0019594D01*
X0019710Y0008840D02*
X0019655D01*
X0022850Y0011205D02*
Y0009510D01*
X0019610Y0008942D02*
Y0008910D01*
X0019520Y0009147D02*
Y0009003D01*
X0019295Y0011512D02*
Y0011350D01*
X0019610Y0011705D02*
Y0009542D01*
X0019430Y0011626D02*
Y0009064D01*
X0019340Y0011542D02*
Y0009103D01*
X0018323Y0011090D02*
X0016110D01*
X0017932Y0010305D02*
Y0010175D01*
X0019250Y0011193D02*
Y0009125D01*
X0019160Y0011093D02*
Y0009132D01*
X0019070Y0011003D02*
Y0009125D01*
X0019250Y0003970D02*
Y0003485D01*
X0020690Y0004880D02*
Y0003525D01*
Y0011343D02*
Y0009640D01*
X0020600Y0011433D02*
Y0009550D01*
X0020510Y0011523D02*
Y0009363D01*
X0020420Y0011613D02*
Y0009544D01*
X0020240Y0011705D02*
Y0009694D01*
X0020150Y0011705D02*
Y0009728D01*
X0020060Y0011705D02*
Y0009745D01*
X0019970Y0011705D02*
Y0009744D01*
X0021387Y0012730D02*
X0021095D01*
X0019880Y0011705D02*
Y0009728D01*
X0021555Y0014150D02*
X0019675D01*
X0020918Y0009740D02*
X0020097D01*
X0020703Y0009650D02*
X0020313D01*
X0020608Y0009560D02*
X0020407D01*
X0020550Y0009470D02*
X0020466D01*
X0020514Y0009380D02*
X0020501D01*
X0021410Y0009913D02*
Y0009536D01*
X0024200Y0012497D02*
Y0011667D01*
X0021555Y0013880D02*
X0019945D01*
X0021320Y0011205D02*
Y0009632D01*
X0021230Y0011205D02*
Y0009691D01*
X0021140Y0011205D02*
Y0009727D01*
X0020960Y0011205D02*
Y0009745D01*
X0020870Y0011216D02*
Y0009729D01*
X0021902Y0009740D02*
X0021082D01*
X0021687Y0009650D02*
X0021297D01*
X0021592Y0009560D02*
X0021392D01*
X0021534Y0009470D02*
X0021450D01*
X0021499Y0009380D02*
X0021485D01*
X0022400Y0009913D02*
Y0009528D01*
X0021860Y0002565D02*
Y0002434D01*
X0022940Y0002671D02*
Y0002328D01*
X0022850Y0002570D02*
Y0002430D01*
X0022760Y0002505D02*
Y0002495D01*
X0022130Y0002547D02*
Y0002452D01*
X0022040Y0002635D02*
Y0002364D01*
X0022990Y0002450D02*
X0022826D01*
X0021590Y0009913D02*
Y0009557D01*
X0021680Y0009913D02*
Y0009644D01*
X0022127Y0002450D02*
X0021841D01*
X0022130Y0009913D02*
Y0009725D01*
X0022220Y0009913D02*
Y0009688D01*
X0021140Y0002552D02*
Y0002448D01*
X0020960Y0002656D02*
Y0002344D01*
X0020870Y0002560D02*
Y0002439D01*
X0025640Y0009299D02*
Y0009201D01*
X0021770Y0009913D02*
Y0009699D01*
X0021052Y0002360D02*
X0020947D01*
X0022490Y0009913D02*
Y0009337D01*
X0020150Y0003970D02*
Y0003427D01*
X0020060Y0003970D02*
Y0003334D01*
X0020165Y0003440D02*
X0020045D01*
X0032587Y0014150D02*
X0031291D01*
X0021193Y0003620D02*
X0020045D01*
X0010646Y0011540D02*
X0008392D01*
X0008180Y0002630D02*
Y0001620D01*
X0008720D02*
X0008127D01*
X0008090Y0002630D02*
Y0001657D01*
X0014120Y0004780D02*
Y0004720D01*
X0021555Y0014870D02*
X0015350D01*
X0004033Y0005870D02*
X0002150D01*
X0009727Y0004880D02*
X0009620D01*
X0009800Y0004140D02*
Y0003984D01*
X0009440Y0005613D02*
Y0005520D01*
X0009260Y0005730D02*
Y0005520D01*
X0013130Y0003573D02*
Y0003395D01*
X0009813Y0004790D02*
X0009620D01*
X0009705Y0003662D02*
Y0003610D01*
X0009170Y0005730D02*
Y0005520D01*
X0009080Y0005730D02*
Y0005520D01*
X0008990Y0005730D02*
Y0005520D01*
X0009323Y0005730D02*
X0009533Y0005520D01*
X0014640Y0004970D02*
X0014620D01*
X0004483Y0005420D02*
X0002150D01*
X0009530Y0004780D02*
Y0004720D01*
X0009440Y0004780D02*
Y0004720D01*
X0009350Y0004780D02*
Y0004720D01*
X0009170Y0004780D02*
Y0004720D01*
X0008990Y0004780D02*
Y0004720D01*
X0014120Y0003980D02*
Y0003401D01*
X0011976Y0001545D02*
Y0001444D01*
X0007594Y0004340D02*
X0005860D01*
X0008090Y0005240D02*
X0005757D01*
X0009363Y0005690D02*
X0008860D01*
X0008090Y0006130D02*
Y0005120D01*
X0008962Y0008030D02*
X0008538D01*
X0009530Y0007472D02*
Y0007270D01*
X0009440Y0007472D02*
Y0007270D01*
X0009620Y0002390D02*
Y0002230D01*
X0009640Y0006860D02*
X0009620D01*
X0010053Y0001100D02*
X0009620D01*
X0009640Y0007220D02*
X0009620D01*
X0009640Y0007130D02*
X0009620D01*
X0009640Y0006770D02*
X0009620D01*
X0009640Y0006950D02*
X0009620D01*
X0008962Y0007760D02*
X0008538D01*
X0008962Y0007670D02*
X0008538D01*
X0009170Y0007472D02*
Y0007270D01*
X0009080Y0007472D02*
Y0007270D01*
X0008962Y0010206D02*
Y0009677D01*
X0008900Y0010268D02*
Y0007270D01*
X0012613Y0010010D02*
X0012454D01*
X0008090Y0006130D02*
Y0005120D01*
X0008810Y0010358D02*
Y0007270D01*
X0008630Y0010538D02*
Y0006870D01*
X0008040Y0007472D02*
Y0006870D01*
Y0007310D02*
X0007008D01*
X0009640D02*
X0008460D01*
X0009640Y0007400D02*
X0008460D01*
X0008780Y0006950D02*
X0008460D01*
X0008780Y0007040D02*
X0008460D01*
X0009211Y0011270D02*
X0008662D01*
X0003853Y0006050D02*
X0002150D01*
X0026798Y0010448D02*
X0026816Y0010430D01*
X0027640Y0011540D02*
X0027610D01*
X0010475Y0001640D02*
X0010210D01*
X0010475Y0001550D02*
X0010210D01*
X0010475Y0001730D02*
X0010210D01*
X0010475Y0002180D02*
X0010210D01*
X0030360Y0010860D02*
Y0010300D01*
X0027725Y0010100D02*
X0027510D01*
X0027725Y0010460D02*
X0027510D01*
X0030390Y0010190D02*
X0030360D01*
X0026127Y0009470D02*
X0025866D01*
X0025914Y0010460D02*
X0025760D01*
X0026816D02*
X0026786D01*
X0026540Y0010590D02*
Y0010510D01*
X0026816Y0010590D02*
Y0010430D01*
X0025540Y0012150D02*
Y0012110D01*
X0026816Y0010550D02*
X0025760D01*
X0025823Y0010370D02*
X0025760D01*
X0024740Y0010590D02*
Y0010327D01*
X0027200Y0010047D02*
X0027293Y0009953D01*
X0025280Y0010047D02*
Y0009953D01*
X0025190Y0010047D02*
Y0009953D01*
X0025100Y0010047D02*
Y0009953D01*
X0026816Y0010590D02*
X0025760D01*
X0025640Y0010047D02*
Y0009953D01*
Y0010047D02*
Y0009953D01*
X0025066Y0010280D02*
X0024934D01*
X0024687Y0010590D02*
X0024424Y0010327D01*
X0024920Y0010590D02*
Y0010327D01*
X0023660Y0011842D02*
Y0011795D01*
X0024830Y0010590D02*
Y0010327D01*
X0027800Y0010040D02*
Y0009784D01*
X0008780Y0002540D02*
X0008010D01*
X0021010Y0006125D02*
Y0005620D01*
X0021337Y0006710D02*
X0018110D01*
X0021997Y0006050D02*
X0021010D01*
X0026090Y0007916D02*
Y0007770D01*
X0025010Y0008290D02*
Y0007370D01*
X0025280Y0009299D02*
Y0009201D01*
X0025730Y0009299D02*
Y0009201D01*
X0025066Y0009740D02*
X0024934D01*
X0020240Y0015300D02*
Y0013585D01*
X0025550Y0009299D02*
Y0009201D01*
X0025460Y0009299D02*
Y0009201D01*
X0020870Y0006710D02*
Y0006649D01*
X0005930Y0008992D02*
Y0007754D01*
X0009367Y0009020D02*
X0005944D01*
X0007962Y0008030D02*
X0005210D01*
X0007962Y0008120D02*
X0005210D01*
X0007962Y0008210D02*
X0005210D01*
X0009440Y0009470D02*
X0005960D01*
X0018440Y0015300D02*
Y0013106D01*
X0020600Y0006710D02*
Y0006584D01*
X0026127Y0009290D02*
X0024857D01*
X0024726Y0008827D02*
X0024240D01*
X0023750Y0009096D02*
Y0007860D01*
X0025066Y0009201D02*
Y0009084D01*
X0024920Y0009673D02*
Y0009227D01*
X0024623Y0008930D02*
X0023271D01*
X0024380Y0009226D02*
Y0008827D01*
X0026720Y0010590D02*
Y0010498D01*
X0009348Y0008840D02*
X0005787D01*
X0025066Y0008030D02*
X0023383D01*
X0009344Y0008930D02*
X0005877D01*
X0009440Y0009290D02*
X0005960D01*
X0026000Y0007916D02*
Y0007770D01*
X0026140Y0007580D02*
X0026120D01*
X0026140Y0007490D02*
X0026120D01*
X0026360Y0010590D02*
Y0010510D01*
X0026140Y0007400D02*
X0026120D01*
X0026140Y0007310D02*
X0026120D01*
X0026140Y0007220D02*
X0026120D01*
X0025100Y0007799D02*
Y0007370D01*
X0025640Y0007799D02*
Y0007770D01*
X0025550Y0007799D02*
Y0007770D01*
X0027170Y0007783D02*
Y0007610D01*
X0025820Y0007916D02*
Y0007770D01*
X0020330Y0015300D02*
Y0013495D01*
X0026890Y0007210D02*
X0026860D01*
X0017383Y0006540D02*
X0017360D01*
X0011780Y0005520D02*
Y0004922D01*
X0025730Y0007799D02*
Y0007770D01*
X0025190Y0007799D02*
Y0007370D01*
X0025066Y0008290D02*
Y0007799D01*
X0024920Y0008173D02*
Y0007370D01*
X0024830Y0008173D02*
Y0007370D01*
X0024740Y0008173D02*
Y0007370D01*
X0010070Y0013700D02*
Y0010408D01*
X0023390Y0007440D02*
Y0007270D01*
X0024470Y0008173D02*
Y0007377D01*
X0024200Y0009503D02*
Y0007647D01*
X0022490Y0007440D02*
Y0007057D01*
X0023930Y0007323D02*
Y0007270D01*
X0023840Y0007413D02*
Y0007270D01*
X0023853Y0007400D02*
X0022147D01*
X0024380Y0006860D02*
X0024120D01*
X0024380Y0006770D02*
X0024120D01*
X0023930Y0009233D02*
Y0007858D01*
X0023660Y0007440D02*
Y0007270D01*
X0023570Y0007440D02*
Y0007270D01*
X0023480Y0007440D02*
Y0007270D01*
X0023750Y0007440D02*
Y0007270D01*
X0025066Y0007850D02*
X0023964D01*
X0008040Y0007130D02*
X0007059D01*
X0024290Y0006963D02*
Y0006710D01*
X0024380Y0006873D02*
Y0006710D01*
X0024200Y0007053D02*
Y0006710D01*
X0023813Y0007440D02*
X0023983Y0007270D01*
X0023120Y0007440D02*
Y0006870D01*
X0023030Y0007440D02*
Y0006870D01*
X0022940Y0007440D02*
Y0006870D01*
X0022850Y0007440D02*
Y0006870D01*
X0022130Y0005917D02*
Y0004430D01*
X0022670Y0007440D02*
Y0006877D01*
X0022580Y0007440D02*
Y0006967D01*
X0020510Y0006710D02*
Y0006453D01*
X0009080Y0001280D02*
Y0001220D01*
X0022400Y0005647D02*
Y0005491D01*
X0022195Y0005240D02*
X0021220D01*
X0023220Y0006870D02*
X0022677D01*
X0021410Y0006637D02*
Y0006020D01*
X0021950Y0006097D02*
Y0006020D01*
X0021140Y0006710D02*
Y0005620D01*
X0022120Y0005927D02*
Y0005280D01*
X0022357Y0005690D02*
X0022120D01*
X0021770Y0006277D02*
Y0006020D01*
X0021907Y0006140D02*
X0021025D01*
X0021680Y0006367D02*
Y0006020D01*
X0021337Y0006710D02*
X0022027Y0006020D01*
X0008180Y0000880D02*
Y0000650D01*
X0011390Y0006590D02*
X0010795D01*
X0021950Y0005280D02*
Y0005220D01*
X0021860Y0005280D02*
Y0005220D01*
X0021770Y0005280D02*
Y0005220D01*
X0021680Y0005280D02*
Y0005220D01*
X0021280Y0005330D02*
X0021220D01*
X0022310Y0005737D02*
Y0005442D01*
X0021410Y0005280D02*
Y0005220D01*
X0022140Y0004880D02*
X0022120D01*
X0022140Y0004790D02*
X0022120D01*
X0022140Y0004700D02*
X0022120D01*
X0018800Y0006132D02*
Y0006030D01*
X0021050Y0006171D02*
Y0005620D01*
X0020590Y0005870D02*
X0020275D01*
X0021280D02*
X0021010D01*
X0021280Y0005960D02*
X0021010D01*
X0021230Y0006710D02*
Y0003853D01*
X0021590Y0005280D02*
Y0005220D01*
X0021280Y0005600D02*
X0021220D01*
X0021280Y0005510D02*
X0021220D01*
X0021280Y0005420D02*
X0021220D01*
X0022447Y0005600D02*
X0022120D01*
X0022855Y0013520D02*
X0022645D01*
X0022855Y0013700D02*
X0022645D01*
X0010610D02*
Y0010660D01*
X0003914Y0009850D02*
X0003586D01*
X0003894Y0009830D02*
X0003605D01*
X0003680Y0009850D02*
Y0009724D01*
X0002870Y0009850D02*
Y0009801D01*
X0003828Y0009740D02*
X0003671D01*
X0003789Y0009650D02*
X0003711D01*
X0003769Y0009560D02*
X0003731D01*
X0003766Y0009470D02*
X0003734D01*
X0003780Y0009380D02*
X0003720D01*
X0003813Y0009290D02*
X0003687D01*
X0003869Y0009200D02*
X0003631D01*
X0003962Y0009110D02*
X0003538D01*
X0004180Y0009020D02*
X0003319D01*
X0004914Y0009850D02*
X0004586D01*
X0004894Y0009830D02*
X0004605D01*
X0002780Y0009850D02*
Y0009620D01*
X0007962Y0010100D02*
X0007400D01*
X0004670Y0009850D02*
Y0009742D01*
X0003860Y0009850D02*
Y0009788D01*
X0004828Y0009740D02*
X0004671D01*
X0004789Y0009650D02*
X0004711D01*
X0004769Y0009560D02*
X0004731D01*
X0004766Y0009470D02*
X0004734D01*
X0004780Y0009380D02*
X0004720D01*
X0004813Y0009290D02*
X0004687D01*
X0004869Y0009200D02*
X0004631D01*
X0004962Y0009110D02*
X0004538D01*
X0005180Y0009020D02*
X0004319D01*
X0021500Y0004386D02*
Y0003999D01*
X0032390Y0012497D02*
Y0012337D01*
X0026127Y0009380D02*
X0025760D01*
X0022353Y0003800D02*
X0021780D01*
X0007400Y0009850D02*
X0005960D01*
X0003770D02*
Y0009569D01*
X0007962Y0009740D02*
X0005960D01*
X0021320Y0006710D02*
Y0006020D01*
X0021387Y0013070D02*
X0020755D01*
X0022855Y0013430D02*
X0022645D01*
X0009440Y0009380D02*
X0005960D01*
X0009620Y0008594D02*
Y0006710D01*
X0007370Y0009850D02*
Y0000650D01*
X0006200Y0009850D02*
Y0007818D01*
X0007010Y0009850D02*
Y0007306D01*
X0006920Y0009850D02*
Y0007471D01*
X0006830Y0009850D02*
Y0007579D01*
X0006740Y0009850D02*
Y0007656D01*
X0006650Y0009850D02*
Y0007715D01*
X0006560Y0009850D02*
Y0007758D01*
X0006380Y0009850D02*
Y0007809D01*
X0006290Y0009850D02*
Y0007818D01*
X0006110Y0009850D02*
Y0007807D01*
X0007962Y0009830D02*
X0005960D01*
X0005840Y0008893D02*
Y0007709D01*
X0018436Y0014240D02*
X0016246D01*
X0005750Y0008803D02*
Y0007649D01*
X0005660Y0008713D02*
Y0007568D01*
X0007962Y0007760D02*
X0006556D01*
X0009640Y0006710D02*
X0009620D01*
X0007962Y0007670D02*
X0006721D01*
X0007962Y0007580D02*
X0006829D01*
X0008040Y0006950D02*
X0007068D01*
X0024650Y0008173D02*
Y0007370D01*
X0008780Y0006770D02*
X0008720D01*
X0007730Y0010788D02*
Y0004527D01*
X0008040Y0007220D02*
X0007039D01*
X0021718Y0007829D02*
X0022677Y0006870D01*
X0009533Y0005520D02*
X0008860D01*
X0007880Y0006860D02*
X0007057D01*
X0007880Y0006770D02*
X0007036D01*
X0007880Y0006680D02*
X0007004D01*
X0007880Y0006590D02*
X0006959D01*
X0007880Y0006500D02*
X0006899D01*
X0007880Y0006410D02*
X0006818D01*
X0006020Y0009850D02*
Y0007786D01*
X0002780Y0007123D02*
Y0003286D01*
X0002600Y0007303D02*
Y0003381D01*
X0009314Y0013700D02*
Y0012777D01*
X0007428Y0011090D02*
X0007400D01*
X0007518Y0011000D02*
X0007400D01*
X0007962Y0010010D02*
X0007400D01*
X0008630Y0011608D02*
Y0011302D01*
X0006470Y0009850D02*
Y0007789D01*
X0007820Y0012330D02*
Y0012061D01*
X0007962Y0010190D02*
X0007400D01*
X0007788Y0010730D02*
X0007400D01*
X0007962Y0009920D02*
X0007400D01*
X0012410Y0013700D02*
Y0010675D01*
X0018436Y0013520D02*
X0017160D01*
X0018436Y0014330D02*
X0016239D01*
X0018436Y0013970D02*
X0016992D01*
X0018080Y0015300D02*
Y0010895D01*
X0016550Y0015300D02*
Y0014130D01*
X0016370Y0015300D02*
Y0014085D01*
X0016280Y0015300D02*
Y0014035D01*
X0018620Y0010553D02*
Y0008726D01*
X0017090Y0015300D02*
Y0013841D01*
X0021555Y0014960D02*
X0015350D01*
X0016910Y0015300D02*
Y0014037D01*
X0016820Y0015300D02*
Y0014086D01*
X0016730Y0015300D02*
Y0014116D01*
X0018430Y0012980D02*
X0017125D01*
X0018441Y0012890D02*
X0017082D01*
X0015350Y0013700D02*
X0015262D01*
X0018509Y0012710D02*
X0016914D01*
X0015720Y0009740D02*
X0015479D01*
X0016640Y0012613D02*
Y0012325D01*
X0018575Y0012620D02*
X0016693D01*
X0018542Y0013340D02*
X0017160D01*
X0016460Y0012628D02*
Y0009544D01*
X0015385Y0013885D02*
X0015742Y0014242D01*
X0015386Y0014600D02*
X0015350D01*
X0021555Y0014780D02*
X0015350D01*
X0015509Y0014690D02*
X0015350D01*
X0016190Y0015300D02*
Y0014474D01*
X0016100Y0015300D02*
Y0014598D01*
X0016010Y0015300D02*
Y0014669D01*
X0015920Y0015300D02*
Y0014714D01*
X0015830Y0015300D02*
Y0014739D01*
X0015740Y0015300D02*
Y0014746D01*
X0015650Y0015300D02*
Y0014738D01*
X0015560Y0015300D02*
Y0014713D01*
X0015470Y0015300D02*
Y0014667D01*
X0015380Y0015300D02*
Y0014593D01*
X0021590Y0013138D02*
Y0013087D01*
X0018633Y0013436D02*
X0018436D01*
Y0014510D02*
X0016169D01*
X0018436Y0014420D02*
X0016214D01*
X0016100Y0013886D02*
Y0013836D01*
X0016320Y0014060D02*
X0016213D01*
X0016200Y0013970D02*
X0016167D01*
X0016126Y0013880D02*
X0016093D01*
X0015350Y0015300D02*
Y0014560D01*
X0015380Y0008826D02*
Y0008674D01*
X0015290Y0008758D02*
Y0008741D01*
X0014660Y0008792D02*
Y0008707D01*
X0014570Y0008877D02*
Y0008622D01*
X0016525Y0005290D02*
X0016295D01*
X0015650Y0006440D02*
Y0006030D01*
X0016573Y0008660D02*
X0016379D01*
X0016499Y0008570D02*
X0016453D01*
X0016370Y0008831D02*
Y0008669D01*
X0016280Y0008762D02*
Y0008737D01*
X0015650Y0008788D02*
Y0008711D01*
X0015560Y0008871D02*
Y0008629D01*
X0015470Y0008931D02*
Y0008569D01*
X0017890Y0008480D02*
X0017486D01*
X0017540Y0010175D02*
Y0008468D01*
X0017630Y0010175D02*
Y0008468D01*
X0017450Y0008949D02*
Y0008550D01*
X0017360Y0008836D02*
Y0008663D01*
X0017270Y0008766D02*
Y0008734D01*
X0016640Y0008784D02*
Y0008716D01*
X0016550Y0008864D02*
Y0008635D01*
X0013670Y0008797D02*
Y0008703D01*
X0015237Y0006440D02*
X0014317Y0005520D01*
X0013490Y0008914D02*
Y0008762D01*
X0013400Y0008815D02*
Y0008762D01*
X0016460Y0008939D02*
Y0008560D01*
X0017990Y0015300D02*
Y0010895D01*
X0012950Y0013700D02*
Y0010347D01*
X0012860Y0013700D02*
Y0010257D01*
X0031290Y0007130D02*
X0031110D01*
X0012770Y0013700D02*
Y0010167D01*
X0008962Y0010100D02*
X0008538D01*
X0008962Y0010010D02*
X0008538D01*
X0008962Y0009920D02*
X0008538D01*
X0008962Y0009830D02*
X0008538D01*
X0008618Y0010550D02*
X0008520D01*
X0008962Y0009740D02*
X0008538D01*
X0007730Y0012330D02*
Y0012070D01*
X0008520Y0010648D02*
X0008962Y0010206D01*
X0008450Y0011682D02*
Y0011482D01*
X0009314Y0012777D02*
X0008514D01*
X0030390Y0007320D02*
Y0007300D01*
X0009333Y0011360D02*
X0008572D01*
X0009890Y0010100D02*
X0009538D01*
X0009530Y0010553D02*
Y0010528D01*
X0009440Y0010560D02*
Y0010528D01*
X0009101Y0010910D02*
X0009022D01*
X0008540Y0011636D02*
Y0011392D01*
X0008307Y0011810D02*
X0008122D01*
X0009538Y0010528D02*
X0009404D01*
X0009080Y0011702D02*
Y0010852D01*
X0009829Y0008300D02*
X0009538D01*
X0009829Y0008210D02*
X0009538D01*
X0009829Y0008120D02*
X0009538D01*
X0008556Y0011630D02*
X0008302D01*
X0009457Y0008660D02*
X0005607D01*
X0009530Y0008617D02*
Y0008323D01*
X0010579Y0007728D02*
X0010295D01*
X0009719Y0007940D02*
X0009538D01*
X0009440Y0008675D02*
Y0008323D01*
X0004790Y0008300D02*
X0002460D01*
X0009260Y0009677D02*
Y0008323D01*
X0009170Y0009677D02*
Y0008323D01*
X0009080Y0009677D02*
Y0008323D01*
X0009640Y0007580D02*
X0009538D01*
X0009640Y0007490D02*
X0009538D01*
X0008962Y0008300D02*
X0008538D01*
X0008962Y0008210D02*
X0008538D01*
X0008962Y0008120D02*
X0008538D01*
X0009350Y0007472D02*
Y0007270D01*
X0008962Y0007940D02*
X0008538D01*
X0008962Y0007850D02*
X0008538D01*
X0031671Y0012972D02*
Y0012830D01*
X0032228Y0012170D02*
X0032133D01*
X0025066Y0009380D02*
X0024797D01*
X0031140Y0008210D02*
X0031026D01*
X0030770Y0007883D02*
X0030514D01*
X0013940Y0012613D02*
Y0011240D01*
X0014390Y0011360D02*
Y0011240D01*
X0007880Y0005060D02*
X0005860D01*
X0008195Y0012260D02*
X0007400D01*
X0008186Y0012170D02*
X0007400D01*
X0017975Y0004700D02*
X0017775D01*
X0017360Y0005290D02*
Y0004710D01*
X0017270Y0005290D02*
Y0004710D01*
X0017180Y0005290D02*
Y0004710D01*
X0017090Y0005290D02*
Y0004710D01*
X0017000Y0005290D02*
Y0004710D01*
X0016910Y0005290D02*
Y0004710D01*
X0017540Y0005290D02*
Y0004710D01*
X0017450Y0005290D02*
Y0004710D01*
X0017270Y0006140D02*
Y0006030D01*
X0017180Y0006140D02*
Y0006030D01*
X0017090Y0006140D02*
Y0006030D01*
X0017000Y0006140D02*
Y0006030D01*
X0013090Y0005510D02*
X0012620D01*
X0017720Y0006140D02*
Y0006030D01*
X0017630Y0006140D02*
Y0006030D01*
X0017540Y0006140D02*
Y0006030D01*
X0017450Y0006140D02*
Y0006030D01*
X0017975Y0005960D02*
X0017775D01*
X0019025Y0005365D02*
Y0005290D01*
X0018205Y0006030D02*
X0017975D01*
X0011330Y0011007D02*
Y0010660D01*
X0010880Y0011008D02*
Y0010660D01*
X0016550Y0005365D02*
Y0004167D01*
X0016100Y0003783D02*
Y0003411D01*
X0019025Y0006030D02*
Y0005955D01*
X0017775Y0006030D02*
X0016823D01*
X0016640Y0001427D02*
Y0001060D01*
X0016725Y0004340D02*
X0016525D01*
X0017975Y0004610D02*
X0017775D01*
X0011510Y0006390D02*
Y0006000D01*
X0016460Y0005290D02*
Y0004710D01*
X0009690Y0005240D02*
X0009620D01*
X0011976Y0002180D02*
X0011525D01*
X0016725Y0004070D02*
X0016647D01*
X0011510Y0002790D02*
Y0002210D01*
X0011420Y0002790D02*
Y0002210D01*
X0011330Y0002790D02*
Y0002210D01*
X0011240Y0002790D02*
Y0002210D01*
X0011150Y0002790D02*
Y0002210D01*
X0011060Y0002790D02*
Y0002210D01*
X0010970Y0002790D02*
Y0002210D01*
X0010880Y0002790D02*
Y0002210D01*
X0010790Y0002790D02*
Y0002210D01*
X0010700Y0002790D02*
Y0002210D01*
X0010610Y0002790D02*
Y0002210D01*
X0010520Y0002790D02*
Y0002210D01*
X0012050Y0003433D02*
Y0003272D01*
X0007590Y0004160D02*
X0005860D01*
X0011525Y0002915D02*
Y0002790D01*
X0017975Y0005365D02*
Y0005290D01*
X0009454Y0009677D02*
X0008962D01*
X0014660Y0005863D02*
Y0005360D01*
X0008090Y0006130D02*
X0007880D01*
X0019208Y0011141D02*
X0018461Y0010394D01*
X0013510Y0005390D02*
Y0005120D01*
X0017990Y0006140D02*
Y0006030D01*
X0010340Y0007728D02*
Y0007610D01*
X0015475Y0006030D02*
Y0005325D01*
X0009710Y0008598D02*
Y0007904D01*
X0009705Y0007760D02*
X0009538D01*
X0030680Y0011030D02*
Y0010860D01*
X0030500Y0011030D02*
Y0010860D01*
X0031140Y0010820D02*
X0031110D01*
X0031140Y0010730D02*
X0031110D01*
X0031140Y0010640D02*
X0031110D01*
X0031140Y0010550D02*
X0031110D01*
X0031140Y0010370D02*
X0031110D01*
X0032852Y0012800D02*
X0032334D01*
X0031140Y0007700D02*
Y0007140D01*
X0032660Y0012836D02*
Y0012607D01*
X0031140Y0007760D02*
X0031110D01*
X0031140Y0007220D02*
X0031110D01*
X0030390Y0007200D02*
Y0006640D01*
X0031140Y0007310D02*
X0031110D01*
Y0010300D02*
Y0010200D01*
X0031670Y0014460D02*
Y0012830D01*
X0030950Y0007883D02*
Y0007860D01*
X0030860Y0007883D02*
Y0007860D01*
X0009440Y0009200D02*
X0005960D01*
X0030770Y0007883D02*
Y0007860D01*
X0031253Y0006950D02*
X0031110D01*
X0028890Y0009290D02*
X0028775D01*
X0028890Y0009200D02*
X0028775D01*
X0028890Y0009110D02*
X0028775D01*
X0028890Y0009020D02*
X0028775D01*
X0028890Y0008930D02*
X0028775D01*
X0028890Y0008840D02*
X0028775D01*
X0028890Y0008750D02*
X0028775D01*
X0028700Y0010040D02*
Y0009460D01*
X0028610Y0010040D02*
Y0009460D01*
X0028700Y0010890D02*
Y0010780D01*
X0029680Y0010890D02*
X0029140D01*
X0029008Y0010460D02*
X0028775D01*
X0031290Y0006987D02*
X0031110Y0006807D01*
X0027980Y0010890D02*
Y0010780D01*
X0027890Y0010890D02*
Y0010780D01*
X0027800Y0010890D02*
Y0010780D01*
X0029240Y0010890D02*
Y0010692D01*
X0029277Y0010730D02*
X0028775D01*
X0028930Y0009740D02*
X0027842D01*
X0028970Y0010890D02*
Y0010405D01*
X0029097Y0010550D02*
X0028775D01*
X0031163Y0006860D02*
X0031110D01*
X0031290Y0007140D02*
X0031140D01*
X0030360Y0010200D02*
Y0010180D01*
X0021050Y0011205D02*
Y0009744D01*
X0029510Y0008390D02*
Y0008360D01*
X0029420Y0008390D02*
Y0008360D01*
X0029330Y0008390D02*
Y0008360D01*
X0028790Y0010890D02*
Y0008610D01*
X0028700Y0008720D02*
Y0008610D01*
X0028610Y0008720D02*
Y0008610D01*
X0028520Y0008720D02*
Y0008610D01*
X0028890Y0008660D02*
X0028412D01*
X0030360Y0006640D02*
X0029820D01*
X0005944Y0007760D02*
X0005210D01*
X0015133Y0003620D02*
X0013677D01*
X0027080Y0007799D02*
Y0007610D01*
X0026890Y0011810D02*
X0026860D01*
X0026890Y0011720D02*
X0026860D01*
X0026890Y0012080D02*
X0026860D01*
X0026890Y0011990D02*
X0026860D01*
X0026890Y0011900D02*
X0026860D01*
X0026270Y0010590D02*
Y0010510D01*
X0025390Y0011630D02*
X0025360D01*
X0026810Y0012228D02*
Y0012110D01*
X0026890Y0011450D02*
X0026860D01*
X0026890Y0011360D02*
X0026860D01*
X0026890Y0011270D02*
X0026860D01*
X0026890Y0011180D02*
X0026860D01*
X0026890Y0011090D02*
X0026860D01*
X0026890Y0011010D02*
X0026860D01*
X0026890Y0011540D02*
X0026860D01*
X0025550Y0012228D02*
Y0012214D01*
X0029079Y0012228D02*
X0028960D01*
X0029150D02*
Y0012110D01*
X0029140Y0011450D02*
Y0010890D01*
X0029290Y0012228D02*
Y0012110D01*
X0021590Y0004263D02*
Y0003983D01*
X0021491Y0004430D02*
X0020275D01*
X0021783Y0004070D02*
X0020275D01*
X0029240Y0012228D02*
Y0012110D01*
X0029140Y0011810D02*
X0029110D01*
X0029140Y0011720D02*
X0029110D01*
X0029140Y0012080D02*
X0029110D01*
X0029140Y0011990D02*
X0029110D01*
X0028050Y0010780D02*
X0027725D01*
X0029110Y0011450D02*
Y0010890D01*
X0029060Y0012228D02*
Y0012110D01*
X0028970Y0012228D02*
Y0012110D01*
X0029290Y0012170D02*
X0028960D01*
X0004790Y0006050D02*
X0004697D01*
X0027610Y0012110D02*
X0027460D01*
X0029140Y0011360D02*
X0029110D01*
X0031140Y0010460D02*
X0031110D01*
X0029140Y0011180D02*
X0029110D01*
X0029140Y0011090D02*
X0029110D01*
X0029140Y0011000D02*
X0029110D01*
X0027640Y0011450D02*
X0027610D01*
X0027640Y0011360D02*
X0027610D01*
Y0012110D02*
Y0011550D01*
X0005930Y0006246D02*
Y0002367D01*
X0020780Y0012395D02*
Y0012087D01*
X0004965Y0004250D02*
X0002150D01*
X0002240Y0006343D02*
Y0004153D01*
X0028775Y0010780D02*
X0028649D01*
X0005593Y0007490D02*
X0005210D01*
X0021860Y0011842D02*
Y0011795D01*
X0007590Y0002000D02*
X0006297D01*
X0020330Y0006710D02*
Y0003527D01*
X0020240Y0006710D02*
Y0006030D01*
X0020150Y0006710D02*
Y0006030D01*
X0020060Y0006710D02*
Y0006030D01*
X0019970Y0006710D02*
Y0006030D01*
X0020590Y0005960D02*
X0020275D01*
X0020590Y0005780D02*
X0020275D01*
X0020380Y0005600D02*
X0020275D01*
X0020380Y0005510D02*
X0020275D01*
X0020380Y0005420D02*
X0020275D01*
X0020380Y0005330D02*
X0020275D01*
X0019520Y0006710D02*
Y0006030D01*
X0019430Y0006710D02*
Y0006030D01*
X0019340Y0006710D02*
Y0006030D01*
X0019250Y0006710D02*
Y0006030D01*
X0029110Y0012110D02*
X0028960D01*
X0021280Y0004520D02*
X0020275D01*
X0020240Y0005290D02*
Y0004710D01*
X0020150Y0005290D02*
Y0004710D01*
X0020060Y0005290D02*
Y0004710D01*
X0019493Y0004880D02*
X0016283D01*
X0019970Y0004835D02*
Y0004710D01*
X0019880Y0004771D02*
Y0004710D01*
X0019790Y0004745D02*
Y0004710D01*
X0021204Y0003800D02*
X0020045D01*
X0019225Y0005330D02*
X0019025D01*
X0021384Y0003980D02*
X0020275D01*
X0019430Y0005290D02*
Y0004710D01*
X0019340Y0005290D02*
Y0004710D01*
X0018890Y0005290D02*
Y0004710D01*
X0018800Y0005290D02*
Y0004710D01*
X0018710Y0005290D02*
Y0004710D01*
X0018620Y0005290D02*
Y0004710D01*
X0018530Y0005290D02*
Y0004710D01*
X0018440Y0005290D02*
Y0004710D01*
X0018350Y0005290D02*
Y0004710D01*
X0018260Y0005290D02*
Y0004710D01*
X0018170Y0005290D02*
Y0004710D01*
X0018980Y0005290D02*
Y0004710D01*
X0020380Y0005150D02*
X0020045D01*
X0019225Y0004340D02*
X0019025D01*
X0019225Y0004700D02*
X0019025D01*
X0021280D02*
X0020275D01*
X0019225Y0004520D02*
X0019025D01*
X0017990Y0005290D02*
Y0004710D01*
X0017818Y0004548D02*
X0017975Y0004392D01*
X0019430Y0003970D02*
Y0003548D01*
X0019225Y0004250D02*
X0019025D01*
X0019455Y0003970D02*
X0019225D01*
X0022027Y0006020D02*
X0021280D01*
X0018980Y0006710D02*
Y0006030D01*
X0018890Y0006710D02*
Y0006030D01*
X0018198Y0006140D02*
X0016937D01*
X0019160Y0005365D02*
Y0004079D01*
X0019790Y0006710D02*
Y0006030D01*
X0019070Y0005365D02*
Y0004187D01*
Y0006710D02*
Y0005955D01*
X0019160Y0006710D02*
Y0005955D01*
X0017900Y0006140D02*
Y0005955D01*
X0013580Y0004140D02*
Y0003717D01*
X0013090Y0005150D02*
X0012620D01*
X0013090Y0005330D02*
X0012620D01*
X0013090Y0005240D02*
X0012620D01*
X0012880Y0005060D02*
X0012620D01*
X0012880Y0004970D02*
X0012620D01*
X0011720Y0005120D02*
Y0004867D01*
X0012880Y0004880D02*
X0012667D01*
X0010790Y0007728D02*
Y0007154D01*
X0012890Y0006040D02*
X0012860D01*
X0012500Y0005640D02*
Y0005520D01*
X0011613Y0006140D02*
X0011456D01*
X0012050Y0005762D02*
Y0005520D01*
X0011870Y0005883D02*
Y0005520D01*
X0003943Y0005960D02*
X0002150D01*
X0011330Y0007728D02*
Y0006267D01*
X0009690Y0005330D02*
X0009620D01*
X0011780Y0005060D02*
X0011720D01*
X0011780Y0004970D02*
X0011720D01*
X0014570Y0005773D02*
Y0005520D01*
X0014390Y0005593D02*
Y0005520D01*
X0009620Y0002390D02*
Y0001220D01*
X0017975Y0005365D02*
X0017775D01*
X0015475Y0005510D02*
X0014620D01*
X0014640Y0005330D02*
X0014620D01*
X0015200Y0006403D02*
Y0005360D01*
X0014640Y0005060D02*
X0014620D01*
X0015110Y0006313D02*
Y0005360D01*
X0014570Y0004780D02*
Y0004720D01*
X0014390Y0004780D02*
Y0004720D01*
X0014300Y0004780D02*
Y0004720D01*
X0014210Y0004780D02*
Y0004720D01*
X0019610Y0006710D02*
Y0006030D01*
X0014660Y0004140D02*
Y0003535D01*
X0013780Y0004790D02*
X0013720D01*
X0013850Y0004780D02*
Y0004720D01*
X0013090Y0005120D02*
X0012880D01*
X0013720D02*
X0013510D01*
X0012890Y0006040D02*
Y0005640D01*
X0012950D02*
Y0005120D01*
X0013580Y0005390D02*
Y0005120D01*
X0013780Y0005390D02*
X0013510D01*
X0013094Y0005640D02*
X0012890D01*
X0013780Y0005060D02*
X0013720D01*
X0013780Y0004970D02*
X0013720D01*
X0013780Y0004880D02*
X0013720D01*
X0013780Y0004700D02*
X0013720D01*
X0009640Y0003050D02*
Y0002950D01*
Y0003530D02*
X0009620D01*
X0009530Y0003980D02*
Y0003770D01*
X0009440Y0003980D02*
Y0003770D01*
X0009350Y0003980D02*
Y0003770D01*
X0009260Y0003980D02*
Y0003770D01*
X0009640Y0003440D02*
X0009620D01*
X0009640Y0003350D02*
X0009620D01*
X0009640Y0003260D02*
X0009620D01*
X0009640Y0003170D02*
X0009620D01*
X0009170Y0003980D02*
Y0003770D01*
X0009080Y0003980D02*
Y0003770D01*
X0009890Y0004140D02*
Y0004037D01*
X0011870Y0003253D02*
Y0002135D01*
X0013693Y0011090D02*
X0012368D01*
X0009640Y0002900D02*
X0009620D01*
X0010340Y0002390D02*
Y0001407D01*
X0007590Y0002270D02*
X0006027D01*
X0009790Y0001820D02*
X0009620D01*
X0004965Y0003980D02*
X0002361D01*
X0009530Y0003030D02*
Y0002970D01*
X0009440Y0003030D02*
Y0002970D01*
X0009350Y0003030D02*
Y0002970D01*
X0009170Y0003030D02*
Y0002970D01*
X0008960Y0003980D02*
Y0003770D01*
X0008900Y0003030D02*
Y0002970D01*
X0007640Y0010878D02*
Y0004436D01*
X0008780Y0003170D02*
X0008767D01*
X0007590Y0002630D02*
X0005860D01*
X0009260Y0003030D02*
Y0002970D01*
X0007590Y0003530D02*
X0005860D01*
X0007590Y0003890D02*
X0005860D01*
X0009640Y0002810D02*
X0009620D01*
X0004965Y0002720D02*
X0003987D01*
X0004965Y0002270D02*
X0003486D01*
X0009790Y0002360D02*
X0009620D01*
X0009790Y0002000D02*
X0009620D01*
X0010093Y0001060D02*
X0009620D01*
X0010475Y0001820D02*
X0010210D01*
X0009790Y0001910D02*
X0009620D01*
X0009790Y0001460D02*
X0009620D01*
X0009790Y0001730D02*
X0009620D01*
X0004965Y0002450D02*
X0003439D01*
X0009530Y0002230D02*
Y0002020D01*
X0009440Y0002230D02*
Y0002020D01*
X0009350Y0002230D02*
Y0002020D01*
X0009260Y0002230D02*
Y0002020D01*
X0009790Y0002390D02*
Y0001450D01*
X0009080Y0002230D02*
Y0002020D01*
X0008990Y0002230D02*
Y0002020D01*
X0008900Y0002230D02*
Y0002020D01*
X0010250Y0002390D02*
Y0001497D01*
X0008780Y0000830D02*
X0007215D01*
X0002150Y0004243D02*
X0002262Y0004131D01*
X0008630Y0002630D02*
Y0001620D01*
X0008540Y0002630D02*
Y0001620D01*
X0008450Y0002630D02*
Y0001620D01*
X0008360Y0002630D02*
Y0001620D01*
X0008270Y0002630D02*
Y0001620D01*
X0007910Y0012330D02*
Y0012017D01*
X0009111Y0011090D02*
X0008842D01*
X0009096Y0011000D02*
X0008932D01*
X0009147Y0011180D02*
X0008752D01*
X0007980Y0010538D02*
Y0010528D01*
X0008798Y0010370D02*
X0008538D01*
X0007980Y0010528D02*
X0007962D01*
X0007640Y0012330D02*
Y0012070D01*
X0007460Y0012330D02*
Y0012070D01*
X0008197Y0012330D02*
X0007400D01*
X0017775Y0004710D02*
Y0004584D01*
X0022130Y0007723D02*
Y0007417D01*
X0022220Y0007633D02*
Y0007327D01*
X0022040Y0007756D02*
Y0007507D01*
X0021950Y0007754D02*
Y0007597D01*
X0021860Y0007768D02*
Y0007687D01*
X0021770Y0007801D02*
Y0007777D01*
X0010070Y0004140D02*
Y0004049D01*
X0024380Y0008173D02*
Y0007467D01*
X0025066Y0010460D02*
X0024557D01*
X0023280Y0007040D02*
X0022507D01*
X0023280Y0007220D02*
X0022327D01*
X0021900Y0007760D02*
X0021787D01*
X0016500Y0012620D02*
X0015960D01*
X0018677Y0012530D02*
X0015960D01*
X0018637Y0012440D02*
X0015960D01*
X0018550Y0012350D02*
X0015960D01*
X0007880Y0004880D02*
X0005860D01*
X0005681Y0006410D02*
X0005210D01*
X0007880Y0004700D02*
X0005860D01*
X0008090Y0005420D02*
X0005577D01*
X0007813Y0004610D02*
X0005860D01*
X0011390Y0006500D02*
X0011179D01*
X0011240Y0007728D02*
Y0006442D01*
X0011793Y0005960D02*
X0011510D01*
X0011883Y0005870D02*
X0011510D01*
X0005491Y0007310D02*
X0005210D01*
X0012140Y0005690D02*
X0011510D01*
X0013780Y0005330D02*
X0013510D01*
X0026860Y0012110D02*
X0026710D01*
X0026829Y0012228D02*
X0026710D01*
X0029896Y0006300D02*
X0029820D01*
X0030943Y0006640D02*
X0030390D01*
Y0010200D02*
Y0010180D01*
X0032762Y0012710D02*
X0032387D01*
X0032390Y0012935D02*
Y0012703D01*
X0031850Y0014460D02*
Y0012830D01*
X0027700Y0004810D02*
X0027256D01*
X0027700Y0004720D02*
X0027256D01*
X0027700Y0004630D02*
X0027256D01*
X0027700Y0004540D02*
X0027256D01*
X0027700Y0004450D02*
X0027256D01*
X0027700Y0004360D02*
X0027256D01*
X0027700Y0004270D02*
X0027256D01*
X0027700Y0004180D02*
X0027256D01*
X0027700Y0004000D02*
X0027256D01*
X0027700Y0003910D02*
X0027256D01*
X0027700Y0003820D02*
X0027256D01*
X0027700Y0003730D02*
X0027256D01*
X0028350Y0003640D02*
X0027256D01*
X0028350Y0003550D02*
X0027256D01*
X0028350Y0003460D02*
X0027256D01*
X0028350Y0003370D02*
X0027256D01*
X0028350Y0003190D02*
X0027256D01*
X0028350Y0003100D02*
X0026579D01*
X0028350Y0003010D02*
X0026579D01*
X0028350Y0002920D02*
X0026579D01*
X0028350Y0002830D02*
X0026579D01*
X0027256Y0004850D02*
Y0004030D01*
Y0003143D02*
X0026579D01*
X0027289Y0002470D02*
X0026579D01*
X0027183Y0002380D02*
X0026579D01*
X0027115Y0002290D02*
X0026579D01*
X0027071Y0002200D02*
X0026579D01*
X0028350Y0002740D02*
X0026579D01*
X0027035Y0002020D02*
X0026579D01*
X0027039Y0001930D02*
X0026579D01*
X0028300Y0003700D02*
Y0001600D01*
X0027058Y0001840D02*
X0026579D01*
X0027149Y0001660D02*
X0026585D01*
X0027760Y0003700D02*
Y0002537D01*
X0027202Y0001600D02*
X0026612D01*
X0027553Y0002560D02*
X0026579D01*
X0027256Y0004030D02*
Y0003981D01*
X0027130Y0001687D02*
Y0001600D01*
X0028350Y0003700D02*
Y0001600D01*
Y0003700D02*
X0027700D01*
Y0004850D02*
Y0003700D01*
X0027256Y0003981D02*
Y0003143D01*
X0027093Y0001750D02*
X0026579D01*
X0026860Y0003143D02*
Y0001600D01*
X0026680Y0003143D02*
Y0001600D01*
X0027040Y0001923D02*
Y0001600D01*
X0028120Y0001797D02*
Y0001600D01*
X0028030Y0001643D02*
Y0001600D01*
X0026579Y0003143D02*
Y0001671D01*
X0028350Y0002470D02*
X0027904D01*
X0028350Y0002020D02*
X0028157D01*
X0026864Y0003143D02*
Y0003587D01*
X0026770Y0003143D02*
Y0001600D01*
X0028210Y0003700D02*
Y0001600D01*
X0026590Y0003143D02*
Y0001651D01*
X0027220Y0003143D02*
Y0002417D01*
X0027130Y0003143D02*
Y0002313D01*
X0027040Y0003143D02*
Y0002077D01*
X0028350Y0001600D02*
X0027990D01*
X0028350Y0002560D02*
X0027639D01*
X0028120Y0003700D02*
Y0002203D01*
X0028030Y0003700D02*
Y0002357D01*
X0027940Y0003700D02*
Y0002444D01*
X0027850Y0003700D02*
Y0002501D01*
X0027670Y0004850D02*
Y0002557D01*
X0026950Y0003143D02*
Y0001600D01*
X0027490Y0004850D02*
Y0002551D01*
X0027580Y0004850D02*
Y0002561D01*
X0027310Y0004850D02*
Y0002483D01*
X0028350Y0002380D02*
X0028010D01*
X0028350Y0002290D02*
X0028077D01*
X0028350Y0002200D02*
X0028121D01*
X0028350Y0002110D02*
X0028147D01*
X0028350Y0002650D02*
X0026579D01*
X0028350Y0001930D02*
X0028153D01*
X0028350Y0001840D02*
X0028135D01*
X0028350Y0001750D02*
X0028099D01*
X0028350Y0001660D02*
X0028043D01*
X0027400Y0004850D02*
Y0002526D01*
X0027700Y0004850D02*
X0027256D01*
X0027045Y0002110D02*
X0026579D01*
X0028350Y0003280D02*
X0027256D01*
Y0004425D02*
X0026864D01*
X0027256Y0003587D02*
X0026864D01*
X0027700Y0004090D02*
X0027256D01*
X0024770Y0003123D02*
Y0002545D01*
X0024680Y0003123D02*
Y0002515D01*
X0024590Y0003123D02*
Y0002466D01*
X0024464Y0001650D02*
X0024050D01*
X0024153Y0004080D02*
X0024050D01*
X0024140Y0004850D02*
Y0001650D01*
X0024230Y0003123D02*
Y0001650D01*
X0024153Y0004800D02*
X0024050D01*
X0024153Y0004710D02*
X0024050D01*
X0024153Y0004620D02*
X0024050D01*
X0024153Y0004530D02*
X0024050D01*
X0024153Y0004440D02*
X0024050D01*
X0024153Y0004350D02*
X0024050D01*
X0024153Y0004260D02*
X0024050D01*
X0024153Y0004170D02*
X0024050D01*
X0024153Y0003990D02*
X0024050D01*
X0024153Y0003900D02*
X0024050D01*
X0024153Y0003810D02*
X0024050D01*
X0024153Y0003720D02*
X0024050D01*
X0024153Y0003630D02*
X0024050D01*
X0024153Y0003540D02*
X0024050D01*
X0024153Y0003450D02*
X0024050D01*
X0024153Y0003180D02*
X0024050D01*
X0026321Y0003090D02*
X0024050D01*
X0026321Y0003000D02*
X0024050D01*
X0026321Y0002910D02*
X0024050D01*
X0026321Y0002820D02*
X0024050D01*
X0026321Y0002640D02*
X0024050D01*
X0024350Y0002100D02*
X0024050D01*
X0024342Y0002010D02*
X0024050D01*
X0025238Y0003123D02*
Y0004000D01*
X0024416Y0002280D02*
X0024050D01*
X0026321Y0003123D02*
X0024153D01*
X0024050Y0004850D02*
Y0001700D01*
X0024368Y0001830D02*
X0024050D01*
X0024500Y0003123D02*
Y0002391D01*
X0024050Y0001700D02*
Y0001650D01*
X0024153Y0003360D02*
X0024050D01*
X0024153Y0004850D02*
X0024050D01*
X0025909Y0001650D02*
X0025342D01*
X0026300Y0001861D02*
Y0001853D01*
X0026210Y0003123D02*
Y0001854D01*
X0026120Y0003123D02*
Y0001834D01*
X0026030Y0003123D02*
Y0001787D01*
X0025310Y0003123D02*
Y0002387D01*
X0025220Y0003123D02*
Y0002464D01*
X0025130Y0003123D02*
Y0002514D01*
X0025040Y0003123D02*
Y0002545D01*
X0024950Y0003123D02*
Y0002560D01*
X0024860Y0003123D02*
Y0002560D01*
X0025850Y0003123D02*
Y0001650D01*
X0025760Y0003123D02*
Y0001650D01*
X0025670Y0003123D02*
Y0001650D01*
X0025580Y0003123D02*
Y0001650D01*
X0025490Y0003123D02*
Y0001650D01*
X0024410Y0001731D02*
Y0001650D01*
X0024789Y0002550D02*
X0024050D01*
X0024581Y0002460D02*
X0024050D01*
X0024481Y0002370D02*
X0024050D01*
X0024153Y0004850D02*
Y0003123D01*
X0024375Y0002190D02*
X0024050D01*
X0024320Y0003123D02*
Y0001650D01*
X0025940Y0003123D02*
Y0001699D01*
X0024153Y0003270D02*
X0024050D01*
X0026321Y0002280D02*
X0025390D01*
X0024153Y0004000D02*
X0025238D01*
X0024347Y0001920D02*
X0024050D01*
X0025400Y0003123D02*
Y0002262D01*
X0026321Y0002730D02*
X0024050D01*
X0024410Y0003123D02*
Y0002268D01*
X0026321Y0002550D02*
X0025017D01*
X0026321Y0002460D02*
X0025225D01*
X0026321Y0002370D02*
X0025326D01*
X0026319Y0002190D02*
X0025432D01*
X0026289Y0002100D02*
X0025456D01*
X0026279Y0002010D02*
X0025465D01*
X0026285Y0001920D02*
X0025459D01*
X0026109Y0001830D02*
X0025438D01*
X0026321Y0003123D02*
Y0002194D01*
X0026300Y0003123D02*
Y0002139D01*
X0025974Y0001740D02*
X0025401D01*
X0024405D02*
X0024050D01*
X0025400Y0001738D02*
Y0001650D01*
X0038150Y0005300D02*
X0035000D01*
X0038150Y0006470D02*
X0035900D01*
X0030020Y0002550D02*
Y0000350D01*
X0035600Y0002870D02*
X0033570D01*
X0035600Y0002960D02*
X0033660D01*
X0032540Y0002550D02*
Y0000350D01*
X0030470Y0002550D02*
Y0000350D01*
X0030920Y0002550D02*
Y0000350D01*
X0030740Y0002550D02*
Y0000350D01*
X0029660Y0002550D02*
Y0000350D01*
X0030830Y0002550D02*
Y0000350D01*
X0030380Y0002550D02*
Y0000350D01*
X0032180Y0002550D02*
Y0000350D01*
X0033440Y0002740D02*
Y0000350D01*
X0033530Y0002830D02*
Y0000350D01*
X0033170Y0002550D02*
Y0000350D01*
X0033980Y0004280D02*
Y0000350D01*
X0038150Y0005570D02*
X0035270D01*
X0034070Y0004370D02*
Y0000350D01*
X0038150Y0007730D02*
X0035900D01*
X0033350Y0002650D02*
Y0000350D01*
X0038150Y0004940D02*
X0034640D01*
X0038150Y0008360D02*
X0035900D01*
X0038150Y0009080D02*
X0035900D01*
X0035600Y0000350D02*
X0028850D01*
X0035600Y0003150D02*
Y0000350D01*
X0036250Y0003800D02*
X0035600Y0003150D01*
X0038150Y0003800D02*
X0036250D01*
X0038150Y0009650D02*
Y0003800D01*
Y0009650D02*
X0035900D01*
Y0006200D01*
X0033950Y0004250D01*
Y0003250D01*
X0033250Y0002550D01*
X0028850D01*
Y0000350D01*
X0035600Y0000620D02*
X0028850D01*
X0038120Y0009650D02*
Y0003800D01*
X0038030Y0009650D02*
Y0003800D01*
X0037940Y0009650D02*
Y0003800D01*
X0037850Y0009650D02*
Y0003800D01*
X0037760Y0009650D02*
Y0003800D01*
X0037670Y0009650D02*
Y0003800D01*
X0037580Y0009650D02*
Y0003800D01*
X0037490Y0009650D02*
Y0003800D01*
X0037400Y0009650D02*
Y0003800D01*
X0037310Y0009650D02*
Y0003800D01*
X0037220Y0009650D02*
Y0003800D01*
X0037130Y0009650D02*
Y0003800D01*
X0037040Y0009650D02*
Y0003800D01*
X0036950Y0009650D02*
Y0003800D01*
X0036860Y0009650D02*
Y0003800D01*
X0036770Y0009650D02*
Y0003800D01*
X0036680Y0009650D02*
Y0003800D01*
X0036590Y0009650D02*
Y0003800D01*
X0036500Y0009650D02*
Y0003800D01*
X0036410Y0009650D02*
Y0003800D01*
X0036320Y0009650D02*
Y0003800D01*
X0036230Y0009650D02*
Y0003780D01*
X0036140Y0009650D02*
Y0003690D01*
X0036050Y0009650D02*
Y0003600D01*
X0035870Y0006170D02*
Y0003420D01*
X0035510Y0005810D02*
Y0000350D01*
X0038150Y0006020D02*
X0035720D01*
X0035420Y0005720D02*
Y0000350D01*
X0035330Y0005630D02*
Y0000350D01*
X0035240Y0005540D02*
Y0000350D01*
X0035150Y0005450D02*
Y0000350D01*
X0035060Y0005360D02*
Y0000350D01*
X0034880Y0005180D02*
Y0000350D01*
X0034790Y0005090D02*
Y0000350D01*
X0034700Y0005000D02*
Y0000350D01*
X0038150Y0006830D02*
X0035900D01*
X0034520Y0004820D02*
Y0000350D01*
X0035780Y0006080D02*
Y0003330D01*
X0033080Y0002550D02*
Y0000350D01*
X0029570Y0002550D02*
Y0000350D01*
X0032720Y0002550D02*
Y0000350D01*
X0035600Y0002780D02*
X0033480D01*
X0032360Y0002550D02*
Y0000350D01*
X0031730Y0002550D02*
Y0000350D01*
X0030650Y0002550D02*
Y0000350D01*
X0030560Y0002550D02*
Y0000350D01*
X0029210Y0002550D02*
Y0000350D01*
X0038150Y0005120D02*
X0034820D01*
X0038150Y0005930D02*
X0035630D01*
X0031460Y0002550D02*
Y0000350D01*
X0029030Y0002550D02*
Y0000350D01*
X0036130Y0003680D02*
X0033950D01*
X0035860Y0003410D02*
X0033950D01*
X0029840Y0002550D02*
Y0000350D01*
X0038150Y0003860D02*
X0033950D01*
X0035600Y0002690D02*
X0033390D01*
X0035600Y0002600D02*
X0033300D01*
X0035600Y0002510D02*
X0028850D01*
X0035600Y0002420D02*
X0028850D01*
X0035600Y0002330D02*
X0028850D01*
X0035600Y0002240D02*
X0028850D01*
X0035600Y0002150D02*
X0028850D01*
X0035600Y0002060D02*
X0028850D01*
X0035600Y0001970D02*
X0028850D01*
X0035600Y0001880D02*
X0028850D01*
X0035600Y0001790D02*
X0028850D01*
X0035600Y0001700D02*
X0028850D01*
X0035600Y0001610D02*
X0028850D01*
X0035600Y0001520D02*
X0028850D01*
X0035600Y0001430D02*
X0028850D01*
X0035600Y0001340D02*
X0028850D01*
X0035600Y0001250D02*
X0028850D01*
X0035600Y0001160D02*
X0028850D01*
X0035600Y0001070D02*
X0028850D01*
X0035600Y0000980D02*
X0028850D01*
X0035600Y0000890D02*
X0028850D01*
X0035600Y0000800D02*
X0028850D01*
X0035600Y0000710D02*
X0028850D01*
X0035600Y0000530D02*
X0028850D01*
X0035770Y0003320D02*
X0033950D01*
X0038150Y0006740D02*
X0035900D01*
X0038150Y0004850D02*
X0034550D01*
X0038150Y0006560D02*
X0035900D01*
X0038150Y0009260D02*
X0035900D01*
X0038150Y0009530D02*
X0035900D01*
X0038150Y0006650D02*
X0035900D01*
X0028940Y0002550D02*
Y0000350D01*
X0035600Y0003050D02*
X0033750D01*
X0038150Y0004310D02*
X0034010D01*
X0038150Y0003950D02*
X0033950D01*
X0034340Y0004640D02*
Y0000350D01*
X0035960Y0009650D02*
Y0003510D01*
X0036220Y0003770D02*
X0033950D01*
X0034160Y0004460D02*
Y0000350D01*
X0035600Y0003140D02*
X0033840D01*
X0034250Y0004550D02*
Y0000350D01*
X0030200Y0002550D02*
Y0000350D01*
X0035600Y0000440D02*
X0028850D01*
X0038150Y0008450D02*
X0035900D01*
X0038150Y0008900D02*
X0035900D01*
X0038150Y0008000D02*
X0035900D01*
X0035690Y0005990D02*
Y0003240D01*
X0038150Y0008990D02*
X0035900D01*
X0038150Y0009620D02*
X0035900D01*
X0029300Y0002550D02*
Y0000350D01*
X0038150Y0008270D02*
X0035900D01*
X0038150Y0005840D02*
X0035540D01*
X0038150Y0004670D02*
X0034370D01*
X0036040Y0003590D02*
X0033950D01*
X0038150Y0005750D02*
X0035450D01*
X0034970Y0005270D02*
Y0000350D01*
X0038150Y0005660D02*
X0035360D01*
X0038150Y0009440D02*
X0035900D01*
X0038150Y0006920D02*
X0035900D01*
X0038150Y0007190D02*
X0035900D01*
X0038150Y0007640D02*
X0035900D01*
X0038150Y0008810D02*
X0035900D01*
X0038150Y0008720D02*
X0035900D01*
X0038150Y0008630D02*
X0035900D01*
X0038150Y0009170D02*
X0035900D01*
X0038150Y0004400D02*
X0034100D01*
X0038150Y0004220D02*
X0033950D01*
X0032270Y0002550D02*
Y0000350D01*
X0032090Y0002550D02*
Y0000350D01*
X0038150Y0004040D02*
X0033950D01*
X0031640Y0002550D02*
Y0000350D01*
X0038150Y0004580D02*
X0034280D01*
X0032450Y0002550D02*
Y0000350D01*
X0031550Y0002550D02*
Y0000350D01*
X0038150Y0004130D02*
X0033950D01*
X0033260Y0002560D02*
Y0000350D01*
X0032000Y0002550D02*
Y0000350D01*
X0029930Y0002550D02*
Y0000350D01*
X0031010Y0002550D02*
Y0000350D01*
X0029750Y0002550D02*
Y0000350D01*
X0030110Y0002550D02*
Y0000350D01*
X0029480Y0002550D02*
Y0000350D01*
X0035680Y0003230D02*
X0033930D01*
X0035950Y0003500D02*
X0033950D01*
X0029390Y0002550D02*
Y0000350D01*
X0029120Y0002550D02*
Y0000350D01*
X0031190Y0002550D02*
Y0000350D01*
X0030290Y0002550D02*
Y0000350D01*
X0031910Y0002550D02*
Y0000350D01*
X0032810Y0002550D02*
Y0000350D01*
X0038150Y0005030D02*
X0034730D01*
X0033710Y0003010D02*
Y0000350D01*
X0033620Y0002920D02*
Y0000350D01*
X0038150Y0004490D02*
X0034190D01*
X0031280Y0002550D02*
Y0000350D01*
X0033890Y0003190D02*
Y0000350D01*
X0033800Y0003100D02*
Y0000350D01*
X0034610Y0004910D02*
Y0000350D01*
X0038150Y0009350D02*
X0035900D01*
X0038150Y0005480D02*
X0035180D01*
X0038150Y0006200D02*
X0035900D01*
X0034430Y0004730D02*
Y0000350D01*
X0038150Y0006380D02*
X0035900D01*
X0038150Y0005390D02*
X0035090D01*
X0038150Y0006110D02*
X0035810D01*
X0038150Y0005210D02*
X0034910D01*
X0032900Y0002550D02*
Y0000350D01*
X0031370Y0002550D02*
Y0000350D01*
X0032630Y0002550D02*
Y0000350D01*
X0032990Y0002550D02*
Y0000350D01*
X0031100Y0002550D02*
Y0000350D01*
X0031820Y0002550D02*
Y0000350D01*
X0038150Y0004760D02*
X0034460D01*
X0038150Y0007910D02*
X0035900D01*
X0038150Y0008090D02*
X0035900D01*
X0038150Y0008180D02*
X0035900D01*
X0038150Y0007100D02*
X0035900D01*
X0038150Y0008540D02*
X0035900D01*
X0038150Y0007550D02*
X0035900D01*
X0038150Y0007820D02*
X0035900D01*
X0038150Y0007460D02*
X0035900D01*
X0035600Y0005900D02*
Y0003150D01*
X0038150Y0006290D02*
X0035900D01*
X0038150Y0007370D02*
X0035900D01*
X0038150Y0007280D02*
X0035900D01*
X0038150Y0007010D02*
X0035900D01*
X0034170Y0009650D02*
Y0004820D01*
X0029400Y0004871D02*
Y0002800D01*
X0034800Y0009650D02*
Y0005450D01*
X0035340Y0009650D02*
Y0005990D01*
X0035600Y0006760D02*
X0033149D01*
X0032010Y0005621D02*
Y0002800D01*
X0032460Y0006071D02*
Y0002800D01*
X0032100Y0005711D02*
Y0002800D01*
X0035600Y0009640D02*
X0033379D01*
X0035600Y0008830D02*
X0033379D01*
X0033100Y0002800D02*
X0030050D01*
X0033650Y0003350D02*
X0033100Y0002800D01*
X0033650Y0004300D02*
Y0003350D01*
X0035600Y0006250D02*
X0033650Y0004300D01*
X0035600Y0009650D02*
Y0006250D01*
X0030480Y0004871D02*
Y0002800D01*
X0035600Y0006850D02*
X0033235D01*
X0035570Y0006220D02*
X0032609D01*
X0030050Y0002800D02*
X0028950D01*
X0033680Y0004330D02*
X0028950D01*
X0033650Y0003430D02*
X0028950D01*
X0033650Y0004150D02*
X0028950D01*
X0033180Y0006791D02*
Y0002880D01*
X0033550Y0003250D02*
X0028950D01*
X0033280Y0002980D02*
X0028950D01*
X0033720Y0009650D02*
Y0004370D01*
X0033630Y0009650D02*
Y0003330D01*
X0034580Y0005230D02*
X0031619D01*
X0035600Y0008740D02*
X0033379D01*
X0035600Y0008470D02*
X0033379D01*
X0035600Y0009280D02*
X0033379D01*
X0035600Y0008380D02*
X0033379D01*
X0035600Y0008290D02*
X0033379D01*
X0035600Y0008200D02*
X0033379D01*
X0032910Y0006521D02*
Y0002800D01*
X0029850Y0004871D02*
Y0002800D01*
X0034980Y0009650D02*
Y0005630D01*
X0033650Y0004240D02*
X0028950D01*
X0032550Y0006161D02*
Y0002800D01*
X0035600Y0009100D02*
X0033379D01*
X0032370Y0005981D02*
Y0002800D01*
X0031470Y0005081D02*
Y0002800D01*
X0030660Y0004871D02*
Y0002800D01*
X0030390Y0004871D02*
Y0002800D01*
X0035600Y0008560D02*
X0033379D01*
X0035600Y0009550D02*
X0033379D01*
X0035600Y0007390D02*
X0033379D01*
X0030210Y0004871D02*
Y0002800D01*
X0030570Y0004871D02*
Y0002800D01*
X0029220Y0004871D02*
Y0002800D01*
X0033000Y0006611D02*
Y0002800D01*
X0033191Y0006802D02*
X0031448Y0005059D01*
X0035600Y0009010D02*
X0033379D01*
X0035520Y0009650D02*
Y0006170D01*
X0030840Y0004871D02*
Y0002800D01*
X0034260Y0009650D02*
Y0004910D01*
X0031020Y0004871D02*
Y0002800D01*
X0029490Y0004871D02*
Y0002800D01*
X0033450Y0009650D02*
Y0003150D01*
X0035480Y0006130D02*
X0032519D01*
X0035390Y0006040D02*
X0032429D01*
X0035300Y0005950D02*
X0032339D01*
X0035210Y0005860D02*
X0032249D01*
X0035120Y0005770D02*
X0032159D01*
X0028950Y0004871D02*
Y0002800D01*
X0034940Y0005590D02*
X0031979D01*
X0032730Y0006341D02*
Y0002800D01*
X0033770Y0004420D02*
X0028950D01*
X0034080Y0009650D02*
Y0004730D01*
X0033650Y0003790D02*
X0028950D01*
X0035160Y0009650D02*
Y0005810D01*
X0033860Y0004510D02*
X0028950D01*
X0033270Y0006897D02*
Y0002970D01*
X0035600Y0007930D02*
X0033379D01*
X0032280Y0005891D02*
Y0002800D01*
X0033650Y0003610D02*
X0028950D01*
X0033650Y0003520D02*
X0028950D01*
X0034400Y0005050D02*
X0031439D01*
X0034490Y0005140D02*
X0031529D01*
X0035600Y0008920D02*
X0033379D01*
X0035070Y0009650D02*
Y0005720D01*
X0033900Y0009650D02*
Y0004550D01*
X0035600Y0009370D02*
X0033379D01*
X0035600Y0008110D02*
X0033379D01*
X0035600Y0007030D02*
X0033339D01*
X0033370Y0003070D02*
X0028950D01*
X0034530Y0009650D02*
Y0005180D01*
X0035600Y0009460D02*
X0033379D01*
X0033540Y0009650D02*
Y0003240D01*
X0035600Y0007840D02*
X0033379D01*
X0031740Y0005351D02*
Y0002800D01*
X0031650Y0005261D02*
Y0002800D01*
X0035600Y0006490D02*
X0032879D01*
X0030030Y0004871D02*
Y0002800D01*
X0035600Y0007480D02*
X0033379D01*
X0035600Y0006310D02*
X0032699D01*
X0029130Y0004871D02*
Y0002800D01*
X0034890Y0009650D02*
Y0005540D01*
X0030930Y0004871D02*
Y0002800D01*
X0035600Y0006400D02*
X0032789D01*
X0035030Y0005680D02*
X0032069D01*
X0035600Y0006670D02*
X0033059D01*
X0035600Y0007120D02*
X0033365D01*
X0033360Y0007098D02*
Y0003060D01*
X0033640Y0003340D02*
X0028950D01*
X0033810Y0009650D02*
Y0004460D01*
X0035600Y0007210D02*
X0033377D01*
X0033650Y0003700D02*
X0028950D01*
X0034350Y0009650D02*
Y0005000D01*
X0033460Y0003160D02*
X0028950D01*
X0034710Y0009650D02*
Y0005360D01*
X0035430Y0009650D02*
Y0006080D01*
X0031380Y0004999D02*
Y0002800D01*
X0035600Y0006940D02*
X0033297D01*
X0035600Y0009190D02*
X0033379D01*
X0031920Y0005531D02*
Y0002800D01*
X0033950Y0004600D02*
X0028950D01*
X0033650Y0003880D02*
X0028950D01*
X0034220Y0004870D02*
X0028950D01*
X0034310Y0004960D02*
X0031322D01*
X0033990Y0009650D02*
Y0004640D01*
X0035600Y0008650D02*
X0033379D01*
X0029040Y0004871D02*
Y0002800D01*
X0033650Y0004060D02*
X0028950D01*
X0034130Y0004780D02*
X0028950D01*
X0033650Y0003970D02*
X0028950D01*
X0034040Y0004690D02*
X0028950D01*
X0031560Y0005171D02*
Y0002800D01*
X0032820Y0006431D02*
Y0002800D01*
X0035600Y0007300D02*
X0033379D01*
X0034620Y0009650D02*
Y0005270D01*
X0034850Y0005500D02*
X0031889D01*
X0033379Y0009650D02*
Y0007250D01*
X0029760Y0004871D02*
Y0002800D01*
X0035600Y0006580D02*
X0032969D01*
X0031200Y0004904D02*
Y0002800D01*
X0031830Y0005441D02*
Y0002800D01*
X0032190Y0005801D02*
Y0002800D01*
X0030300Y0004871D02*
Y0002800D01*
X0030750Y0004871D02*
Y0002800D01*
X0034760Y0005410D02*
X0031799D01*
X0033190Y0002890D02*
X0028950D01*
X0029310Y0004871D02*
Y0002800D01*
X0035600Y0007570D02*
X0033379D01*
X0034670Y0005320D02*
X0031709D01*
X0031110Y0004881D02*
Y0002800D01*
X0034440Y0009650D02*
Y0005090D01*
X0035600Y0008020D02*
X0033379D01*
X0035250Y0009650D02*
Y0005900D01*
X0029940Y0004871D02*
Y0002800D01*
X0029670Y0004871D02*
Y0002800D01*
X0035600Y0007750D02*
X0033379D01*
X0029580Y0004871D02*
Y0002800D01*
X0033090Y0006701D02*
Y0002800D01*
X0035600Y0009650D02*
X0033379D01*
X0032640Y0006251D02*
Y0002800D01*
X0035600Y0007660D02*
X0033379D01*
X0031000Y0004871D02*
X0028950D01*
X0030120D02*
Y0002800D01*
X0031290Y0004942D02*
Y0002800D01*
G01X0021733Y0003501D02*
G03X0021800Y0003692I0000241J0000191D01*
G01X0003516Y0001968D02*
G03X0002388Y0003458I0001548J0000000D01*
G01X0030200Y0006558D02*
G03X0029896Y0006300I0000000J0000308D01*
G01X0022351Y0007501D02*
G03X0022500Y0007439I0000149J0000149D01*
G01X0019488Y0012295D02*
G03X0019274Y0012500I0000488J0000295D01*
G01X0009692Y0003750D02*
G03X0009705Y0003662I0000308J0000000D01*
G01X0024487Y0011495D02*
G03X0024400Y0011508I0000087J0000295D01*
G01X0029700Y0008460D02*
G03X0029610Y0008440I0000000J0000210D01*
G01X0003383Y0003000D02*
G03X0003750Y0002633I0000367J0000000D01*
G03X0004117Y0003000I0000000J0000367D01*
G03X0003750Y0003367I0000367J0000000D01*
G03X0003383Y0003000I0000000J0000367D01*
G01X0008750Y0012723D02*
G03X0008591Y0012700I0000000J0000564D01*
G01X0010841Y0013393D02*
G03X0010632Y0013000I0000265J0000393D01*
G01X0017491Y0008468D02*
G03X0017243Y0008750I0000523J0000210D01*
G01X0022990Y0002240D02*
G03X0022751Y0002500I0000514J0000232D01*
G01X0021000Y0002717D02*
G03X0021217Y0002500I0000492J0000275D01*
G01X0021984Y0002717D02*
G03X0022201Y0002500I0000492J0000275D01*
G01X0015424Y0001448D02*
G03X0015492Y0001444I0000068J0000560D01*
G01X0014015Y0002283D02*
G03X0013798Y0002500I0000491J0000275D01*
G03X0014016Y0002717I0000274J0000492D01*
G01X0013524Y0001444D02*
G03X0013665Y0001462I0000000J0000564D01*
G01X0012250Y0011900D02*
G03X0012368Y0012213I0000357J0000313D01*
G01X0009791Y0008058D02*
G03X0009705Y0007850I0000209J0000208D01*
G01X0009337Y0010595D02*
G03X0009522Y0010553I0000185J0000383D01*
G01X0002779Y0000650D02*
G03X0003516Y0001968I0000811J0001318D01*
G01X0010841Y0012606D02*
G03X0010632Y0012213I0000265J0000393D01*
G01X0011628Y0013393D02*
G03X0011500Y0013265I0000265J0000393D01*
G01X0008209Y0012318D02*
G03X0008186Y0012159I0000541J0000159D01*
G01X0010841Y0011819D02*
G03X0010631Y0011425I0000265J0000394D01*
G01X0016968Y0002282D02*
G03X0016751Y0002500I0000492J0000274D01*
G01X0012368Y0012213D02*
G03X0012158Y0012606I0000475J0000000D01*
G01X0015984Y0009806D02*
G03X0015492Y0009517I0000000J0000564D01*
G01X0015984Y0002717D02*
G03X0016201Y0002500I0000492J0000275D01*
G01X0004851Y0008498D02*
G03X0004790Y0008350I0000149J0000148D01*
G01X0022751Y0002500D02*
G03X0022990Y0002760I0000275J0000492D01*
G01X0021984Y0002282D02*
G03X0021767Y0002500I0000492J0000274D01*
G01X0012200Y0003442D02*
G03X0011976Y0002992I0000339J0000450D01*
G01X0010192Y0004000D02*
G03X0010192Y0003990I0000308J0000000D01*
G01X0011305Y0006292D02*
G03X0011000Y0006558I0000305J0000042D01*
G01X0028649Y0010780D02*
G03X0028657Y0010850I0000299J0000070D01*
G01X0028658D02*
G03X0028655Y0010890I0000308J0000000D01*
G01X0013031Y0009806D02*
G03X0013002Y0009805I0000000J0000564D01*
G01X0010795Y0007100D02*
G03X0010708Y0007308I0000295J0000000D01*
G01X0024377Y0009263D02*
G03X0024438Y0009115I0000210J0000000D01*
G01X0021010Y0006125D02*
G03X0021108Y0006350I0000210J0000225D01*
G01X0002765Y0009500D02*
G03X0003250Y0009015I0000485J0000000D01*
G03X0003735Y0009500I0000000J0000485D01*
G03X0003586Y0009850I0000485J0000000D01*
G01X0003765Y0009500D02*
G03X0004250Y0009015I0000485J0000000D01*
G03X0004735Y0009500I0000000J0000485D01*
G01X0002914Y0009850D02*
G03X0002765Y0009500I0000336J0000350D01*
G01X0004735D02*
G03X0004586Y0009850I0000485J0000000D01*
G01X0004765Y0009500D02*
G03X0005250Y0009015I0000485J0000000D01*
G01X0003914Y0009850D02*
G03X0003765Y0009500I0000336J0000350D01*
G01X0005431Y0007000D02*
G03X0006250Y0006181I0000819J0000000D01*
G03X0007069Y0007000I0000000J0000819D01*
G03X0006250Y0007819I0000819J0000000D01*
G03X0005431Y0007000I0000000J0000819D01*
G01X0017160Y0013569D02*
G03X0016596Y0014133I0000564J0000000D01*
Y0012612D02*
G03X0017159Y0013175I0000000J0000563D01*
G01X0013340D02*
G03X0013903Y0012612I0000563J0000000D01*
G01X0016247Y0014242D02*
G03X0015742Y0014747I0000505J0000000D01*
G01X0016596Y0014132D02*
G03X0016041Y0013664I0000000J0000563D01*
G01X0014508Y0008967D02*
G03X0014725Y0008750I0000492J0000275D01*
G01X0015393Y0009646D02*
G03X0015398Y0009651I0000143J0000154D01*
G01X0013523Y0008967D02*
G03X0013741Y0008750I0000493J0000275D01*
G03X0013536Y0008554I0000275J0000492D01*
G01X0015709Y0008750D02*
G03X0015492Y0008532I0000275J0000492D01*
G01X0014290Y0008750D02*
G03X0014508Y0008967I0000274J0000492D01*
G01X0015492Y0008532D02*
G03X0015275Y0008750I0000492J0000274D01*
G01X0015492Y0008967D02*
G03X0015709Y0008750I0000492J0000275D01*
G01X0016693D02*
G03X0016476Y0008533I0000275J0000492D01*
Y0008967D02*
G03X0016693Y0008750I0000492J0000275D01*
G01X0017532Y0009242D02*
G03X0016968Y0009806I0000564J0000000D01*
G01X0016476Y0008533D02*
G03X0016259Y0008750I0000492J0000275D01*
G01X0014508Y0003556D02*
G03X0014016Y0003267I0000000J0000564D01*
G01X0015492Y0001444D02*
G03X0015984Y0001733I0000000J0000564D01*
Y0002282D02*
G03X0015767Y0002500I0000492J0000274D01*
G01X0017822Y0002440D02*
G03X0017735Y0002500I0000361J0000432D01*
G01X0015217D02*
G03X0015000Y0002282I0000275J0000492D01*
G01X0016201Y0002500D02*
G03X0015984Y0002282I0000275J0000492D01*
G01X0012429Y0003545D02*
G03X0012507Y0003750I0000229J0000205D01*
G01X0014233Y0002500D02*
G03X0014016Y0002283I0000275J0000492D01*
G01X0013103Y0001632D02*
G03X0013524Y0001444I0000421J0000376D01*
G01X0013730Y0003516D02*
G03X0013672Y0003625I0000206J0000040D01*
G01X0011976Y0002992D02*
G03X0012164Y0002571I0000563J0000000D01*
G01X0013031Y0003267D02*
G03X0012539Y0003556I0000492J0000275D01*
G01X0015984Y0001733D02*
G03X0016476Y0001444I0000492J0000275D01*
G03X0016607Y0001459I0000000J0000564D01*
G01X0015000Y0003267D02*
G03X0014508Y0003556I0000492J0000275D01*
G01X0015067Y0001060D02*
G03X0015424Y0001448I0000067J0000420D01*
G01X0016968Y0002717D02*
G03X0017186Y0002500I0000493J0000275D01*
G01X0008186Y0012159D02*
G03X0008750Y0011595I0000564J0000000D01*
Y0011596D02*
G03X0009313Y0012159I0000000J0000563D01*
G01X0009314D02*
G03X0008750Y0012723I0000564J0000000D01*
G01X0009522Y0010553D02*
G03X0009947Y0010978I0000000J0000425D01*
G03X0009522Y0011403I0000425J0000000D01*
Y0011404D02*
G03X0009096Y0010978I0000000J0000426D01*
G01X0011500Y0012734D02*
G03X0011628Y0012606I0000393J0000266D01*
G01X0012159Y0013393D02*
G03X0012360Y0013700I0000266J0000394D01*
G01X0010632Y0013000D02*
G03X0010841Y0012606I0000474J0000000D01*
G01X0011371D02*
G03X0011500Y0012734I0000265J0000394D01*
Y0013265D02*
G03X0011372Y0013393I0000394J0000265D01*
G01X0011500Y0012478D02*
G03X0011371Y0012606I0000394J0000265D01*
G01X0011372Y0013393D02*
G03X0011497Y0013517I0000266J0000394D01*
G01X0012368Y0013000D02*
G03X0012159Y0013393I0000475J0000000D01*
G01X0010632Y0011425D02*
G03X0011106Y0010951I0000474J0000000D01*
G03X0011419Y0011068I0000000J0000474D01*
G01X0011628Y0012606D02*
G03X0011500Y0012478I0000265J0000393D01*
G01X0032080Y0013500D02*
G03X0032750Y0012830I0000670J0000000D01*
G01X0033420Y0013500D02*
G03X0032750Y0014170I0000670J0000000D01*
G03X0032080Y0013500I0000000J0000670D01*
G01X0032750Y0012830D02*
G03X0032899Y0012847I0000000J0000670D01*
G01X0032100Y0012908D02*
G03X0031896Y0012830I0000000J0000308D01*
G01X0003923Y0001250D02*
G03X0004388Y0000785I0000465J0000000D01*
G03X0004781Y0001003I0000000J0000465D01*
G01X0004388Y0001715D02*
G03X0003923Y0001250I0000000J0000465D01*
G01X0005175Y0000785D02*
G03X0005569Y0001002I0000000J0000465D01*
G01X0004781Y0001003D02*
G03X0005175Y0000785I0000394J0000247D01*
G01X0004781Y0001497D02*
G03X0004388Y0001714I0000393J0000247D01*
G01X0005963Y0000785D02*
G03X0006285Y0000915I0000000J0000465D01*
G01X0005569Y0001002D02*
G03X0005963Y0000784I0000394J0000248D01*
G01X0019161Y0009132D02*
G03X0018610Y0008686I0000000J0000563D01*
G01X0019691Y0008762D02*
G03X0019161Y0009133I0000530J0000193D01*
G01X0019511Y0009242D02*
G03X0019859Y0008762I0000505J0000000D01*
G01X0020016Y0009747D02*
G03X0019511Y0009242I0000000J0000505D01*
G01X0020508Y0009353D02*
G03X0020016Y0009746I0000492J0000111D01*
G01X0021000Y0002282D02*
G03X0020782Y0002500I0000492J0000274D01*
G01X0022476Y0003556D02*
G03X0021984Y0003267I0000000J0000564D01*
G01X0021217Y0002500D02*
G03X0021000Y0002282I0000275J0000492D01*
G01X0022201Y0002500D02*
G03X0021984Y0002282I0000275J0000492D01*
G01X0020508Y0003556D02*
G03X0020045Y0003314I0000000J0000564D01*
G01X0005860Y0005050D02*
G03X0005798Y0005198I0000210J0000000D01*
G01X0018795Y0006112D02*
G03X0018808Y0006200I0000295J0000088D01*
G01X0021781Y0004071D02*
G03X0021930Y0004009I0000149J0000149D01*
G01X0022299Y0003890D02*
G03X0022351Y0003801I0000201J0000060D01*
G01X0021490Y0004450D02*
G03X0021551Y0004301I0000210J0000000D01*
G01X0021490Y0004450D02*
G03X0021551Y0004301I0000210J0000000D01*
G01X0011931Y0005821D02*
G03X0012080Y0005759I0000149J0000149D01*
G01X0011540Y0006300D02*
G03X0011601Y0006151I0000210J0000000D01*
G01X0011510Y0006000D02*
G03X0011448Y0006148I0000210J0000000D01*
G01X0018430Y0013000D02*
G03X0018726Y0012500I0000570J0000000D01*
G01X0019570Y0013000D02*
G03X0019367Y0013436I0000570J0000000D01*
G01X0018726Y0012500D02*
G03X0018430Y0012000I0000274J0000500D01*
G01X0030442Y0007860D02*
G03X0030453Y0007883I0000186J0000096D01*
G01X0010101Y0010448D02*
G03X0010049Y0010360I0000149J0000148D01*
G01X0015844Y0004735D02*
G03X0015897Y0004710I0000156J0000265D01*
G01X0004851Y0008498D02*
G03X0004790Y0008350I0000149J0000148D01*
G01X0005860Y0005050D02*
G03X0005798Y0005198I0000210J0000000D01*
G01X0026908Y0007750D02*
G03X0026904Y0007799I0000308J0000000D01*
G01X0026341Y0007916D02*
G03X0026292Y0007750I0000259J0000166D01*
G01X0027908Y0009550D02*
G03X0027600Y0009858I0000308J0000000D01*
G03X0027510Y0009844I0000000J0000308D01*
G01X0010101Y0010448D02*
G03X0010049Y0010360I0000149J0000148D01*
G01X0010400Y0010660D02*
G03X0010251Y0010598I0000000J0000210D01*
G01X0012508Y0010450D02*
G03X0012200Y0010758I0000308J0000000D01*
G01X0027894Y0009460D02*
G03X0027907Y0009550I0000294J0000090D01*
G01X0028398Y0008645D02*
G03X0028446Y0008720I0000148J0000149D01*
G01X0028042Y0010850D02*
G03X0028050Y0010780I0000308J0000000D01*
G01X0031308Y0014250D02*
G03X0031225Y0014460I0000308J0000000D01*
G01X0019455Y0003551D02*
G03X0019195Y0003450I0000069J0000559D01*
G01X0007941Y0011991D02*
G03X0007750Y0012070I0000191J0000191D01*
G01X0022299Y0003890D02*
G03X0022351Y0003801I0000201J0000060D01*
G01X0020782Y0002500D02*
G03X0021000Y0002717I0000274J0000492D01*
G01X0015775Y0006440D02*
G03X0015818Y0006402I0000225J0000210D01*
G01X0013730Y0003516D02*
G03X0013672Y0003625I0000206J0000040D01*
G01X0012112Y0003455D02*
G03X0012200Y0003442I0000088J0000295D01*
G01X0011780Y0004922D02*
G03X0011751Y0004898I0000120J0000172D01*
G01X0014790Y0004050D02*
G03X0014851Y0003901I0000210J0000000D01*
G01X0025760Y0009419D02*
G03X0025874Y0009477I0000034J0000207D01*
G01X0025998Y0009601D02*
G03X0026045Y0009673I0000148J0000149D01*
G01X0025760Y0009419D02*
G03X0025874Y0009477I0000034J0000207D01*
G01X0026050Y0010510D02*
G03X0025901Y0010448I0000000J0000210D01*
G01X0025998Y0009601D02*
G03X0026045Y0009673I0000148J0000149D01*
G01X0026798Y0010448D02*
G03X0026650Y0010509I0000148J0000148D01*
G01X0027510Y0010636D02*
G03X0027557Y0010800I0000260J0000164D01*
G01X0026050Y0010510D02*
G03X0025901Y0010448I0000000J0000210D01*
G01X0016102Y0012904D02*
G03X0016596Y0012612I0000494J0000271D01*
G01X0017735Y0002500D02*
G03X0017905Y0002645I0000274J0000492D01*
G01X0016103Y0004710D02*
G03X0016308Y0005000I0000103J0000290D01*
G01X0015984Y0003267D02*
G03X0015702Y0003515I0000492J0000275D01*
G01X0014782Y0002500D02*
G03X0015000Y0002717I0000274J0000492D01*
G01X0002569Y0007000D02*
G03X0002384Y0007519I0000819J0000000D01*
G01X0021492Y0009353D02*
G03X0021000Y0009746I0000492J0000111D01*
G01X0019195Y0003940D02*
G03X0019108Y0004148I0000295J0000000D01*
G01X0022614Y0003538D02*
G03X0022476Y0003555I0000138J0000546D01*
G01X0009440Y0009125D02*
G03X0009342Y0008900I0000210J0000225D01*
G01X0010632Y0012213D02*
G03X0010841Y0011819I0000474J0000000D01*
G01X0004914Y0009850D02*
G03X0004765Y0009500I0000336J0000350D01*
G01X0012539Y0003556D02*
G03X0012429Y0003545I0000000J0000564D01*
G01X0010226Y0004140D02*
G03X0010192Y0004000I0000274J0000140D01*
G01X0014015Y0003267D02*
G03X0013730Y0003516I0000491J0000275D01*
G01X0015448Y0009701D02*
G03X0015510Y0009850I0000148J0000149D01*
G01X0015492Y0009517D02*
G03X0015393Y0009646I0000492J0000275D01*
G01X0013589Y0010010D02*
G03X0013441Y0009948I0000000J0000210D01*
G01X0015393Y0009646D02*
G03X0015398Y0009651I0000143J0000154D01*
G01X0024048Y0007798D02*
G03X0023900Y0007859I0000148J0000148D01*
G01X0022351Y0007501D02*
G03X0022500Y0007439I0000149J0000149D01*
G01X0010192Y0003990D02*
G03X0010000Y0004057I0000192J0000240D01*
G01X0012648Y0004898D02*
G03X0012620Y0004922I0000148J0000148D01*
G01X0012648Y0004898D02*
G03X0012620Y0004922I0000148J0000148D01*
G01X0016476Y0009517D02*
G03X0015984Y0009806I0000492J0000275D01*
G01X0009790Y0001450D02*
G03X0009851Y0001301I0000210J0000000D01*
G01X0009790Y0001450D02*
G03X0009851Y0001301I0000210J0000000D01*
G01X0027558Y0010800D02*
G03X0027544Y0010890I0000308J0000000D01*
G01X0020492Y0006350D02*
G03X0020590Y0006125I0000308J0000000D01*
G01X0021108Y0006350D02*
G03X0020800Y0006658I0000308J0000000D01*
G03X0020492Y0006350I0000000J0000308D01*
G01X0013930Y0011240D02*
G03X0013781Y0011178I0000000J0000210D01*
G01X0013094Y0005640D02*
G03X0013090Y0005600I0000206J0000040D01*
G01X0015818Y0006402D02*
G03X0015742Y0006200I0000232J0000202D01*
G01X0015702Y0003558D02*
G03X0015640Y0003706I0000210J0000000D01*
G01X0014790Y0004050D02*
G03X0014851Y0003901I0000210J0000000D01*
G01X0028880Y0008240D02*
G03X0028860Y0008239I0000000J0000210D01*
G01X0028880Y0008240D02*
G03X0028860Y0008239I0000000J0000210D01*
G01X0011510Y0006000D02*
G03X0011448Y0006148I0000210J0000000D01*
G01X0009690Y0005000D02*
G03X0009751Y0004851I0000210J0000000D01*
G01X0017818Y0004548D02*
G03X0017775Y0004584I0000208J0000208D01*
G01X0017818Y0004548D02*
G03X0017775Y0004584I0000208J0000208D01*
G01X0014508Y0008532D02*
G03X0014290Y0008750I0000492J0000274D01*
G01X0015818Y0006402D02*
G03X0015742Y0006200I0000232J0000202D01*
G03X0015793Y0006030I0000308J0000000D01*
G01X0016823D02*
G03X0016848Y0006051I0000123J0000170D01*
G01X0013930Y0011240D02*
G03X0013781Y0011178I0000000J0000210D01*
G01X0021555Y0013250D02*
G03X0021643Y0013087I0000195J0000000D01*
G01X0022557D02*
G03X0022645Y0013250I0000107J0000163D01*
G01X0019662Y0014162D02*
G03X0019564Y0014221I0000162J0000162D01*
G01X0020837Y0012337D02*
G03X0021000Y0012269I0000163J0000163D01*
G01X0019662Y0014162D02*
G03X0019564Y0014221I0000162J0000162D01*
G01X0021184Y0003692D02*
G03X0021250Y0003501I0000308J0000000D01*
G01X0021800Y0003692D02*
G03X0021492Y0004000I0000308J0000000D01*
G03X0021184Y0003692I0000000J0000308D01*
G01X0005898Y0008951D02*
G03X0005960Y0009100I0000148J0000149D01*
G01X0026292Y0007750D02*
G03X0026296Y0007701I0000308J0000000D01*
G01X0026860Y0007585D02*
G03X0026908Y0007750I0000260J0000165D01*
G01X0015742Y0014747D02*
G03X0015350Y0014560I0000000J0000505D01*
G01X0011503Y0013517D02*
G03X0011628Y0013393I0000390J0000270D01*
G01X0018633Y0013436D02*
G03X0018430Y0013000I0000367J0000436D01*
G01X0007590Y0001650D02*
G03X0007651Y0001501I0000210J0000000D01*
Y0004448D02*
G03X0007590Y0004300I0000149J0000148D01*
G01X0024377Y0009263D02*
G03X0024438Y0009115I0000210J0000000D01*
G01X0028875Y0006540D02*
G03X0029100Y0006442I0000225J0000210D01*
G01X0025555Y0012228D02*
G03X0025540Y0012150I0000195J0000078D01*
G01X0026341Y0007916D02*
G03X0026292Y0007750I0000259J0000166D01*
G01X0026908D02*
G03X0026904Y0007799I0000308J0000000D01*
G01X0009096Y0010978D02*
G03X0009138Y0010794I0000426J0000000D01*
G01X0024348Y0009651D02*
G03X0024367Y0009673I0000148J0000149D01*
G01X0024348Y0009651D02*
G03X0024367Y0009673I0000148J0000149D01*
G01X0022750Y0009510D02*
G03X0022601Y0009448I0000000J0000210D01*
G01X0023700Y0009090D02*
G03X0023848Y0009151I0000000J0000210D01*
G01X0022481Y0009328D02*
G03X0021984Y0009746I0000497J0000086D01*
G01X0032276Y0012224D02*
G03X0032157Y0012062I0000474J0000474D01*
G01X0032276Y0012224D02*
G03X0032157Y0012062I0000474J0000474D01*
G01X0032028Y0012301D02*
G03X0032100Y0012292I0000072J0000299D01*
G01X0016823Y0006030D02*
G03X0016848Y0006051I0000123J0000170D01*
G01X0015742Y0006200D02*
G03X0015793Y0006030I0000308J0000000D01*
G01X0012460Y0009960D02*
G03X0012398Y0010108I0000210J0000000D01*
G01X0012334Y0010173D02*
G03X0012508Y0010450I0000134J0000277D01*
G01X0002150Y0006285D02*
G03X0002569Y0007000I0000400J0000715D01*
G01X0016823Y0006030D02*
G03X0016848Y0006051I0000123J0000170D01*
G01X0009800Y0009960D02*
G03X0009651Y0009898I0000000J0000210D01*
G01X0009342Y0008900D02*
G03X0009650Y0008592I0000308J0000000D01*
G03X0009829Y0008650I0000000J0000308D01*
G01X0031192Y0008500D02*
G03X0031226Y0008360I0000308J0000000D01*
G01X0019295Y0011512D02*
G03X0019488Y0011705I0000295J0000488D01*
G01X0018250Y0010305D02*
G03X0018458Y0010391I0000000J0000295D01*
G01X0019208Y0011141D02*
G03X0019295Y0011350I0000208J0000209D01*
G01X0010528Y0007488D02*
G03X0010360Y0007572I0000208J0000208D01*
G01X0010795Y0007100D02*
G03X0010708Y0007308I0000295J0000000D01*
G01X0019442Y0005050D02*
G03X0019750Y0004742I0000308J0000000D01*
G03X0020058Y0005050I0000000J0000308D01*
G01X0019455Y0005137D02*
G03X0019442Y0005050I0000295J0000087D01*
G01X0022192Y0005200D02*
G03X0022206Y0005110I0000308J0000000D01*
G01X0022500Y0005508D02*
G03X0022192Y0005200I0000000J0000308D01*
G01X0010000Y0004058D02*
G03X0009692Y0003750I0000000J0000308D01*
G01X0018808Y0006200D02*
G03X0018500Y0006508I0000308J0000000D01*
G03X0018192Y0006200I0000000J0000308D01*
G01X0020741Y0011291D02*
G03X0020950Y0011204I0000209J0000209D01*
G01X0024158Y0011708D02*
G03X0023950Y0011794I0000208J0000208D01*
G01X0024158Y0011708D02*
G03X0023950Y0011794I0000208J0000208D01*
G01X0020658Y0012208D02*
G03X0020450Y0012294I0000208J0000208D01*
G01X0019208Y0011141D02*
G03X0019295Y0011350I0000208J0000209D01*
G01X0024400Y0011508D02*
G03X0024362Y0011505I0000000J0000308D01*
G01X0016308Y0005000D02*
G03X0016295Y0005087I0000308J0000000D01*
G01X0012508Y0003750D02*
G03X0012404Y0003980I0000308J0000000D01*
G01X0011525Y0002915D02*
G03X0011568Y0002951I0000165J0000245D01*
G01X0011525Y0002915D02*
G03X0011568Y0002951I0000165J0000245D01*
G01X0017186Y0002500D02*
G03X0016968Y0002282I0000275J0000492D01*
G01X0022543Y0005505D02*
G03X0022500Y0005508I0000043J0000305D01*
G01X0023305Y0007860D02*
G03X0023401Y0008175I0000467J0000315D01*
G01X0032100Y0012292D02*
G03X0032408Y0012600I0000000J0000308D01*
G03X0032100Y0012908I0000308J0000000D01*
G03X0031896Y0012830I0000000J0000308D01*
G01X0032100Y0012292D02*
G03X0032408Y0012600I0000000J0000308D01*
G03X0032100Y0012908I0000308J0000000D01*
G01X0021561Y0015300D02*
G03X0021554Y0015250I0000189J0000050D01*
G01X0032028Y0012301D02*
G03X0032100Y0012292I0000072J0000299D01*
G01X0033403Y0013350D02*
G03X0033420Y0013500I0000653J0000150D01*
G01X0029024Y0010476D02*
G03X0028930Y0010250I0000226J0000226D01*
G01X0029530Y0010850D02*
G03X0029304Y0010756I0000000J0000320D01*
G01X0029530Y0010850D02*
G03X0029304Y0010756I0000000J0000320D01*
G01X0031230Y0014045D02*
G03X0031308Y0014250I0000230J0000205D01*
G01X0010528Y0007488D02*
G03X0010360Y0007572I0000208J0000208D01*
G01X0025555Y0012228D02*
G03X0025540Y0012150I0000195J0000078D01*
G01X0002388Y0003831D02*
G03X0002265Y0004128I0000420J0000000D01*
G01X0021000Y0003267D02*
G03X0020508Y0003556I0000492J0000275D01*
G01X0021250Y0003501D02*
G03X0021000Y0003267I0000242J0000509D01*
Y0009747D02*
G03X0020508Y0009353I0000000J0000505D01*
G01X0021984Y0009747D02*
G03X0021492Y0009353I0000000J0000505D01*
G01X0012200Y0010758D02*
G03X0011975Y0010660I0000000J0000308D01*
G01X0005250Y0009015D02*
G03X0005388Y0009035I0000000J0000485D01*
G01X0029792Y0008750D02*
G03X0029823Y0008617I0000308J0000000D01*
G01X0015853Y0013750D02*
G03X0016246Y0014242I0000111J0000492D01*
G01X0030442Y0007860D02*
G03X0030453Y0007883I0000186J0000096D01*
G01X0029700Y0008460D02*
G03X0029610Y0008440I0000000J0000210D01*
G01X0014015Y0002717D02*
G03X0014233Y0002500I0000493J0000275D01*
G01X0026296Y0007701D02*
G03X0026290Y0007650I0000204J0000051D01*
G01X0022855Y0013250D02*
G03X0022943Y0013087I0000195J0000000D01*
G01X0022645Y0015250D02*
G03X0022638Y0015300I0000195J0000000D01*
G01X0022861D02*
G03X0022854Y0015250I0000189J0000050D01*
G01X0013327Y0008762D02*
G03X0013523Y0008967I0000296J0000480D01*
G01X0015960Y0012802D02*
G03X0016102Y0012904I0000218J0000456D01*
G01X0013253Y0009760D02*
G03X0013031Y0009806I0000222J0000518D01*
G01X0015767Y0002500D02*
G03X0015984Y0002717I0000275J0000492D01*
G01X0016751Y0002500D02*
G03X0016968Y0002717I0000275J0000492D01*
G01X0015000D02*
G03X0015217Y0002500I0000492J0000275D01*
G01X0013230Y0003473D02*
G03X0013031Y0003267I0000294J0000481D01*
G01X0015251Y0003501D02*
G03X0015000Y0003267I0000241J0000509D01*
Y0002282D02*
G03X0014782Y0002500I0000492J0000274D01*
G01X0016343Y0003540D02*
G03X0015984Y0003267I0000133J0000548D01*
G01X0018192Y0006200D02*
G03X0018205Y0006112I0000308J0000000D01*
G01X0016968Y0009806D02*
G03X0016476Y0009517I0000000J0000564D01*
G01X0017243Y0008750D02*
G03X0017532Y0009242I0000275J0000492D01*
G01X0029100Y0006442D02*
G03X0029180Y0006453I0000000J0000308D01*
G01X0013355Y0013700D02*
G03X0013340Y0013569I0000548J0000131D01*
G01X0026292Y0007750D02*
G03X0026296Y0007701I0000308J0000000D01*
G01X0012158Y0012606D02*
G03X0012368Y0013000I0000265J0000394D01*
G01X0004965Y0001665D02*
G03X0004781Y0001497I0000210J0000415D01*
G01X0021718Y0007829D02*
G03X0021984Y0007753I0000266J0000429D01*
G01X0019274Y0012500D02*
G03X0019570Y0013000I0000274J0000500D01*
G01X0020658Y0012208D02*
G03X0020450Y0012294I0000208J0000208D01*
G01X0018430Y0012000D02*
G03X0018705Y0011512I0000570J0000000D01*
G01X0021767Y0002500D02*
G03X0021984Y0002717I0000275J0000492D01*
G01X0023402Y0008569D02*
G03X0023052Y0009090I0000564J0000000D01*
G01X0028042Y0010860D02*
G03X0028042Y0010850I0000308J0000010D01*
G01X0030425Y0006460D02*
G03X0030200Y0006558I0000225J0000210D01*
G01X0026296Y0007701D02*
G03X0026290Y0007650I0000204J0000051D01*
G01X0023700Y0009090D02*
G03X0023848Y0009151I0000000J0000210D01*
G01X0009454Y0009676D02*
G03X0009440Y0009600I0000196J0000076D01*
G01X0015350Y0013924D02*
G03X0015630Y0013750I0000392J0000318D01*
G01X0013903Y0012612D02*
G03X0014276Y0012753I0000000J0000563D01*
G01X0016041Y0013664D02*
G03X0015853Y0013750I0000299J0000406D01*
G01X0015630D02*
G03X0015262Y0013414I0000112J0000492D01*
G01X0014725Y0008750D02*
G03X0014508Y0008532I0000275J0000492D01*
G01X0015275Y0008750D02*
G03X0015492Y0008967I0000275J0000492D01*
G01X0016259Y0008750D02*
G03X0016476Y0008967I0000275J0000492D01*
G01X0009791Y0008058D02*
G03X0009705Y0007850I0000209J0000208D01*
G01X0009454Y0009676D02*
G03X0009440Y0009600I0000196J0000076D01*
G01X0029835Y0008907D02*
G03X0029792Y0008750I0000265J0000157D01*
G01X0010640Y0013700D02*
G03X0010841Y0013393I0000466J0000087D01*
G01X0016823Y0006030D02*
G03X0016848Y0006051I0000123J0000170D01*
G01X0031258Y0008690D02*
G03X0031192Y0008500I0000242J0000190D01*
G01X0028398Y0008645D02*
G03X0028446Y0008720I0000148J0000149D01*
G01X0026860Y0007585D02*
G03X0026908Y0007750I0000260J0000165D01*
G01X0021984Y0003267D02*
G03X0021733Y0003501I0000492J0000275D01*
G01X0020058Y0005050D02*
G03X0020045Y0005137I0000308J0000000D01*
G01X0011780Y0004922D02*
G03X0011751Y0004898I0000120J0000172D01*
G01X0011540Y0006300D02*
G03X0011601Y0006151I0000210J0000000D01*
G01X0010400Y0010660D02*
G03X0010251Y0010598I0000000J0000210D01*
G01X0021984Y0007753D02*
G03X0022089Y0007764I0000000J0000505D01*
G01X0007651Y0004448D02*
G03X0007590Y0004300I0000149J0000148D01*
G01X0011000Y0006558D02*
G03X0010795Y0006479I0000000J0000308D01*
G01X0032157Y0012062D02*
G03X0032028Y0012301I0000307J0000012D01*
G01X0027990Y0001600D02*
G03X0028157Y0002000I0000394J0000400D01*
G01X0027035D02*
G03X0027202Y0001600I0000561J0000000D01*
G01X0028158Y0002000D02*
G03X0027596Y0002562I0000562J0000000D01*
G03X0027034Y0002000I0000000J0000562D01*
G01X0026612Y0001600D02*
G03X0026579Y0001671I0000362J0000128D01*
G01X0026279Y0002000D02*
G03X0026302Y0001853I0000463J0000000D01*
G01X0026250Y0001857D02*
G03X0025909Y0001650I0000000J0000385D01*
G01X0024342Y0002000D02*
G03X0024464Y0001650I0000561J0000000D01*
G01X0025465Y0002000D02*
G03X0024903Y0002562I0000562J0000000D01*
G03X0024341Y0002000I0000000J0000562D01*
G01X0026321Y0002194D02*
G03X0026278Y0002000I0000421J0000194D01*
G01X0025342Y0001650D02*
G03X0025464Y0002000I0000439J0000350D01*
G01X0026302Y0001853D02*
G03X0026250Y0001857I0000052J0000381D01*
G01X0031000Y0004871D02*
G03X0031444Y0005055I0000000J0000629D01*
G01X0033194Y0006805D02*
G03X0033379Y0007250I0000444J0000445D01*
G01X0031000Y0004871D02*
G03X0031444Y0005055I0000000J0000629D01*
G54D51*
G01X0038929Y0006795D02*
X0038846Y0006737D01*
X0038762Y0006707D01*
X0038596D01*
X0038512Y0006737D01*
X0038429Y0006795D01*
Y0006853D01*
X0038512Y0006912D01*
X0038596Y0006941D01*
X0038762D01*
X0038846Y0006912D01*
X0038929Y0006853D01*
Y0006795D01*
X0038679Y0006518D02*
Y0006285D01*
X0038846Y0005862D02*
X0038929Y0005921D01*
Y0006037D01*
X0038846Y0006096D01*
X0038762D01*
X0038596Y0005979D01*
X0038429Y0006096D01*
Y0005862D01*
X0038929Y0005673D02*
Y0005557D01*
Y0005615D02*
X0038429D01*
X0038512Y0005557D01*
X0038846Y0005076D02*
X0038929Y0005134D01*
Y0005251D01*
X0038846Y0005309D01*
X0038762D01*
X0038596Y0005192D01*
X0038429Y0005309D01*
Y0005076D01*
X0038679Y0004887D02*
Y0004653D01*
X0038929Y0004464D02*
Y0004231D01*
X0038596Y0004464D01*
X0038512D01*
X0038429Y0004435D01*
Y0004260D01*
X0038512Y0004231D01*
X0038929Y0004042D02*
Y0003808D01*
X0038596Y0004042D01*
X0038512D01*
X0038429Y0004012D01*
Y0003837D01*
X0038512Y0003808D01*
X0023200Y0007250D02*
X0023300D01*
X0023650Y0006900D01*
X0023700D01*
X0025700Y0007400D02*
X0025300D01*
X0025050Y0007650D01*
X0027150Y0007700D02*
X0027250Y0007600D01*
Y0007280D01*
X0023700Y0006900D02*
X0023650D01*
X0023300Y0007250D01*
X0023200D01*
X0025413Y0010374D02*
X0025674D01*
X0025800Y0010500D01*
X0025850D01*
X0027600Y0010150D02*
X0027376Y0010374D01*
X0027163D01*
X0030750Y0010950D02*
Y0010530D01*
Y0010950D01*
X0025850Y0010500D02*
X0025800D01*
X0025674Y0010374D01*
X0025413D01*
X0026850Y0012150D02*
Y0011450D01*
X0026620Y0011220D01*
X0026500D01*
X0025700Y0007400D02*
X0025300D01*
X0025050Y0007650D01*
X0023200Y0007250D02*
X0023300D01*
X0023650Y0006900D01*
X0023700D01*
X0009650Y0004750D02*
X0009250Y0005150D01*
X0009200D01*
X0014750Y0005750D02*
X0014200Y0005200D01*
Y0005150D01*
X0027163Y0010374D02*
X0027376D01*
X0027600Y0010150D01*
X0014170Y0010470D02*
X0014750D01*
X0011200Y0007550D02*
X0011470Y0007280D01*
X0011750D01*
X0030750Y0006970D02*
X0030000D01*
X0030750D02*
X0031070D01*
X0031150Y0007050D01*
X0031200D01*
X0031100Y0007150D01*
Y0008050D01*
X0030900Y0008250D01*
X0030768D01*
X0029050Y0006250D02*
X0028950D01*
X0028730Y0006470D01*
X0028500D01*
X0014750Y0010470D02*
X0014170D01*
X0009200Y0005150D02*
X0009250D01*
X0009650Y0004750D01*
X0025500Y0013400D02*
Y0013350D01*
X0026000Y0012850D01*
Y0012400D01*
X0025750Y0012150D01*
Y0011780D01*
X0009650Y0004750D02*
X0009250Y0005150D01*
X0009200D01*
X0026864Y0004425D02*
X0027875D01*
X0026600Y0007750D02*
X0026500Y0007650D01*
Y0007280D01*
X0030768Y0009274D02*
X0030791Y0009250D01*
X0031250D01*
X0030850Y0011750D02*
X0030450D01*
X0029900Y0012300D01*
Y0013100D01*
X0029600Y0013400D01*
X0029500D01*
X0008300Y0004750D02*
X0008250D01*
X0007800Y0004300D01*
Y0001650D01*
X0008200Y0001250D01*
X0008300D01*
X0027850Y0008394D02*
X0027556D01*
X0027163Y0008787D01*
Y0008874D01*
X0025413D02*
X0024976D01*
X0024587Y0009263D01*
Y0010000D01*
X0030512Y0009274D02*
Y0009512D01*
X0030650Y0009650D01*
X0031180D01*
X0031500Y0009970D01*
X0024800Y0007000D02*
X0028000D01*
X0028250Y0006750D01*
X0029100D01*
Y0013000D02*
X0028750Y0013350D01*
Y0013400D01*
X0026500Y0007280D02*
Y0007650D01*
X0026600Y0007750D01*
X0026800Y0008500D02*
X0026337D01*
X0027250Y0011220D02*
Y0010800D01*
X0024600D01*
X0024200Y0010400D01*
Y0009800D01*
X0023700Y0009300D01*
X0022750D01*
X0022200Y0008750D01*
X0020508D01*
X0020016Y0008258D01*
X0026500Y0014220D02*
X0026780Y0014500D01*
X0029800D01*
X0029900Y0014400D01*
Y0013500D01*
X0030100Y0013300D01*
Y0012350D01*
X0030400Y0012050D01*
X0031850D01*
Y0008900D02*
X0030950D01*
X0030512Y0008462D01*
Y0008250D01*
X0030256D02*
Y0008456D01*
X0030512Y0008712D01*
Y0009274D01*
X0017000Y0006470D02*
X0016970D01*
X0016700Y0006200D01*
X0016050D01*
X0012250Y0006950D02*
Y0009960D01*
X0012180Y0010030D01*
X0011750D01*
X0013250Y0006530D02*
X0013780D01*
X0008650Y0005950D02*
Y0005400D01*
X0008750Y0005300D01*
Y0003450D01*
X0008300Y0003000D01*
X0023700Y0006100D02*
X0024350D01*
X0023670Y0004220D02*
X0023250D01*
X0012500Y0005970D02*
Y0006000D01*
X0012750Y0006250D01*
X0013900D01*
X0014950Y0007300D01*
X0016650D01*
X0016968Y0007618D01*
Y0008258D01*
X0029250Y0008030D02*
X0029480D01*
X0029700Y0008250D01*
X0030000D01*
X0026337Y0010000D02*
Y0008874D01*
X0025413D01*
X0011000Y0010030D02*
X0010720Y0009750D01*
X0009800D01*
X0009650Y0009600D01*
Y0008900D01*
X0031500Y0008030D02*
Y0008500D01*
X0030100Y0008750D02*
X0030256Y0008906D01*
Y0009274D01*
X0028000Y0011220D02*
Y0011200D01*
X0028350Y0010850D01*
X0028000Y0006500D02*
X0027750Y0006250D01*
X0025300D01*
X0025050Y0006500D01*
X0022800D01*
X0028500Y0007720D02*
X0028570D01*
X0028880Y0008030D01*
X0029250D01*
X0010250Y0004720D02*
X0010270Y0004700D01*
X0010750D01*
X0010500Y0004000D02*
X0010550Y0004050D01*
X0011800D01*
X0012100Y0004350D01*
X0012200D01*
X0015750Y0011030D02*
X0015530D01*
X0015300Y0010800D01*
Y0009850D01*
X0015250Y0009800D01*
X0013589D01*
X0013031Y0009242D01*
X0021984Y0008258D02*
Y0008166D01*
X0022500Y0007650D01*
X0023900D01*
X0024550Y0007000D01*
X0024800D01*
X0009200Y0004350D02*
X0011650D01*
X0011750Y0004450D01*
Y0004600D01*
X0011900Y0004750D01*
X0012500D01*
X0012900Y0004350D01*
X0014200D01*
X0014508Y0002008D02*
X0013600Y0001100D01*
X0010350D01*
X0010000Y0001450D01*
Y0002720D01*
X0008250Y0007898D02*
Y0006550D01*
X0008300Y0006500D01*
X0027250Y0011220D02*
Y0010800D01*
X0027600Y0013800D02*
X0027250Y0014150D01*
Y0014220D01*
X0020800Y0005250D02*
Y0006350D01*
X0027163Y0008874D02*
X0026337D01*
X0025413D01*
X0013031Y0008258D02*
X0012450Y0008839D01*
Y0009550D01*
X0013930Y0011030D01*
X0014750D01*
X0013300Y0004750D02*
Y0005600D01*
X0014100D01*
X0015150Y0006650D01*
X0016000D01*
X0016100Y0006750D01*
X0017470D01*
X0017750Y0006470D01*
X0015492Y0002992D02*
Y0003558D01*
X0015000Y0004050D01*
Y0004470D01*
X0027850Y0007606D02*
X0028000Y0007756D01*
Y0007900D01*
X0028380Y0008280D01*
X0028500D01*
X0009200Y0006100D02*
X0009250D01*
X0009900Y0005450D01*
Y0005000D01*
X0010180Y0004720D01*
X0010250D01*
X0030000Y0009970D02*
X0030256D01*
Y0009274D01*
X0015000Y0008258D02*
X0015708Y0007550D01*
X0016400D01*
X0016500Y0007650D01*
X0016050Y0006200D02*
X0016700D01*
X0016970Y0006470D01*
X0017000D01*
X0018250Y0008470D02*
X0018038Y0008258D01*
X0016968D01*
X0023250Y0004220D02*
X0023242Y0004212D01*
Y0003692D01*
X0021492D02*
Y0002992D01*
X0005750Y0010500D02*
Y0009100D01*
X0005000Y0008350D01*
Y0005700D01*
X0005650Y0005050D01*
Y0002350D01*
X0006750Y0001250D01*
X0029500Y0014220D02*
X0029470D01*
X0029100Y0013850D01*
X0027850Y0007606D02*
X0027644D01*
X0027163Y0008087D01*
Y0008126D01*
X0026337Y0008500D02*
X0024587D01*
X0030750Y0009970D02*
X0030256D01*
Y0009274D01*
X0031500Y0007470D02*
Y0006900D01*
X0030850Y0006250D01*
X0030200D01*
X0027600Y0009550D02*
X0027524Y0009626D01*
X0027163D01*
X0010250Y0010030D02*
Y0010300D01*
X0010400Y0010450D01*
X0012200D01*
X0028250Y0009090D02*
Y0008794D01*
X0027850Y0008394D01*
X0028000Y0011220D02*
Y0011200D01*
X0028350Y0010850D01*
Y0013800D02*
X0028000Y0014150D01*
Y0014220D01*
X0030000Y0007530D02*
Y0007700D01*
X0030256Y0007956D01*
Y0008250D01*
X0030750Y0007530D02*
X0030000D01*
X0027163Y0008126D02*
X0025413D01*
X0022500Y0004220D02*
Y0003950D01*
X0023200Y0003250D01*
Y0001750D01*
X0022900Y0001450D01*
X0022050D01*
X0021492Y0002008D01*
X0028500Y0007720D02*
Y0007030D01*
X0010000Y0006720D02*
X0009780Y0006500D01*
X0008300D01*
X0013524Y0002992D02*
Y0003476D01*
X0012650Y0004350D01*
X0012200D01*
X0026500Y0006720D02*
X0026380Y0006600D01*
X0025700D01*
X0025413Y0009626D02*
X0025726D01*
X0025850Y0009750D01*
Y0010100D01*
X0026050Y0010300D01*
X0026650D01*
X0027163Y0009787D01*
Y0009626D01*
X0014758Y0013258D02*
X0014750Y0013250D01*
Y0011030D01*
X0005175Y0001250D02*
Y0005025D01*
X0002050Y0008150D01*
Y0008750D01*
X0001650Y0009150D01*
Y0009750D01*
X0002400Y0010500D01*
X0002750D01*
X0027250Y0006720D02*
X0026500D01*
X0023250Y0004220D02*
Y0003700D01*
X0023500Y0003450D01*
Y0001300D01*
X0023050Y0000850D01*
X0009200D01*
X0022800Y0006500D02*
X0022750D01*
X0021000Y0008250D01*
Y0008258D01*
X0011750Y0007280D02*
X0011470D01*
X0011200Y0007550D01*
X0008300Y0006500D02*
Y0004750D01*
X0012500Y0006530D02*
Y0006550D01*
X0013031Y0007081D01*
Y0008258D01*
X0026000Y0014400D02*
X0026200Y0014200D01*
X0026480D01*
X0026500Y0014220D01*
X0010250Y0009470D02*
Y0008900D01*
X0026500Y0014220D02*
Y0013400D01*
X0015742Y0013258D02*
X0015750Y0013250D01*
Y0011030D01*
X0005963Y0001250D02*
X0005450Y0001763D01*
Y0005000D01*
X0002250Y0008200D01*
Y0009500D01*
X0010000Y0002720D02*
X0009880Y0002600D01*
X0009200D01*
X0013250Y0006530D02*
Y0006550D01*
X0014016Y0007316D01*
Y0008258D01*
X0016000Y0006650D02*
X0016100Y0006750D01*
X0017470D01*
X0017750Y0006470D01*
X0028750Y0012600D02*
Y0011780D01*
X0022500Y0004220D02*
X0021930D01*
X0021700Y0004450D01*
Y0004850D01*
X0029500Y0012600D02*
Y0011780D01*
X0028750Y0014220D02*
Y0013400D01*
X0028000Y0012600D02*
Y0011780D01*
X0015000Y0004470D02*
X0014320D01*
X0014200Y0004350D01*
X0029500Y0014220D02*
Y0013400D01*
X0011000Y0009470D02*
Y0008900D01*
X0012500Y0005970D02*
X0012080D01*
X0011750Y0006300D01*
Y0006720D01*
Y0009470D02*
Y0008900D01*
Y0010030D02*
X0012180D01*
X0012250Y0009960D01*
Y0006950D01*
X0011000Y0006250D02*
X0011050D01*
X0011300Y0006000D01*
Y0004750D01*
X0027250Y0012600D02*
Y0011780D01*
X0026500Y0012600D02*
Y0011780D01*
G54D53*
G01X0025238Y0004488D02*
Y0005012D01*
X0024600Y0005650D01*
X0022850D01*
X0021470Y0007030D01*
X0017750D01*
X0025238Y0004188D02*
X0026550Y0005500D01*
X0026600Y0005550D01*
X0029500D01*
Y0007200D01*
X0029250Y0007450D01*
Y0007470D01*
X0031500Y0010530D02*
X0032750D01*
X0026550Y0005500D02*
X0025238Y0004188D01*
X0031500Y0010530D02*
Y0011000D01*
X0031150Y0011350D01*
X0030350D01*
X0030000Y0011000D01*
Y0010530D01*
X0023500Y0012464D02*
X0023633D01*
X0023714D01*
X0024530Y0013280D01*
X0024750D01*
X0031500Y0010530D02*
X0032750D01*
X0024750Y0013280D02*
X0025000Y0013530D01*
Y0014000D01*
X0025780Y0014780D01*
X0026500D01*
X0034250Y0013500D02*
Y0014250D01*
X0033720Y0014780D01*
X0030250D01*
X0023633Y0014250D02*
Y0012464D01*
X0023500D01*
X0029250Y0009280D02*
Y0010250D01*
X0029530Y0010530D01*
X0030000D01*
X0013250Y0005970D02*
X0014070D01*
X0015130Y0007030D01*
X0017000D01*
X0017750D02*
X0017000D01*
X0027250Y0014780D02*
X0026500D01*
X0028000D02*
X0027250D01*
X0028750D02*
X0028000D01*
X0029500D02*
X0028750D01*
X0030250D02*
X0029500D01*
X0025238Y0004188D02*
X0026550Y0005500D01*
X0023500Y0012464D02*
X0023633D01*
Y0012383D01*
X0023581D01*
X0023500Y0012464D01*
G54D54*
G01X0031250Y0012600D02*
X0032100D01*
X0036250Y0012000D02*
X0036000Y0011750D01*
Y0009800D01*
X0036931Y0008869D01*
Y0008827D01*
X0034750Y0010370D02*
Y0008842D01*
X0034766Y0008827D01*
X0032100Y0012600D02*
X0031250D01*
X0030250Y0014220D02*
Y0013650D01*
X0030500Y0013400D01*
X0026864Y0003587D02*
X0026742Y0003465D01*
Y0002000D01*
X0026864Y0004425D02*
Y0003587D01*
X0022000Y0012464D02*
X0021964Y0012500D01*
X0021000D01*
X0019500Y0014000D01*
X0019000D01*
X0031250Y0013400D02*
X0031000D01*
Y0014250D01*
X0035250D02*
Y0012000D01*
X0034780Y0011530D01*
X0034750D01*
Y0010930D01*
X0022000Y0012464D02*
Y0014250D01*
X0021868D01*
Y0014249D01*
G54D55*
G01X0006250Y0012380D02*
Y0012350D01*
X0006800Y0011800D01*
X0007750D01*
X0009250Y0010300D01*
Y0010102D01*
X0008250D02*
Y0010650D01*
X0007500Y0011400D01*
X0005480D01*
X0004500Y0012380D01*
X0008750Y0012159D02*
X0008309Y0012600D01*
X0006500D01*
X0006280Y0012380D01*
X0006250D01*
X0011893Y0013787D02*
X0011106D01*
X0004500Y0012380D02*
X0005320Y0013200D01*
X0008750D01*
Y0013340D01*
G54D56*
G01X0001968Y0013779D02*
Y0012731D01*
X0003300Y0011400D01*
X0004200D01*
X0004750Y0010850D01*
Y0010500D01*
X0001968Y0001968D02*
Y0003831D01*
X0000700Y0005100D01*
Y0012511D01*
X0001968Y0013779D01*
X0011106Y0014574D02*
X0010975D01*
X0010400Y0015150D01*
X0007050D01*
X0006250Y0014350D01*
Y0014120D01*
X0014758Y0014242D02*
X0014500Y0014500D01*
X0014424Y0014574D01*
X0011893D01*
X0004500Y0014120D02*
X0002309D01*
X0001968Y0013779D01*
X0006250Y0014120D02*
X0004500D01*
X0011893Y0014574D02*
X0011106D01*
G54D57*
G01X0028000Y0013400D02*
X0027250D01*
X0025750Y0011220D02*
X0025000D01*
X0011750Y0008100D02*
X0011000D01*
X0010250D01*
X0019750Y0005660D02*
X0018500D01*
X0017250D01*
X0016000D01*
X0023250Y0004780D02*
X0022500D01*
X0010000Y0003280D02*
X0010880D01*
X0011000Y0003160D01*
X0016000Y0005660D02*
Y0005030D01*
X0015000D01*
X0010250Y0008100D02*
X0010000Y0007850D01*
Y0007280D01*
X0017250Y0010600D02*
X0018250D01*
X0019000Y0011350D01*
Y0012000D01*
X0010000Y0007280D02*
X0010320D01*
X0010500Y0007100D01*
Y0005900D01*
X0010250Y0005650D01*
Y0005280D01*
X0019750Y0005660D02*
Y0005050D01*
X0010000Y0003280D02*
Y0003750D01*
X0010750Y0005300D02*
X0010270D01*
X0010250Y0005280D01*
X0018500Y0006200D02*
Y0005660D01*
X0025000Y0011220D02*
X0024980Y0011200D01*
X0024400D01*
X0024250D01*
X0023950Y0011500D01*
X0020950D01*
X0020450Y0012000D01*
X0019000D01*
X0027250Y0013400D02*
Y0013550D01*
X0026950Y0013850D01*
X0024400Y0011200D02*
X0024980D01*
X0025000Y0011220D01*
X0015000Y0005030D02*
X0016000D01*
Y0005000D01*
X0012200Y0003750D02*
X0011950D01*
X0011360Y0003160D01*
X0011000D01*
X0017250Y0004340D02*
X0017610D01*
X0018550Y0003400D01*
Y0001700D01*
X0018100Y0001250D01*
X0017234D01*
X0016476Y0002008D01*
X0019750Y0004340D02*
Y0003218D01*
X0019524Y0002992D01*
X0017461Y0002008D02*
X0017808D01*
X0018200Y0002400D01*
Y0003200D01*
X0017700Y0003700D01*
X0016600D01*
X0016000Y0004300D01*
Y0004340D01*
X0012539Y0002008D02*
X0012371Y0001840D01*
X0011000D01*
X0019524Y0002008D02*
X0018900Y0002631D01*
Y0003940D01*
X0018500Y0004340D01*
G54D58*
G01X0025238Y0004000D02*
Y0004188D01*
Y0004488D01*
Y0004000D02*
Y0004188D01*
X0032750Y0010530D02*
Y0007250D01*
X0031000Y0005500D01*
X0026550D01*
X0025238Y0004188D02*
Y0004000D01*
X0032750Y0010530D02*
Y0011750D01*
X0034250Y0013250D01*
Y0013500D01*
X0025238Y0004000D02*
Y0004188D01*
X0026550Y0005500D02*
X0026250D01*
X0025238Y0004488D01*
Y0004188D01*
Y0004000D01*
G54D59*
G01X0022500Y0005200D02*
Y0004780D01*
X0029250Y0009280D02*
X0029994D01*
X0030000Y0009274D01*
G54D10*
X0038750Y0000750D03*
X0003750Y0003000D03*
X0003500Y0015000D03*
G54D11*
X0011750Y0007280D03*
Y0006720D03*
X0012500Y0005970D03*
Y0006530D03*
X0011750Y0009470D03*
Y0010030D03*
X0017000Y0006470D03*
Y0007030D03*
X0011000Y0009470D03*
Y0010030D03*
X0010250Y0009470D03*
Y0010030D03*
X0015000Y0004470D03*
Y0005030D03*
X0010250Y0004720D03*
Y0005280D03*
X0010000Y0002720D03*
Y0003280D03*
X0017750Y0006470D03*
Y0007030D03*
X0013250Y0006530D03*
Y0005970D03*
X0010000Y0007280D03*
Y0006720D03*
X0034750Y0010930D03*
Y0010370D03*
X0025750Y0011780D03*
Y0011220D03*
X0030250Y0014220D03*
Y0014780D03*
X0030750Y0010530D03*
Y0009970D03*
X0031500Y0007470D03*
Y0008030D03*
X0030750Y0006970D03*
Y0007530D03*
X0028500Y0006470D03*
Y0007030D03*
X0030000Y0009970D03*
Y0010530D03*
X0029250Y0008030D03*
Y0007470D03*
X0031500Y0009970D03*
Y0010530D03*
X0028500Y0008280D03*
Y0007720D03*
X0027250Y0007280D03*
Y0006720D03*
X0026500D03*
Y0007280D03*
Y0011220D03*
Y0011780D03*
X0029500Y0011220D03*
Y0011780D03*
X0028750Y0011220D03*
Y0011780D03*
X0027250D03*
Y0011220D03*
X0028000Y0011780D03*
Y0011220D03*
X0026500Y0014220D03*
Y0014780D03*
X0029500Y0014220D03*
Y0014780D03*
X0027250Y0014220D03*
Y0014780D03*
X0028000Y0014220D03*
Y0014780D03*
X0028750Y0014220D03*
Y0014780D03*
X0023250Y0004220D03*
Y0004780D03*
X0022500Y0004220D03*
Y0004780D03*
X0014750Y0010470D03*
Y0011030D03*
X0015750Y0010470D03*
Y0011030D03*
X0018250Y0009030D03*
Y0008470D03*
X0025000Y0011780D03*
Y0011220D03*
X0024750Y0012720D03*
Y0013280D03*
X0030000Y0006970D03*
Y0007530D03*
X0029250Y0008720D03*
Y0009280D03*
G54D12*
X0022000Y0012464D03*
Y0010535D03*
X0023500Y0012464D03*
Y0010535D03*
G54D13*
X0017250Y0010600D03*
Y0011900D03*
G54D14*
X0027850Y0007606D03*
Y0008394D03*
G54D15*
X0011750Y0008900D03*
Y0008100D03*
X0011000Y0008900D03*
Y0008100D03*
X0010250Y0008900D03*
Y0008100D03*
X0031250Y0012600D03*
Y0013400D03*
X0025500Y0012600D03*
Y0013400D03*
X0030500Y0012600D03*
Y0013400D03*
X0027250Y0012600D03*
Y0013400D03*
X0028000Y0012600D03*
Y0013400D03*
X0026500Y0012600D03*
Y0013400D03*
X0029500Y0012600D03*
Y0013400D03*
X0028750Y0012600D03*
Y0013400D03*
G54D16*
X0026864Y0003587D03*
Y0004425D03*
G54D17*
X0025238Y0004000D03*
G54D18*
X0037401Y0001968D03*
X0001968D03*
X0037401Y0013779D03*
X0001968D03*
G54D19*
X0016968Y0009242D03*
X0015984D03*
X0015000D03*
X0014016D03*
X0013031D03*
X0016968Y0008258D03*
X0015984D03*
X0015000D03*
X0014016D03*
X0017461Y0002992D03*
X0016476D03*
X0015492D03*
X0014508D03*
X0013524D03*
X0012539D03*
X0017461Y0002008D03*
X0016476D03*
X0015492D03*
X0014508D03*
X0013524D03*
X0008750Y0012159D03*
X0022476Y0002992D03*
X0021492D03*
X0020508D03*
X0019524D03*
X0022476Y0002008D03*
X0021492D03*
X0020508D03*
G54D20*
X0013524Y0007730D03*
X0015000Y0001480D03*
X0009522Y0010978D03*
Y0014522D03*
X0026250Y0001472D03*
X0021000Y0001480D03*
G54D21*
X0019000Y0014000D03*
X0012539Y0002008D03*
X0008750Y0013340D03*
X0019524Y0002008D03*
G54D22*
X0013903Y0013372D03*
X0016596D03*
X0019161Y0008372D03*
X0022838D03*
G54D23*
X0015742Y0014242D03*
X0014758D03*
X0015742Y0013258D03*
X0026742Y0002000D03*
X0021984Y0009242D03*
X0021000D03*
X0020016D03*
X0021000Y0008258D03*
X0021984D03*
G54D24*
X0014758Y0013258D03*
X0013031Y0008258D03*
X0025758Y0002000D03*
X0020016Y0008258D03*
G54D25*
X0005963Y0001250D03*
X0005175D03*
X0004388D03*
G54D26*
X0006750D03*
G54D27*
X0032750Y0001667D03*
X0030250D03*
G54D28*
X0032750Y0003833D03*
X0030250D03*
G54D29*
X0027596Y0002000D03*
X0024903D03*
G54D30*
X0032750Y0013500D03*
G54D31*
X0034250D03*
G54D32*
X0011106Y0011425D03*
X0011893Y0012213D03*
X0011106D03*
X0011893Y0013000D03*
X0011106D03*
X0011893Y0013787D03*
X0011106D03*
X0011893Y0014574D03*
X0011106D03*
G54D33*
X0011893Y0011425D03*
G54D34*
X0036750Y0005323D03*
Y0010677D03*
G54D35*
X0034766Y0008827D03*
X0036931Y0007173D03*
Y0008827D03*
G54D36*
X0034766Y0007173D03*
G54D37*
X0002250Y0009500D03*
G54D38*
X0005750Y0010500D03*
X0004750D03*
X0003750D03*
X0002750D03*
X0005250Y0009500D03*
X0004250D03*
X0003250D03*
G54D39*
X0001750Y0007000D03*
X0006250D03*
G54D40*
X0023633Y0014250D03*
X0021868Y0014249D03*
G54D41*
X0011300Y0004750D03*
X0012200Y0004350D03*
Y0005150D03*
X0013300Y0004750D03*
X0014200Y0004350D03*
Y0005150D03*
X0008300Y0003000D03*
X0009200Y0002600D03*
Y0003400D03*
X0008300Y0001250D03*
X0009200Y0000850D03*
Y0001650D03*
X0008300Y0004750D03*
X0009200Y0004350D03*
Y0005150D03*
X0008300Y0006500D03*
X0009200Y0006100D03*
Y0006900D03*
X0024800Y0007000D03*
X0025700Y0006600D03*
Y0007400D03*
X0022800Y0006500D03*
X0023700Y0006100D03*
Y0006900D03*
X0020800Y0005250D03*
X0021700Y0004850D03*
Y0005650D03*
G54D42*
X0026337Y0010000D03*
X0027163Y0009626D03*
Y0010374D03*
X0024587Y0010000D03*
X0025413Y0009626D03*
Y0010374D03*
X0026337Y0008500D03*
X0027163Y0008126D03*
Y0008874D03*
X0024587Y0008500D03*
X0025413Y0008126D03*
Y0008874D03*
G54D43*
X0017250Y0005660D03*
Y0004340D03*
X0016000D03*
Y0005660D03*
X0011000Y0003160D03*
Y0001840D03*
X0028250Y0010410D03*
Y0009090D03*
X0019750Y0004340D03*
Y0005660D03*
X0018500D03*
Y0004340D03*
G54D44*
X0004500Y0012380D03*
Y0014120D03*
X0006250Y0012380D03*
Y0014120D03*
G54D45*
X0030000Y0008250D03*
X0030256D03*
X0030512D03*
X0030768D03*
X0030000Y0009274D03*
X0030256D03*
X0030512D03*
X0030768D03*
G54D46*
X0019000Y0013000D03*
Y0012000D03*
G54D47*
X0008250Y0007898D03*
X0009250D03*
Y0010102D03*
X0008250D03*
G54D48*
X0029000Y0004500D03*
Y0004000D03*
X0031500Y0001000D03*
Y0001500D03*
Y0002000D03*
X0033000Y0002500D03*
X0032500D03*
X0032000D03*
X0031500D03*
X0031000D03*
X0030500D03*
X0030000D03*
X0029500D03*
X0029000D03*
Y0002000D03*
Y0001500D03*
Y0001000D03*
Y0000500D03*
X0029500D03*
X0030000D03*
X0030500D03*
X0031000D03*
X0031500D03*
X0032000D03*
X0032500D03*
X0033000D03*
X0033500Y0002500D03*
Y0002000D03*
Y0001000D03*
X0035500D03*
X0035000D03*
X0034500D03*
X0034000D03*
Y0003000D03*
X0034500D03*
X0035000D03*
X0035500D03*
X0036500Y0004000D03*
X0036000Y0005000D03*
X0035500D03*
X0035000Y0004500D03*
X0037000D03*
X0036500D03*
X0036000D03*
X0037500Y0008250D03*
Y0005750D03*
Y0005000D03*
Y0004500D03*
X0035500D03*
X0035000Y0003500D03*
Y0004000D03*
Y0001500D03*
X0034500D03*
Y0002000D03*
X0035000D03*
Y0002500D03*
X0037500Y0004000D03*
X0037000D03*
X0036000D03*
X0035500D03*
Y0003500D03*
Y0002000D03*
Y0001500D03*
Y0000500D03*
X0035000D03*
X0034500D03*
X0034000D03*
X0033500D03*
X0034000Y0001500D03*
Y0002000D03*
Y0002500D03*
X0034500D03*
Y0003500D03*
Y0004000D03*
Y0004500D03*
X0035000Y0005000D03*
X0035500Y0005500D03*
X0037500Y0006250D03*
X0037000D03*
X0036250D03*
X0037500Y0009250D03*
X0037000Y0008000D03*
X0037500Y0007750D03*
Y0006750D03*
X0036250D03*
Y0007750D03*
Y0008500D03*
Y0009250D03*
X0034500Y0005500D03*
X0032500D03*
X0035000Y0006250D03*
X0034500D03*
X0035500Y0007000D03*
X0034750Y0008000D03*
X0035500Y0007750D03*
Y0008500D03*
Y0009250D03*
X0031500Y0004250D03*
Y0003750D03*
X0033000Y0003000D03*
X0032500D03*
X0032000D03*
X0031500D03*
X0031000D03*
X0030500D03*
X0030000D03*
X0029500D03*
X0029000D03*
Y0003500D03*
X0029500Y0004750D03*
X0030000D03*
X0030500D03*
X0031000D03*
X0031500D03*
X0032000D03*
X0032500D03*
X0033500D03*
X0033000D03*
X0034000Y0005500D03*
X0033500D03*
X0033000D03*
X0034000Y0006250D03*
X0033500D03*
X0033000D03*
X0034000Y0009250D03*
Y0008500D03*
Y0007750D03*
Y0007000D03*
X0033500D03*
Y0007750D03*
Y0008500D03*
Y0009250D03*
X0031200Y0007050D03*
G54D52*
X0019750Y0005050D03*
X0022500Y0005200D03*
X0010000Y0003750D03*
X0010750Y0005300D03*
X0018500Y0006200D03*
X0026950Y0013850D03*
X0024400Y0011200D03*
X0016000Y0005000D03*
X0012200Y0003750D03*
X0027150Y0007700D03*
X0030750Y0010950D03*
X0025850Y0010500D03*
X0026850Y0012150D03*
X0025050Y0007650D03*
X0023200Y0007250D03*
X0014750Y0005750D03*
X0027600Y0010150D03*
X0029050Y0006250D03*
X0014170Y0010470D03*
X0012663Y0012213D03*
X0009650Y0004750D03*
X0027875Y0004425D03*
X0031250Y0009250D03*
X0030850Y0011750D03*
X0029100Y0006750D03*
Y0013000D03*
X0026600Y0007750D03*
X0026800Y0008500D03*
X0031850Y0012050D03*
Y0008900D03*
X0013780Y0006530D03*
X0008650Y0005950D03*
X0024350Y0006100D03*
X0023670Y0004220D03*
X0009650Y0008900D03*
X0031500Y0008500D03*
X0030100Y0008750D03*
X0028000Y0006500D03*
X0010750Y0004700D03*
X0010500Y0004000D03*
X0027250Y0010800D03*
X0027600Y0013800D03*
X0020800Y0006350D03*
X0016500Y0007650D03*
X0016050Y0006200D03*
X0023242Y0003692D03*
X0021492D03*
X0029100Y0013850D03*
X0030200Y0006250D03*
X0027600Y0009550D03*
X0012200Y0010450D03*
X0028350Y0010850D03*
Y0013800D03*
X0031000Y0014250D03*
X0035250D03*
X0011200Y0007550D03*
X0026000Y0014400D03*
X0016000Y0006650D03*
X0012250Y0006950D03*
X0011000Y0006250D03*
G54D60*
X0032100Y0012600D03*
X0036250Y0012000D03*
M02*
