%
T1C0.0079F200S100
X008650Y005950
X009650Y004750
X009650Y008900
X010000Y003750
X010500Y004000
X010750Y004700
X010750Y005300
X011000Y006250
X011200Y007550
X012200Y003750
X012200Y010450
X012250Y006950
X012663Y012213
X013780Y006530
X014170Y010470
X014750Y005750
X016000Y005000
X016000Y006650
X016050Y006200
X016500Y007650
X018500Y006200
X019750Y005050
X020800Y006350
X021492Y003692
X022500Y005200
X023200Y007250
X023242Y003692
X023670Y004220
X024350Y006100
X024400Y011200
X025050Y007650
X025850Y010500
X026000Y014400
X026600Y007750
X026800Y008500
X026850Y012150
X026950Y013850
X027150Y007700
X027250Y010800
X027600Y009550
X027600Y010150
X027600Y013800
X027875Y004425
X028000Y006500
X028350Y010850
X028350Y013800
X029000Y000500
X029000Y001000
X029000Y001500
X029000Y002000
X029000Y002500
X029000Y003000
X029000Y003500
X029000Y004000
X029000Y004500
X029050Y006250
X029100Y006750
X029100Y013000
X029100Y013850
X029500Y000500
X030000Y000500
X030000Y002500
X029500Y002500
X029500Y003000
X030000Y003000
X030000Y004750
X029500Y004750
X030100Y008750
X030200Y006250
X030500Y000500
X030500Y002500
X030500Y003000
X030500Y004750
X030750Y010950
X030850Y011750
X031000Y000500
X031000Y002500
X031000Y003000
X031000Y004750
X031000Y014250
X031200Y007050
X031250Y009250
X031500Y000500
X031500Y001000
X031500Y001500
X031500Y002000
X031500Y002500
X031500Y003000
X031500Y003750
X031500Y004250
X031500Y004750
X031500Y008500
X031850Y008900
X031850Y012050
X032000Y000500
X032000Y002500
X032000Y003000
X032000Y004750
X032100Y012600
X032500Y000500
X033000Y000500
X033000Y002500
X032500Y002500
X032500Y003000
X033000Y003000
X033000Y004750
X032500Y004750
X032500Y005500
X033000Y005500
X033000Y006250
X033500Y000500
X033500Y001000
X034000Y000500
X034000Y001000
X034000Y001500
X034000Y002000
X033500Y002000
X033500Y002500
X034000Y002500
X034000Y003000
X033500Y004750
X033500Y005500
X034000Y005500
X034000Y006250
X033500Y006250
X033500Y007000
X034000Y007000
X034000Y007750
X033500Y007750
X033500Y008500
X034000Y008500
X034000Y009250
X033500Y009250
X034500Y000500
X034500Y001000
X034500Y001500
X034500Y002000
X034500Y002500
X034500Y003000
X034500Y003500
X034500Y004000
X034500Y004500
X034500Y005500
X034500Y006250
X034750Y008000
X035000Y000500
X035000Y001000
X035000Y001500
X035000Y002000
X035000Y002500
X035000Y003000
X035000Y003500
X035000Y004000
X035000Y004500
X035000Y005000
X035000Y006250
X035250Y014250
X035500Y000500
X035500Y001000
X035500Y001500
X035500Y002000
X035500Y003000
X035500Y003500
X035500Y004000
X035500Y004500
X035500Y005000
X035500Y005500
X035500Y007000
X035500Y007750
X035500Y008500
X035500Y009250
X036000Y004000
X036000Y004500
X036000Y005000
X036250Y006250
X036250Y006750
X036250Y007750
X036250Y008500
X036250Y009250
X036250Y012000
X036500Y004000
X036500Y004500
X037000Y004000
X037000Y004500
X037500Y004000
X037500Y004500
X037500Y005000
X037500Y005750
X037500Y006250
X037000Y006250
X037500Y006750
X037500Y007750
X037500Y008250
X037000Y008000
X037500Y009250
T4C0.0472F200S100
X008750Y012159
X008750Y013340
X012539Y002008
X012539Y002992
X013031Y009242
X013524Y002008
X013524Y002992
X014016Y008258
X014016Y009242
X014508Y002008
X014508Y002992
X014758Y013258
X014758Y014242
X015000Y008258
X015000Y009242
X015492Y002008
X015492Y002992
X015742Y013258
X015742Y014242
X015984Y008258
X015984Y009242
X016476Y002008
X016476Y002992
X016968Y008258
X016968Y009242
X017461Y002008
X017461Y002992
X019000Y012000
X019000Y013000
X019000Y014000
X019524Y002008
X019524Y002992
X020016Y008258
X020016Y009242
X020508Y002008
X020508Y002992
X021000Y008258
X021000Y009242
X021492Y002008
X021492Y002992
X021984Y008258
X021984Y009242
X022476Y002008
X022476Y002992
X025758Y002000
X026742Y002000
X032750Y013500
X034250Y013500
T7C0.0630F200S100
X013031Y008258
X013903Y013372
X016596Y013372
X019161Y008372
X022838Y008372
X024903Y002000
X027596Y002000
T8C0.1181F200S100
X001968Y001968
X001968Y013779
X037401Y001968
X037401Y013779
T6C0.0551F200S100
X030250Y001667
X030250Y003833
X032750Y001667
X032750Y003833
X034766Y007173
X034766Y008827
X036931Y007173
X036931Y008827
T2C0.0315F200S100
X011106Y011425
X011893Y011425
X011893Y012213
X011106Y012213
X011106Y013000
X011893Y013000
X011893Y013787
X011106Y013787
X011106Y014574
X011893Y014574
T3C0.0354F200S100
X002250Y009500
X002750Y010500
X003250Y009500
X003750Y010500
X004250Y009500
X004388Y001250
X004750Y010500
X005175Y001250
X005250Y009500
X005750Y010500
X005963Y001250
X006750Y001250
M30
